<?xml version="1.0" encoding="utf-8" standalone="no"?>
<!DOCTYPE svg PUBLIC "-//W3C//DTD SVG 1.1//EN"
  "http://www.w3.org/Graphics/SVG/1.1/DTD/svg11.dtd">
<svg xmlns:xlink="http://www.w3.org/1999/xlink" width="1296pt" height="360pt" viewBox="0 0 1296 360" xmlns="http://www.w3.org/2000/svg" version="1.1">
 <metadata>
  <rdf:RDF xmlns:dc="http://purl.org/dc/elements/1.1/" xmlns:cc="http://creativecommons.org/ns#" xmlns:rdf="http://www.w3.org/1999/02/22-rdf-syntax-ns#">
   <cc:Work>
    <dc:type rdf:resource="http://purl.org/dc/dcmitype/StillImage"/>
    <dc:date>2025-11-07T11:51:07.993533</dc:date>
    <dc:format>image/svg+xml</dc:format>
    <dc:creator>
     <cc:Agent>
      <dc:title>Matplotlib v3.9.1, https://matplotlib.org/</dc:title>
     </cc:Agent>
    </dc:creator>
   </cc:Work>
  </rdf:RDF>
 </metadata>
 <defs>
  <style type="text/css">*{stroke-linejoin: round; stroke-linecap: butt}</style>
 </defs>
 <g id="figure_1">
  <g id="patch_1">
   <path d="M 0 360 
L 1296 360 
L 1296 0 
L 0 0 
z
" style="fill: #ffffff"/>
  </g>
  <g id="axes_1">
   <g id="patch_2">
    <path d="M 47.72 318.04 
L 428.4 318.04 
L 428.4 50.64 
L 47.72 50.64 
z
" style="fill: #ffffff"/>
   </g>
   <g id="matplotlib.axis_1">
    <g id="xtick_1">
     <g id="line2d_1">
      <path d="M 57.960928 318.04 
L 57.960928 50.64 
" clip-path="url(#p25e98c0b9d)" style="fill: none; stroke: #b0b0b0; stroke-width: 0.8; stroke-linecap: square"/>
     </g>
     <g id="line2d_2">
      <defs>
       <path id="m724c392b95" d="M 0 0 
L 0 3.5 
" style="stroke: #000000; stroke-width: 0.8"/>
      </defs>
      <g>
       <use xlink:href="#m724c392b95" x="57.960928" y="318.04" style="stroke: #000000; stroke-width: 0.8"/>
      </g>
     </g>
     <g id="text_1">
      <!-- 0 -->
      <g transform="translate(54.779678 332.638438) scale(0.1 -0.1)">
       <defs>
        <path id="DejaVuSans-30" d="M 2034 4250 
Q 1547 4250 1301 3770 
Q 1056 3291 1056 2328 
Q 1056 1369 1301 889 
Q 1547 409 2034 409 
Q 2525 409 2770 889 
Q 3016 1369 3016 2328 
Q 3016 3291 2770 3770 
Q 2525 4250 2034 4250 
z
M 2034 4750 
Q 2819 4750 3233 4129 
Q 3647 3509 3647 2328 
Q 3647 1150 3233 529 
Q 2819 -91 2034 -91 
Q 1250 -91 836 529 
Q 422 1150 422 2328 
Q 422 3509 836 4129 
Q 1250 4750 2034 4750 
z
" transform="scale(0.015625)"/>
       </defs>
       <use xlink:href="#DejaVuSans-30"/>
      </g>
     </g>
    </g>
    <g id="xtick_2">
     <g id="line2d_3">
      <path d="M 128.588015 318.04 
L 128.588015 50.64 
" clip-path="url(#p25e98c0b9d)" style="fill: none; stroke: #b0b0b0; stroke-width: 0.8; stroke-linecap: square"/>
     </g>
     <g id="line2d_4">
      <g>
       <use xlink:href="#m724c392b95" x="128.588015" y="318.04" style="stroke: #000000; stroke-width: 0.8"/>
      </g>
     </g>
     <g id="text_2">
      <!-- 10 -->
      <g transform="translate(122.225515 332.638438) scale(0.1 -0.1)">
       <defs>
        <path id="DejaVuSans-31" d="M 794 531 
L 1825 531 
L 1825 4091 
L 703 3866 
L 703 4441 
L 1819 4666 
L 2450 4666 
L 2450 531 
L 3481 531 
L 3481 0 
L 794 0 
L 794 531 
z
" transform="scale(0.015625)"/>
       </defs>
       <use xlink:href="#DejaVuSans-31"/>
       <use xlink:href="#DejaVuSans-30" x="63.623047"/>
      </g>
     </g>
    </g>
    <g id="xtick_3">
     <g id="line2d_5">
      <path d="M 199.215102 318.04 
L 199.215102 50.64 
" clip-path="url(#p25e98c0b9d)" style="fill: none; stroke: #b0b0b0; stroke-width: 0.8; stroke-linecap: square"/>
     </g>
     <g id="line2d_6">
      <g>
       <use xlink:href="#m724c392b95" x="199.215102" y="318.04" style="stroke: #000000; stroke-width: 0.8"/>
      </g>
     </g>
     <g id="text_3">
      <!-- 20 -->
      <g transform="translate(192.852602 332.638438) scale(0.1 -0.1)">
       <defs>
        <path id="DejaVuSans-32" d="M 1228 531 
L 3431 531 
L 3431 0 
L 469 0 
L 469 531 
Q 828 903 1448 1529 
Q 2069 2156 2228 2338 
Q 2531 2678 2651 2914 
Q 2772 3150 2772 3378 
Q 2772 3750 2511 3984 
Q 2250 4219 1831 4219 
Q 1534 4219 1204 4116 
Q 875 4013 500 3803 
L 500 4441 
Q 881 4594 1212 4672 
Q 1544 4750 1819 4750 
Q 2544 4750 2975 4387 
Q 3406 4025 3406 3419 
Q 3406 3131 3298 2873 
Q 3191 2616 2906 2266 
Q 2828 2175 2409 1742 
Q 1991 1309 1228 531 
z
" transform="scale(0.015625)"/>
       </defs>
       <use xlink:href="#DejaVuSans-32"/>
       <use xlink:href="#DejaVuSans-30" x="63.623047"/>
      </g>
     </g>
    </g>
    <g id="xtick_4">
     <g id="line2d_7">
      <path d="M 269.842189 318.04 
L 269.842189 50.64 
" clip-path="url(#p25e98c0b9d)" style="fill: none; stroke: #b0b0b0; stroke-width: 0.8; stroke-linecap: square"/>
     </g>
     <g id="line2d_8">
      <g>
       <use xlink:href="#m724c392b95" x="269.842189" y="318.04" style="stroke: #000000; stroke-width: 0.8"/>
      </g>
     </g>
     <g id="text_4">
      <!-- 30 -->
      <g transform="translate(263.479689 332.638438) scale(0.1 -0.1)">
       <defs>
        <path id="DejaVuSans-33" d="M 2597 2516 
Q 3050 2419 3304 2112 
Q 3559 1806 3559 1356 
Q 3559 666 3084 287 
Q 2609 -91 1734 -91 
Q 1441 -91 1130 -33 
Q 819 25 488 141 
L 488 750 
Q 750 597 1062 519 
Q 1375 441 1716 441 
Q 2309 441 2620 675 
Q 2931 909 2931 1356 
Q 2931 1769 2642 2001 
Q 2353 2234 1838 2234 
L 1294 2234 
L 1294 2753 
L 1863 2753 
Q 2328 2753 2575 2939 
Q 2822 3125 2822 3475 
Q 2822 3834 2567 4026 
Q 2313 4219 1838 4219 
Q 1578 4219 1281 4162 
Q 984 4106 628 3988 
L 628 4550 
Q 988 4650 1302 4700 
Q 1616 4750 1894 4750 
Q 2613 4750 3031 4423 
Q 3450 4097 3450 3541 
Q 3450 3153 3228 2886 
Q 3006 2619 2597 2516 
z
" transform="scale(0.015625)"/>
       </defs>
       <use xlink:href="#DejaVuSans-33"/>
       <use xlink:href="#DejaVuSans-30" x="63.623047"/>
      </g>
     </g>
    </g>
    <g id="xtick_5">
     <g id="line2d_9">
      <path d="M 340.469276 318.04 
L 340.469276 50.64 
" clip-path="url(#p25e98c0b9d)" style="fill: none; stroke: #b0b0b0; stroke-width: 0.8; stroke-linecap: square"/>
     </g>
     <g id="line2d_10">
      <g>
       <use xlink:href="#m724c392b95" x="340.469276" y="318.04" style="stroke: #000000; stroke-width: 0.8"/>
      </g>
     </g>
     <g id="text_5">
      <!-- 40 -->
      <g transform="translate(334.106776 332.638438) scale(0.1 -0.1)">
       <defs>
        <path id="DejaVuSans-34" d="M 2419 4116 
L 825 1625 
L 2419 1625 
L 2419 4116 
z
M 2253 4666 
L 3047 4666 
L 3047 1625 
L 3713 1625 
L 3713 1100 
L 3047 1100 
L 3047 0 
L 2419 0 
L 2419 1100 
L 313 1100 
L 313 1709 
L 2253 4666 
z
" transform="scale(0.015625)"/>
       </defs>
       <use xlink:href="#DejaVuSans-34"/>
       <use xlink:href="#DejaVuSans-30" x="63.623047"/>
      </g>
     </g>
    </g>
    <g id="xtick_6">
     <g id="line2d_11">
      <path d="M 411.096364 318.04 
L 411.096364 50.64 
" clip-path="url(#p25e98c0b9d)" style="fill: none; stroke: #b0b0b0; stroke-width: 0.8; stroke-linecap: square"/>
     </g>
     <g id="line2d_12">
      <g>
       <use xlink:href="#m724c392b95" x="411.096364" y="318.04" style="stroke: #000000; stroke-width: 0.8"/>
      </g>
     </g>
     <g id="text_6">
      <!-- 50 -->
      <g transform="translate(404.733864 332.638438) scale(0.1 -0.1)">
       <defs>
        <path id="DejaVuSans-35" d="M 691 4666 
L 3169 4666 
L 3169 4134 
L 1269 4134 
L 1269 2991 
Q 1406 3038 1543 3061 
Q 1681 3084 1819 3084 
Q 2600 3084 3056 2656 
Q 3513 2228 3513 1497 
Q 3513 744 3044 326 
Q 2575 -91 1722 -91 
Q 1428 -91 1123 -41 
Q 819 9 494 109 
L 494 744 
Q 775 591 1075 516 
Q 1375 441 1709 441 
Q 2250 441 2565 725 
Q 2881 1009 2881 1497 
Q 2881 1984 2565 2268 
Q 2250 2553 1709 2553 
Q 1456 2553 1204 2497 
Q 953 2441 691 2322 
L 691 4666 
z
" transform="scale(0.015625)"/>
       </defs>
       <use xlink:href="#DejaVuSans-35"/>
       <use xlink:href="#DejaVuSans-30" x="63.623047"/>
      </g>
     </g>
    </g>
    <g id="text_7">
     <!-- Epoch -->
     <g transform="translate(222.749062 346.316563) scale(0.1 -0.1)">
      <defs>
       <path id="DejaVuSans-45" d="M 628 4666 
L 3578 4666 
L 3578 4134 
L 1259 4134 
L 1259 2753 
L 3481 2753 
L 3481 2222 
L 1259 2222 
L 1259 531 
L 3634 531 
L 3634 0 
L 628 0 
L 628 4666 
z
" transform="scale(0.015625)"/>
       <path id="DejaVuSans-70" d="M 1159 525 
L 1159 -1331 
L 581 -1331 
L 581 3500 
L 1159 3500 
L 1159 2969 
Q 1341 3281 1617 3432 
Q 1894 3584 2278 3584 
Q 2916 3584 3314 3078 
Q 3713 2572 3713 1747 
Q 3713 922 3314 415 
Q 2916 -91 2278 -91 
Q 1894 -91 1617 61 
Q 1341 213 1159 525 
z
M 3116 1747 
Q 3116 2381 2855 2742 
Q 2594 3103 2138 3103 
Q 1681 3103 1420 2742 
Q 1159 2381 1159 1747 
Q 1159 1113 1420 752 
Q 1681 391 2138 391 
Q 2594 391 2855 752 
Q 3116 1113 3116 1747 
z
" transform="scale(0.015625)"/>
       <path id="DejaVuSans-6f" d="M 1959 3097 
Q 1497 3097 1228 2736 
Q 959 2375 959 1747 
Q 959 1119 1226 758 
Q 1494 397 1959 397 
Q 2419 397 2687 759 
Q 2956 1122 2956 1747 
Q 2956 2369 2687 2733 
Q 2419 3097 1959 3097 
z
M 1959 3584 
Q 2709 3584 3137 3096 
Q 3566 2609 3566 1747 
Q 3566 888 3137 398 
Q 2709 -91 1959 -91 
Q 1206 -91 779 398 
Q 353 888 353 1747 
Q 353 2609 779 3096 
Q 1206 3584 1959 3584 
z
" transform="scale(0.015625)"/>
       <path id="DejaVuSans-63" d="M 3122 3366 
L 3122 2828 
Q 2878 2963 2633 3030 
Q 2388 3097 2138 3097 
Q 1578 3097 1268 2742 
Q 959 2388 959 1747 
Q 959 1106 1268 751 
Q 1578 397 2138 397 
Q 2388 397 2633 464 
Q 2878 531 3122 666 
L 3122 134 
Q 2881 22 2623 -34 
Q 2366 -91 2075 -91 
Q 1284 -91 818 406 
Q 353 903 353 1747 
Q 353 2603 823 3093 
Q 1294 3584 2113 3584 
Q 2378 3584 2631 3529 
Q 2884 3475 3122 3366 
z
" transform="scale(0.015625)"/>
       <path id="DejaVuSans-68" d="M 3513 2113 
L 3513 0 
L 2938 0 
L 2938 2094 
Q 2938 2591 2744 2837 
Q 2550 3084 2163 3084 
Q 1697 3084 1428 2787 
Q 1159 2491 1159 1978 
L 1159 0 
L 581 0 
L 581 4863 
L 1159 4863 
L 1159 2956 
Q 1366 3272 1645 3428 
Q 1925 3584 2291 3584 
Q 2894 3584 3203 3211 
Q 3513 2838 3513 2113 
z
" transform="scale(0.015625)"/>
      </defs>
      <use xlink:href="#DejaVuSans-45"/>
      <use xlink:href="#DejaVuSans-70" x="63.183594"/>
      <use xlink:href="#DejaVuSans-6f" x="126.660156"/>
      <use xlink:href="#DejaVuSans-63" x="187.841797"/>
      <use xlink:href="#DejaVuSans-68" x="242.822266"/>
     </g>
    </g>
   </g>
   <g id="matplotlib.axis_2">
    <g id="ytick_1">
     <g id="line2d_13">
      <path d="M 47.72 305.991486 
L 428.4 305.991486 
" clip-path="url(#p25e98c0b9d)" style="fill: none; stroke: #b0b0b0; stroke-width: 0.8; stroke-linecap: square"/>
     </g>
     <g id="line2d_14">
      <defs>
       <path id="ma7e6a1e2ae" d="M 0 0 
L -3.5 0 
" style="stroke: #000000; stroke-width: 0.8"/>
      </defs>
      <g>
       <use xlink:href="#ma7e6a1e2ae" x="47.72" y="305.991486" style="stroke: #000000; stroke-width: 0.8"/>
      </g>
     </g>
     <g id="text_8">
      <!-- 0.0 -->
      <g transform="translate(24.816875 309.790705) scale(0.1 -0.1)">
       <defs>
        <path id="DejaVuSans-2e" d="M 684 794 
L 1344 794 
L 1344 0 
L 684 0 
L 684 794 
z
" transform="scale(0.015625)"/>
       </defs>
       <use xlink:href="#DejaVuSans-30"/>
       <use xlink:href="#DejaVuSans-2e" x="63.623047"/>
       <use xlink:href="#DejaVuSans-30" x="95.410156"/>
      </g>
     </g>
    </g>
    <g id="ytick_2">
     <g id="line2d_15">
      <path d="M 47.72 254.057451 
L 428.4 254.057451 
" clip-path="url(#p25e98c0b9d)" style="fill: none; stroke: #b0b0b0; stroke-width: 0.8; stroke-linecap: square"/>
     </g>
     <g id="line2d_16">
      <g>
       <use xlink:href="#ma7e6a1e2ae" x="47.72" y="254.057451" style="stroke: #000000; stroke-width: 0.8"/>
      </g>
     </g>
     <g id="text_9">
      <!-- 0.5 -->
      <g transform="translate(24.816875 257.856669) scale(0.1 -0.1)">
       <use xlink:href="#DejaVuSans-30"/>
       <use xlink:href="#DejaVuSans-2e" x="63.623047"/>
       <use xlink:href="#DejaVuSans-35" x="95.410156"/>
      </g>
     </g>
    </g>
    <g id="ytick_3">
     <g id="line2d_17">
      <path d="M 47.72 202.123415 
L 428.4 202.123415 
" clip-path="url(#p25e98c0b9d)" style="fill: none; stroke: #b0b0b0; stroke-width: 0.8; stroke-linecap: square"/>
     </g>
     <g id="line2d_18">
      <g>
       <use xlink:href="#ma7e6a1e2ae" x="47.72" y="202.123415" style="stroke: #000000; stroke-width: 0.8"/>
      </g>
     </g>
     <g id="text_10">
      <!-- 1.0 -->
      <g transform="translate(24.816875 205.922634) scale(0.1 -0.1)">
       <use xlink:href="#DejaVuSans-31"/>
       <use xlink:href="#DejaVuSans-2e" x="63.623047"/>
       <use xlink:href="#DejaVuSans-30" x="95.410156"/>
      </g>
     </g>
    </g>
    <g id="ytick_4">
     <g id="line2d_19">
      <path d="M 47.72 150.189379 
L 428.4 150.189379 
" clip-path="url(#p25e98c0b9d)" style="fill: none; stroke: #b0b0b0; stroke-width: 0.8; stroke-linecap: square"/>
     </g>
     <g id="line2d_20">
      <g>
       <use xlink:href="#ma7e6a1e2ae" x="47.72" y="150.189379" style="stroke: #000000; stroke-width: 0.8"/>
      </g>
     </g>
     <g id="text_11">
      <!-- 1.5 -->
      <g transform="translate(24.816875 153.988598) scale(0.1 -0.1)">
       <use xlink:href="#DejaVuSans-31"/>
       <use xlink:href="#DejaVuSans-2e" x="63.623047"/>
       <use xlink:href="#DejaVuSans-35" x="95.410156"/>
      </g>
     </g>
    </g>
    <g id="ytick_5">
     <g id="line2d_21">
      <path d="M 47.72 98.255343 
L 428.4 98.255343 
" clip-path="url(#p25e98c0b9d)" style="fill: none; stroke: #b0b0b0; stroke-width: 0.8; stroke-linecap: square"/>
     </g>
     <g id="line2d_22">
      <g>
       <use xlink:href="#ma7e6a1e2ae" x="47.72" y="98.255343" style="stroke: #000000; stroke-width: 0.8"/>
      </g>
     </g>
     <g id="text_12">
      <!-- 2.0 -->
      <g transform="translate(24.816875 102.054562) scale(0.1 -0.1)">
       <use xlink:href="#DejaVuSans-32"/>
       <use xlink:href="#DejaVuSans-2e" x="63.623047"/>
       <use xlink:href="#DejaVuSans-30" x="95.410156"/>
      </g>
     </g>
    </g>
    <g id="text_13">
     <!-- Training Loss -->
     <g transform="translate(18.737187 216.622031) rotate(-90) scale(0.1 -0.1)">
      <defs>
       <path id="DejaVuSans-54" d="M -19 4666 
L 3928 4666 
L 3928 4134 
L 2272 4134 
L 2272 0 
L 1638 0 
L 1638 4134 
L -19 4134 
L -19 4666 
z
" transform="scale(0.015625)"/>
       <path id="DejaVuSans-72" d="M 2631 2963 
Q 2534 3019 2420 3045 
Q 2306 3072 2169 3072 
Q 1681 3072 1420 2755 
Q 1159 2438 1159 1844 
L 1159 0 
L 581 0 
L 581 3500 
L 1159 3500 
L 1159 2956 
Q 1341 3275 1631 3429 
Q 1922 3584 2338 3584 
Q 2397 3584 2469 3576 
Q 2541 3569 2628 3553 
L 2631 2963 
z
" transform="scale(0.015625)"/>
       <path id="DejaVuSans-61" d="M 2194 1759 
Q 1497 1759 1228 1600 
Q 959 1441 959 1056 
Q 959 750 1161 570 
Q 1363 391 1709 391 
Q 2188 391 2477 730 
Q 2766 1069 2766 1631 
L 2766 1759 
L 2194 1759 
z
M 3341 1997 
L 3341 0 
L 2766 0 
L 2766 531 
Q 2569 213 2275 61 
Q 1981 -91 1556 -91 
Q 1019 -91 701 211 
Q 384 513 384 1019 
Q 384 1609 779 1909 
Q 1175 2209 1959 2209 
L 2766 2209 
L 2766 2266 
Q 2766 2663 2505 2880 
Q 2244 3097 1772 3097 
Q 1472 3097 1187 3025 
Q 903 2953 641 2809 
L 641 3341 
Q 956 3463 1253 3523 
Q 1550 3584 1831 3584 
Q 2591 3584 2966 3190 
Q 3341 2797 3341 1997 
z
" transform="scale(0.015625)"/>
       <path id="DejaVuSans-69" d="M 603 3500 
L 1178 3500 
L 1178 0 
L 603 0 
L 603 3500 
z
M 603 4863 
L 1178 4863 
L 1178 4134 
L 603 4134 
L 603 4863 
z
" transform="scale(0.015625)"/>
       <path id="DejaVuSans-6e" d="M 3513 2113 
L 3513 0 
L 2938 0 
L 2938 2094 
Q 2938 2591 2744 2837 
Q 2550 3084 2163 3084 
Q 1697 3084 1428 2787 
Q 1159 2491 1159 1978 
L 1159 0 
L 581 0 
L 581 3500 
L 1159 3500 
L 1159 2956 
Q 1366 3272 1645 3428 
Q 1925 3584 2291 3584 
Q 2894 3584 3203 3211 
Q 3513 2838 3513 2113 
z
" transform="scale(0.015625)"/>
       <path id="DejaVuSans-67" d="M 2906 1791 
Q 2906 2416 2648 2759 
Q 2391 3103 1925 3103 
Q 1463 3103 1205 2759 
Q 947 2416 947 1791 
Q 947 1169 1205 825 
Q 1463 481 1925 481 
Q 2391 481 2648 825 
Q 2906 1169 2906 1791 
z
M 3481 434 
Q 3481 -459 3084 -895 
Q 2688 -1331 1869 -1331 
Q 1566 -1331 1297 -1286 
Q 1028 -1241 775 -1147 
L 775 -588 
Q 1028 -725 1275 -790 
Q 1522 -856 1778 -856 
Q 2344 -856 2625 -561 
Q 2906 -266 2906 331 
L 2906 616 
Q 2728 306 2450 153 
Q 2172 0 1784 0 
Q 1141 0 747 490 
Q 353 981 353 1791 
Q 353 2603 747 3093 
Q 1141 3584 1784 3584 
Q 2172 3584 2450 3431 
Q 2728 3278 2906 2969 
L 2906 3500 
L 3481 3500 
L 3481 434 
z
" transform="scale(0.015625)"/>
       <path id="DejaVuSans-20" transform="scale(0.015625)"/>
       <path id="DejaVuSans-4c" d="M 628 4666 
L 1259 4666 
L 1259 531 
L 3531 531 
L 3531 0 
L 628 0 
L 628 4666 
z
" transform="scale(0.015625)"/>
       <path id="DejaVuSans-73" d="M 2834 3397 
L 2834 2853 
Q 2591 2978 2328 3040 
Q 2066 3103 1784 3103 
Q 1356 3103 1142 2972 
Q 928 2841 928 2578 
Q 928 2378 1081 2264 
Q 1234 2150 1697 2047 
L 1894 2003 
Q 2506 1872 2764 1633 
Q 3022 1394 3022 966 
Q 3022 478 2636 193 
Q 2250 -91 1575 -91 
Q 1294 -91 989 -36 
Q 684 19 347 128 
L 347 722 
Q 666 556 975 473 
Q 1284 391 1588 391 
Q 1994 391 2212 530 
Q 2431 669 2431 922 
Q 2431 1156 2273 1281 
Q 2116 1406 1581 1522 
L 1381 1569 
Q 847 1681 609 1914 
Q 372 2147 372 2553 
Q 372 3047 722 3315 
Q 1072 3584 1716 3584 
Q 2034 3584 2315 3537 
Q 2597 3491 2834 3397 
z
" transform="scale(0.015625)"/>
      </defs>
      <use xlink:href="#DejaVuSans-54"/>
      <use xlink:href="#DejaVuSans-72" x="46.333984"/>
      <use xlink:href="#DejaVuSans-61" x="87.447266"/>
      <use xlink:href="#DejaVuSans-69" x="148.726562"/>
      <use xlink:href="#DejaVuSans-6e" x="176.509766"/>
      <use xlink:href="#DejaVuSans-69" x="239.888672"/>
      <use xlink:href="#DejaVuSans-6e" x="267.671875"/>
      <use xlink:href="#DejaVuSans-67" x="331.050781"/>
      <use xlink:href="#DejaVuSans-20" x="394.527344"/>
      <use xlink:href="#DejaVuSans-4c" x="426.314453"/>
      <use xlink:href="#DejaVuSans-6f" x="480.277344"/>
      <use xlink:href="#DejaVuSans-73" x="541.458984"/>
      <use xlink:href="#DejaVuSans-73" x="593.558594"/>
     </g>
    </g>
    <g id="text_14">
     <!-- 1e−8 -->
     <g transform="translate(47.72 47.64) scale(0.1 -0.1)">
      <defs>
       <path id="DejaVuSans-65" d="M 3597 1894 
L 3597 1613 
L 953 1613 
Q 991 1019 1311 708 
Q 1631 397 2203 397 
Q 2534 397 2845 478 
Q 3156 559 3463 722 
L 3463 178 
Q 3153 47 2828 -22 
Q 2503 -91 2169 -91 
Q 1331 -91 842 396 
Q 353 884 353 1716 
Q 353 2575 817 3079 
Q 1281 3584 2069 3584 
Q 2775 3584 3186 3129 
Q 3597 2675 3597 1894 
z
M 3022 2063 
Q 3016 2534 2758 2815 
Q 2500 3097 2075 3097 
Q 1594 3097 1305 2825 
Q 1016 2553 972 2059 
L 3022 2063 
z
" transform="scale(0.015625)"/>
       <path id="DejaVuSans-2212" d="M 678 2272 
L 4684 2272 
L 4684 1741 
L 678 1741 
L 678 2272 
z
" transform="scale(0.015625)"/>
       <path id="DejaVuSans-38" d="M 2034 2216 
Q 1584 2216 1326 1975 
Q 1069 1734 1069 1313 
Q 1069 891 1326 650 
Q 1584 409 2034 409 
Q 2484 409 2743 651 
Q 3003 894 3003 1313 
Q 3003 1734 2745 1975 
Q 2488 2216 2034 2216 
z
M 1403 2484 
Q 997 2584 770 2862 
Q 544 3141 544 3541 
Q 544 4100 942 4425 
Q 1341 4750 2034 4750 
Q 2731 4750 3128 4425 
Q 3525 4100 3525 3541 
Q 3525 3141 3298 2862 
Q 3072 2584 2669 2484 
Q 3125 2378 3379 2068 
Q 3634 1759 3634 1313 
Q 3634 634 3220 271 
Q 2806 -91 2034 -91 
Q 1263 -91 848 271 
Q 434 634 434 1313 
Q 434 1759 690 2068 
Q 947 2378 1403 2484 
z
M 1172 3481 
Q 1172 3119 1398 2916 
Q 1625 2713 2034 2713 
Q 2441 2713 2670 2916 
Q 2900 3119 2900 3481 
Q 2900 3844 2670 4047 
Q 2441 4250 2034 4250 
Q 1625 4250 1398 4047 
Q 1172 3844 1172 3481 
z
" transform="scale(0.015625)"/>
      </defs>
      <use xlink:href="#DejaVuSans-31"/>
      <use xlink:href="#DejaVuSans-65" x="63.623047"/>
      <use xlink:href="#DejaVuSans-2212" x="125.146484"/>
      <use xlink:href="#DejaVuSans-38" x="208.935547"/>
     </g>
    </g>
   </g>
   <g id="line2d_23">
    <path d="M 65.023636 191.659852 
L 72.086345 215.030297 
L 79.149054 214.396725 
L 86.211763 220.449384 
L 93.274471 221.645238 
L 100.33718 224.420983 
L 107.399889 227.562042 
L 114.462597 231.23996 
L 121.525306 238.919814 
L 128.588015 239.236757 
L 135.650724 248.854682 
L 142.713432 255.317063 
L 149.776141 268.141268 
L 156.83885 268.903324 
L 163.901558 279.515899 
L 170.964267 272.250592 
L 178.026976 285.152051 
L 185.089685 281.533453 
L 192.152393 287.693477 
L 199.215102 289.239422 
L 206.277811 292.635126 
L 213.340519 291.969191 
L 220.403228 296.661362 
L 227.465937 286.328008 
L 234.528646 298.612409 
L 241.591354 291.889957 
L 248.654063 284.770378 
L 255.716772 294.458795 
L 262.779481 292.779957 
L 269.842189 298.023303 
L 276.904898 296.361898 
L 283.967607 294.642034 
L 291.030315 272.835099 
L 298.093024 289.729925 
L 305.155733 298.295372 
L 312.218442 302.012728 
L 319.28115 303.496914 
L 326.343859 301.380252 
L 333.406568 304.918003 
L 340.469276 297.831764 
L 347.531985 302.790168 
L 354.594694 305.03072 
L 361.657403 304.620497 
L 368.720111 304.428545 
L 375.78282 305.020197 
L 382.845529 305.618595 
L 389.908237 305.821341 
L 396.970946 305.859529 
L 404.033655 305.874015 
L 411.096364 305.885455 
" clip-path="url(#p25e98c0b9d)" style="fill: none; stroke: #1f77b4; stroke-width: 1.5; stroke-linecap: square"/>
   </g>
   <g id="line2d_24">
    <path d="M 65.023636 175.713697 
L 72.086345 207.624447 
L 79.149054 213.52181 
L 86.211763 217.165605 
L 93.274471 218.534216 
L 100.33718 220.851814 
L 107.399889 222.440098 
L 114.462597 222.881694 
L 121.525306 224.643624 
L 128.588015 226.065375 
L 135.650724 227.078213 
L 142.713432 226.834587 
L 149.776141 227.890477 
L 156.83885 228.420622 
L 163.901558 229.087267 
L 170.964267 229.720372 
L 178.026976 230.769892 
L 185.089685 230.640604 
L 192.152393 231.003886 
L 199.215102 231.851832 
L 206.277811 232.248954 
L 213.340519 232.067493 
L 220.403228 233.299461 
L 227.465937 234.435646 
L 234.528646 233.68588 
L 241.591354 234.571632 
L 248.654063 234.91758 
L 255.716772 234.870132 
L 262.779481 235.96913 
L 269.842189 236.131971 
L 276.904898 237.513701 
L 283.967607 236.183697 
L 291.030315 237.827267 
L 298.093024 238.237781 
L 305.155733 238.285094 
L 312.218442 238.573545 
L 319.28115 239.435621 
L 326.343859 239.262587 
L 333.406568 239.744794 
L 340.469276 240.987636 
L 347.531985 241.40713 
L 354.594694 240.826622 
L 361.657403 241.560445 
L 368.720111 242.711712 
L 375.78282 243.040106 
L 382.845529 243.527416 
L 389.908237 243.896816 
L 396.970946 245.623433 
L 404.033655 246.027019 
L 411.096364 246.020187 
" clip-path="url(#p25e98c0b9d)" style="fill: none; stroke: #ff7f0e; stroke-width: 1.5; stroke-linecap: square"/>
   </g>
   <g id="line2d_25">
    <path d="M 65.023636 62.794545 
L 72.086345 154.646126 
L 79.149054 150.416047 
L 86.211763 182.833228 
L 93.274471 179.425495 
L 100.33718 164.654039 
L 107.399889 188.476051 
L 114.462597 196.485964 
L 121.525306 191.950103 
L 128.588015 195.82202 
L 135.650724 210.310805 
L 142.713432 195.628574 
L 149.776141 206.0674 
L 156.83885 215.11061 
L 163.901558 198.341468 
L 170.964267 207.009106 
L 178.026976 207.298691 
L 185.089685 208.485177 
L 192.152393 197.822594 
L 199.215102 188.471276 
L 206.277811 192.059263 
L 213.340519 199.530351 
L 220.403228 212.860509 
L 227.465937 177.871552 
L 234.528646 200.423998 
L 241.591354 220.387097 
L 248.654063 216.840989 
L 255.716772 163.760161 
L 262.779481 206.68006 
L 269.842189 226.143853 
L 276.904898 197.996272 
L 283.967607 223.416481 
L 291.030315 201.522216 
L 298.093024 206.738132 
L 305.155733 213.472638 
L 312.218442 229.23679 
L 319.28115 225.911685 
L 326.343859 213.193424 
L 333.406568 192.499146 
L 340.469276 227.960103 
L 347.531985 197.083592 
L 354.594694 204.372956 
L 361.657403 191.398005 
L 368.720111 251.905284 
L 375.78282 214.439109 
L 382.845529 224.537748 
L 389.908237 233.526108 
L 396.970946 195.794118 
L 404.033655 212.02944 
L 411.096364 138.492875 
" clip-path="url(#p25e98c0b9d)" style="fill: none; stroke: #2ca02c; stroke-width: 1.5; stroke-linecap: square"/>
   </g>
   <g id="patch_3">
    <path d="M 47.72 318.04 
L 47.72 50.64 
" style="fill: none; stroke: #000000; stroke-width: 0.8; stroke-linejoin: miter; stroke-linecap: square"/>
   </g>
   <g id="patch_4">
    <path d="M 428.4 318.04 
L 428.4 50.64 
" style="fill: none; stroke: #000000; stroke-width: 0.8; stroke-linejoin: miter; stroke-linecap: square"/>
   </g>
   <g id="patch_5">
    <path d="M 47.72 318.04 
L 428.4 318.04 
" style="fill: none; stroke: #000000; stroke-width: 0.8; stroke-linejoin: miter; stroke-linecap: square"/>
   </g>
   <g id="patch_6">
    <path d="M 47.72 50.64 
L 428.4 50.64 
" style="fill: none; stroke: #000000; stroke-width: 0.8; stroke-linejoin: miter; stroke-linecap: square"/>
   </g>
   <g id="text_15">
    <!-- Training Loss -->
    <g transform="translate(199.321562 44.64) scale(0.12 -0.12)">
     <use xlink:href="#DejaVuSans-54"/>
     <use xlink:href="#DejaVuSans-72" x="46.333984"/>
     <use xlink:href="#DejaVuSans-61" x="87.447266"/>
     <use xlink:href="#DejaVuSans-69" x="148.726562"/>
     <use xlink:href="#DejaVuSans-6e" x="176.509766"/>
     <use xlink:href="#DejaVuSans-69" x="239.888672"/>
     <use xlink:href="#DejaVuSans-6e" x="267.671875"/>
     <use xlink:href="#DejaVuSans-67" x="331.050781"/>
     <use xlink:href="#DejaVuSans-20" x="394.527344"/>
     <use xlink:href="#DejaVuSans-4c" x="426.314453"/>
     <use xlink:href="#DejaVuSans-6f" x="480.277344"/>
     <use xlink:href="#DejaVuSans-73" x="541.458984"/>
     <use xlink:href="#DejaVuSans-73" x="593.558594"/>
    </g>
   </g>
   <g id="legend_1">
    <g id="patch_7">
     <path d="M 310.034375 102.674375 
L 421.4 102.674375 
Q 423.4 102.674375 423.4 100.674375 
L 423.4 57.64 
Q 423.4 55.64 421.4 55.64 
L 310.034375 55.64 
Q 308.034375 55.64 308.034375 57.64 
L 308.034375 100.674375 
Q 308.034375 102.674375 310.034375 102.674375 
z
" style="fill: #ffffff; opacity: 0.8; stroke: #cccccc; stroke-linejoin: miter"/>
    </g>
    <g id="line2d_26">
     <path d="M 312.034375 63.738437 
L 322.034375 63.738437 
L 332.034375 63.738437 
" style="fill: none; stroke: #1f77b4; stroke-width: 1.5; stroke-linecap: square"/>
    </g>
    <g id="text_16">
     <!-- 49wa4 (0.0005) -->
     <g transform="translate(340.034375 67.238437) scale(0.1 -0.1)">
      <defs>
       <path id="DejaVuSans-39" d="M 703 97 
L 703 672 
Q 941 559 1184 500 
Q 1428 441 1663 441 
Q 2288 441 2617 861 
Q 2947 1281 2994 2138 
Q 2813 1869 2534 1725 
Q 2256 1581 1919 1581 
Q 1219 1581 811 2004 
Q 403 2428 403 3163 
Q 403 3881 828 4315 
Q 1253 4750 1959 4750 
Q 2769 4750 3195 4129 
Q 3622 3509 3622 2328 
Q 3622 1225 3098 567 
Q 2575 -91 1691 -91 
Q 1453 -91 1209 -44 
Q 966 3 703 97 
z
M 1959 2075 
Q 2384 2075 2632 2365 
Q 2881 2656 2881 3163 
Q 2881 3666 2632 3958 
Q 2384 4250 1959 4250 
Q 1534 4250 1286 3958 
Q 1038 3666 1038 3163 
Q 1038 2656 1286 2365 
Q 1534 2075 1959 2075 
z
" transform="scale(0.015625)"/>
       <path id="DejaVuSans-77" d="M 269 3500 
L 844 3500 
L 1563 769 
L 2278 3500 
L 2956 3500 
L 3675 769 
L 4391 3500 
L 4966 3500 
L 4050 0 
L 3372 0 
L 2619 2869 
L 1863 0 
L 1184 0 
L 269 3500 
z
" transform="scale(0.015625)"/>
       <path id="DejaVuSans-28" d="M 1984 4856 
Q 1566 4138 1362 3434 
Q 1159 2731 1159 2009 
Q 1159 1288 1364 580 
Q 1569 -128 1984 -844 
L 1484 -844 
Q 1016 -109 783 600 
Q 550 1309 550 2009 
Q 550 2706 781 3412 
Q 1013 4119 1484 4856 
L 1984 4856 
z
" transform="scale(0.015625)"/>
       <path id="DejaVuSans-29" d="M 513 4856 
L 1013 4856 
Q 1481 4119 1714 3412 
Q 1947 2706 1947 2009 
Q 1947 1309 1714 600 
Q 1481 -109 1013 -844 
L 513 -844 
Q 928 -128 1133 580 
Q 1338 1288 1338 2009 
Q 1338 2731 1133 3434 
Q 928 4138 513 4856 
z
" transform="scale(0.015625)"/>
      </defs>
      <use xlink:href="#DejaVuSans-34"/>
      <use xlink:href="#DejaVuSans-39" x="63.623047"/>
      <use xlink:href="#DejaVuSans-77" x="127.246094"/>
      <use xlink:href="#DejaVuSans-61" x="209.033203"/>
      <use xlink:href="#DejaVuSans-34" x="270.3125"/>
      <use xlink:href="#DejaVuSans-20" x="333.935547"/>
      <use xlink:href="#DejaVuSans-28" x="365.722656"/>
      <use xlink:href="#DejaVuSans-30" x="404.736328"/>
      <use xlink:href="#DejaVuSans-2e" x="468.359375"/>
      <use xlink:href="#DejaVuSans-30" x="500.146484"/>
      <use xlink:href="#DejaVuSans-30" x="563.769531"/>
      <use xlink:href="#DejaVuSans-30" x="627.392578"/>
      <use xlink:href="#DejaVuSans-35" x="691.015625"/>
      <use xlink:href="#DejaVuSans-29" x="754.638672"/>
     </g>
    </g>
    <g id="line2d_27">
     <path d="M 312.034375 78.416562 
L 322.034375 78.416562 
L 332.034375 78.416562 
" style="fill: none; stroke: #ff7f0e; stroke-width: 1.5; stroke-linecap: square"/>
    </g>
    <g id="text_17">
     <!-- 8ic79 (5e-05) -->
     <g transform="translate(340.034375 81.916562) scale(0.1 -0.1)">
      <defs>
       <path id="DejaVuSans-37" d="M 525 4666 
L 3525 4666 
L 3525 4397 
L 1831 0 
L 1172 0 
L 2766 4134 
L 525 4134 
L 525 4666 
z
" transform="scale(0.015625)"/>
       <path id="DejaVuSans-2d" d="M 313 2009 
L 1997 2009 
L 1997 1497 
L 313 1497 
L 313 2009 
z
" transform="scale(0.015625)"/>
      </defs>
      <use xlink:href="#DejaVuSans-38"/>
      <use xlink:href="#DejaVuSans-69" x="63.623047"/>
      <use xlink:href="#DejaVuSans-63" x="91.40625"/>
      <use xlink:href="#DejaVuSans-37" x="146.386719"/>
      <use xlink:href="#DejaVuSans-39" x="210.009766"/>
      <use xlink:href="#DejaVuSans-20" x="273.632812"/>
      <use xlink:href="#DejaVuSans-28" x="305.419922"/>
      <use xlink:href="#DejaVuSans-35" x="344.433594"/>
      <use xlink:href="#DejaVuSans-65" x="408.056641"/>
      <use xlink:href="#DejaVuSans-2d" x="469.580078"/>
      <use xlink:href="#DejaVuSans-30" x="505.664062"/>
      <use xlink:href="#DejaVuSans-35" x="569.287109"/>
      <use xlink:href="#DejaVuSans-29" x="632.910156"/>
     </g>
    </g>
    <g id="line2d_28">
     <path d="M 312.034375 93.094687 
L 322.034375 93.094687 
L 332.034375 93.094687 
" style="fill: none; stroke: #2ca02c; stroke-width: 1.5; stroke-linecap: square"/>
    </g>
    <g id="text_18">
     <!-- k23x7 (0.005) -->
     <g transform="translate(340.034375 96.594687) scale(0.1 -0.1)">
      <defs>
       <path id="DejaVuSans-6b" d="M 581 4863 
L 1159 4863 
L 1159 1991 
L 2875 3500 
L 3609 3500 
L 1753 1863 
L 3688 0 
L 2938 0 
L 1159 1709 
L 1159 0 
L 581 0 
L 581 4863 
z
" transform="scale(0.015625)"/>
       <path id="DejaVuSans-78" d="M 3513 3500 
L 2247 1797 
L 3578 0 
L 2900 0 
L 1881 1375 
L 863 0 
L 184 0 
L 1544 1831 
L 300 3500 
L 978 3500 
L 1906 2253 
L 2834 3500 
L 3513 3500 
z
" transform="scale(0.015625)"/>
      </defs>
      <use xlink:href="#DejaVuSans-6b"/>
      <use xlink:href="#DejaVuSans-32" x="57.910156"/>
      <use xlink:href="#DejaVuSans-33" x="121.533203"/>
      <use xlink:href="#DejaVuSans-78" x="185.15625"/>
      <use xlink:href="#DejaVuSans-37" x="244.335938"/>
      <use xlink:href="#DejaVuSans-20" x="307.958984"/>
      <use xlink:href="#DejaVuSans-28" x="339.746094"/>
      <use xlink:href="#DejaVuSans-30" x="378.759766"/>
      <use xlink:href="#DejaVuSans-2e" x="442.382812"/>
      <use xlink:href="#DejaVuSans-30" x="474.169922"/>
      <use xlink:href="#DejaVuSans-30" x="537.792969"/>
      <use xlink:href="#DejaVuSans-35" x="601.416016"/>
      <use xlink:href="#DejaVuSans-29" x="665.039062"/>
     </g>
    </g>
   </g>
  </g>
  <g id="axes_2">
   <g id="patch_8">
    <path d="M 476.12 318.04 
L 856.8 318.04 
L 856.8 50.64 
L 476.12 50.64 
z
" style="fill: #ffffff"/>
   </g>
   <g id="matplotlib.axis_3">
    <g id="xtick_7">
     <g id="line2d_29">
      <path d="M 486.360928 318.04 
L 486.360928 50.64 
" clip-path="url(#pca6a1ee543)" style="fill: none; stroke: #b0b0b0; stroke-width: 0.8; stroke-linecap: square"/>
     </g>
     <g id="line2d_30">
      <g>
       <use xlink:href="#m724c392b95" x="486.360928" y="318.04" style="stroke: #000000; stroke-width: 0.8"/>
      </g>
     </g>
     <g id="text_19">
      <!-- 0 -->
      <g transform="translate(483.179678 332.638438) scale(0.1 -0.1)">
       <use xlink:href="#DejaVuSans-30"/>
      </g>
     </g>
    </g>
    <g id="xtick_8">
     <g id="line2d_31">
      <path d="M 556.988015 318.04 
L 556.988015 50.64 
" clip-path="url(#pca6a1ee543)" style="fill: none; stroke: #b0b0b0; stroke-width: 0.8; stroke-linecap: square"/>
     </g>
     <g id="line2d_32">
      <g>
       <use xlink:href="#m724c392b95" x="556.988015" y="318.04" style="stroke: #000000; stroke-width: 0.8"/>
      </g>
     </g>
     <g id="text_20">
      <!-- 10 -->
      <g transform="translate(550.625515 332.638438) scale(0.1 -0.1)">
       <use xlink:href="#DejaVuSans-31"/>
       <use xlink:href="#DejaVuSans-30" x="63.623047"/>
      </g>
     </g>
    </g>
    <g id="xtick_9">
     <g id="line2d_33">
      <path d="M 627.615102 318.04 
L 627.615102 50.64 
" clip-path="url(#pca6a1ee543)" style="fill: none; stroke: #b0b0b0; stroke-width: 0.8; stroke-linecap: square"/>
     </g>
     <g id="line2d_34">
      <g>
       <use xlink:href="#m724c392b95" x="627.615102" y="318.04" style="stroke: #000000; stroke-width: 0.8"/>
      </g>
     </g>
     <g id="text_21">
      <!-- 20 -->
      <g transform="translate(621.252602 332.638438) scale(0.1 -0.1)">
       <use xlink:href="#DejaVuSans-32"/>
       <use xlink:href="#DejaVuSans-30" x="63.623047"/>
      </g>
     </g>
    </g>
    <g id="xtick_10">
     <g id="line2d_35">
      <path d="M 698.242189 318.04 
L 698.242189 50.64 
" clip-path="url(#pca6a1ee543)" style="fill: none; stroke: #b0b0b0; stroke-width: 0.8; stroke-linecap: square"/>
     </g>
     <g id="line2d_36">
      <g>
       <use xlink:href="#m724c392b95" x="698.242189" y="318.04" style="stroke: #000000; stroke-width: 0.8"/>
      </g>
     </g>
     <g id="text_22">
      <!-- 30 -->
      <g transform="translate(691.879689 332.638438) scale(0.1 -0.1)">
       <use xlink:href="#DejaVuSans-33"/>
       <use xlink:href="#DejaVuSans-30" x="63.623047"/>
      </g>
     </g>
    </g>
    <g id="xtick_11">
     <g id="line2d_37">
      <path d="M 768.869276 318.04 
L 768.869276 50.64 
" clip-path="url(#pca6a1ee543)" style="fill: none; stroke: #b0b0b0; stroke-width: 0.8; stroke-linecap: square"/>
     </g>
     <g id="line2d_38">
      <g>
       <use xlink:href="#m724c392b95" x="768.869276" y="318.04" style="stroke: #000000; stroke-width: 0.8"/>
      </g>
     </g>
     <g id="text_23">
      <!-- 40 -->
      <g transform="translate(762.506776 332.638438) scale(0.1 -0.1)">
       <use xlink:href="#DejaVuSans-34"/>
       <use xlink:href="#DejaVuSans-30" x="63.623047"/>
      </g>
     </g>
    </g>
    <g id="xtick_12">
     <g id="line2d_39">
      <path d="M 839.496364 318.04 
L 839.496364 50.64 
" clip-path="url(#pca6a1ee543)" style="fill: none; stroke: #b0b0b0; stroke-width: 0.8; stroke-linecap: square"/>
     </g>
     <g id="line2d_40">
      <g>
       <use xlink:href="#m724c392b95" x="839.496364" y="318.04" style="stroke: #000000; stroke-width: 0.8"/>
      </g>
     </g>
     <g id="text_24">
      <!-- 50 -->
      <g transform="translate(833.133864 332.638438) scale(0.1 -0.1)">
       <use xlink:href="#DejaVuSans-35"/>
       <use xlink:href="#DejaVuSans-30" x="63.623047"/>
      </g>
     </g>
    </g>
    <g id="text_25">
     <!-- Epoch -->
     <g transform="translate(651.149063 346.316563) scale(0.1 -0.1)">
      <use xlink:href="#DejaVuSans-45"/>
      <use xlink:href="#DejaVuSans-70" x="63.183594"/>
      <use xlink:href="#DejaVuSans-6f" x="126.660156"/>
      <use xlink:href="#DejaVuSans-63" x="187.841797"/>
      <use xlink:href="#DejaVuSans-68" x="242.822266"/>
     </g>
    </g>
   </g>
   <g id="matplotlib.axis_4">
    <g id="ytick_6">
     <g id="line2d_41">
      <path d="M 476.12 290.261727 
L 856.8 290.261727 
" clip-path="url(#pca6a1ee543)" style="fill: none; stroke: #b0b0b0; stroke-width: 0.8; stroke-linecap: square"/>
     </g>
     <g id="line2d_42">
      <g>
       <use xlink:href="#ma7e6a1e2ae" x="476.12" y="290.261727" style="stroke: #000000; stroke-width: 0.8"/>
      </g>
     </g>
     <g id="text_26">
      <!-- 1 -->
      <g transform="translate(462.7575 294.060945) scale(0.1 -0.1)">
       <use xlink:href="#DejaVuSans-31"/>
      </g>
     </g>
    </g>
    <g id="ytick_7">
     <g id="line2d_43">
      <path d="M 476.12 250.84781 
L 856.8 250.84781 
" clip-path="url(#pca6a1ee543)" style="fill: none; stroke: #b0b0b0; stroke-width: 0.8; stroke-linecap: square"/>
     </g>
     <g id="line2d_44">
      <g>
       <use xlink:href="#ma7e6a1e2ae" x="476.12" y="250.84781" style="stroke: #000000; stroke-width: 0.8"/>
      </g>
     </g>
     <g id="text_27">
      <!-- 2 -->
      <g transform="translate(462.7575 254.647028) scale(0.1 -0.1)">
       <use xlink:href="#DejaVuSans-32"/>
      </g>
     </g>
    </g>
    <g id="ytick_8">
     <g id="line2d_45">
      <path d="M 476.12 211.433893 
L 856.8 211.433893 
" clip-path="url(#pca6a1ee543)" style="fill: none; stroke: #b0b0b0; stroke-width: 0.8; stroke-linecap: square"/>
     </g>
     <g id="line2d_46">
      <g>
       <use xlink:href="#ma7e6a1e2ae" x="476.12" y="211.433893" style="stroke: #000000; stroke-width: 0.8"/>
      </g>
     </g>
     <g id="text_28">
      <!-- 3 -->
      <g transform="translate(462.7575 215.233112) scale(0.1 -0.1)">
       <use xlink:href="#DejaVuSans-33"/>
      </g>
     </g>
    </g>
    <g id="ytick_9">
     <g id="line2d_47">
      <path d="M 476.12 172.019976 
L 856.8 172.019976 
" clip-path="url(#pca6a1ee543)" style="fill: none; stroke: #b0b0b0; stroke-width: 0.8; stroke-linecap: square"/>
     </g>
     <g id="line2d_48">
      <g>
       <use xlink:href="#ma7e6a1e2ae" x="476.12" y="172.019976" style="stroke: #000000; stroke-width: 0.8"/>
      </g>
     </g>
     <g id="text_29">
      <!-- 4 -->
      <g transform="translate(462.7575 175.819195) scale(0.1 -0.1)">
       <use xlink:href="#DejaVuSans-34"/>
      </g>
     </g>
    </g>
    <g id="ytick_10">
     <g id="line2d_49">
      <path d="M 476.12 132.606059 
L 856.8 132.606059 
" clip-path="url(#pca6a1ee543)" style="fill: none; stroke: #b0b0b0; stroke-width: 0.8; stroke-linecap: square"/>
     </g>
     <g id="line2d_50">
      <g>
       <use xlink:href="#ma7e6a1e2ae" x="476.12" y="132.606059" style="stroke: #000000; stroke-width: 0.8"/>
      </g>
     </g>
     <g id="text_30">
      <!-- 5 -->
      <g transform="translate(462.7575 136.405278) scale(0.1 -0.1)">
       <use xlink:href="#DejaVuSans-35"/>
      </g>
     </g>
    </g>
    <g id="ytick_11">
     <g id="line2d_51">
      <path d="M 476.12 93.192142 
L 856.8 93.192142 
" clip-path="url(#pca6a1ee543)" style="fill: none; stroke: #b0b0b0; stroke-width: 0.8; stroke-linecap: square"/>
     </g>
     <g id="line2d_52">
      <g>
       <use xlink:href="#ma7e6a1e2ae" x="476.12" y="93.192142" style="stroke: #000000; stroke-width: 0.8"/>
      </g>
     </g>
     <g id="text_31">
      <!-- 6 -->
      <g transform="translate(462.7575 96.991361) scale(0.1 -0.1)">
       <defs>
        <path id="DejaVuSans-36" d="M 2113 2584 
Q 1688 2584 1439 2293 
Q 1191 2003 1191 1497 
Q 1191 994 1439 701 
Q 1688 409 2113 409 
Q 2538 409 2786 701 
Q 3034 994 3034 1497 
Q 3034 2003 2786 2293 
Q 2538 2584 2113 2584 
z
M 3366 4563 
L 3366 3988 
Q 3128 4100 2886 4159 
Q 2644 4219 2406 4219 
Q 1781 4219 1451 3797 
Q 1122 3375 1075 2522 
Q 1259 2794 1537 2939 
Q 1816 3084 2150 3084 
Q 2853 3084 3261 2657 
Q 3669 2231 3669 1497 
Q 3669 778 3244 343 
Q 2819 -91 2113 -91 
Q 1303 -91 875 529 
Q 447 1150 447 2328 
Q 447 3434 972 4092 
Q 1497 4750 2381 4750 
Q 2619 4750 2861 4703 
Q 3103 4656 3366 4563 
z
" transform="scale(0.015625)"/>
       </defs>
       <use xlink:href="#DejaVuSans-36"/>
      </g>
     </g>
    </g>
    <g id="ytick_12">
     <g id="line2d_53">
      <path d="M 476.12 53.778226 
L 856.8 53.778226 
" clip-path="url(#pca6a1ee543)" style="fill: none; stroke: #b0b0b0; stroke-width: 0.8; stroke-linecap: square"/>
     </g>
     <g id="line2d_54">
      <g>
       <use xlink:href="#ma7e6a1e2ae" x="476.12" y="53.778226" style="stroke: #000000; stroke-width: 0.8"/>
      </g>
     </g>
     <g id="text_32">
      <!-- 7 -->
      <g transform="translate(462.7575 57.577444) scale(0.1 -0.1)">
       <use xlink:href="#DejaVuSans-37"/>
      </g>
     </g>
    </g>
    <g id="text_33">
     <!-- Evaluation Loss -->
     <g transform="translate(456.677813 223.278281) rotate(-90) scale(0.1 -0.1)">
      <defs>
       <path id="DejaVuSans-76" d="M 191 3500 
L 800 3500 
L 1894 563 
L 2988 3500 
L 3597 3500 
L 2284 0 
L 1503 0 
L 191 3500 
z
" transform="scale(0.015625)"/>
       <path id="DejaVuSans-6c" d="M 603 4863 
L 1178 4863 
L 1178 0 
L 603 0 
L 603 4863 
z
" transform="scale(0.015625)"/>
       <path id="DejaVuSans-75" d="M 544 1381 
L 544 3500 
L 1119 3500 
L 1119 1403 
Q 1119 906 1312 657 
Q 1506 409 1894 409 
Q 2359 409 2629 706 
Q 2900 1003 2900 1516 
L 2900 3500 
L 3475 3500 
L 3475 0 
L 2900 0 
L 2900 538 
Q 2691 219 2414 64 
Q 2138 -91 1772 -91 
Q 1169 -91 856 284 
Q 544 659 544 1381 
z
M 1991 3584 
L 1991 3584 
z
" transform="scale(0.015625)"/>
       <path id="DejaVuSans-74" d="M 1172 4494 
L 1172 3500 
L 2356 3500 
L 2356 3053 
L 1172 3053 
L 1172 1153 
Q 1172 725 1289 603 
Q 1406 481 1766 481 
L 2356 481 
L 2356 0 
L 1766 0 
Q 1100 0 847 248 
Q 594 497 594 1153 
L 594 3053 
L 172 3053 
L 172 3500 
L 594 3500 
L 594 4494 
L 1172 4494 
z
" transform="scale(0.015625)"/>
      </defs>
      <use xlink:href="#DejaVuSans-45"/>
      <use xlink:href="#DejaVuSans-76" x="63.183594"/>
      <use xlink:href="#DejaVuSans-61" x="122.363281"/>
      <use xlink:href="#DejaVuSans-6c" x="183.642578"/>
      <use xlink:href="#DejaVuSans-75" x="211.425781"/>
      <use xlink:href="#DejaVuSans-61" x="274.804688"/>
      <use xlink:href="#DejaVuSans-74" x="336.083984"/>
      <use xlink:href="#DejaVuSans-69" x="375.292969"/>
      <use xlink:href="#DejaVuSans-6f" x="403.076172"/>
      <use xlink:href="#DejaVuSans-6e" x="464.257812"/>
      <use xlink:href="#DejaVuSans-20" x="527.636719"/>
      <use xlink:href="#DejaVuSans-4c" x="559.423828"/>
      <use xlink:href="#DejaVuSans-6f" x="613.386719"/>
      <use xlink:href="#DejaVuSans-73" x="674.568359"/>
      <use xlink:href="#DejaVuSans-73" x="726.667969"/>
     </g>
    </g>
    <g id="text_34">
     <!-- 1e−5 -->
     <g transform="translate(476.12 47.64) scale(0.1 -0.1)">
      <use xlink:href="#DejaVuSans-31"/>
      <use xlink:href="#DejaVuSans-65" x="63.623047"/>
      <use xlink:href="#DejaVuSans-2212" x="125.146484"/>
      <use xlink:href="#DejaVuSans-35" x="208.935547"/>
     </g>
    </g>
   </g>
   <g id="line2d_55">
    <path d="M 493.423636 267.590808 
L 500.486345 267.864449 
L 507.549054 265.774222 
L 514.611763 261.018705 
L 521.674471 272.13574 
L 528.73718 271.939512 
L 535.799889 270.071077 
L 542.862597 275.93346 
L 549.925306 267.207243 
L 556.988015 284.845117 
L 564.050724 277.784565 
L 571.113432 286.700587 
L 578.176141 292.289489 
L 585.23885 291.968902 
L 592.301558 294.726151 
L 599.364267 291.101805 
L 606.426976 302.723025 
L 613.489685 298.832265 
L 620.552393 299.988822 
L 627.615102 297.990698 
L 634.677811 291.542697 
L 641.740519 295.254649 
L 648.803228 292.934465 
L 655.865937 293.512069 
L 662.928646 296.02011 
L 669.991354 278.812806 
L 677.054063 288.198223 
L 684.116772 286.15219 
L 691.179481 298.446197 
L 698.242189 293.605241 
L 705.304898 298.922536 
L 712.367607 298.56835 
L 719.430315 305.877153 
L 726.493024 300.074975 
L 733.555733 305.538483 
L 740.618442 305.658801 
L 747.68115 303.072483 
L 754.743859 305.80172 
L 761.806568 305.369798 
L 768.869276 304.953952 
L 775.931985 305.885455 
L 782.994694 305.68438 
L 790.057403 304.410693 
L 797.120111 305.260844 
L 804.18282 301.44304 
L 811.245529 301.532925 
L 818.308237 301.634038 
L 825.370946 301.531141 
L 832.433655 301.420247 
L 839.496364 301.274738 
" clip-path="url(#pca6a1ee543)" style="fill: none; stroke: #1f77b4; stroke-width: 1.5; stroke-linecap: square"/>
   </g>
   <g id="line2d_56">
    <path d="M 493.423636 265.188457 
L 500.486345 266.129784 
L 507.549054 266.118688 
L 514.611763 264.482413 
L 521.674471 266.830667 
L 528.73718 267.366078 
L 535.799889 266.95177 
L 542.862597 269.007322 
L 549.925306 271.700918 
L 556.988015 270.074758 
L 564.050724 270.016839 
L 571.113432 270.546389 
L 578.176141 271.50707 
L 585.23885 271.098412 
L 592.301558 271.163231 
L 599.364267 271.929501 
L 606.426976 271.800557 
L 613.489685 270.399265 
L 620.552393 272.139258 
L 627.615102 271.307146 
L 634.677811 273.15965 
L 641.740519 273.151362 
L 648.803228 271.39005 
L 655.865937 269.98716 
L 662.928646 270.873281 
L 669.991354 270.712774 
L 677.054063 269.890644 
L 684.116772 271.250779 
L 691.179481 271.761292 
L 698.242189 271.102715 
L 705.304898 271.39029 
L 712.367607 270.81805 
L 719.430315 269.474942 
L 726.493024 270.313326 
L 733.555733 269.107189 
L 740.618442 268.088606 
L 747.68115 269.061631 
L 754.743859 267.441264 
L 761.806568 267.852878 
L 768.869276 265.303377 
L 775.931985 266.713845 
L 782.994694 266.340017 
L 790.057403 266.453582 
L 797.120111 265.468248 
L 804.18282 266.447001 
L 811.245529 265.280887 
L 818.308237 260.85487 
L 825.370946 261.212388 
L 832.433655 262.76242 
L 839.496364 261.332077 
" clip-path="url(#pca6a1ee543)" style="fill: none; stroke: #ff7f0e; stroke-width: 1.5; stroke-linecap: square"/>
   </g>
   <g id="line2d_57">
    <path d="M 493.423636 268.709172 
L 500.486345 214.559886 
L 507.549054 273.015679 
L 514.611763 272.076295 
L 521.674471 269.163602 
L 528.73718 263.983545 
L 535.799889 265.499214 
L 542.862597 260.479326 
L 549.925306 272.862309 
L 556.988015 245.851542 
L 564.050724 267.378186 
L 571.113432 282.943675 
L 578.176141 247.65391 
L 585.23885 261.565576 
L 592.301558 270.948721 
L 599.364267 261.50313 
L 606.426976 276.09759 
L 613.489685 184.164958 
L 620.552393 274.522169 
L 627.615102 230.101424 
L 634.677811 261.360017 
L 641.740519 245.006596 
L 648.803228 271.498658 
L 655.865937 254.348294 
L 662.928646 268.341634 
L 669.991354 238.574971 
L 677.054063 251.059904 
L 684.116772 265.457342 
L 691.179481 243.64721 
L 698.242189 239.524285 
L 705.304898 271.268445 
L 712.367607 285.397505 
L 719.430315 257.267348 
L 726.493024 267.287342 
L 733.555733 261.415953 
L 740.618442 283.377816 
L 747.68115 251.769642 
L 754.743859 230.173837 
L 761.806568 269.836623 
L 768.869276 272.67375 
L 775.931985 219.529115 
L 782.994694 62.794545 
L 790.057403 245.334163 
L 797.120111 243.113244 
L 804.18282 272.59576 
L 811.245529 255.912247 
L 818.308237 205.479644 
L 825.370946 178.352267 
L 832.433655 81.578192 
L 839.496364 246.03266 
" clip-path="url(#pca6a1ee543)" style="fill: none; stroke: #2ca02c; stroke-width: 1.5; stroke-linecap: square"/>
   </g>
   <g id="patch_9">
    <path d="M 476.12 318.04 
L 476.12 50.64 
" style="fill: none; stroke: #000000; stroke-width: 0.8; stroke-linejoin: miter; stroke-linecap: square"/>
   </g>
   <g id="patch_10">
    <path d="M 856.8 318.04 
L 856.8 50.64 
" style="fill: none; stroke: #000000; stroke-width: 0.8; stroke-linejoin: miter; stroke-linecap: square"/>
   </g>
   <g id="patch_11">
    <path d="M 476.12 318.04 
L 856.8 318.04 
" style="fill: none; stroke: #000000; stroke-width: 0.8; stroke-linejoin: miter; stroke-linecap: square"/>
   </g>
   <g id="patch_12">
    <path d="M 476.12 50.64 
L 856.8 50.64 
" style="fill: none; stroke: #000000; stroke-width: 0.8; stroke-linejoin: miter; stroke-linecap: square"/>
   </g>
   <g id="text_35">
    <!-- Evaluation Loss -->
    <g transform="translate(619.734063 44.64) scale(0.12 -0.12)">
     <use xlink:href="#DejaVuSans-45"/>
     <use xlink:href="#DejaVuSans-76" x="63.183594"/>
     <use xlink:href="#DejaVuSans-61" x="122.363281"/>
     <use xlink:href="#DejaVuSans-6c" x="183.642578"/>
     <use xlink:href="#DejaVuSans-75" x="211.425781"/>
     <use xlink:href="#DejaVuSans-61" x="274.804688"/>
     <use xlink:href="#DejaVuSans-74" x="336.083984"/>
     <use xlink:href="#DejaVuSans-69" x="375.292969"/>
     <use xlink:href="#DejaVuSans-6f" x="403.076172"/>
     <use xlink:href="#DejaVuSans-6e" x="464.257812"/>
     <use xlink:href="#DejaVuSans-20" x="527.636719"/>
     <use xlink:href="#DejaVuSans-4c" x="559.423828"/>
     <use xlink:href="#DejaVuSans-6f" x="613.386719"/>
     <use xlink:href="#DejaVuSans-73" x="674.568359"/>
     <use xlink:href="#DejaVuSans-73" x="726.667969"/>
    </g>
   </g>
   <g id="legend_2">
    <g id="patch_13">
     <path d="M 483.12 102.674375 
L 594.485625 102.674375 
Q 596.485625 102.674375 596.485625 100.674375 
L 596.485625 57.64 
Q 596.485625 55.64 594.485625 55.64 
L 483.12 55.64 
Q 481.12 55.64 481.12 57.64 
L 481.12 100.674375 
Q 481.12 102.674375 483.12 102.674375 
z
" style="fill: #ffffff; opacity: 0.8; stroke: #cccccc; stroke-linejoin: miter"/>
    </g>
    <g id="line2d_58">
     <path d="M 485.12 63.738437 
L 495.12 63.738437 
L 505.12 63.738437 
" style="fill: none; stroke: #1f77b4; stroke-width: 1.5; stroke-linecap: square"/>
    </g>
    <g id="text_36">
     <!-- 49wa4 (0.0005) -->
     <g transform="translate(513.12 67.238437) scale(0.1 -0.1)">
      <use xlink:href="#DejaVuSans-34"/>
      <use xlink:href="#DejaVuSans-39" x="63.623047"/>
      <use xlink:href="#DejaVuSans-77" x="127.246094"/>
      <use xlink:href="#DejaVuSans-61" x="209.033203"/>
      <use xlink:href="#DejaVuSans-34" x="270.3125"/>
      <use xlink:href="#DejaVuSans-20" x="333.935547"/>
      <use xlink:href="#DejaVuSans-28" x="365.722656"/>
      <use xlink:href="#DejaVuSans-30" x="404.736328"/>
      <use xlink:href="#DejaVuSans-2e" x="468.359375"/>
      <use xlink:href="#DejaVuSans-30" x="500.146484"/>
      <use xlink:href="#DejaVuSans-30" x="563.769531"/>
      <use xlink:href="#DejaVuSans-30" x="627.392578"/>
      <use xlink:href="#DejaVuSans-35" x="691.015625"/>
      <use xlink:href="#DejaVuSans-29" x="754.638672"/>
     </g>
    </g>
    <g id="line2d_59">
     <path d="M 485.12 78.416562 
L 495.12 78.416562 
L 505.12 78.416562 
" style="fill: none; stroke: #ff7f0e; stroke-width: 1.5; stroke-linecap: square"/>
    </g>
    <g id="text_37">
     <!-- 8ic79 (5e-05) -->
     <g transform="translate(513.12 81.916562) scale(0.1 -0.1)">
      <use xlink:href="#DejaVuSans-38"/>
      <use xlink:href="#DejaVuSans-69" x="63.623047"/>
      <use xlink:href="#DejaVuSans-63" x="91.40625"/>
      <use xlink:href="#DejaVuSans-37" x="146.386719"/>
      <use xlink:href="#DejaVuSans-39" x="210.009766"/>
      <use xlink:href="#DejaVuSans-20" x="273.632812"/>
      <use xlink:href="#DejaVuSans-28" x="305.419922"/>
      <use xlink:href="#DejaVuSans-35" x="344.433594"/>
      <use xlink:href="#DejaVuSans-65" x="408.056641"/>
      <use xlink:href="#DejaVuSans-2d" x="469.580078"/>
      <use xlink:href="#DejaVuSans-30" x="505.664062"/>
      <use xlink:href="#DejaVuSans-35" x="569.287109"/>
      <use xlink:href="#DejaVuSans-29" x="632.910156"/>
     </g>
    </g>
    <g id="line2d_60">
     <path d="M 485.12 93.094687 
L 495.12 93.094687 
L 505.12 93.094687 
" style="fill: none; stroke: #2ca02c; stroke-width: 1.5; stroke-linecap: square"/>
    </g>
    <g id="text_38">
     <!-- k23x7 (0.005) -->
     <g transform="translate(513.12 96.594687) scale(0.1 -0.1)">
      <use xlink:href="#DejaVuSans-6b"/>
      <use xlink:href="#DejaVuSans-32" x="57.910156"/>
      <use xlink:href="#DejaVuSans-33" x="121.533203"/>
      <use xlink:href="#DejaVuSans-78" x="185.15625"/>
      <use xlink:href="#DejaVuSans-37" x="244.335938"/>
      <use xlink:href="#DejaVuSans-20" x="307.958984"/>
      <use xlink:href="#DejaVuSans-28" x="339.746094"/>
      <use xlink:href="#DejaVuSans-30" x="378.759766"/>
      <use xlink:href="#DejaVuSans-2e" x="442.382812"/>
      <use xlink:href="#DejaVuSans-30" x="474.169922"/>
      <use xlink:href="#DejaVuSans-30" x="537.792969"/>
      <use xlink:href="#DejaVuSans-35" x="601.416016"/>
      <use xlink:href="#DejaVuSans-29" x="665.039062"/>
     </g>
    </g>
   </g>
  </g>
  <g id="axes_3">
   <g id="patch_14">
    <path d="M 904.52 318.04 
L 1285.2 318.04 
L 1285.2 50.64 
L 904.52 50.64 
z
" style="fill: #ffffff"/>
   </g>
   <g id="matplotlib.axis_5">
    <g id="xtick_13">
     <g id="line2d_61">
      <path d="M 914.760928 318.04 
L 914.760928 50.64 
" clip-path="url(#p403a4aca17)" style="fill: none; stroke: #b0b0b0; stroke-width: 0.8; stroke-linecap: square"/>
     </g>
     <g id="line2d_62">
      <g>
       <use xlink:href="#m724c392b95" x="914.760928" y="318.04" style="stroke: #000000; stroke-width: 0.8"/>
      </g>
     </g>
     <g id="text_39">
      <!-- 0 -->
      <g transform="translate(911.579678 332.638438) scale(0.1 -0.1)">
       <use xlink:href="#DejaVuSans-30"/>
      </g>
     </g>
    </g>
    <g id="xtick_14">
     <g id="line2d_63">
      <path d="M 985.388015 318.04 
L 985.388015 50.64 
" clip-path="url(#p403a4aca17)" style="fill: none; stroke: #b0b0b0; stroke-width: 0.8; stroke-linecap: square"/>
     </g>
     <g id="line2d_64">
      <g>
       <use xlink:href="#m724c392b95" x="985.388015" y="318.04" style="stroke: #000000; stroke-width: 0.8"/>
      </g>
     </g>
     <g id="text_40">
      <!-- 10 -->
      <g transform="translate(979.025515 332.638438) scale(0.1 -0.1)">
       <use xlink:href="#DejaVuSans-31"/>
       <use xlink:href="#DejaVuSans-30" x="63.623047"/>
      </g>
     </g>
    </g>
    <g id="xtick_15">
     <g id="line2d_65">
      <path d="M 1056.015102 318.04 
L 1056.015102 50.64 
" clip-path="url(#p403a4aca17)" style="fill: none; stroke: #b0b0b0; stroke-width: 0.8; stroke-linecap: square"/>
     </g>
     <g id="line2d_66">
      <g>
       <use xlink:href="#m724c392b95" x="1056.015102" y="318.04" style="stroke: #000000; stroke-width: 0.8"/>
      </g>
     </g>
     <g id="text_41">
      <!-- 20 -->
      <g transform="translate(1049.652602 332.638438) scale(0.1 -0.1)">
       <use xlink:href="#DejaVuSans-32"/>
       <use xlink:href="#DejaVuSans-30" x="63.623047"/>
      </g>
     </g>
    </g>
    <g id="xtick_16">
     <g id="line2d_67">
      <path d="M 1126.642189 318.04 
L 1126.642189 50.64 
" clip-path="url(#p403a4aca17)" style="fill: none; stroke: #b0b0b0; stroke-width: 0.8; stroke-linecap: square"/>
     </g>
     <g id="line2d_68">
      <g>
       <use xlink:href="#m724c392b95" x="1126.642189" y="318.04" style="stroke: #000000; stroke-width: 0.8"/>
      </g>
     </g>
     <g id="text_42">
      <!-- 30 -->
      <g transform="translate(1120.279689 332.638438) scale(0.1 -0.1)">
       <use xlink:href="#DejaVuSans-33"/>
       <use xlink:href="#DejaVuSans-30" x="63.623047"/>
      </g>
     </g>
    </g>
    <g id="xtick_17">
     <g id="line2d_69">
      <path d="M 1197.269276 318.04 
L 1197.269276 50.64 
" clip-path="url(#p403a4aca17)" style="fill: none; stroke: #b0b0b0; stroke-width: 0.8; stroke-linecap: square"/>
     </g>
     <g id="line2d_70">
      <g>
       <use xlink:href="#m724c392b95" x="1197.269276" y="318.04" style="stroke: #000000; stroke-width: 0.8"/>
      </g>
     </g>
     <g id="text_43">
      <!-- 40 -->
      <g transform="translate(1190.906776 332.638438) scale(0.1 -0.1)">
       <use xlink:href="#DejaVuSans-34"/>
       <use xlink:href="#DejaVuSans-30" x="63.623047"/>
      </g>
     </g>
    </g>
    <g id="xtick_18">
     <g id="line2d_71">
      <path d="M 1267.896364 318.04 
L 1267.896364 50.64 
" clip-path="url(#p403a4aca17)" style="fill: none; stroke: #b0b0b0; stroke-width: 0.8; stroke-linecap: square"/>
     </g>
     <g id="line2d_72">
      <g>
       <use xlink:href="#m724c392b95" x="1267.896364" y="318.04" style="stroke: #000000; stroke-width: 0.8"/>
      </g>
     </g>
     <g id="text_44">
      <!-- 50 -->
      <g transform="translate(1261.533864 332.638438) scale(0.1 -0.1)">
       <use xlink:href="#DejaVuSans-35"/>
       <use xlink:href="#DejaVuSans-30" x="63.623047"/>
      </g>
     </g>
    </g>
    <g id="text_45">
     <!-- Epoch -->
     <g transform="translate(1079.549063 346.316563) scale(0.1 -0.1)">
      <use xlink:href="#DejaVuSans-45"/>
      <use xlink:href="#DejaVuSans-70" x="63.183594"/>
      <use xlink:href="#DejaVuSans-6f" x="126.660156"/>
      <use xlink:href="#DejaVuSans-63" x="187.841797"/>
      <use xlink:href="#DejaVuSans-68" x="242.822266"/>
     </g>
    </g>
   </g>
   <g id="matplotlib.axis_6">
    <g id="ytick_13">
     <g id="line2d_73">
      <path d="M 904.52 318.04 
L 1285.2 318.04 
" clip-path="url(#p403a4aca17)" style="fill: none; stroke: #b0b0b0; stroke-width: 0.8; stroke-linecap: square"/>
     </g>
     <g id="line2d_74">
      <g>
       <use xlink:href="#ma7e6a1e2ae" x="904.52" y="318.04" style="stroke: #000000; stroke-width: 0.8"/>
      </g>
     </g>
     <g id="text_46">
      <!-- 0.0 -->
      <g transform="translate(881.616875 321.839219) scale(0.1 -0.1)">
       <use xlink:href="#DejaVuSans-30"/>
       <use xlink:href="#DejaVuSans-2e" x="63.623047"/>
       <use xlink:href="#DejaVuSans-30" x="95.410156"/>
      </g>
     </g>
    </g>
    <g id="ytick_14">
     <g id="line2d_75">
      <path d="M 904.52 264.56 
L 1285.2 264.56 
" clip-path="url(#p403a4aca17)" style="fill: none; stroke: #b0b0b0; stroke-width: 0.8; stroke-linecap: square"/>
     </g>
     <g id="line2d_76">
      <g>
       <use xlink:href="#ma7e6a1e2ae" x="904.52" y="264.56" style="stroke: #000000; stroke-width: 0.8"/>
      </g>
     </g>
     <g id="text_47">
      <!-- 0.2 -->
      <g transform="translate(881.616875 268.359219) scale(0.1 -0.1)">
       <use xlink:href="#DejaVuSans-30"/>
       <use xlink:href="#DejaVuSans-2e" x="63.623047"/>
       <use xlink:href="#DejaVuSans-32" x="95.410156"/>
      </g>
     </g>
    </g>
    <g id="ytick_15">
     <g id="line2d_77">
      <path d="M 904.52 211.08 
L 1285.2 211.08 
" clip-path="url(#p403a4aca17)" style="fill: none; stroke: #b0b0b0; stroke-width: 0.8; stroke-linecap: square"/>
     </g>
     <g id="line2d_78">
      <g>
       <use xlink:href="#ma7e6a1e2ae" x="904.52" y="211.08" style="stroke: #000000; stroke-width: 0.8"/>
      </g>
     </g>
     <g id="text_48">
      <!-- 0.4 -->
      <g transform="translate(881.616875 214.879219) scale(0.1 -0.1)">
       <use xlink:href="#DejaVuSans-30"/>
       <use xlink:href="#DejaVuSans-2e" x="63.623047"/>
       <use xlink:href="#DejaVuSans-34" x="95.410156"/>
      </g>
     </g>
    </g>
    <g id="ytick_16">
     <g id="line2d_79">
      <path d="M 904.52 157.6 
L 1285.2 157.6 
" clip-path="url(#p403a4aca17)" style="fill: none; stroke: #b0b0b0; stroke-width: 0.8; stroke-linecap: square"/>
     </g>
     <g id="line2d_80">
      <g>
       <use xlink:href="#ma7e6a1e2ae" x="904.52" y="157.6" style="stroke: #000000; stroke-width: 0.8"/>
      </g>
     </g>
     <g id="text_49">
      <!-- 0.6 -->
      <g transform="translate(881.616875 161.399219) scale(0.1 -0.1)">
       <use xlink:href="#DejaVuSans-30"/>
       <use xlink:href="#DejaVuSans-2e" x="63.623047"/>
       <use xlink:href="#DejaVuSans-36" x="95.410156"/>
      </g>
     </g>
    </g>
    <g id="ytick_17">
     <g id="line2d_81">
      <path d="M 904.52 104.12 
L 1285.2 104.12 
" clip-path="url(#p403a4aca17)" style="fill: none; stroke: #b0b0b0; stroke-width: 0.8; stroke-linecap: square"/>
     </g>
     <g id="line2d_82">
      <g>
       <use xlink:href="#ma7e6a1e2ae" x="904.52" y="104.12" style="stroke: #000000; stroke-width: 0.8"/>
      </g>
     </g>
     <g id="text_50">
      <!-- 0.8 -->
      <g transform="translate(881.616875 107.919219) scale(0.1 -0.1)">
       <use xlink:href="#DejaVuSans-30"/>
       <use xlink:href="#DejaVuSans-2e" x="63.623047"/>
       <use xlink:href="#DejaVuSans-38" x="95.410156"/>
      </g>
     </g>
    </g>
    <g id="ytick_18">
     <g id="line2d_83">
      <path d="M 904.52 50.64 
L 1285.2 50.64 
" clip-path="url(#p403a4aca17)" style="fill: none; stroke: #b0b0b0; stroke-width: 0.8; stroke-linecap: square"/>
     </g>
     <g id="line2d_84">
      <g>
       <use xlink:href="#ma7e6a1e2ae" x="904.52" y="50.64" style="stroke: #000000; stroke-width: 0.8"/>
      </g>
     </g>
     <g id="text_51">
      <!-- 1.0 -->
      <g transform="translate(881.616875 54.439219) scale(0.1 -0.1)">
       <use xlink:href="#DejaVuSans-31"/>
       <use xlink:href="#DejaVuSans-2e" x="63.623047"/>
       <use xlink:href="#DejaVuSans-30" x="95.410156"/>
      </g>
     </g>
    </g>
    <g id="text_52">
     <!-- Correct Rate -->
     <g transform="translate(875.537188 215.639219) rotate(-90) scale(0.1 -0.1)">
      <defs>
       <path id="DejaVuSans-43" d="M 4122 4306 
L 4122 3641 
Q 3803 3938 3442 4084 
Q 3081 4231 2675 4231 
Q 1875 4231 1450 3742 
Q 1025 3253 1025 2328 
Q 1025 1406 1450 917 
Q 1875 428 2675 428 
Q 3081 428 3442 575 
Q 3803 722 4122 1019 
L 4122 359 
Q 3791 134 3420 21 
Q 3050 -91 2638 -91 
Q 1578 -91 968 557 
Q 359 1206 359 2328 
Q 359 3453 968 4101 
Q 1578 4750 2638 4750 
Q 3056 4750 3426 4639 
Q 3797 4528 4122 4306 
z
" transform="scale(0.015625)"/>
       <path id="DejaVuSans-52" d="M 2841 2188 
Q 3044 2119 3236 1894 
Q 3428 1669 3622 1275 
L 4263 0 
L 3584 0 
L 2988 1197 
Q 2756 1666 2539 1819 
Q 2322 1972 1947 1972 
L 1259 1972 
L 1259 0 
L 628 0 
L 628 4666 
L 2053 4666 
Q 2853 4666 3247 4331 
Q 3641 3997 3641 3322 
Q 3641 2881 3436 2590 
Q 3231 2300 2841 2188 
z
M 1259 4147 
L 1259 2491 
L 2053 2491 
Q 2509 2491 2742 2702 
Q 2975 2913 2975 3322 
Q 2975 3731 2742 3939 
Q 2509 4147 2053 4147 
L 1259 4147 
z
" transform="scale(0.015625)"/>
      </defs>
      <use xlink:href="#DejaVuSans-43"/>
      <use xlink:href="#DejaVuSans-6f" x="69.824219"/>
      <use xlink:href="#DejaVuSans-72" x="131.005859"/>
      <use xlink:href="#DejaVuSans-72" x="170.369141"/>
      <use xlink:href="#DejaVuSans-65" x="209.232422"/>
      <use xlink:href="#DejaVuSans-63" x="270.755859"/>
      <use xlink:href="#DejaVuSans-74" x="325.736328"/>
      <use xlink:href="#DejaVuSans-20" x="364.945312"/>
      <use xlink:href="#DejaVuSans-52" x="396.732422"/>
      <use xlink:href="#DejaVuSans-61" x="463.964844"/>
      <use xlink:href="#DejaVuSans-74" x="525.244141"/>
      <use xlink:href="#DejaVuSans-65" x="564.453125"/>
     </g>
    </g>
   </g>
   <g id="line2d_85">
    <path d="M 921.823636 206.803448 
L 928.886345 201.218522 
L 935.949054 208.040876 
L 943.011763 197.530985 
L 950.074471 186.344634 
L 957.13718 183.572794 
L 964.199889 192.573023 
L 971.262597 173.005157 
L 978.325306 185.841413 
L 985.388015 141.021761 
L 992.450724 148.28959 
L 999.513432 128.713474 
L 1006.576141 112.948638 
L 1013.63885 106.588257 
L 1020.701558 103.09046 
L 1027.764267 104.732115 
L 1034.826976 97.22505 
L 1041.889685 100.219626 
L 1048.952393 93.801498 
L 1056.015102 100.549607 
L 1063.077811 100.029887 
L 1070.140519 96.738328 
L 1077.203228 96.928067 
L 1084.265937 104.352637 
L 1091.328646 102.174763 
L 1098.391354 112.734151 
L 1105.454063 111.19974 
L 1112.516772 112.280427 
L 1119.579481 92.316584 
L 1126.642189 101.35806 
L 1133.704898 94.79969 
L 1140.767607 98.371733 
L 1147.830315 95.269913 
L 1154.893024 103.989658 
L 1161.955733 86.929646 
L 1169.018442 86.657412 
L 1176.08115 91.780365 
L 1183.143859 88.191823 
L 1190.206568 87.366871 
L 1197.269276 89.80873 
L 1204.331985 87.375121 
L 1211.394694 87.886591 
L 1218.457403 88.563052 
L 1225.520111 86.8719 
L 1232.58282 93.60351 
L 1239.645529 92.646565 
L 1246.708237 92.465076 
L 1253.770946 92.399079 
L 1260.833655 92.481575 
L 1267.896364 92.588818 
" clip-path="url(#p403a4aca17)" style="fill: none; stroke: #1f77b4; stroke-width: 1.5; stroke-linecap: square"/>
   </g>
   <g id="line2d_86">
    <path d="M 921.823636 234.323853 
L 928.886345 232.517207 
L 935.949054 231.923242 
L 943.011763 232.409964 
L 950.074471 230.842554 
L 957.13718 230.867303 
L 964.199889 228.441944 
L 971.262597 223.541728 
L 978.325306 217.651569 
L 985.388015 213.931035 
L 992.450724 218.888997 
L 999.513432 212.767852 
L 1006.576141 211.225192 
L 1013.63885 209.088565 
L 1020.701558 204.361589 
L 1027.764267 201.152525 
L 1034.826976 196.640037 
L 1041.889685 197.662978 
L 1048.952393 193.331979 
L 1056.015102 197.943461 
L 1063.077811 194.816893 
L 1070.140519 189.075226 
L 1077.203228 182.343616 
L 1084.265937 184.711228 
L 1091.328646 187.846047 
L 1098.391354 176.857684 
L 1105.454063 180.009001 
L 1112.516772 171.891472 
L 1119.579481 177.996118 
L 1126.642189 169.754845 
L 1133.704898 178.334348 
L 1140.767607 170.687041 
L 1147.830315 173.98685 
L 1154.893024 165.135113 
L 1161.955733 167.271739 
L 1169.018442 160.795865 
L 1176.08115 157.487807 
L 1183.143859 160.639124 
L 1190.206568 157.232071 
L 1197.269276 157.446559 
L 1204.331985 163.361466 
L 1211.394694 158.279761 
L 1218.457403 156.654605 
L 1225.520111 158.576743 
L 1232.58282 153.008316 
L 1239.645529 154.278743 
L 1246.708237 153.420792 
L 1253.770946 149.378527 
L 1260.833655 151.597648 
L 1267.896364 151.135675 
" clip-path="url(#p403a4aca17)" style="fill: none; stroke: #ff7f0e; stroke-width: 1.5; stroke-linecap: square"/>
   </g>
   <g id="line2d_87">
    <path d="M 921.823636 231.081791 
L 928.886345 233.16892 
L 935.949054 186.913851 
L 943.011763 203.965612 
L 950.074471 223.574726 
L 957.13718 175.653254 
L 964.199889 210.532232 
L 971.262597 201.07003 
L 978.325306 169.969333 
L 985.388015 231.288029 
L 992.450724 183.366556 
L 999.513432 182.500357 
L 1006.576141 225.793847 
L 1013.63885 193.595963 
L 1020.701558 191.715072 
L 1027.764267 165.522841 
L 1034.826976 188.555506 
L 1041.889685 246.904373 
L 1048.952393 194.354919 
L 1056.015102 230.347583 
L 1063.077811 217.445331 
L 1070.140519 209.162811 
L 1077.203228 159.574936 
L 1084.265937 220.39041 
L 1091.328646 190.502393 
L 1098.391354 192.729764 
L 1105.454063 210.408489 
L 1112.516772 203.874868 
L 1119.579481 179.068556 
L 1126.642189 194.00019 
L 1133.704898 192.729764 
L 1140.767607 138.208674 
L 1147.830315 201.523754 
L 1154.893024 160.375139 
L 1161.955733 170.662293 
L 1169.018442 165.135113 
L 1176.08115 183.630541 
L 1183.143859 232.921434 
L 1190.206568 150.401467 
L 1197.269276 124.431973 
L 1204.331985 220.984376 
L 1211.394694 213.749545 
L 1218.457403 186.649866 
L 1225.520111 200.839044 
L 1232.58282 174.605564 
L 1239.645529 175.653254 
L 1246.708237 158.832479 
L 1253.770946 212.850347 
L 1260.833655 154.996451 
L 1267.896364 212.264631 
" clip-path="url(#p403a4aca17)" style="fill: none; stroke: #2ca02c; stroke-width: 1.5; stroke-linecap: square"/>
   </g>
   <g id="patch_15">
    <path d="M 904.52 318.04 
L 904.52 50.64 
" style="fill: none; stroke: #000000; stroke-width: 0.8; stroke-linejoin: miter; stroke-linecap: square"/>
   </g>
   <g id="patch_16">
    <path d="M 1285.2 318.04 
L 1285.2 50.64 
" style="fill: none; stroke: #000000; stroke-width: 0.8; stroke-linejoin: miter; stroke-linecap: square"/>
   </g>
   <g id="patch_17">
    <path d="M 904.52 318.04 
L 1285.2 318.04 
" style="fill: none; stroke: #000000; stroke-width: 0.8; stroke-linejoin: miter; stroke-linecap: square"/>
   </g>
   <g id="patch_18">
    <path d="M 904.52 50.64 
L 1285.2 50.64 
" style="fill: none; stroke: #000000; stroke-width: 0.8; stroke-linejoin: miter; stroke-linecap: square"/>
   </g>
   <g id="text_53">
    <!-- Correct Rate -->
    <g transform="translate(1057.300938 44.64) scale(0.12 -0.12)">
     <use xlink:href="#DejaVuSans-43"/>
     <use xlink:href="#DejaVuSans-6f" x="69.824219"/>
     <use xlink:href="#DejaVuSans-72" x="131.005859"/>
     <use xlink:href="#DejaVuSans-72" x="170.369141"/>
     <use xlink:href="#DejaVuSans-65" x="209.232422"/>
     <use xlink:href="#DejaVuSans-63" x="270.755859"/>
     <use xlink:href="#DejaVuSans-74" x="325.736328"/>
     <use xlink:href="#DejaVuSans-20" x="364.945312"/>
     <use xlink:href="#DejaVuSans-52" x="396.732422"/>
     <use xlink:href="#DejaVuSans-61" x="463.964844"/>
     <use xlink:href="#DejaVuSans-74" x="525.244141"/>
     <use xlink:href="#DejaVuSans-65" x="564.453125"/>
    </g>
   </g>
   <g id="legend_3">
    <g id="patch_19">
     <path d="M 911.52 102.674375 
L 1022.885625 102.674375 
Q 1024.885625 102.674375 1024.885625 100.674375 
L 1024.885625 57.64 
Q 1024.885625 55.64 1022.885625 55.64 
L 911.52 55.64 
Q 909.52 55.64 909.52 57.64 
L 909.52 100.674375 
Q 909.52 102.674375 911.52 102.674375 
z
" style="fill: #ffffff; opacity: 0.8; stroke: #cccccc; stroke-linejoin: miter"/>
    </g>
    <g id="line2d_88">
     <path d="M 913.52 63.738437 
L 923.52 63.738437 
L 933.52 63.738437 
" style="fill: none; stroke: #1f77b4; stroke-width: 1.5; stroke-linecap: square"/>
    </g>
    <g id="text_54">
     <!-- 49wa4 (0.0005) -->
     <g transform="translate(941.52 67.238437) scale(0.1 -0.1)">
      <use xlink:href="#DejaVuSans-34"/>
      <use xlink:href="#DejaVuSans-39" x="63.623047"/>
      <use xlink:href="#DejaVuSans-77" x="127.246094"/>
      <use xlink:href="#DejaVuSans-61" x="209.033203"/>
      <use xlink:href="#DejaVuSans-34" x="270.3125"/>
      <use xlink:href="#DejaVuSans-20" x="333.935547"/>
      <use xlink:href="#DejaVuSans-28" x="365.722656"/>
      <use xlink:href="#DejaVuSans-30" x="404.736328"/>
      <use xlink:href="#DejaVuSans-2e" x="468.359375"/>
      <use xlink:href="#DejaVuSans-30" x="500.146484"/>
      <use xlink:href="#DejaVuSans-30" x="563.769531"/>
      <use xlink:href="#DejaVuSans-30" x="627.392578"/>
      <use xlink:href="#DejaVuSans-35" x="691.015625"/>
      <use xlink:href="#DejaVuSans-29" x="754.638672"/>
     </g>
    </g>
    <g id="line2d_89">
     <path d="M 913.52 78.416562 
L 923.52 78.416562 
L 933.52 78.416562 
" style="fill: none; stroke: #ff7f0e; stroke-width: 1.5; stroke-linecap: square"/>
    </g>
    <g id="text_55">
     <!-- 8ic79 (5e-05) -->
     <g transform="translate(941.52 81.916562) scale(0.1 -0.1)">
      <use xlink:href="#DejaVuSans-38"/>
      <use xlink:href="#DejaVuSans-69" x="63.623047"/>
      <use xlink:href="#DejaVuSans-63" x="91.40625"/>
      <use xlink:href="#DejaVuSans-37" x="146.386719"/>
      <use xlink:href="#DejaVuSans-39" x="210.009766"/>
      <use xlink:href="#DejaVuSans-20" x="273.632812"/>
      <use xlink:href="#DejaVuSans-28" x="305.419922"/>
      <use xlink:href="#DejaVuSans-35" x="344.433594"/>
      <use xlink:href="#DejaVuSans-65" x="408.056641"/>
      <use xlink:href="#DejaVuSans-2d" x="469.580078"/>
      <use xlink:href="#DejaVuSans-30" x="505.664062"/>
      <use xlink:href="#DejaVuSans-35" x="569.287109"/>
      <use xlink:href="#DejaVuSans-29" x="632.910156"/>
     </g>
    </g>
    <g id="line2d_90">
     <path d="M 913.52 93.094687 
L 923.52 93.094687 
L 933.52 93.094687 
" style="fill: none; stroke: #2ca02c; stroke-width: 1.5; stroke-linecap: square"/>
    </g>
    <g id="text_56">
     <!-- k23x7 (0.005) -->
     <g transform="translate(941.52 96.594687) scale(0.1 -0.1)">
      <use xlink:href="#DejaVuSans-6b"/>
      <use xlink:href="#DejaVuSans-32" x="57.910156"/>
      <use xlink:href="#DejaVuSans-33" x="121.533203"/>
      <use xlink:href="#DejaVuSans-78" x="185.15625"/>
      <use xlink:href="#DejaVuSans-37" x="244.335938"/>
      <use xlink:href="#DejaVuSans-20" x="307.958984"/>
      <use xlink:href="#DejaVuSans-28" x="339.746094"/>
      <use xlink:href="#DejaVuSans-30" x="378.759766"/>
      <use xlink:href="#DejaVuSans-2e" x="442.382812"/>
      <use xlink:href="#DejaVuSans-30" x="474.169922"/>
      <use xlink:href="#DejaVuSans-30" x="537.792969"/>
      <use xlink:href="#DejaVuSans-35" x="601.416016"/>
      <use xlink:href="#DejaVuSans-29" x="665.039062"/>
     </g>
    </g>
   </g>
  </g>
  <g id="text_57">
   <!-- models architecture B (varying lr) -->
   <g transform="translate(546.809062 16.318125) scale(0.12 -0.12)">
    <defs>
     <path id="DejaVuSans-6d" d="M 3328 2828 
Q 3544 3216 3844 3400 
Q 4144 3584 4550 3584 
Q 5097 3584 5394 3201 
Q 5691 2819 5691 2113 
L 5691 0 
L 5113 0 
L 5113 2094 
Q 5113 2597 4934 2840 
Q 4756 3084 4391 3084 
Q 3944 3084 3684 2787 
Q 3425 2491 3425 1978 
L 3425 0 
L 2847 0 
L 2847 2094 
Q 2847 2600 2669 2842 
Q 2491 3084 2119 3084 
Q 1678 3084 1418 2786 
Q 1159 2488 1159 1978 
L 1159 0 
L 581 0 
L 581 3500 
L 1159 3500 
L 1159 2956 
Q 1356 3278 1631 3431 
Q 1906 3584 2284 3584 
Q 2666 3584 2933 3390 
Q 3200 3197 3328 2828 
z
" transform="scale(0.015625)"/>
     <path id="DejaVuSans-64" d="M 2906 2969 
L 2906 4863 
L 3481 4863 
L 3481 0 
L 2906 0 
L 2906 525 
Q 2725 213 2448 61 
Q 2172 -91 1784 -91 
Q 1150 -91 751 415 
Q 353 922 353 1747 
Q 353 2572 751 3078 
Q 1150 3584 1784 3584 
Q 2172 3584 2448 3432 
Q 2725 3281 2906 2969 
z
M 947 1747 
Q 947 1113 1208 752 
Q 1469 391 1925 391 
Q 2381 391 2643 752 
Q 2906 1113 2906 1747 
Q 2906 2381 2643 2742 
Q 2381 3103 1925 3103 
Q 1469 3103 1208 2742 
Q 947 2381 947 1747 
z
" transform="scale(0.015625)"/>
     <path id="DejaVuSans-42" d="M 1259 2228 
L 1259 519 
L 2272 519 
Q 2781 519 3026 730 
Q 3272 941 3272 1375 
Q 3272 1813 3026 2020 
Q 2781 2228 2272 2228 
L 1259 2228 
z
M 1259 4147 
L 1259 2741 
L 2194 2741 
Q 2656 2741 2882 2914 
Q 3109 3088 3109 3444 
Q 3109 3797 2882 3972 
Q 2656 4147 2194 4147 
L 1259 4147 
z
M 628 4666 
L 2241 4666 
Q 2963 4666 3353 4366 
Q 3744 4066 3744 3513 
Q 3744 3084 3544 2831 
Q 3344 2578 2956 2516 
Q 3422 2416 3680 2098 
Q 3938 1781 3938 1306 
Q 3938 681 3513 340 
Q 3088 0 2303 0 
L 628 0 
L 628 4666 
z
" transform="scale(0.015625)"/>
     <path id="DejaVuSans-79" d="M 2059 -325 
Q 1816 -950 1584 -1140 
Q 1353 -1331 966 -1331 
L 506 -1331 
L 506 -850 
L 844 -850 
Q 1081 -850 1212 -737 
Q 1344 -625 1503 -206 
L 1606 56 
L 191 3500 
L 800 3500 
L 1894 763 
L 2988 3500 
L 3597 3500 
L 2059 -325 
z
" transform="scale(0.015625)"/>
    </defs>
    <use xlink:href="#DejaVuSans-6d"/>
    <use xlink:href="#DejaVuSans-6f" x="97.412109"/>
    <use xlink:href="#DejaVuSans-64" x="158.59375"/>
    <use xlink:href="#DejaVuSans-65" x="222.070312"/>
    <use xlink:href="#DejaVuSans-6c" x="283.59375"/>
    <use xlink:href="#DejaVuSans-73" x="311.376953"/>
    <use xlink:href="#DejaVuSans-20" x="363.476562"/>
    <use xlink:href="#DejaVuSans-61" x="395.263672"/>
    <use xlink:href="#DejaVuSans-72" x="456.542969"/>
    <use xlink:href="#DejaVuSans-63" x="495.40625"/>
    <use xlink:href="#DejaVuSans-68" x="550.386719"/>
    <use xlink:href="#DejaVuSans-69" x="613.765625"/>
    <use xlink:href="#DejaVuSans-74" x="641.548828"/>
    <use xlink:href="#DejaVuSans-65" x="680.757812"/>
    <use xlink:href="#DejaVuSans-63" x="742.28125"/>
    <use xlink:href="#DejaVuSans-74" x="797.261719"/>
    <use xlink:href="#DejaVuSans-75" x="836.470703"/>
    <use xlink:href="#DejaVuSans-72" x="899.849609"/>
    <use xlink:href="#DejaVuSans-65" x="938.712891"/>
    <use xlink:href="#DejaVuSans-20" x="1000.236328"/>
    <use xlink:href="#DejaVuSans-42" x="1032.023438"/>
    <use xlink:href="#DejaVuSans-20" x="1100.626953"/>
    <use xlink:href="#DejaVuSans-28" x="1132.414062"/>
    <use xlink:href="#DejaVuSans-76" x="1171.427734"/>
    <use xlink:href="#DejaVuSans-61" x="1230.607422"/>
    <use xlink:href="#DejaVuSans-72" x="1291.886719"/>
    <use xlink:href="#DejaVuSans-79" x="1333"/>
    <use xlink:href="#DejaVuSans-69" x="1392.179688"/>
    <use xlink:href="#DejaVuSans-6e" x="1419.962891"/>
    <use xlink:href="#DejaVuSans-67" x="1483.341797"/>
    <use xlink:href="#DejaVuSans-20" x="1546.818359"/>
    <use xlink:href="#DejaVuSans-6c" x="1578.605469"/>
    <use xlink:href="#DejaVuSans-72" x="1606.388672"/>
    <use xlink:href="#DejaVuSans-29" x="1647.501953"/>
   </g>
  </g>
 </g>
 <defs>
  <clipPath id="p25e98c0b9d">
   <rect x="47.72" y="50.64" width="380.68" height="267.4"/>
  </clipPath>
  <clipPath id="pca6a1ee543">
   <rect x="476.12" y="50.64" width="380.68" height="267.4"/>
  </clipPath>
  <clipPath id="p403a4aca17">
   <rect x="904.52" y="50.64" width="380.68" height="267.4"/>
  </clipPath>
 </defs>
</svg>
