<?xml version="1.0" encoding="utf-8" standalone="no"?>
<!DOCTYPE svg PUBLIC "-//W3C//DTD SVG 1.1//EN"
  "http://www.w3.org/Graphics/SVG/1.1/DTD/svg11.dtd">
<svg xmlns:xlink="http://www.w3.org/1999/xlink" width="1296pt" height="360pt" viewBox="0 0 1296 360" xmlns="http://www.w3.org/2000/svg" version="1.1">
 <metadata>
  <rdf:RDF xmlns:dc="http://purl.org/dc/elements/1.1/" xmlns:cc="http://creativecommons.org/ns#" xmlns:rdf="http://www.w3.org/1999/02/22-rdf-syntax-ns#">
   <cc:Work>
    <dc:type rdf:resource="http://purl.org/dc/dcmitype/StillImage"/>
    <dc:date>2025-11-06T14:56:22.601544</dc:date>
    <dc:format>image/svg+xml</dc:format>
    <dc:creator>
     <cc:Agent>
      <dc:title>Matplotlib v3.9.1, https://matplotlib.org/</dc:title>
     </cc:Agent>
    </dc:creator>
   </cc:Work>
  </rdf:RDF>
 </metadata>
 <defs>
  <style type="text/css">*{stroke-linejoin: round; stroke-linecap: butt}</style>
 </defs>
 <g id="figure_1">
  <g id="patch_1">
   <path d="M 0 360 
L 1296 360 
L 1296 0 
L 0 0 
z
" style="fill: #ffffff"/>
  </g>
  <g id="axes_1">
   <g id="patch_2">
    <path d="M 47.72 318.04 
L 428.4 318.04 
L 428.4 50.64 
L 47.72 50.64 
z
" style="fill: #ffffff"/>
   </g>
   <g id="matplotlib.axis_1">
    <g id="xtick_1">
     <g id="line2d_1">
      <path d="M 57.960928 318.04 
L 57.960928 50.64 
" clip-path="url(#p437daa7f0a)" style="fill: none; stroke: #b0b0b0; stroke-width: 0.8; stroke-linecap: square"/>
     </g>
     <g id="line2d_2">
      <defs>
       <path id="md186cd4709" d="M 0 0 
L 0 3.5 
" style="stroke: #000000; stroke-width: 0.8"/>
      </defs>
      <g>
       <use xlink:href="#md186cd4709" x="57.960928" y="318.04" style="stroke: #000000; stroke-width: 0.8"/>
      </g>
     </g>
     <g id="text_1">
      <!-- 0 -->
      <g transform="translate(54.779678 332.638438) scale(0.1 -0.1)">
       <defs>
        <path id="DejaVuSans-30" d="M 2034 4250 
Q 1547 4250 1301 3770 
Q 1056 3291 1056 2328 
Q 1056 1369 1301 889 
Q 1547 409 2034 409 
Q 2525 409 2770 889 
Q 3016 1369 3016 2328 
Q 3016 3291 2770 3770 
Q 2525 4250 2034 4250 
z
M 2034 4750 
Q 2819 4750 3233 4129 
Q 3647 3509 3647 2328 
Q 3647 1150 3233 529 
Q 2819 -91 2034 -91 
Q 1250 -91 836 529 
Q 422 1150 422 2328 
Q 422 3509 836 4129 
Q 1250 4750 2034 4750 
z
" transform="scale(0.015625)"/>
       </defs>
       <use xlink:href="#DejaVuSans-30"/>
      </g>
     </g>
    </g>
    <g id="xtick_2">
     <g id="line2d_3">
      <path d="M 128.588015 318.04 
L 128.588015 50.64 
" clip-path="url(#p437daa7f0a)" style="fill: none; stroke: #b0b0b0; stroke-width: 0.8; stroke-linecap: square"/>
     </g>
     <g id="line2d_4">
      <g>
       <use xlink:href="#md186cd4709" x="128.588015" y="318.04" style="stroke: #000000; stroke-width: 0.8"/>
      </g>
     </g>
     <g id="text_2">
      <!-- 10 -->
      <g transform="translate(122.225515 332.638438) scale(0.1 -0.1)">
       <defs>
        <path id="DejaVuSans-31" d="M 794 531 
L 1825 531 
L 1825 4091 
L 703 3866 
L 703 4441 
L 1819 4666 
L 2450 4666 
L 2450 531 
L 3481 531 
L 3481 0 
L 794 0 
L 794 531 
z
" transform="scale(0.015625)"/>
       </defs>
       <use xlink:href="#DejaVuSans-31"/>
       <use xlink:href="#DejaVuSans-30" x="63.623047"/>
      </g>
     </g>
    </g>
    <g id="xtick_3">
     <g id="line2d_5">
      <path d="M 199.215102 318.04 
L 199.215102 50.64 
" clip-path="url(#p437daa7f0a)" style="fill: none; stroke: #b0b0b0; stroke-width: 0.8; stroke-linecap: square"/>
     </g>
     <g id="line2d_6">
      <g>
       <use xlink:href="#md186cd4709" x="199.215102" y="318.04" style="stroke: #000000; stroke-width: 0.8"/>
      </g>
     </g>
     <g id="text_3">
      <!-- 20 -->
      <g transform="translate(192.852602 332.638438) scale(0.1 -0.1)">
       <defs>
        <path id="DejaVuSans-32" d="M 1228 531 
L 3431 531 
L 3431 0 
L 469 0 
L 469 531 
Q 828 903 1448 1529 
Q 2069 2156 2228 2338 
Q 2531 2678 2651 2914 
Q 2772 3150 2772 3378 
Q 2772 3750 2511 3984 
Q 2250 4219 1831 4219 
Q 1534 4219 1204 4116 
Q 875 4013 500 3803 
L 500 4441 
Q 881 4594 1212 4672 
Q 1544 4750 1819 4750 
Q 2544 4750 2975 4387 
Q 3406 4025 3406 3419 
Q 3406 3131 3298 2873 
Q 3191 2616 2906 2266 
Q 2828 2175 2409 1742 
Q 1991 1309 1228 531 
z
" transform="scale(0.015625)"/>
       </defs>
       <use xlink:href="#DejaVuSans-32"/>
       <use xlink:href="#DejaVuSans-30" x="63.623047"/>
      </g>
     </g>
    </g>
    <g id="xtick_4">
     <g id="line2d_7">
      <path d="M 269.842189 318.04 
L 269.842189 50.64 
" clip-path="url(#p437daa7f0a)" style="fill: none; stroke: #b0b0b0; stroke-width: 0.8; stroke-linecap: square"/>
     </g>
     <g id="line2d_8">
      <g>
       <use xlink:href="#md186cd4709" x="269.842189" y="318.04" style="stroke: #000000; stroke-width: 0.8"/>
      </g>
     </g>
     <g id="text_4">
      <!-- 30 -->
      <g transform="translate(263.479689 332.638438) scale(0.1 -0.1)">
       <defs>
        <path id="DejaVuSans-33" d="M 2597 2516 
Q 3050 2419 3304 2112 
Q 3559 1806 3559 1356 
Q 3559 666 3084 287 
Q 2609 -91 1734 -91 
Q 1441 -91 1130 -33 
Q 819 25 488 141 
L 488 750 
Q 750 597 1062 519 
Q 1375 441 1716 441 
Q 2309 441 2620 675 
Q 2931 909 2931 1356 
Q 2931 1769 2642 2001 
Q 2353 2234 1838 2234 
L 1294 2234 
L 1294 2753 
L 1863 2753 
Q 2328 2753 2575 2939 
Q 2822 3125 2822 3475 
Q 2822 3834 2567 4026 
Q 2313 4219 1838 4219 
Q 1578 4219 1281 4162 
Q 984 4106 628 3988 
L 628 4550 
Q 988 4650 1302 4700 
Q 1616 4750 1894 4750 
Q 2613 4750 3031 4423 
Q 3450 4097 3450 3541 
Q 3450 3153 3228 2886 
Q 3006 2619 2597 2516 
z
" transform="scale(0.015625)"/>
       </defs>
       <use xlink:href="#DejaVuSans-33"/>
       <use xlink:href="#DejaVuSans-30" x="63.623047"/>
      </g>
     </g>
    </g>
    <g id="xtick_5">
     <g id="line2d_9">
      <path d="M 340.469276 318.04 
L 340.469276 50.64 
" clip-path="url(#p437daa7f0a)" style="fill: none; stroke: #b0b0b0; stroke-width: 0.8; stroke-linecap: square"/>
     </g>
     <g id="line2d_10">
      <g>
       <use xlink:href="#md186cd4709" x="340.469276" y="318.04" style="stroke: #000000; stroke-width: 0.8"/>
      </g>
     </g>
     <g id="text_5">
      <!-- 40 -->
      <g transform="translate(334.106776 332.638438) scale(0.1 -0.1)">
       <defs>
        <path id="DejaVuSans-34" d="M 2419 4116 
L 825 1625 
L 2419 1625 
L 2419 4116 
z
M 2253 4666 
L 3047 4666 
L 3047 1625 
L 3713 1625 
L 3713 1100 
L 3047 1100 
L 3047 0 
L 2419 0 
L 2419 1100 
L 313 1100 
L 313 1709 
L 2253 4666 
z
" transform="scale(0.015625)"/>
       </defs>
       <use xlink:href="#DejaVuSans-34"/>
       <use xlink:href="#DejaVuSans-30" x="63.623047"/>
      </g>
     </g>
    </g>
    <g id="xtick_6">
     <g id="line2d_11">
      <path d="M 411.096364 318.04 
L 411.096364 50.64 
" clip-path="url(#p437daa7f0a)" style="fill: none; stroke: #b0b0b0; stroke-width: 0.8; stroke-linecap: square"/>
     </g>
     <g id="line2d_12">
      <g>
       <use xlink:href="#md186cd4709" x="411.096364" y="318.04" style="stroke: #000000; stroke-width: 0.8"/>
      </g>
     </g>
     <g id="text_6">
      <!-- 50 -->
      <g transform="translate(404.733864 332.638438) scale(0.1 -0.1)">
       <defs>
        <path id="DejaVuSans-35" d="M 691 4666 
L 3169 4666 
L 3169 4134 
L 1269 4134 
L 1269 2991 
Q 1406 3038 1543 3061 
Q 1681 3084 1819 3084 
Q 2600 3084 3056 2656 
Q 3513 2228 3513 1497 
Q 3513 744 3044 326 
Q 2575 -91 1722 -91 
Q 1428 -91 1123 -41 
Q 819 9 494 109 
L 494 744 
Q 775 591 1075 516 
Q 1375 441 1709 441 
Q 2250 441 2565 725 
Q 2881 1009 2881 1497 
Q 2881 1984 2565 2268 
Q 2250 2553 1709 2553 
Q 1456 2553 1204 2497 
Q 953 2441 691 2322 
L 691 4666 
z
" transform="scale(0.015625)"/>
       </defs>
       <use xlink:href="#DejaVuSans-35"/>
       <use xlink:href="#DejaVuSans-30" x="63.623047"/>
      </g>
     </g>
    </g>
    <g id="text_7">
     <!-- Epoch -->
     <g transform="translate(222.749062 346.316563) scale(0.1 -0.1)">
      <defs>
       <path id="DejaVuSans-45" d="M 628 4666 
L 3578 4666 
L 3578 4134 
L 1259 4134 
L 1259 2753 
L 3481 2753 
L 3481 2222 
L 1259 2222 
L 1259 531 
L 3634 531 
L 3634 0 
L 628 0 
L 628 4666 
z
" transform="scale(0.015625)"/>
       <path id="DejaVuSans-70" d="M 1159 525 
L 1159 -1331 
L 581 -1331 
L 581 3500 
L 1159 3500 
L 1159 2969 
Q 1341 3281 1617 3432 
Q 1894 3584 2278 3584 
Q 2916 3584 3314 3078 
Q 3713 2572 3713 1747 
Q 3713 922 3314 415 
Q 2916 -91 2278 -91 
Q 1894 -91 1617 61 
Q 1341 213 1159 525 
z
M 3116 1747 
Q 3116 2381 2855 2742 
Q 2594 3103 2138 3103 
Q 1681 3103 1420 2742 
Q 1159 2381 1159 1747 
Q 1159 1113 1420 752 
Q 1681 391 2138 391 
Q 2594 391 2855 752 
Q 3116 1113 3116 1747 
z
" transform="scale(0.015625)"/>
       <path id="DejaVuSans-6f" d="M 1959 3097 
Q 1497 3097 1228 2736 
Q 959 2375 959 1747 
Q 959 1119 1226 758 
Q 1494 397 1959 397 
Q 2419 397 2687 759 
Q 2956 1122 2956 1747 
Q 2956 2369 2687 2733 
Q 2419 3097 1959 3097 
z
M 1959 3584 
Q 2709 3584 3137 3096 
Q 3566 2609 3566 1747 
Q 3566 888 3137 398 
Q 2709 -91 1959 -91 
Q 1206 -91 779 398 
Q 353 888 353 1747 
Q 353 2609 779 3096 
Q 1206 3584 1959 3584 
z
" transform="scale(0.015625)"/>
       <path id="DejaVuSans-63" d="M 3122 3366 
L 3122 2828 
Q 2878 2963 2633 3030 
Q 2388 3097 2138 3097 
Q 1578 3097 1268 2742 
Q 959 2388 959 1747 
Q 959 1106 1268 751 
Q 1578 397 2138 397 
Q 2388 397 2633 464 
Q 2878 531 3122 666 
L 3122 134 
Q 2881 22 2623 -34 
Q 2366 -91 2075 -91 
Q 1284 -91 818 406 
Q 353 903 353 1747 
Q 353 2603 823 3093 
Q 1294 3584 2113 3584 
Q 2378 3584 2631 3529 
Q 2884 3475 3122 3366 
z
" transform="scale(0.015625)"/>
       <path id="DejaVuSans-68" d="M 3513 2113 
L 3513 0 
L 2938 0 
L 2938 2094 
Q 2938 2591 2744 2837 
Q 2550 3084 2163 3084 
Q 1697 3084 1428 2787 
Q 1159 2491 1159 1978 
L 1159 0 
L 581 0 
L 581 4863 
L 1159 4863 
L 1159 2956 
Q 1366 3272 1645 3428 
Q 1925 3584 2291 3584 
Q 2894 3584 3203 3211 
Q 3513 2838 3513 2113 
z
" transform="scale(0.015625)"/>
      </defs>
      <use xlink:href="#DejaVuSans-45"/>
      <use xlink:href="#DejaVuSans-70" x="63.183594"/>
      <use xlink:href="#DejaVuSans-6f" x="126.660156"/>
      <use xlink:href="#DejaVuSans-63" x="187.841797"/>
      <use xlink:href="#DejaVuSans-68" x="242.822266"/>
     </g>
    </g>
   </g>
   <g id="matplotlib.axis_2">
    <g id="ytick_1">
     <g id="line2d_13">
      <path d="M 47.72 306.006148 
L 428.4 306.006148 
" clip-path="url(#p437daa7f0a)" style="fill: none; stroke: #b0b0b0; stroke-width: 0.8; stroke-linecap: square"/>
     </g>
     <g id="line2d_14">
      <defs>
       <path id="m38579a53c0" d="M 0 0 
L -3.5 0 
" style="stroke: #000000; stroke-width: 0.8"/>
      </defs>
      <g>
       <use xlink:href="#m38579a53c0" x="47.72" y="306.006148" style="stroke: #000000; stroke-width: 0.8"/>
      </g>
     </g>
     <g id="text_8">
      <!-- 0.0 -->
      <g transform="translate(24.816875 309.805367) scale(0.1 -0.1)">
       <defs>
        <path id="DejaVuSans-2e" d="M 684 794 
L 1344 794 
L 1344 0 
L 684 0 
L 684 794 
z
" transform="scale(0.015625)"/>
       </defs>
       <use xlink:href="#DejaVuSans-30"/>
       <use xlink:href="#DejaVuSans-2e" x="63.623047"/>
       <use xlink:href="#DejaVuSans-30" x="95.410156"/>
      </g>
     </g>
    </g>
    <g id="ytick_2">
     <g id="line2d_15">
      <path d="M 47.72 267.428235 
L 428.4 267.428235 
" clip-path="url(#p437daa7f0a)" style="fill: none; stroke: #b0b0b0; stroke-width: 0.8; stroke-linecap: square"/>
     </g>
     <g id="line2d_16">
      <g>
       <use xlink:href="#m38579a53c0" x="47.72" y="267.428235" style="stroke: #000000; stroke-width: 0.8"/>
      </g>
     </g>
     <g id="text_9">
      <!-- 0.2 -->
      <g transform="translate(24.816875 271.227453) scale(0.1 -0.1)">
       <use xlink:href="#DejaVuSans-30"/>
       <use xlink:href="#DejaVuSans-2e" x="63.623047"/>
       <use xlink:href="#DejaVuSans-32" x="95.410156"/>
      </g>
     </g>
    </g>
    <g id="ytick_3">
     <g id="line2d_17">
      <path d="M 47.72 228.850321 
L 428.4 228.850321 
" clip-path="url(#p437daa7f0a)" style="fill: none; stroke: #b0b0b0; stroke-width: 0.8; stroke-linecap: square"/>
     </g>
     <g id="line2d_18">
      <g>
       <use xlink:href="#m38579a53c0" x="47.72" y="228.850321" style="stroke: #000000; stroke-width: 0.8"/>
      </g>
     </g>
     <g id="text_10">
      <!-- 0.4 -->
      <g transform="translate(24.816875 232.64954) scale(0.1 -0.1)">
       <use xlink:href="#DejaVuSans-30"/>
       <use xlink:href="#DejaVuSans-2e" x="63.623047"/>
       <use xlink:href="#DejaVuSans-34" x="95.410156"/>
      </g>
     </g>
    </g>
    <g id="ytick_4">
     <g id="line2d_19">
      <path d="M 47.72 190.272408 
L 428.4 190.272408 
" clip-path="url(#p437daa7f0a)" style="fill: none; stroke: #b0b0b0; stroke-width: 0.8; stroke-linecap: square"/>
     </g>
     <g id="line2d_20">
      <g>
       <use xlink:href="#m38579a53c0" x="47.72" y="190.272408" style="stroke: #000000; stroke-width: 0.8"/>
      </g>
     </g>
     <g id="text_11">
      <!-- 0.6 -->
      <g transform="translate(24.816875 194.071627) scale(0.1 -0.1)">
       <defs>
        <path id="DejaVuSans-36" d="M 2113 2584 
Q 1688 2584 1439 2293 
Q 1191 2003 1191 1497 
Q 1191 994 1439 701 
Q 1688 409 2113 409 
Q 2538 409 2786 701 
Q 3034 994 3034 1497 
Q 3034 2003 2786 2293 
Q 2538 2584 2113 2584 
z
M 3366 4563 
L 3366 3988 
Q 3128 4100 2886 4159 
Q 2644 4219 2406 4219 
Q 1781 4219 1451 3797 
Q 1122 3375 1075 2522 
Q 1259 2794 1537 2939 
Q 1816 3084 2150 3084 
Q 2853 3084 3261 2657 
Q 3669 2231 3669 1497 
Q 3669 778 3244 343 
Q 2819 -91 2113 -91 
Q 1303 -91 875 529 
Q 447 1150 447 2328 
Q 447 3434 972 4092 
Q 1497 4750 2381 4750 
Q 2619 4750 2861 4703 
Q 3103 4656 3366 4563 
z
" transform="scale(0.015625)"/>
       </defs>
       <use xlink:href="#DejaVuSans-30"/>
       <use xlink:href="#DejaVuSans-2e" x="63.623047"/>
       <use xlink:href="#DejaVuSans-36" x="95.410156"/>
      </g>
     </g>
    </g>
    <g id="ytick_5">
     <g id="line2d_21">
      <path d="M 47.72 151.694495 
L 428.4 151.694495 
" clip-path="url(#p437daa7f0a)" style="fill: none; stroke: #b0b0b0; stroke-width: 0.8; stroke-linecap: square"/>
     </g>
     <g id="line2d_22">
      <g>
       <use xlink:href="#m38579a53c0" x="47.72" y="151.694495" style="stroke: #000000; stroke-width: 0.8"/>
      </g>
     </g>
     <g id="text_12">
      <!-- 0.8 -->
      <g transform="translate(24.816875 155.493714) scale(0.1 -0.1)">
       <defs>
        <path id="DejaVuSans-38" d="M 2034 2216 
Q 1584 2216 1326 1975 
Q 1069 1734 1069 1313 
Q 1069 891 1326 650 
Q 1584 409 2034 409 
Q 2484 409 2743 651 
Q 3003 894 3003 1313 
Q 3003 1734 2745 1975 
Q 2488 2216 2034 2216 
z
M 1403 2484 
Q 997 2584 770 2862 
Q 544 3141 544 3541 
Q 544 4100 942 4425 
Q 1341 4750 2034 4750 
Q 2731 4750 3128 4425 
Q 3525 4100 3525 3541 
Q 3525 3141 3298 2862 
Q 3072 2584 2669 2484 
Q 3125 2378 3379 2068 
Q 3634 1759 3634 1313 
Q 3634 634 3220 271 
Q 2806 -91 2034 -91 
Q 1263 -91 848 271 
Q 434 634 434 1313 
Q 434 1759 690 2068 
Q 947 2378 1403 2484 
z
M 1172 3481 
Q 1172 3119 1398 2916 
Q 1625 2713 2034 2713 
Q 2441 2713 2670 2916 
Q 2900 3119 2900 3481 
Q 2900 3844 2670 4047 
Q 2441 4250 2034 4250 
Q 1625 4250 1398 4047 
Q 1172 3844 1172 3481 
z
" transform="scale(0.015625)"/>
       </defs>
       <use xlink:href="#DejaVuSans-30"/>
       <use xlink:href="#DejaVuSans-2e" x="63.623047"/>
       <use xlink:href="#DejaVuSans-38" x="95.410156"/>
      </g>
     </g>
    </g>
    <g id="ytick_6">
     <g id="line2d_23">
      <path d="M 47.72 113.116581 
L 428.4 113.116581 
" clip-path="url(#p437daa7f0a)" style="fill: none; stroke: #b0b0b0; stroke-width: 0.8; stroke-linecap: square"/>
     </g>
     <g id="line2d_24">
      <g>
       <use xlink:href="#m38579a53c0" x="47.72" y="113.116581" style="stroke: #000000; stroke-width: 0.8"/>
      </g>
     </g>
     <g id="text_13">
      <!-- 1.0 -->
      <g transform="translate(24.816875 116.9158) scale(0.1 -0.1)">
       <use xlink:href="#DejaVuSans-31"/>
       <use xlink:href="#DejaVuSans-2e" x="63.623047"/>
       <use xlink:href="#DejaVuSans-30" x="95.410156"/>
      </g>
     </g>
    </g>
    <g id="ytick_7">
     <g id="line2d_25">
      <path d="M 47.72 74.538668 
L 428.4 74.538668 
" clip-path="url(#p437daa7f0a)" style="fill: none; stroke: #b0b0b0; stroke-width: 0.8; stroke-linecap: square"/>
     </g>
     <g id="line2d_26">
      <g>
       <use xlink:href="#m38579a53c0" x="47.72" y="74.538668" style="stroke: #000000; stroke-width: 0.8"/>
      </g>
     </g>
     <g id="text_14">
      <!-- 1.2 -->
      <g transform="translate(24.816875 78.337887) scale(0.1 -0.1)">
       <use xlink:href="#DejaVuSans-31"/>
       <use xlink:href="#DejaVuSans-2e" x="63.623047"/>
       <use xlink:href="#DejaVuSans-32" x="95.410156"/>
      </g>
     </g>
    </g>
    <g id="text_15">
     <!-- Training Loss -->
     <g transform="translate(18.737187 216.622031) rotate(-90) scale(0.1 -0.1)">
      <defs>
       <path id="DejaVuSans-54" d="M -19 4666 
L 3928 4666 
L 3928 4134 
L 2272 4134 
L 2272 0 
L 1638 0 
L 1638 4134 
L -19 4134 
L -19 4666 
z
" transform="scale(0.015625)"/>
       <path id="DejaVuSans-72" d="M 2631 2963 
Q 2534 3019 2420 3045 
Q 2306 3072 2169 3072 
Q 1681 3072 1420 2755 
Q 1159 2438 1159 1844 
L 1159 0 
L 581 0 
L 581 3500 
L 1159 3500 
L 1159 2956 
Q 1341 3275 1631 3429 
Q 1922 3584 2338 3584 
Q 2397 3584 2469 3576 
Q 2541 3569 2628 3553 
L 2631 2963 
z
" transform="scale(0.015625)"/>
       <path id="DejaVuSans-61" d="M 2194 1759 
Q 1497 1759 1228 1600 
Q 959 1441 959 1056 
Q 959 750 1161 570 
Q 1363 391 1709 391 
Q 2188 391 2477 730 
Q 2766 1069 2766 1631 
L 2766 1759 
L 2194 1759 
z
M 3341 1997 
L 3341 0 
L 2766 0 
L 2766 531 
Q 2569 213 2275 61 
Q 1981 -91 1556 -91 
Q 1019 -91 701 211 
Q 384 513 384 1019 
Q 384 1609 779 1909 
Q 1175 2209 1959 2209 
L 2766 2209 
L 2766 2266 
Q 2766 2663 2505 2880 
Q 2244 3097 1772 3097 
Q 1472 3097 1187 3025 
Q 903 2953 641 2809 
L 641 3341 
Q 956 3463 1253 3523 
Q 1550 3584 1831 3584 
Q 2591 3584 2966 3190 
Q 3341 2797 3341 1997 
z
" transform="scale(0.015625)"/>
       <path id="DejaVuSans-69" d="M 603 3500 
L 1178 3500 
L 1178 0 
L 603 0 
L 603 3500 
z
M 603 4863 
L 1178 4863 
L 1178 4134 
L 603 4134 
L 603 4863 
z
" transform="scale(0.015625)"/>
       <path id="DejaVuSans-6e" d="M 3513 2113 
L 3513 0 
L 2938 0 
L 2938 2094 
Q 2938 2591 2744 2837 
Q 2550 3084 2163 3084 
Q 1697 3084 1428 2787 
Q 1159 2491 1159 1978 
L 1159 0 
L 581 0 
L 581 3500 
L 1159 3500 
L 1159 2956 
Q 1366 3272 1645 3428 
Q 1925 3584 2291 3584 
Q 2894 3584 3203 3211 
Q 3513 2838 3513 2113 
z
" transform="scale(0.015625)"/>
       <path id="DejaVuSans-67" d="M 2906 1791 
Q 2906 2416 2648 2759 
Q 2391 3103 1925 3103 
Q 1463 3103 1205 2759 
Q 947 2416 947 1791 
Q 947 1169 1205 825 
Q 1463 481 1925 481 
Q 2391 481 2648 825 
Q 2906 1169 2906 1791 
z
M 3481 434 
Q 3481 -459 3084 -895 
Q 2688 -1331 1869 -1331 
Q 1566 -1331 1297 -1286 
Q 1028 -1241 775 -1147 
L 775 -588 
Q 1028 -725 1275 -790 
Q 1522 -856 1778 -856 
Q 2344 -856 2625 -561 
Q 2906 -266 2906 331 
L 2906 616 
Q 2728 306 2450 153 
Q 2172 0 1784 0 
Q 1141 0 747 490 
Q 353 981 353 1791 
Q 353 2603 747 3093 
Q 1141 3584 1784 3584 
Q 2172 3584 2450 3431 
Q 2728 3278 2906 2969 
L 2906 3500 
L 3481 3500 
L 3481 434 
z
" transform="scale(0.015625)"/>
       <path id="DejaVuSans-20" transform="scale(0.015625)"/>
       <path id="DejaVuSans-4c" d="M 628 4666 
L 1259 4666 
L 1259 531 
L 3531 531 
L 3531 0 
L 628 0 
L 628 4666 
z
" transform="scale(0.015625)"/>
       <path id="DejaVuSans-73" d="M 2834 3397 
L 2834 2853 
Q 2591 2978 2328 3040 
Q 2066 3103 1784 3103 
Q 1356 3103 1142 2972 
Q 928 2841 928 2578 
Q 928 2378 1081 2264 
Q 1234 2150 1697 2047 
L 1894 2003 
Q 2506 1872 2764 1633 
Q 3022 1394 3022 966 
Q 3022 478 2636 193 
Q 2250 -91 1575 -91 
Q 1294 -91 989 -36 
Q 684 19 347 128 
L 347 722 
Q 666 556 975 473 
Q 1284 391 1588 391 
Q 1994 391 2212 530 
Q 2431 669 2431 922 
Q 2431 1156 2273 1281 
Q 2116 1406 1581 1522 
L 1381 1569 
Q 847 1681 609 1914 
Q 372 2147 372 2553 
Q 372 3047 722 3315 
Q 1072 3584 1716 3584 
Q 2034 3584 2315 3537 
Q 2597 3491 2834 3397 
z
" transform="scale(0.015625)"/>
      </defs>
      <use xlink:href="#DejaVuSans-54"/>
      <use xlink:href="#DejaVuSans-72" x="46.333984"/>
      <use xlink:href="#DejaVuSans-61" x="87.447266"/>
      <use xlink:href="#DejaVuSans-69" x="148.726562"/>
      <use xlink:href="#DejaVuSans-6e" x="176.509766"/>
      <use xlink:href="#DejaVuSans-69" x="239.888672"/>
      <use xlink:href="#DejaVuSans-6e" x="267.671875"/>
      <use xlink:href="#DejaVuSans-67" x="331.050781"/>
      <use xlink:href="#DejaVuSans-20" x="394.527344"/>
      <use xlink:href="#DejaVuSans-4c" x="426.314453"/>
      <use xlink:href="#DejaVuSans-6f" x="480.277344"/>
      <use xlink:href="#DejaVuSans-73" x="541.458984"/>
      <use xlink:href="#DejaVuSans-73" x="593.558594"/>
     </g>
    </g>
    <g id="text_16">
     <!-- 1e−8 -->
     <g transform="translate(47.72 47.64) scale(0.1 -0.1)">
      <defs>
       <path id="DejaVuSans-65" d="M 3597 1894 
L 3597 1613 
L 953 1613 
Q 991 1019 1311 708 
Q 1631 397 2203 397 
Q 2534 397 2845 478 
Q 3156 559 3463 722 
L 3463 178 
Q 3153 47 2828 -22 
Q 2503 -91 2169 -91 
Q 1331 -91 842 396 
Q 353 884 353 1716 
Q 353 2575 817 3079 
Q 1281 3584 2069 3584 
Q 2775 3584 3186 3129 
Q 3597 2675 3597 1894 
z
M 3022 2063 
Q 3016 2534 2758 2815 
Q 2500 3097 2075 3097 
Q 1594 3097 1305 2825 
Q 1016 2553 972 2059 
L 3022 2063 
z
" transform="scale(0.015625)"/>
       <path id="DejaVuSans-2212" d="M 678 2272 
L 4684 2272 
L 4684 1741 
L 678 1741 
L 678 2272 
z
" transform="scale(0.015625)"/>
      </defs>
      <use xlink:href="#DejaVuSans-31"/>
      <use xlink:href="#DejaVuSans-65" x="63.623047"/>
      <use xlink:href="#DejaVuSans-2212" x="125.146484"/>
      <use xlink:href="#DejaVuSans-38" x="208.935547"/>
     </g>
    </g>
   </g>
   <g id="line2d_27">
    <path d="M 65.023636 62.794545 
L 72.086345 115.940976 
L 79.149054 133.230398 
L 86.211763 148.03614 
L 93.274471 169.336403 
L 100.33718 189.332153 
L 107.399889 194.348808 
L 114.462597 201.629353 
L 121.525306 216.855443 
L 128.588015 224.449372 
L 135.650724 248.809393 
L 142.713432 247.622624 
L 149.776141 260.467713 
L 156.83885 259.086901 
L 163.901558 266.310941 
L 170.964267 271.975818 
L 178.026976 285.392892 
L 185.089685 282.657711 
L 192.152393 281.782496 
L 199.215102 285.166685 
L 206.277811 265.59927 
L 213.340519 273.516817 
L 220.403228 280.765411 
L 227.465937 286.034722 
L 234.528646 292.622016 
L 241.591354 284.403846 
L 248.654063 299.982213 
L 255.716772 293.432163 
L 262.779481 287.112731 
L 269.842189 298.864841 
L 276.904898 302.544907 
L 283.967607 303.577472 
L 291.030315 304.351023 
L 298.093024 293.738 
L 305.155733 296.733186 
L 312.218442 303.69014 
L 319.28115 303.745461 
L 326.343859 304.319122 
L 333.406568 304.684989 
L 340.469276 305.468583 
L 347.531985 305.608146 
L 354.594694 305.698076 
L 361.657403 305.752837 
L 368.720111 305.787364 
L 375.78282 305.817367 
L 382.845529 305.837662 
L 389.908237 305.850261 
L 396.970946 305.863867 
L 404.033655 305.875259 
L 411.096364 305.885455 
" clip-path="url(#p437daa7f0a)" style="fill: none; stroke: #1f77b4; stroke-width: 1.5; stroke-linecap: square"/>
   </g>
   <g id="line2d_28">
    <path d="M 65.023636 66.091169 
L 72.086345 121.071322 
L 79.149054 134.605435 
L 86.211763 160.919859 
L 93.274471 170.750091 
L 100.33718 186.039063 
L 107.399889 199.877165 
L 114.462597 215.206193 
L 121.525306 240.455785 
L 128.588015 219.013976 
L 135.650724 251.100621 
L 142.713432 249.221805 
L 149.776141 265.748295 
L 156.83885 248.676275 
L 163.901558 270.71182 
L 170.964267 271.78302 
L 178.026976 250.097944 
L 185.089685 274.632088 
L 192.152393 254.328224 
L 199.215102 279.032032 
L 206.277811 276.992513 
L 213.340519 269.838538 
L 220.403228 290.852223 
L 227.465937 284.003869 
L 234.528646 281.999678 
L 241.591354 251.525213 
L 248.654063 256.382051 
L 255.716772 263.997502 
L 262.779481 282.627873 
L 269.842189 281.74486 
L 276.904898 294.167661 
L 283.967607 296.994053 
L 291.030315 293.109109 
L 298.093024 299.716439 
L 305.155733 276.39318 
L 312.218442 290.988349 
L 319.28115 299.084705 
L 326.343859 304.543563 
L 333.406568 304.677625 
L 340.469276 304.965679 
L 347.531985 305.462751 
L 354.594694 305.620002 
L 361.657403 305.712713 
L 368.720111 305.722984 
L 375.78282 305.76329 
L 382.845529 305.785163 
L 389.908237 305.810794 
L 396.970946 305.821657 
L 404.033655 305.838762 
L 411.096364 305.851067 
" clip-path="url(#p437daa7f0a)" style="fill: none; stroke: #ff7f0e; stroke-width: 1.5; stroke-linecap: square"/>
   </g>
   <g id="line2d_29">
    <path d="M 65.023636 65.996504 
L 72.086345 122.505272 
L 79.149054 142.540742 
L 86.211763 150.253889 
L 93.274471 162.17268 
L 100.33718 183.430969 
L 107.399889 197.208838 
L 114.462597 216.875562 
L 121.525306 218.327007 
L 128.588015 212.731023 
L 135.650724 238.373728 
L 142.713432 251.202545 
L 149.776141 249.616581 
L 156.83885 266.563192 
L 163.901558 277.606608 
L 170.964267 239.075302 
L 178.026976 262.450446 
L 185.089685 259.921494 
L 192.152393 279.264565 
L 199.215102 287.710374 
L 206.277811 288.402431 
L 213.340519 293.210066 
L 220.403228 225.087919 
L 227.465937 277.637252 
L 234.528646 295.706369 
L 241.591354 298.436667 
L 248.654063 287.368945 
L 255.716772 225.938225 
L 262.779481 257.082705 
L 269.842189 248.104574 
L 276.904898 290.585318 
L 283.967607 290.337714 
L 291.030315 289.069514 
L 298.093024 299.441633 
L 305.155733 300.712053 
L 312.218442 303.574956 
L 319.28115 304.224448 
L 326.343859 300.556421 
L 333.406568 304.417611 
L 340.469276 302.354724 
L 347.531985 304.068334 
L 354.594694 304.74571 
L 361.657403 301.052249 
L 368.720111 302.676109 
L 375.78282 299.681289 
L 382.845529 291.832094 
L 389.908237 302.841099 
L 396.970946 297.561316 
L 404.033655 277.744296 
L 411.096364 263.020524 
" clip-path="url(#p437daa7f0a)" style="fill: none; stroke: #2ca02c; stroke-width: 1.5; stroke-linecap: square"/>
   </g>
   <g id="patch_3">
    <path d="M 47.72 318.04 
L 47.72 50.64 
" style="fill: none; stroke: #000000; stroke-width: 0.8; stroke-linejoin: miter; stroke-linecap: square"/>
   </g>
   <g id="patch_4">
    <path d="M 428.4 318.04 
L 428.4 50.64 
" style="fill: none; stroke: #000000; stroke-width: 0.8; stroke-linejoin: miter; stroke-linecap: square"/>
   </g>
   <g id="patch_5">
    <path d="M 47.72 318.04 
L 428.4 318.04 
" style="fill: none; stroke: #000000; stroke-width: 0.8; stroke-linejoin: miter; stroke-linecap: square"/>
   </g>
   <g id="patch_6">
    <path d="M 47.72 50.64 
L 428.4 50.64 
" style="fill: none; stroke: #000000; stroke-width: 0.8; stroke-linejoin: miter; stroke-linecap: square"/>
   </g>
   <g id="text_17">
    <!-- Training Loss -->
    <g transform="translate(199.321562 44.64) scale(0.12 -0.12)">
     <use xlink:href="#DejaVuSans-54"/>
     <use xlink:href="#DejaVuSans-72" x="46.333984"/>
     <use xlink:href="#DejaVuSans-61" x="87.447266"/>
     <use xlink:href="#DejaVuSans-69" x="148.726562"/>
     <use xlink:href="#DejaVuSans-6e" x="176.509766"/>
     <use xlink:href="#DejaVuSans-69" x="239.888672"/>
     <use xlink:href="#DejaVuSans-6e" x="267.671875"/>
     <use xlink:href="#DejaVuSans-67" x="331.050781"/>
     <use xlink:href="#DejaVuSans-20" x="394.527344"/>
     <use xlink:href="#DejaVuSans-4c" x="426.314453"/>
     <use xlink:href="#DejaVuSans-6f" x="480.277344"/>
     <use xlink:href="#DejaVuSans-73" x="541.458984"/>
     <use xlink:href="#DejaVuSans-73" x="593.558594"/>
    </g>
   </g>
   <g id="legend_1">
    <g id="patch_7">
     <path d="M 334.507812 102.674375 
L 421.4 102.674375 
Q 423.4 102.674375 423.4 100.674375 
L 423.4 57.64 
Q 423.4 55.64 421.4 55.64 
L 334.507812 55.64 
Q 332.507812 55.64 332.507812 57.64 
L 332.507812 100.674375 
Q 332.507812 102.674375 334.507812 102.674375 
z
" style="fill: #ffffff; opacity: 0.8; stroke: #cccccc; stroke-linejoin: miter"/>
    </g>
    <g id="line2d_30">
     <path d="M 336.507812 63.738437 
L 346.507812 63.738437 
L 356.507812 63.738437 
" style="fill: none; stroke: #1f77b4; stroke-width: 1.5; stroke-linecap: square"/>
    </g>
    <g id="text_18">
     <!-- t595w (12) -->
     <g transform="translate(364.507812 67.238437) scale(0.1 -0.1)">
      <defs>
       <path id="DejaVuSans-74" d="M 1172 4494 
L 1172 3500 
L 2356 3500 
L 2356 3053 
L 1172 3053 
L 1172 1153 
Q 1172 725 1289 603 
Q 1406 481 1766 481 
L 2356 481 
L 2356 0 
L 1766 0 
Q 1100 0 847 248 
Q 594 497 594 1153 
L 594 3053 
L 172 3053 
L 172 3500 
L 594 3500 
L 594 4494 
L 1172 4494 
z
" transform="scale(0.015625)"/>
       <path id="DejaVuSans-39" d="M 703 97 
L 703 672 
Q 941 559 1184 500 
Q 1428 441 1663 441 
Q 2288 441 2617 861 
Q 2947 1281 2994 2138 
Q 2813 1869 2534 1725 
Q 2256 1581 1919 1581 
Q 1219 1581 811 2004 
Q 403 2428 403 3163 
Q 403 3881 828 4315 
Q 1253 4750 1959 4750 
Q 2769 4750 3195 4129 
Q 3622 3509 3622 2328 
Q 3622 1225 3098 567 
Q 2575 -91 1691 -91 
Q 1453 -91 1209 -44 
Q 966 3 703 97 
z
M 1959 2075 
Q 2384 2075 2632 2365 
Q 2881 2656 2881 3163 
Q 2881 3666 2632 3958 
Q 2384 4250 1959 4250 
Q 1534 4250 1286 3958 
Q 1038 3666 1038 3163 
Q 1038 2656 1286 2365 
Q 1534 2075 1959 2075 
z
" transform="scale(0.015625)"/>
       <path id="DejaVuSans-77" d="M 269 3500 
L 844 3500 
L 1563 769 
L 2278 3500 
L 2956 3500 
L 3675 769 
L 4391 3500 
L 4966 3500 
L 4050 0 
L 3372 0 
L 2619 2869 
L 1863 0 
L 1184 0 
L 269 3500 
z
" transform="scale(0.015625)"/>
       <path id="DejaVuSans-28" d="M 1984 4856 
Q 1566 4138 1362 3434 
Q 1159 2731 1159 2009 
Q 1159 1288 1364 580 
Q 1569 -128 1984 -844 
L 1484 -844 
Q 1016 -109 783 600 
Q 550 1309 550 2009 
Q 550 2706 781 3412 
Q 1013 4119 1484 4856 
L 1984 4856 
z
" transform="scale(0.015625)"/>
       <path id="DejaVuSans-29" d="M 513 4856 
L 1013 4856 
Q 1481 4119 1714 3412 
Q 1947 2706 1947 2009 
Q 1947 1309 1714 600 
Q 1481 -109 1013 -844 
L 513 -844 
Q 928 -128 1133 580 
Q 1338 1288 1338 2009 
Q 1338 2731 1133 3434 
Q 928 4138 513 4856 
z
" transform="scale(0.015625)"/>
      </defs>
      <use xlink:href="#DejaVuSans-74"/>
      <use xlink:href="#DejaVuSans-35" x="39.208984"/>
      <use xlink:href="#DejaVuSans-39" x="102.832031"/>
      <use xlink:href="#DejaVuSans-35" x="166.455078"/>
      <use xlink:href="#DejaVuSans-77" x="230.078125"/>
      <use xlink:href="#DejaVuSans-20" x="311.865234"/>
      <use xlink:href="#DejaVuSans-28" x="343.652344"/>
      <use xlink:href="#DejaVuSans-31" x="382.666016"/>
      <use xlink:href="#DejaVuSans-32" x="446.289062"/>
      <use xlink:href="#DejaVuSans-29" x="509.912109"/>
     </g>
    </g>
    <g id="line2d_31">
     <path d="M 336.507812 78.416562 
L 346.507812 78.416562 
L 356.507812 78.416562 
" style="fill: none; stroke: #ff7f0e; stroke-width: 1.5; stroke-linecap: square"/>
    </g>
    <g id="text_19">
     <!-- 94y4c (16) -->
     <g transform="translate(364.507812 81.916562) scale(0.1 -0.1)">
      <defs>
       <path id="DejaVuSans-79" d="M 2059 -325 
Q 1816 -950 1584 -1140 
Q 1353 -1331 966 -1331 
L 506 -1331 
L 506 -850 
L 844 -850 
Q 1081 -850 1212 -737 
Q 1344 -625 1503 -206 
L 1606 56 
L 191 3500 
L 800 3500 
L 1894 763 
L 2988 3500 
L 3597 3500 
L 2059 -325 
z
" transform="scale(0.015625)"/>
      </defs>
      <use xlink:href="#DejaVuSans-39"/>
      <use xlink:href="#DejaVuSans-34" x="63.623047"/>
      <use xlink:href="#DejaVuSans-79" x="127.246094"/>
      <use xlink:href="#DejaVuSans-34" x="186.425781"/>
      <use xlink:href="#DejaVuSans-63" x="250.048828"/>
      <use xlink:href="#DejaVuSans-20" x="305.029297"/>
      <use xlink:href="#DejaVuSans-28" x="336.816406"/>
      <use xlink:href="#DejaVuSans-31" x="375.830078"/>
      <use xlink:href="#DejaVuSans-36" x="439.453125"/>
      <use xlink:href="#DejaVuSans-29" x="503.076172"/>
     </g>
    </g>
    <g id="line2d_32">
     <path d="M 336.507812 93.094687 
L 346.507812 93.094687 
L 356.507812 93.094687 
" style="fill: none; stroke: #2ca02c; stroke-width: 1.5; stroke-linecap: square"/>
    </g>
    <g id="text_20">
     <!-- t8h67 (20) -->
     <g transform="translate(364.507812 96.594687) scale(0.1 -0.1)">
      <defs>
       <path id="DejaVuSans-37" d="M 525 4666 
L 3525 4666 
L 3525 4397 
L 1831 0 
L 1172 0 
L 2766 4134 
L 525 4134 
L 525 4666 
z
" transform="scale(0.015625)"/>
      </defs>
      <use xlink:href="#DejaVuSans-74"/>
      <use xlink:href="#DejaVuSans-38" x="39.208984"/>
      <use xlink:href="#DejaVuSans-68" x="102.832031"/>
      <use xlink:href="#DejaVuSans-36" x="166.210938"/>
      <use xlink:href="#DejaVuSans-37" x="229.833984"/>
      <use xlink:href="#DejaVuSans-20" x="293.457031"/>
      <use xlink:href="#DejaVuSans-28" x="325.244141"/>
      <use xlink:href="#DejaVuSans-32" x="364.257812"/>
      <use xlink:href="#DejaVuSans-30" x="427.880859"/>
      <use xlink:href="#DejaVuSans-29" x="491.503906"/>
     </g>
    </g>
   </g>
  </g>
  <g id="axes_2">
   <g id="patch_8">
    <path d="M 476.12 318.04 
L 856.8 318.04 
L 856.8 50.64 
L 476.12 50.64 
z
" style="fill: #ffffff"/>
   </g>
   <g id="matplotlib.axis_3">
    <g id="xtick_7">
     <g id="line2d_33">
      <path d="M 486.360928 318.04 
L 486.360928 50.64 
" clip-path="url(#p2863f52d03)" style="fill: none; stroke: #b0b0b0; stroke-width: 0.8; stroke-linecap: square"/>
     </g>
     <g id="line2d_34">
      <g>
       <use xlink:href="#md186cd4709" x="486.360928" y="318.04" style="stroke: #000000; stroke-width: 0.8"/>
      </g>
     </g>
     <g id="text_21">
      <!-- 0 -->
      <g transform="translate(483.179678 332.638438) scale(0.1 -0.1)">
       <use xlink:href="#DejaVuSans-30"/>
      </g>
     </g>
    </g>
    <g id="xtick_8">
     <g id="line2d_35">
      <path d="M 556.988015 318.04 
L 556.988015 50.64 
" clip-path="url(#p2863f52d03)" style="fill: none; stroke: #b0b0b0; stroke-width: 0.8; stroke-linecap: square"/>
     </g>
     <g id="line2d_36">
      <g>
       <use xlink:href="#md186cd4709" x="556.988015" y="318.04" style="stroke: #000000; stroke-width: 0.8"/>
      </g>
     </g>
     <g id="text_22">
      <!-- 10 -->
      <g transform="translate(550.625515 332.638438) scale(0.1 -0.1)">
       <use xlink:href="#DejaVuSans-31"/>
       <use xlink:href="#DejaVuSans-30" x="63.623047"/>
      </g>
     </g>
    </g>
    <g id="xtick_9">
     <g id="line2d_37">
      <path d="M 627.615102 318.04 
L 627.615102 50.64 
" clip-path="url(#p2863f52d03)" style="fill: none; stroke: #b0b0b0; stroke-width: 0.8; stroke-linecap: square"/>
     </g>
     <g id="line2d_38">
      <g>
       <use xlink:href="#md186cd4709" x="627.615102" y="318.04" style="stroke: #000000; stroke-width: 0.8"/>
      </g>
     </g>
     <g id="text_23">
      <!-- 20 -->
      <g transform="translate(621.252602 332.638438) scale(0.1 -0.1)">
       <use xlink:href="#DejaVuSans-32"/>
       <use xlink:href="#DejaVuSans-30" x="63.623047"/>
      </g>
     </g>
    </g>
    <g id="xtick_10">
     <g id="line2d_39">
      <path d="M 698.242189 318.04 
L 698.242189 50.64 
" clip-path="url(#p2863f52d03)" style="fill: none; stroke: #b0b0b0; stroke-width: 0.8; stroke-linecap: square"/>
     </g>
     <g id="line2d_40">
      <g>
       <use xlink:href="#md186cd4709" x="698.242189" y="318.04" style="stroke: #000000; stroke-width: 0.8"/>
      </g>
     </g>
     <g id="text_24">
      <!-- 30 -->
      <g transform="translate(691.879689 332.638438) scale(0.1 -0.1)">
       <use xlink:href="#DejaVuSans-33"/>
       <use xlink:href="#DejaVuSans-30" x="63.623047"/>
      </g>
     </g>
    </g>
    <g id="xtick_11">
     <g id="line2d_41">
      <path d="M 768.869276 318.04 
L 768.869276 50.64 
" clip-path="url(#p2863f52d03)" style="fill: none; stroke: #b0b0b0; stroke-width: 0.8; stroke-linecap: square"/>
     </g>
     <g id="line2d_42">
      <g>
       <use xlink:href="#md186cd4709" x="768.869276" y="318.04" style="stroke: #000000; stroke-width: 0.8"/>
      </g>
     </g>
     <g id="text_25">
      <!-- 40 -->
      <g transform="translate(762.506776 332.638438) scale(0.1 -0.1)">
       <use xlink:href="#DejaVuSans-34"/>
       <use xlink:href="#DejaVuSans-30" x="63.623047"/>
      </g>
     </g>
    </g>
    <g id="xtick_12">
     <g id="line2d_43">
      <path d="M 839.496364 318.04 
L 839.496364 50.64 
" clip-path="url(#p2863f52d03)" style="fill: none; stroke: #b0b0b0; stroke-width: 0.8; stroke-linecap: square"/>
     </g>
     <g id="line2d_44">
      <g>
       <use xlink:href="#md186cd4709" x="839.496364" y="318.04" style="stroke: #000000; stroke-width: 0.8"/>
      </g>
     </g>
     <g id="text_26">
      <!-- 50 -->
      <g transform="translate(833.133864 332.638438) scale(0.1 -0.1)">
       <use xlink:href="#DejaVuSans-35"/>
       <use xlink:href="#DejaVuSans-30" x="63.623047"/>
      </g>
     </g>
    </g>
    <g id="text_27">
     <!-- Epoch -->
     <g transform="translate(651.149063 346.316563) scale(0.1 -0.1)">
      <use xlink:href="#DejaVuSans-45"/>
      <use xlink:href="#DejaVuSans-70" x="63.183594"/>
      <use xlink:href="#DejaVuSans-6f" x="126.660156"/>
      <use xlink:href="#DejaVuSans-63" x="187.841797"/>
      <use xlink:href="#DejaVuSans-68" x="242.822266"/>
     </g>
    </g>
   </g>
   <g id="matplotlib.axis_4">
    <g id="ytick_8">
     <g id="line2d_45">
      <path d="M 476.12 277.612382 
L 856.8 277.612382 
" clip-path="url(#p2863f52d03)" style="fill: none; stroke: #b0b0b0; stroke-width: 0.8; stroke-linecap: square"/>
     </g>
     <g id="line2d_46">
      <g>
       <use xlink:href="#m38579a53c0" x="476.12" y="277.612382" style="stroke: #000000; stroke-width: 0.8"/>
      </g>
     </g>
     <g id="text_28">
      <!-- 1.0 -->
      <g transform="translate(453.216875 281.4116) scale(0.1 -0.1)">
       <use xlink:href="#DejaVuSans-31"/>
       <use xlink:href="#DejaVuSans-2e" x="63.623047"/>
       <use xlink:href="#DejaVuSans-30" x="95.410156"/>
      </g>
     </g>
    </g>
    <g id="ytick_9">
     <g id="line2d_47">
      <path d="M 476.12 221.337445 
L 856.8 221.337445 
" clip-path="url(#p2863f52d03)" style="fill: none; stroke: #b0b0b0; stroke-width: 0.8; stroke-linecap: square"/>
     </g>
     <g id="line2d_48">
      <g>
       <use xlink:href="#m38579a53c0" x="476.12" y="221.337445" style="stroke: #000000; stroke-width: 0.8"/>
      </g>
     </g>
     <g id="text_29">
      <!-- 1.5 -->
      <g transform="translate(453.216875 225.136663) scale(0.1 -0.1)">
       <use xlink:href="#DejaVuSans-31"/>
       <use xlink:href="#DejaVuSans-2e" x="63.623047"/>
       <use xlink:href="#DejaVuSans-35" x="95.410156"/>
      </g>
     </g>
    </g>
    <g id="ytick_10">
     <g id="line2d_49">
      <path d="M 476.12 165.062508 
L 856.8 165.062508 
" clip-path="url(#p2863f52d03)" style="fill: none; stroke: #b0b0b0; stroke-width: 0.8; stroke-linecap: square"/>
     </g>
     <g id="line2d_50">
      <g>
       <use xlink:href="#m38579a53c0" x="476.12" y="165.062508" style="stroke: #000000; stroke-width: 0.8"/>
      </g>
     </g>
     <g id="text_30">
      <!-- 2.0 -->
      <g transform="translate(453.216875 168.861726) scale(0.1 -0.1)">
       <use xlink:href="#DejaVuSans-32"/>
       <use xlink:href="#DejaVuSans-2e" x="63.623047"/>
       <use xlink:href="#DejaVuSans-30" x="95.410156"/>
      </g>
     </g>
    </g>
    <g id="ytick_11">
     <g id="line2d_51">
      <path d="M 476.12 108.787571 
L 856.8 108.787571 
" clip-path="url(#p2863f52d03)" style="fill: none; stroke: #b0b0b0; stroke-width: 0.8; stroke-linecap: square"/>
     </g>
     <g id="line2d_52">
      <g>
       <use xlink:href="#m38579a53c0" x="476.12" y="108.787571" style="stroke: #000000; stroke-width: 0.8"/>
      </g>
     </g>
     <g id="text_31">
      <!-- 2.5 -->
      <g transform="translate(453.216875 112.586789) scale(0.1 -0.1)">
       <use xlink:href="#DejaVuSans-32"/>
       <use xlink:href="#DejaVuSans-2e" x="63.623047"/>
       <use xlink:href="#DejaVuSans-35" x="95.410156"/>
      </g>
     </g>
    </g>
    <g id="ytick_12">
     <g id="line2d_53">
      <path d="M 476.12 52.512634 
L 856.8 52.512634 
" clip-path="url(#p2863f52d03)" style="fill: none; stroke: #b0b0b0; stroke-width: 0.8; stroke-linecap: square"/>
     </g>
     <g id="line2d_54">
      <g>
       <use xlink:href="#m38579a53c0" x="476.12" y="52.512634" style="stroke: #000000; stroke-width: 0.8"/>
      </g>
     </g>
     <g id="text_32">
      <!-- 3.0 -->
      <g transform="translate(453.216875 56.311852) scale(0.1 -0.1)">
       <use xlink:href="#DejaVuSans-33"/>
       <use xlink:href="#DejaVuSans-2e" x="63.623047"/>
       <use xlink:href="#DejaVuSans-30" x="95.410156"/>
      </g>
     </g>
    </g>
    <g id="text_33">
     <!-- Evaluation Loss -->
     <g transform="translate(447.137188 223.278281) rotate(-90) scale(0.1 -0.1)">
      <defs>
       <path id="DejaVuSans-76" d="M 191 3500 
L 800 3500 
L 1894 563 
L 2988 3500 
L 3597 3500 
L 2284 0 
L 1503 0 
L 191 3500 
z
" transform="scale(0.015625)"/>
       <path id="DejaVuSans-6c" d="M 603 4863 
L 1178 4863 
L 1178 0 
L 603 0 
L 603 4863 
z
" transform="scale(0.015625)"/>
       <path id="DejaVuSans-75" d="M 544 1381 
L 544 3500 
L 1119 3500 
L 1119 1403 
Q 1119 906 1312 657 
Q 1506 409 1894 409 
Q 2359 409 2629 706 
Q 2900 1003 2900 1516 
L 2900 3500 
L 3475 3500 
L 3475 0 
L 2900 0 
L 2900 538 
Q 2691 219 2414 64 
Q 2138 -91 1772 -91 
Q 1169 -91 856 284 
Q 544 659 544 1381 
z
M 1991 3584 
L 1991 3584 
z
" transform="scale(0.015625)"/>
      </defs>
      <use xlink:href="#DejaVuSans-45"/>
      <use xlink:href="#DejaVuSans-76" x="63.183594"/>
      <use xlink:href="#DejaVuSans-61" x="122.363281"/>
      <use xlink:href="#DejaVuSans-6c" x="183.642578"/>
      <use xlink:href="#DejaVuSans-75" x="211.425781"/>
      <use xlink:href="#DejaVuSans-61" x="274.804688"/>
      <use xlink:href="#DejaVuSans-74" x="336.083984"/>
      <use xlink:href="#DejaVuSans-69" x="375.292969"/>
      <use xlink:href="#DejaVuSans-6f" x="403.076172"/>
      <use xlink:href="#DejaVuSans-6e" x="464.257812"/>
      <use xlink:href="#DejaVuSans-20" x="527.636719"/>
      <use xlink:href="#DejaVuSans-4c" x="559.423828"/>
      <use xlink:href="#DejaVuSans-6f" x="613.386719"/>
      <use xlink:href="#DejaVuSans-73" x="674.568359"/>
      <use xlink:href="#DejaVuSans-73" x="726.667969"/>
     </g>
    </g>
    <g id="text_34">
     <!-- 1e−5 -->
     <g transform="translate(476.12 47.64) scale(0.1 -0.1)">
      <use xlink:href="#DejaVuSans-31"/>
      <use xlink:href="#DejaVuSans-65" x="63.623047"/>
      <use xlink:href="#DejaVuSans-2212" x="125.146484"/>
      <use xlink:href="#DejaVuSans-35" x="208.935547"/>
     </g>
    </g>
   </g>
   <g id="line2d_55">
    <path d="M 493.423636 189.556379 
L 500.486345 209.641251 
L 507.549054 196.239067 
L 514.611763 204.895312 
L 521.674471 111.077187 
L 528.73718 211.973576 
L 535.799889 140.844705 
L 542.862597 215.084652 
L 549.925306 252.744081 
L 556.988015 192.457003 
L 564.050724 229.713433 
L 571.113432 251.510936 
L 578.176141 216.764934 
L 585.23885 244.848298 
L 592.301558 230.713928 
L 599.364267 190.803058 
L 606.426976 170.583542 
L 613.489685 259.617989 
L 620.552393 246.548037 
L 627.615102 235.736283 
L 634.677811 302.670957 
L 641.740519 237.819642 
L 648.803228 238.646491 
L 655.865937 174.199269 
L 662.928646 231.501303 
L 669.991354 259.96955 
L 677.054063 258.746773 
L 684.116772 253.197167 
L 691.179481 239.7869 
L 698.242189 223.821328 
L 705.304898 225.853979 
L 712.367607 204.559532 
L 719.430315 222.268182 
L 726.493024 203.866119 
L 733.555733 247.160982 
L 740.618442 233.820881 
L 747.68115 191.703262 
L 754.743859 171.963425 
L 761.806568 209.399319 
L 768.869276 204.379498 
L 775.931985 203.806475 
L 782.994694 198.788182 
L 790.057403 196.61863 
L 797.120111 192.927223 
L 804.18282 190.56632 
L 811.245529 188.801163 
L 818.308237 185.580569 
L 825.370946 183.98369 
L 832.433655 181.891613 
L 839.496364 179.836342 
" clip-path="url(#p2863f52d03)" style="fill: none; stroke: #1f77b4; stroke-width: 1.5; stroke-linecap: square"/>
   </g>
   <g id="line2d_56">
    <path d="M 493.423636 225.355552 
L 500.486345 104.849007 
L 507.549054 149.705617 
L 514.611763 164.319567 
L 521.674471 196.593537 
L 528.73718 163.409677 
L 535.799889 247.285371 
L 542.862597 253.140897 
L 549.925306 215.137974 
L 556.988015 182.927856 
L 564.050724 216.070495 
L 571.113432 232.987822 
L 578.176141 230.030685 
L 585.23885 183.740193 
L 592.301558 267.162675 
L 599.364267 210.28052 
L 606.426976 150.166333 
L 613.489685 192.86351 
L 620.552393 220.169902 
L 627.615102 190.178285 
L 634.677811 255.997482 
L 641.740519 179.304001 
L 648.803228 146.491725 
L 655.865937 242.80646 
L 662.928646 217.256777 
L 669.991354 141.372536 
L 677.054063 140.515457 
L 684.116772 107.808516 
L 691.179481 197.500714 
L 698.242189 229.039841 
L 705.304898 247.1464 
L 712.367607 232.191424 
L 719.430315 170.905746 
L 726.493024 232.58621 
L 733.555733 305.885455 
L 740.618442 292.423288 
L 747.68115 283.881759 
L 754.743859 271.191944 
L 761.806568 271.478859 
L 768.869276 265.215298 
L 775.931985 261.597163 
L 782.994694 257.136916 
L 790.057403 257.158124 
L 797.120111 250.926133 
L 804.18282 251.018226 
L 811.245529 246.618953 
L 818.308237 246.144407 
L 825.370946 243.56498 
L 832.433655 240.859145 
L 839.496364 238.734655 
" clip-path="url(#p2863f52d03)" style="fill: none; stroke: #ff7f0e; stroke-width: 1.5; stroke-linecap: square"/>
   </g>
   <g id="line2d_57">
    <path d="M 493.423636 207.991066 
L 500.486345 177.800922 
L 507.549054 166.4695 
L 514.611763 243.179561 
L 521.674471 209.799149 
L 528.73718 248.967018 
L 535.799889 200.018669 
L 542.862597 218.450972 
L 549.925306 189.077649 
L 556.988015 206.870837 
L 564.050724 167.405759 
L 571.113432 201.141246 
L 578.176141 221.535685 
L 585.23885 211.509991 
L 592.301558 218.394502 
L 599.364267 213.086055 
L 606.426976 137.57048 
L 613.489685 241.333665 
L 620.552393 252.210423 
L 627.615102 220.205479 
L 634.677811 236.375773 
L 641.740519 244.246316 
L 648.803228 293.114437 
L 655.865937 250.692834 
L 662.928646 271.514629 
L 669.991354 226.693053 
L 677.054063 163.428021 
L 684.116772 62.794545 
L 691.179481 182.890549 
L 698.242189 146.435082 
L 705.304898 179.700903 
L 712.367607 161.365235 
L 719.430315 179.302062 
L 726.493024 141.523712 
L 733.555733 200.078752 
L 740.618442 182.815912 
L 747.68115 169.638972 
L 754.743859 171.078378 
L 761.806568 161.149607 
L 768.869276 158.190073 
L 775.931985 156.974761 
L 782.994694 144.320054 
L 790.057403 156.65203 
L 797.120111 113.539367 
L 804.18282 150.203294 
L 811.245529 171.423801 
L 818.308237 183.626368 
L 825.370946 130.611197 
L 832.433655 156.427274 
L 839.496364 180.085015 
" clip-path="url(#p2863f52d03)" style="fill: none; stroke: #2ca02c; stroke-width: 1.5; stroke-linecap: square"/>
   </g>
   <g id="patch_9">
    <path d="M 476.12 318.04 
L 476.12 50.64 
" style="fill: none; stroke: #000000; stroke-width: 0.8; stroke-linejoin: miter; stroke-linecap: square"/>
   </g>
   <g id="patch_10">
    <path d="M 856.8 318.04 
L 856.8 50.64 
" style="fill: none; stroke: #000000; stroke-width: 0.8; stroke-linejoin: miter; stroke-linecap: square"/>
   </g>
   <g id="patch_11">
    <path d="M 476.12 318.04 
L 856.8 318.04 
" style="fill: none; stroke: #000000; stroke-width: 0.8; stroke-linejoin: miter; stroke-linecap: square"/>
   </g>
   <g id="patch_12">
    <path d="M 476.12 50.64 
L 856.8 50.64 
" style="fill: none; stroke: #000000; stroke-width: 0.8; stroke-linejoin: miter; stroke-linecap: square"/>
   </g>
   <g id="text_35">
    <!-- Evaluation Loss -->
    <g transform="translate(619.734063 44.64) scale(0.12 -0.12)">
     <use xlink:href="#DejaVuSans-45"/>
     <use xlink:href="#DejaVuSans-76" x="63.183594"/>
     <use xlink:href="#DejaVuSans-61" x="122.363281"/>
     <use xlink:href="#DejaVuSans-6c" x="183.642578"/>
     <use xlink:href="#DejaVuSans-75" x="211.425781"/>
     <use xlink:href="#DejaVuSans-61" x="274.804688"/>
     <use xlink:href="#DejaVuSans-74" x="336.083984"/>
     <use xlink:href="#DejaVuSans-69" x="375.292969"/>
     <use xlink:href="#DejaVuSans-6f" x="403.076172"/>
     <use xlink:href="#DejaVuSans-6e" x="464.257812"/>
     <use xlink:href="#DejaVuSans-20" x="527.636719"/>
     <use xlink:href="#DejaVuSans-4c" x="559.423828"/>
     <use xlink:href="#DejaVuSans-6f" x="613.386719"/>
     <use xlink:href="#DejaVuSans-73" x="674.568359"/>
     <use xlink:href="#DejaVuSans-73" x="726.667969"/>
    </g>
   </g>
   <g id="legend_2">
    <g id="patch_13">
     <path d="M 762.907812 102.674375 
L 849.8 102.674375 
Q 851.8 102.674375 851.8 100.674375 
L 851.8 57.64 
Q 851.8 55.64 849.8 55.64 
L 762.907812 55.64 
Q 760.907812 55.64 760.907812 57.64 
L 760.907812 100.674375 
Q 760.907812 102.674375 762.907812 102.674375 
z
" style="fill: #ffffff; opacity: 0.8; stroke: #cccccc; stroke-linejoin: miter"/>
    </g>
    <g id="line2d_58">
     <path d="M 764.907812 63.738437 
L 774.907812 63.738437 
L 784.907812 63.738437 
" style="fill: none; stroke: #1f77b4; stroke-width: 1.5; stroke-linecap: square"/>
    </g>
    <g id="text_36">
     <!-- t595w (12) -->
     <g transform="translate(792.907812 67.238437) scale(0.1 -0.1)">
      <use xlink:href="#DejaVuSans-74"/>
      <use xlink:href="#DejaVuSans-35" x="39.208984"/>
      <use xlink:href="#DejaVuSans-39" x="102.832031"/>
      <use xlink:href="#DejaVuSans-35" x="166.455078"/>
      <use xlink:href="#DejaVuSans-77" x="230.078125"/>
      <use xlink:href="#DejaVuSans-20" x="311.865234"/>
      <use xlink:href="#DejaVuSans-28" x="343.652344"/>
      <use xlink:href="#DejaVuSans-31" x="382.666016"/>
      <use xlink:href="#DejaVuSans-32" x="446.289062"/>
      <use xlink:href="#DejaVuSans-29" x="509.912109"/>
     </g>
    </g>
    <g id="line2d_59">
     <path d="M 764.907812 78.416562 
L 774.907812 78.416562 
L 784.907812 78.416562 
" style="fill: none; stroke: #ff7f0e; stroke-width: 1.5; stroke-linecap: square"/>
    </g>
    <g id="text_37">
     <!-- 94y4c (16) -->
     <g transform="translate(792.907812 81.916562) scale(0.1 -0.1)">
      <use xlink:href="#DejaVuSans-39"/>
      <use xlink:href="#DejaVuSans-34" x="63.623047"/>
      <use xlink:href="#DejaVuSans-79" x="127.246094"/>
      <use xlink:href="#DejaVuSans-34" x="186.425781"/>
      <use xlink:href="#DejaVuSans-63" x="250.048828"/>
      <use xlink:href="#DejaVuSans-20" x="305.029297"/>
      <use xlink:href="#DejaVuSans-28" x="336.816406"/>
      <use xlink:href="#DejaVuSans-31" x="375.830078"/>
      <use xlink:href="#DejaVuSans-36" x="439.453125"/>
      <use xlink:href="#DejaVuSans-29" x="503.076172"/>
     </g>
    </g>
    <g id="line2d_60">
     <path d="M 764.907812 93.094687 
L 774.907812 93.094687 
L 784.907812 93.094687 
" style="fill: none; stroke: #2ca02c; stroke-width: 1.5; stroke-linecap: square"/>
    </g>
    <g id="text_38">
     <!-- t8h67 (20) -->
     <g transform="translate(792.907812 96.594687) scale(0.1 -0.1)">
      <use xlink:href="#DejaVuSans-74"/>
      <use xlink:href="#DejaVuSans-38" x="39.208984"/>
      <use xlink:href="#DejaVuSans-68" x="102.832031"/>
      <use xlink:href="#DejaVuSans-36" x="166.210938"/>
      <use xlink:href="#DejaVuSans-37" x="229.833984"/>
      <use xlink:href="#DejaVuSans-20" x="293.457031"/>
      <use xlink:href="#DejaVuSans-28" x="325.244141"/>
      <use xlink:href="#DejaVuSans-32" x="364.257812"/>
      <use xlink:href="#DejaVuSans-30" x="427.880859"/>
      <use xlink:href="#DejaVuSans-29" x="491.503906"/>
     </g>
    </g>
   </g>
  </g>
  <g id="axes_3">
   <g id="patch_14">
    <path d="M 904.52 318.04 
L 1285.2 318.04 
L 1285.2 50.64 
L 904.52 50.64 
z
" style="fill: #ffffff"/>
   </g>
   <g id="matplotlib.axis_5">
    <g id="xtick_13">
     <g id="line2d_61">
      <path d="M 914.760928 318.04 
L 914.760928 50.64 
" clip-path="url(#p98805c09a2)" style="fill: none; stroke: #b0b0b0; stroke-width: 0.8; stroke-linecap: square"/>
     </g>
     <g id="line2d_62">
      <g>
       <use xlink:href="#md186cd4709" x="914.760928" y="318.04" style="stroke: #000000; stroke-width: 0.8"/>
      </g>
     </g>
     <g id="text_39">
      <!-- 0 -->
      <g transform="translate(911.579678 332.638438) scale(0.1 -0.1)">
       <use xlink:href="#DejaVuSans-30"/>
      </g>
     </g>
    </g>
    <g id="xtick_14">
     <g id="line2d_63">
      <path d="M 985.388015 318.04 
L 985.388015 50.64 
" clip-path="url(#p98805c09a2)" style="fill: none; stroke: #b0b0b0; stroke-width: 0.8; stroke-linecap: square"/>
     </g>
     <g id="line2d_64">
      <g>
       <use xlink:href="#md186cd4709" x="985.388015" y="318.04" style="stroke: #000000; stroke-width: 0.8"/>
      </g>
     </g>
     <g id="text_40">
      <!-- 10 -->
      <g transform="translate(979.025515 332.638438) scale(0.1 -0.1)">
       <use xlink:href="#DejaVuSans-31"/>
       <use xlink:href="#DejaVuSans-30" x="63.623047"/>
      </g>
     </g>
    </g>
    <g id="xtick_15">
     <g id="line2d_65">
      <path d="M 1056.015102 318.04 
L 1056.015102 50.64 
" clip-path="url(#p98805c09a2)" style="fill: none; stroke: #b0b0b0; stroke-width: 0.8; stroke-linecap: square"/>
     </g>
     <g id="line2d_66">
      <g>
       <use xlink:href="#md186cd4709" x="1056.015102" y="318.04" style="stroke: #000000; stroke-width: 0.8"/>
      </g>
     </g>
     <g id="text_41">
      <!-- 20 -->
      <g transform="translate(1049.652602 332.638438) scale(0.1 -0.1)">
       <use xlink:href="#DejaVuSans-32"/>
       <use xlink:href="#DejaVuSans-30" x="63.623047"/>
      </g>
     </g>
    </g>
    <g id="xtick_16">
     <g id="line2d_67">
      <path d="M 1126.642189 318.04 
L 1126.642189 50.64 
" clip-path="url(#p98805c09a2)" style="fill: none; stroke: #b0b0b0; stroke-width: 0.8; stroke-linecap: square"/>
     </g>
     <g id="line2d_68">
      <g>
       <use xlink:href="#md186cd4709" x="1126.642189" y="318.04" style="stroke: #000000; stroke-width: 0.8"/>
      </g>
     </g>
     <g id="text_42">
      <!-- 30 -->
      <g transform="translate(1120.279689 332.638438) scale(0.1 -0.1)">
       <use xlink:href="#DejaVuSans-33"/>
       <use xlink:href="#DejaVuSans-30" x="63.623047"/>
      </g>
     </g>
    </g>
    <g id="xtick_17">
     <g id="line2d_69">
      <path d="M 1197.269276 318.04 
L 1197.269276 50.64 
" clip-path="url(#p98805c09a2)" style="fill: none; stroke: #b0b0b0; stroke-width: 0.8; stroke-linecap: square"/>
     </g>
     <g id="line2d_70">
      <g>
       <use xlink:href="#md186cd4709" x="1197.269276" y="318.04" style="stroke: #000000; stroke-width: 0.8"/>
      </g>
     </g>
     <g id="text_43">
      <!-- 40 -->
      <g transform="translate(1190.906776 332.638438) scale(0.1 -0.1)">
       <use xlink:href="#DejaVuSans-34"/>
       <use xlink:href="#DejaVuSans-30" x="63.623047"/>
      </g>
     </g>
    </g>
    <g id="xtick_18">
     <g id="line2d_71">
      <path d="M 1267.896364 318.04 
L 1267.896364 50.64 
" clip-path="url(#p98805c09a2)" style="fill: none; stroke: #b0b0b0; stroke-width: 0.8; stroke-linecap: square"/>
     </g>
     <g id="line2d_72">
      <g>
       <use xlink:href="#md186cd4709" x="1267.896364" y="318.04" style="stroke: #000000; stroke-width: 0.8"/>
      </g>
     </g>
     <g id="text_44">
      <!-- 50 -->
      <g transform="translate(1261.533864 332.638438) scale(0.1 -0.1)">
       <use xlink:href="#DejaVuSans-35"/>
       <use xlink:href="#DejaVuSans-30" x="63.623047"/>
      </g>
     </g>
    </g>
    <g id="text_45">
     <!-- Epoch -->
     <g transform="translate(1079.549063 346.316563) scale(0.1 -0.1)">
      <use xlink:href="#DejaVuSans-45"/>
      <use xlink:href="#DejaVuSans-70" x="63.183594"/>
      <use xlink:href="#DejaVuSans-6f" x="126.660156"/>
      <use xlink:href="#DejaVuSans-63" x="187.841797"/>
      <use xlink:href="#DejaVuSans-68" x="242.822266"/>
     </g>
    </g>
   </g>
   <g id="matplotlib.axis_6">
    <g id="ytick_13">
     <g id="line2d_73">
      <path d="M 904.52 318.04 
L 1285.2 318.04 
" clip-path="url(#p98805c09a2)" style="fill: none; stroke: #b0b0b0; stroke-width: 0.8; stroke-linecap: square"/>
     </g>
     <g id="line2d_74">
      <g>
       <use xlink:href="#m38579a53c0" x="904.52" y="318.04" style="stroke: #000000; stroke-width: 0.8"/>
      </g>
     </g>
     <g id="text_46">
      <!-- 0.0 -->
      <g transform="translate(881.616875 321.839219) scale(0.1 -0.1)">
       <use xlink:href="#DejaVuSans-30"/>
       <use xlink:href="#DejaVuSans-2e" x="63.623047"/>
       <use xlink:href="#DejaVuSans-30" x="95.410156"/>
      </g>
     </g>
    </g>
    <g id="ytick_14">
     <g id="line2d_75">
      <path d="M 904.52 264.56 
L 1285.2 264.56 
" clip-path="url(#p98805c09a2)" style="fill: none; stroke: #b0b0b0; stroke-width: 0.8; stroke-linecap: square"/>
     </g>
     <g id="line2d_76">
      <g>
       <use xlink:href="#m38579a53c0" x="904.52" y="264.56" style="stroke: #000000; stroke-width: 0.8"/>
      </g>
     </g>
     <g id="text_47">
      <!-- 0.2 -->
      <g transform="translate(881.616875 268.359219) scale(0.1 -0.1)">
       <use xlink:href="#DejaVuSans-30"/>
       <use xlink:href="#DejaVuSans-2e" x="63.623047"/>
       <use xlink:href="#DejaVuSans-32" x="95.410156"/>
      </g>
     </g>
    </g>
    <g id="ytick_15">
     <g id="line2d_77">
      <path d="M 904.52 211.08 
L 1285.2 211.08 
" clip-path="url(#p98805c09a2)" style="fill: none; stroke: #b0b0b0; stroke-width: 0.8; stroke-linecap: square"/>
     </g>
     <g id="line2d_78">
      <g>
       <use xlink:href="#m38579a53c0" x="904.52" y="211.08" style="stroke: #000000; stroke-width: 0.8"/>
      </g>
     </g>
     <g id="text_48">
      <!-- 0.4 -->
      <g transform="translate(881.616875 214.879219) scale(0.1 -0.1)">
       <use xlink:href="#DejaVuSans-30"/>
       <use xlink:href="#DejaVuSans-2e" x="63.623047"/>
       <use xlink:href="#DejaVuSans-34" x="95.410156"/>
      </g>
     </g>
    </g>
    <g id="ytick_16">
     <g id="line2d_79">
      <path d="M 904.52 157.6 
L 1285.2 157.6 
" clip-path="url(#p98805c09a2)" style="fill: none; stroke: #b0b0b0; stroke-width: 0.8; stroke-linecap: square"/>
     </g>
     <g id="line2d_80">
      <g>
       <use xlink:href="#m38579a53c0" x="904.52" y="157.6" style="stroke: #000000; stroke-width: 0.8"/>
      </g>
     </g>
     <g id="text_49">
      <!-- 0.6 -->
      <g transform="translate(881.616875 161.399219) scale(0.1 -0.1)">
       <use xlink:href="#DejaVuSans-30"/>
       <use xlink:href="#DejaVuSans-2e" x="63.623047"/>
       <use xlink:href="#DejaVuSans-36" x="95.410156"/>
      </g>
     </g>
    </g>
    <g id="ytick_17">
     <g id="line2d_81">
      <path d="M 904.52 104.12 
L 1285.2 104.12 
" clip-path="url(#p98805c09a2)" style="fill: none; stroke: #b0b0b0; stroke-width: 0.8; stroke-linecap: square"/>
     </g>
     <g id="line2d_82">
      <g>
       <use xlink:href="#m38579a53c0" x="904.52" y="104.12" style="stroke: #000000; stroke-width: 0.8"/>
      </g>
     </g>
     <g id="text_50">
      <!-- 0.8 -->
      <g transform="translate(881.616875 107.919219) scale(0.1 -0.1)">
       <use xlink:href="#DejaVuSans-30"/>
       <use xlink:href="#DejaVuSans-2e" x="63.623047"/>
       <use xlink:href="#DejaVuSans-38" x="95.410156"/>
      </g>
     </g>
    </g>
    <g id="ytick_18">
     <g id="line2d_83">
      <path d="M 904.52 50.64 
L 1285.2 50.64 
" clip-path="url(#p98805c09a2)" style="fill: none; stroke: #b0b0b0; stroke-width: 0.8; stroke-linecap: square"/>
     </g>
     <g id="line2d_84">
      <g>
       <use xlink:href="#m38579a53c0" x="904.52" y="50.64" style="stroke: #000000; stroke-width: 0.8"/>
      </g>
     </g>
     <g id="text_51">
      <!-- 1.0 -->
      <g transform="translate(881.616875 54.439219) scale(0.1 -0.1)">
       <use xlink:href="#DejaVuSans-31"/>
       <use xlink:href="#DejaVuSans-2e" x="63.623047"/>
       <use xlink:href="#DejaVuSans-30" x="95.410156"/>
      </g>
     </g>
    </g>
    <g id="text_52">
     <!-- Correct Rate -->
     <g transform="translate(875.537188 215.639219) rotate(-90) scale(0.1 -0.1)">
      <defs>
       <path id="DejaVuSans-43" d="M 4122 4306 
L 4122 3641 
Q 3803 3938 3442 4084 
Q 3081 4231 2675 4231 
Q 1875 4231 1450 3742 
Q 1025 3253 1025 2328 
Q 1025 1406 1450 917 
Q 1875 428 2675 428 
Q 3081 428 3442 575 
Q 3803 722 4122 1019 
L 4122 359 
Q 3791 134 3420 21 
Q 3050 -91 2638 -91 
Q 1578 -91 968 557 
Q 359 1206 359 2328 
Q 359 3453 968 4101 
Q 1578 4750 2638 4750 
Q 3056 4750 3426 4639 
Q 3797 4528 4122 4306 
z
" transform="scale(0.015625)"/>
       <path id="DejaVuSans-52" d="M 2841 2188 
Q 3044 2119 3236 1894 
Q 3428 1669 3622 1275 
L 4263 0 
L 3584 0 
L 2988 1197 
Q 2756 1666 2539 1819 
Q 2322 1972 1947 1972 
L 1259 1972 
L 1259 0 
L 628 0 
L 628 4666 
L 2053 4666 
Q 2853 4666 3247 4331 
Q 3641 3997 3641 3322 
Q 3641 2881 3436 2590 
Q 3231 2300 2841 2188 
z
M 1259 4147 
L 1259 2491 
L 2053 2491 
Q 2509 2491 2742 2702 
Q 2975 2913 2975 3322 
Q 2975 3731 2742 3939 
Q 2509 4147 2053 4147 
L 1259 4147 
z
" transform="scale(0.015625)"/>
      </defs>
      <use xlink:href="#DejaVuSans-43"/>
      <use xlink:href="#DejaVuSans-6f" x="69.824219"/>
      <use xlink:href="#DejaVuSans-72" x="131.005859"/>
      <use xlink:href="#DejaVuSans-72" x="170.369141"/>
      <use xlink:href="#DejaVuSans-65" x="209.232422"/>
      <use xlink:href="#DejaVuSans-63" x="270.755859"/>
      <use xlink:href="#DejaVuSans-74" x="325.736328"/>
      <use xlink:href="#DejaVuSans-20" x="364.945312"/>
      <use xlink:href="#DejaVuSans-52" x="396.732422"/>
      <use xlink:href="#DejaVuSans-61" x="463.964844"/>
      <use xlink:href="#DejaVuSans-74" x="525.244141"/>
      <use xlink:href="#DejaVuSans-65" x="564.453125"/>
     </g>
    </g>
   </g>
   <g id="line2d_85">
    <path d="M 921.823636 213.934246 
L 928.886345 172.918889 
L 935.949054 201.972809 
L 943.011763 206.369668 
L 950.074471 210.28807 
L 957.13718 189.079204 
L 964.199889 202.030554 
L 971.262597 174.164529 
L 978.325306 160.215018 
L 985.388015 190.209354 
L 992.450724 172.258948 
L 999.513432 152.691686 
L 1006.576141 162.013358 
L 1013.63885 145.820046 
L 1020.701558 150.489132 
L 1027.764267 181.704359 
L 1034.826976 173.81806 
L 1041.889685 151.041832 
L 1048.952393 159.093117 
L 1056.015102 169.701675 
L 1063.077811 123.868746 
L 1070.140519 154.646762 
L 1077.203228 147.766873 
L 1084.265937 170.328619 
L 1091.328646 154.094061 
L 1098.391354 133.759617 
L 1105.454063 133.569884 
L 1112.516772 132.8357 
L 1119.579481 143.007046 
L 1126.642189 148.47631 
L 1133.704898 141.522178 
L 1140.767607 151.264563 
L 1147.830315 144.211439 
L 1154.893024 153.475366 
L 1161.955733 143.238026 
L 1169.018442 144.401172 
L 1176.08115 154.762252 
L 1183.143859 158.622909 
L 1190.206568 149.020762 
L 1197.269276 149.408478 
L 1204.331985 148.82278 
L 1211.394694 149.845689 
L 1218.457403 149.961178 
L 1225.520111 150.513879 
L 1232.58282 150.819102 
L 1239.645529 150.909844 
L 1246.708237 151.446047 
L 1253.770946 151.495542 
L 1260.833655 151.767768 
L 1267.896364 152.105988 
" clip-path="url(#p98805c09a2)" style="fill: none; stroke: #1f77b4; stroke-width: 1.5; stroke-linecap: square"/>
   </g>
   <g id="line2d_86">
    <path d="M 921.823636 214.772486 
L 928.886345 232.013987 
L 935.949054 220.753389 
L 943.011763 197.11026 
L 950.074471 194.090935 
L 957.13718 207.092181 
L 964.199889 181.419669 
L 971.262597 152.917571 
L 978.325306 170.87678 
L 985.388015 185.651674 
L 992.450724 160.589627 
L 999.513432 153.45379 
L 1006.576141 152.60409 
L 1013.63885 161.868303 
L 1020.701558 131.056339 
L 1027.764267 157.702294 
L 1034.826976 182.228122 
L 1041.889685 168.137939 
L 1048.952393 156.547361 
L 1056.015102 159.904916 
L 1063.077811 143.768852 
L 1070.140519 163.46046 
L 1077.203228 165.415597 
L 1084.265937 141.434237 
L 1091.328646 158.106521 
L 1098.391354 183.803781 
L 1105.454063 175.974985 
L 1112.516772 177.938371 
L 1119.579481 157.314567 
L 1126.642189 150.657202 
L 1133.704898 136.360781 
L 1140.767607 148.033855 
L 1147.830315 157.43006 
L 1154.893024 140.856771 
L 1161.955733 111.628715 
L 1169.018442 116.528931 
L 1176.08115 123.1038 
L 1183.143859 125.784894 
L 1190.206568 125.33942 
L 1197.269276 126.684092 
L 1204.331985 127.4018 
L 1211.394694 128.226753 
L 1218.457403 127.839025 
L 1225.520111 129.31569 
L 1232.58282 129.026956 
L 1239.645529 130.074646 
L 1246.708237 129.983901 
L 1253.770946 130.396377 
L 1260.833655 130.808853 
L 1267.896364 131.130584 
" clip-path="url(#p98805c09a2)" style="fill: none; stroke: #ff7f0e; stroke-width: 1.5; stroke-linecap: square"/>
   </g>
   <g id="line2d_87">
    <path d="M 921.823636 196.475795 
L 928.886345 215.129115 
L 935.949054 207.357586 
L 943.011763 173.210708 
L 950.074471 209.741845 
L 957.13718 195.370291 
L 964.199889 191.402026 
L 971.262597 169.250694 
L 978.325306 184.950502 
L 985.388015 165.241179 
L 992.450724 183.325246 
L 999.513432 173.161208 
L 1006.576141 162.205167 
L 1013.63885 163.772673 
L 1020.701558 172.459956 
L 1027.764267 175.570217 
L 1034.826976 179.695233 
L 1041.889685 160.101409 
L 1048.952393 150.754124 
L 1056.015102 153.410634 
L 1063.077811 143.477597 
L 1070.140519 138.93183 
L 1077.203228 127.901539 
L 1084.265937 153.229134 
L 1091.328646 143.254846 
L 1098.391354 151.331627 
L 1105.454063 170.133447 
L 1112.516772 196.723296 
L 1119.579481 166.429183 
L 1126.642189 177.013973 
L 1133.704898 169.663195 
L 1140.767607 168.879442 
L 1147.830315 168.23594 
L 1154.893024 172.105204 
L 1161.955733 163.01367 
L 1169.018442 165.414429 
L 1176.08115 167.295436 
L 1183.143859 166.371433 
L 1190.206568 167.344936 
L 1197.269276 166.618934 
L 1204.331985 166.338433 
L 1211.394694 167.551187 
L 1218.457403 167.567687 
L 1225.520111 176.155969 
L 1232.58282 163.591172 
L 1239.645529 157.53565 
L 1246.708237 155.489642 
L 1253.770946 165.859931 
L 1260.833655 156.397146 
L 1267.896364 151.909129 
" clip-path="url(#p98805c09a2)" style="fill: none; stroke: #2ca02c; stroke-width: 1.5; stroke-linecap: square"/>
   </g>
   <g id="patch_15">
    <path d="M 904.52 318.04 
L 904.52 50.64 
" style="fill: none; stroke: #000000; stroke-width: 0.8; stroke-linejoin: miter; stroke-linecap: square"/>
   </g>
   <g id="patch_16">
    <path d="M 1285.2 318.04 
L 1285.2 50.64 
" style="fill: none; stroke: #000000; stroke-width: 0.8; stroke-linejoin: miter; stroke-linecap: square"/>
   </g>
   <g id="patch_17">
    <path d="M 904.52 318.04 
L 1285.2 318.04 
" style="fill: none; stroke: #000000; stroke-width: 0.8; stroke-linejoin: miter; stroke-linecap: square"/>
   </g>
   <g id="patch_18">
    <path d="M 904.52 50.64 
L 1285.2 50.64 
" style="fill: none; stroke: #000000; stroke-width: 0.8; stroke-linejoin: miter; stroke-linecap: square"/>
   </g>
   <g id="text_53">
    <!-- Correct Rate -->
    <g transform="translate(1057.300938 44.64) scale(0.12 -0.12)">
     <use xlink:href="#DejaVuSans-43"/>
     <use xlink:href="#DejaVuSans-6f" x="69.824219"/>
     <use xlink:href="#DejaVuSans-72" x="131.005859"/>
     <use xlink:href="#DejaVuSans-72" x="170.369141"/>
     <use xlink:href="#DejaVuSans-65" x="209.232422"/>
     <use xlink:href="#DejaVuSans-63" x="270.755859"/>
     <use xlink:href="#DejaVuSans-74" x="325.736328"/>
     <use xlink:href="#DejaVuSans-20" x="364.945312"/>
     <use xlink:href="#DejaVuSans-52" x="396.732422"/>
     <use xlink:href="#DejaVuSans-61" x="463.964844"/>
     <use xlink:href="#DejaVuSans-74" x="525.244141"/>
     <use xlink:href="#DejaVuSans-65" x="564.453125"/>
    </g>
   </g>
   <g id="legend_3">
    <g id="patch_19">
     <path d="M 1191.307813 102.674375 
L 1278.2 102.674375 
Q 1280.2 102.674375 1280.2 100.674375 
L 1280.2 57.64 
Q 1280.2 55.64 1278.2 55.64 
L 1191.307813 55.64 
Q 1189.307813 55.64 1189.307813 57.64 
L 1189.307813 100.674375 
Q 1189.307813 102.674375 1191.307813 102.674375 
z
" style="fill: #ffffff; opacity: 0.8; stroke: #cccccc; stroke-linejoin: miter"/>
    </g>
    <g id="line2d_88">
     <path d="M 1193.307813 63.738437 
L 1203.307813 63.738437 
L 1213.307813 63.738437 
" style="fill: none; stroke: #1f77b4; stroke-width: 1.5; stroke-linecap: square"/>
    </g>
    <g id="text_54">
     <!-- t595w (12) -->
     <g transform="translate(1221.307813 67.238437) scale(0.1 -0.1)">
      <use xlink:href="#DejaVuSans-74"/>
      <use xlink:href="#DejaVuSans-35" x="39.208984"/>
      <use xlink:href="#DejaVuSans-39" x="102.832031"/>
      <use xlink:href="#DejaVuSans-35" x="166.455078"/>
      <use xlink:href="#DejaVuSans-77" x="230.078125"/>
      <use xlink:href="#DejaVuSans-20" x="311.865234"/>
      <use xlink:href="#DejaVuSans-28" x="343.652344"/>
      <use xlink:href="#DejaVuSans-31" x="382.666016"/>
      <use xlink:href="#DejaVuSans-32" x="446.289062"/>
      <use xlink:href="#DejaVuSans-29" x="509.912109"/>
     </g>
    </g>
    <g id="line2d_89">
     <path d="M 1193.307813 78.416562 
L 1203.307813 78.416562 
L 1213.307813 78.416562 
" style="fill: none; stroke: #ff7f0e; stroke-width: 1.5; stroke-linecap: square"/>
    </g>
    <g id="text_55">
     <!-- 94y4c (16) -->
     <g transform="translate(1221.307813 81.916562) scale(0.1 -0.1)">
      <use xlink:href="#DejaVuSans-39"/>
      <use xlink:href="#DejaVuSans-34" x="63.623047"/>
      <use xlink:href="#DejaVuSans-79" x="127.246094"/>
      <use xlink:href="#DejaVuSans-34" x="186.425781"/>
      <use xlink:href="#DejaVuSans-63" x="250.048828"/>
      <use xlink:href="#DejaVuSans-20" x="305.029297"/>
      <use xlink:href="#DejaVuSans-28" x="336.816406"/>
      <use xlink:href="#DejaVuSans-31" x="375.830078"/>
      <use xlink:href="#DejaVuSans-36" x="439.453125"/>
      <use xlink:href="#DejaVuSans-29" x="503.076172"/>
     </g>
    </g>
    <g id="line2d_90">
     <path d="M 1193.307813 93.094687 
L 1203.307813 93.094687 
L 1213.307813 93.094687 
" style="fill: none; stroke: #2ca02c; stroke-width: 1.5; stroke-linecap: square"/>
    </g>
    <g id="text_56">
     <!-- t8h67 (20) -->
     <g transform="translate(1221.307813 96.594687) scale(0.1 -0.1)">
      <use xlink:href="#DejaVuSans-74"/>
      <use xlink:href="#DejaVuSans-38" x="39.208984"/>
      <use xlink:href="#DejaVuSans-68" x="102.832031"/>
      <use xlink:href="#DejaVuSans-36" x="166.210938"/>
      <use xlink:href="#DejaVuSans-37" x="229.833984"/>
      <use xlink:href="#DejaVuSans-20" x="293.457031"/>
      <use xlink:href="#DejaVuSans-28" x="325.244141"/>
      <use xlink:href="#DejaVuSans-32" x="364.257812"/>
      <use xlink:href="#DejaVuSans-30" x="427.880859"/>
      <use xlink:href="#DejaVuSans-29" x="491.503906"/>
     </g>
    </g>
   </g>
  </g>
  <g id="text_57">
   <!-- models architecture C (varying seq. len.) -->
   <g transform="translate(525.360937 16.318125) scale(0.12 -0.12)">
    <defs>
     <path id="DejaVuSans-6d" d="M 3328 2828 
Q 3544 3216 3844 3400 
Q 4144 3584 4550 3584 
Q 5097 3584 5394 3201 
Q 5691 2819 5691 2113 
L 5691 0 
L 5113 0 
L 5113 2094 
Q 5113 2597 4934 2840 
Q 4756 3084 4391 3084 
Q 3944 3084 3684 2787 
Q 3425 2491 3425 1978 
L 3425 0 
L 2847 0 
L 2847 2094 
Q 2847 2600 2669 2842 
Q 2491 3084 2119 3084 
Q 1678 3084 1418 2786 
Q 1159 2488 1159 1978 
L 1159 0 
L 581 0 
L 581 3500 
L 1159 3500 
L 1159 2956 
Q 1356 3278 1631 3431 
Q 1906 3584 2284 3584 
Q 2666 3584 2933 3390 
Q 3200 3197 3328 2828 
z
" transform="scale(0.015625)"/>
     <path id="DejaVuSans-64" d="M 2906 2969 
L 2906 4863 
L 3481 4863 
L 3481 0 
L 2906 0 
L 2906 525 
Q 2725 213 2448 61 
Q 2172 -91 1784 -91 
Q 1150 -91 751 415 
Q 353 922 353 1747 
Q 353 2572 751 3078 
Q 1150 3584 1784 3584 
Q 2172 3584 2448 3432 
Q 2725 3281 2906 2969 
z
M 947 1747 
Q 947 1113 1208 752 
Q 1469 391 1925 391 
Q 2381 391 2643 752 
Q 2906 1113 2906 1747 
Q 2906 2381 2643 2742 
Q 2381 3103 1925 3103 
Q 1469 3103 1208 2742 
Q 947 2381 947 1747 
z
" transform="scale(0.015625)"/>
     <path id="DejaVuSans-71" d="M 947 1747 
Q 947 1113 1208 752 
Q 1469 391 1925 391 
Q 2381 391 2643 752 
Q 2906 1113 2906 1747 
Q 2906 2381 2643 2742 
Q 2381 3103 1925 3103 
Q 1469 3103 1208 2742 
Q 947 2381 947 1747 
z
M 2906 525 
Q 2725 213 2448 61 
Q 2172 -91 1784 -91 
Q 1150 -91 751 415 
Q 353 922 353 1747 
Q 353 2572 751 3078 
Q 1150 3584 1784 3584 
Q 2172 3584 2448 3432 
Q 2725 3281 2906 2969 
L 2906 3500 
L 3481 3500 
L 3481 -1331 
L 2906 -1331 
L 2906 525 
z
" transform="scale(0.015625)"/>
    </defs>
    <use xlink:href="#DejaVuSans-6d"/>
    <use xlink:href="#DejaVuSans-6f" x="97.412109"/>
    <use xlink:href="#DejaVuSans-64" x="158.59375"/>
    <use xlink:href="#DejaVuSans-65" x="222.070312"/>
    <use xlink:href="#DejaVuSans-6c" x="283.59375"/>
    <use xlink:href="#DejaVuSans-73" x="311.376953"/>
    <use xlink:href="#DejaVuSans-20" x="363.476562"/>
    <use xlink:href="#DejaVuSans-61" x="395.263672"/>
    <use xlink:href="#DejaVuSans-72" x="456.542969"/>
    <use xlink:href="#DejaVuSans-63" x="495.40625"/>
    <use xlink:href="#DejaVuSans-68" x="550.386719"/>
    <use xlink:href="#DejaVuSans-69" x="613.765625"/>
    <use xlink:href="#DejaVuSans-74" x="641.548828"/>
    <use xlink:href="#DejaVuSans-65" x="680.757812"/>
    <use xlink:href="#DejaVuSans-63" x="742.28125"/>
    <use xlink:href="#DejaVuSans-74" x="797.261719"/>
    <use xlink:href="#DejaVuSans-75" x="836.470703"/>
    <use xlink:href="#DejaVuSans-72" x="899.849609"/>
    <use xlink:href="#DejaVuSans-65" x="938.712891"/>
    <use xlink:href="#DejaVuSans-20" x="1000.236328"/>
    <use xlink:href="#DejaVuSans-43" x="1032.023438"/>
    <use xlink:href="#DejaVuSans-20" x="1101.847656"/>
    <use xlink:href="#DejaVuSans-28" x="1133.634766"/>
    <use xlink:href="#DejaVuSans-76" x="1172.648438"/>
    <use xlink:href="#DejaVuSans-61" x="1231.828125"/>
    <use xlink:href="#DejaVuSans-72" x="1293.107422"/>
    <use xlink:href="#DejaVuSans-79" x="1334.220703"/>
    <use xlink:href="#DejaVuSans-69" x="1393.400391"/>
    <use xlink:href="#DejaVuSans-6e" x="1421.183594"/>
    <use xlink:href="#DejaVuSans-67" x="1484.5625"/>
    <use xlink:href="#DejaVuSans-20" x="1548.039062"/>
    <use xlink:href="#DejaVuSans-73" x="1579.826172"/>
    <use xlink:href="#DejaVuSans-65" x="1631.925781"/>
    <use xlink:href="#DejaVuSans-71" x="1693.449219"/>
    <use xlink:href="#DejaVuSans-2e" x="1756.925781"/>
    <use xlink:href="#DejaVuSans-20" x="1788.712891"/>
    <use xlink:href="#DejaVuSans-6c" x="1820.5"/>
    <use xlink:href="#DejaVuSans-65" x="1848.283203"/>
    <use xlink:href="#DejaVuSans-6e" x="1909.806641"/>
    <use xlink:href="#DejaVuSans-2e" x="1973.185547"/>
    <use xlink:href="#DejaVuSans-29" x="2004.972656"/>
   </g>
  </g>
 </g>
 <defs>
  <clipPath id="p437daa7f0a">
   <rect x="47.72" y="50.64" width="380.68" height="267.4"/>
  </clipPath>
  <clipPath id="p2863f52d03">
   <rect x="476.12" y="50.64" width="380.68" height="267.4"/>
  </clipPath>
  <clipPath id="p98805c09a2">
   <rect x="904.52" y="50.64" width="380.68" height="267.4"/>
  </clipPath>
 </defs>
</svg>
