<?xml version="1.0" encoding="utf-8" standalone="no"?>
<!DOCTYPE svg PUBLIC "-//W3C//DTD SVG 1.1//EN"
  "http://www.w3.org/Graphics/SVG/1.1/DTD/svg11.dtd">
<svg xmlns:xlink="http://www.w3.org/1999/xlink" width="1296pt" height="360pt" viewBox="0 0 1296 360" xmlns="http://www.w3.org/2000/svg" version="1.1">
 <metadata>
  <rdf:RDF xmlns:dc="http://purl.org/dc/elements/1.1/" xmlns:cc="http://creativecommons.org/ns#" xmlns:rdf="http://www.w3.org/1999/02/22-rdf-syntax-ns#">
   <cc:Work>
    <dc:type rdf:resource="http://purl.org/dc/dcmitype/StillImage"/>
    <dc:date>2025-11-06T14:56:21.155852</dc:date>
    <dc:format>image/svg+xml</dc:format>
    <dc:creator>
     <cc:Agent>
      <dc:title>Matplotlib v3.9.1, https://matplotlib.org/</dc:title>
     </cc:Agent>
    </dc:creator>
   </cc:Work>
  </rdf:RDF>
 </metadata>
 <defs>
  <style type="text/css">*{stroke-linejoin: round; stroke-linecap: butt}</style>
 </defs>
 <g id="figure_1">
  <g id="patch_1">
   <path d="M 0 360 
L 1296 360 
L 1296 0 
L 0 0 
z
" style="fill: #ffffff"/>
  </g>
  <g id="axes_1">
   <g id="patch_2">
    <path d="M 47.72 318.04 
L 420 318.04 
L 420 50.64 
L 47.72 50.64 
z
" style="fill: #ffffff"/>
   </g>
   <g id="matplotlib.axis_1">
    <g id="xtick_1">
     <g id="line2d_1">
      <path d="M 57.734954 318.04 
L 57.734954 50.64 
" clip-path="url(#p356cd1f3ed)" style="fill: none; stroke: #b0b0b0; stroke-width: 0.8; stroke-linecap: square"/>
     </g>
     <g id="line2d_2">
      <defs>
       <path id="m33a825f06f" d="M 0 0 
L 0 3.5 
" style="stroke: #000000; stroke-width: 0.8"/>
      </defs>
      <g>
       <use xlink:href="#m33a825f06f" x="57.734954" y="318.04" style="stroke: #000000; stroke-width: 0.8"/>
      </g>
     </g>
     <g id="text_1">
      <!-- 0 -->
      <g transform="translate(54.553704 332.638438) scale(0.1 -0.1)">
       <defs>
        <path id="DejaVuSans-30" d="M 2034 4250 
Q 1547 4250 1301 3770 
Q 1056 3291 1056 2328 
Q 1056 1369 1301 889 
Q 1547 409 2034 409 
Q 2525 409 2770 889 
Q 3016 1369 3016 2328 
Q 3016 3291 2770 3770 
Q 2525 4250 2034 4250 
z
M 2034 4750 
Q 2819 4750 3233 4129 
Q 3647 3509 3647 2328 
Q 3647 1150 3233 529 
Q 2819 -91 2034 -91 
Q 1250 -91 836 529 
Q 422 1150 422 2328 
Q 422 3509 836 4129 
Q 1250 4750 2034 4750 
z
" transform="scale(0.015625)"/>
       </defs>
       <use xlink:href="#DejaVuSans-30"/>
      </g>
     </g>
    </g>
    <g id="xtick_2">
     <g id="line2d_3">
      <path d="M 126.803599 318.04 
L 126.803599 50.64 
" clip-path="url(#p356cd1f3ed)" style="fill: none; stroke: #b0b0b0; stroke-width: 0.8; stroke-linecap: square"/>
     </g>
     <g id="line2d_4">
      <g>
       <use xlink:href="#m33a825f06f" x="126.803599" y="318.04" style="stroke: #000000; stroke-width: 0.8"/>
      </g>
     </g>
     <g id="text_2">
      <!-- 10 -->
      <g transform="translate(120.441099 332.638438) scale(0.1 -0.1)">
       <defs>
        <path id="DejaVuSans-31" d="M 794 531 
L 1825 531 
L 1825 4091 
L 703 3866 
L 703 4441 
L 1819 4666 
L 2450 4666 
L 2450 531 
L 3481 531 
L 3481 0 
L 794 0 
L 794 531 
z
" transform="scale(0.015625)"/>
       </defs>
       <use xlink:href="#DejaVuSans-31"/>
       <use xlink:href="#DejaVuSans-30" x="63.623047"/>
      </g>
     </g>
    </g>
    <g id="xtick_3">
     <g id="line2d_5">
      <path d="M 195.872245 318.04 
L 195.872245 50.64 
" clip-path="url(#p356cd1f3ed)" style="fill: none; stroke: #b0b0b0; stroke-width: 0.8; stroke-linecap: square"/>
     </g>
     <g id="line2d_6">
      <g>
       <use xlink:href="#m33a825f06f" x="195.872245" y="318.04" style="stroke: #000000; stroke-width: 0.8"/>
      </g>
     </g>
     <g id="text_3">
      <!-- 20 -->
      <g transform="translate(189.509745 332.638438) scale(0.1 -0.1)">
       <defs>
        <path id="DejaVuSans-32" d="M 1228 531 
L 3431 531 
L 3431 0 
L 469 0 
L 469 531 
Q 828 903 1448 1529 
Q 2069 2156 2228 2338 
Q 2531 2678 2651 2914 
Q 2772 3150 2772 3378 
Q 2772 3750 2511 3984 
Q 2250 4219 1831 4219 
Q 1534 4219 1204 4116 
Q 875 4013 500 3803 
L 500 4441 
Q 881 4594 1212 4672 
Q 1544 4750 1819 4750 
Q 2544 4750 2975 4387 
Q 3406 4025 3406 3419 
Q 3406 3131 3298 2873 
Q 3191 2616 2906 2266 
Q 2828 2175 2409 1742 
Q 1991 1309 1228 531 
z
" transform="scale(0.015625)"/>
       </defs>
       <use xlink:href="#DejaVuSans-32"/>
       <use xlink:href="#DejaVuSans-30" x="63.623047"/>
      </g>
     </g>
    </g>
    <g id="xtick_4">
     <g id="line2d_7">
      <path d="M 264.940891 318.04 
L 264.940891 50.64 
" clip-path="url(#p356cd1f3ed)" style="fill: none; stroke: #b0b0b0; stroke-width: 0.8; stroke-linecap: square"/>
     </g>
     <g id="line2d_8">
      <g>
       <use xlink:href="#m33a825f06f" x="264.940891" y="318.04" style="stroke: #000000; stroke-width: 0.8"/>
      </g>
     </g>
     <g id="text_4">
      <!-- 30 -->
      <g transform="translate(258.578391 332.638438) scale(0.1 -0.1)">
       <defs>
        <path id="DejaVuSans-33" d="M 2597 2516 
Q 3050 2419 3304 2112 
Q 3559 1806 3559 1356 
Q 3559 666 3084 287 
Q 2609 -91 1734 -91 
Q 1441 -91 1130 -33 
Q 819 25 488 141 
L 488 750 
Q 750 597 1062 519 
Q 1375 441 1716 441 
Q 2309 441 2620 675 
Q 2931 909 2931 1356 
Q 2931 1769 2642 2001 
Q 2353 2234 1838 2234 
L 1294 2234 
L 1294 2753 
L 1863 2753 
Q 2328 2753 2575 2939 
Q 2822 3125 2822 3475 
Q 2822 3834 2567 4026 
Q 2313 4219 1838 4219 
Q 1578 4219 1281 4162 
Q 984 4106 628 3988 
L 628 4550 
Q 988 4650 1302 4700 
Q 1616 4750 1894 4750 
Q 2613 4750 3031 4423 
Q 3450 4097 3450 3541 
Q 3450 3153 3228 2886 
Q 3006 2619 2597 2516 
z
" transform="scale(0.015625)"/>
       </defs>
       <use xlink:href="#DejaVuSans-33"/>
       <use xlink:href="#DejaVuSans-30" x="63.623047"/>
      </g>
     </g>
    </g>
    <g id="xtick_5">
     <g id="line2d_9">
      <path d="M 334.009536 318.04 
L 334.009536 50.64 
" clip-path="url(#p356cd1f3ed)" style="fill: none; stroke: #b0b0b0; stroke-width: 0.8; stroke-linecap: square"/>
     </g>
     <g id="line2d_10">
      <g>
       <use xlink:href="#m33a825f06f" x="334.009536" y="318.04" style="stroke: #000000; stroke-width: 0.8"/>
      </g>
     </g>
     <g id="text_5">
      <!-- 40 -->
      <g transform="translate(327.647036 332.638438) scale(0.1 -0.1)">
       <defs>
        <path id="DejaVuSans-34" d="M 2419 4116 
L 825 1625 
L 2419 1625 
L 2419 4116 
z
M 2253 4666 
L 3047 4666 
L 3047 1625 
L 3713 1625 
L 3713 1100 
L 3047 1100 
L 3047 0 
L 2419 0 
L 2419 1100 
L 313 1100 
L 313 1709 
L 2253 4666 
z
" transform="scale(0.015625)"/>
       </defs>
       <use xlink:href="#DejaVuSans-34"/>
       <use xlink:href="#DejaVuSans-30" x="63.623047"/>
      </g>
     </g>
    </g>
    <g id="xtick_6">
     <g id="line2d_11">
      <path d="M 403.078182 318.04 
L 403.078182 50.64 
" clip-path="url(#p356cd1f3ed)" style="fill: none; stroke: #b0b0b0; stroke-width: 0.8; stroke-linecap: square"/>
     </g>
     <g id="line2d_12">
      <g>
       <use xlink:href="#m33a825f06f" x="403.078182" y="318.04" style="stroke: #000000; stroke-width: 0.8"/>
      </g>
     </g>
     <g id="text_6">
      <!-- 50 -->
      <g transform="translate(396.715682 332.638438) scale(0.1 -0.1)">
       <defs>
        <path id="DejaVuSans-35" d="M 691 4666 
L 3169 4666 
L 3169 4134 
L 1269 4134 
L 1269 2991 
Q 1406 3038 1543 3061 
Q 1681 3084 1819 3084 
Q 2600 3084 3056 2656 
Q 3513 2228 3513 1497 
Q 3513 744 3044 326 
Q 2575 -91 1722 -91 
Q 1428 -91 1123 -41 
Q 819 9 494 109 
L 494 744 
Q 775 591 1075 516 
Q 1375 441 1709 441 
Q 2250 441 2565 725 
Q 2881 1009 2881 1497 
Q 2881 1984 2565 2268 
Q 2250 2553 1709 2553 
Q 1456 2553 1204 2497 
Q 953 2441 691 2322 
L 691 4666 
z
" transform="scale(0.015625)"/>
       </defs>
       <use xlink:href="#DejaVuSans-35"/>
       <use xlink:href="#DejaVuSans-30" x="63.623047"/>
      </g>
     </g>
    </g>
    <g id="text_7">
     <!-- Epoch -->
     <g transform="translate(218.549062 346.316563) scale(0.1 -0.1)">
      <defs>
       <path id="DejaVuSans-45" d="M 628 4666 
L 3578 4666 
L 3578 4134 
L 1259 4134 
L 1259 2753 
L 3481 2753 
L 3481 2222 
L 1259 2222 
L 1259 531 
L 3634 531 
L 3634 0 
L 628 0 
L 628 4666 
z
" transform="scale(0.015625)"/>
       <path id="DejaVuSans-70" d="M 1159 525 
L 1159 -1331 
L 581 -1331 
L 581 3500 
L 1159 3500 
L 1159 2969 
Q 1341 3281 1617 3432 
Q 1894 3584 2278 3584 
Q 2916 3584 3314 3078 
Q 3713 2572 3713 1747 
Q 3713 922 3314 415 
Q 2916 -91 2278 -91 
Q 1894 -91 1617 61 
Q 1341 213 1159 525 
z
M 3116 1747 
Q 3116 2381 2855 2742 
Q 2594 3103 2138 3103 
Q 1681 3103 1420 2742 
Q 1159 2381 1159 1747 
Q 1159 1113 1420 752 
Q 1681 391 2138 391 
Q 2594 391 2855 752 
Q 3116 1113 3116 1747 
z
" transform="scale(0.015625)"/>
       <path id="DejaVuSans-6f" d="M 1959 3097 
Q 1497 3097 1228 2736 
Q 959 2375 959 1747 
Q 959 1119 1226 758 
Q 1494 397 1959 397 
Q 2419 397 2687 759 
Q 2956 1122 2956 1747 
Q 2956 2369 2687 2733 
Q 2419 3097 1959 3097 
z
M 1959 3584 
Q 2709 3584 3137 3096 
Q 3566 2609 3566 1747 
Q 3566 888 3137 398 
Q 2709 -91 1959 -91 
Q 1206 -91 779 398 
Q 353 888 353 1747 
Q 353 2609 779 3096 
Q 1206 3584 1959 3584 
z
" transform="scale(0.015625)"/>
       <path id="DejaVuSans-63" d="M 3122 3366 
L 3122 2828 
Q 2878 2963 2633 3030 
Q 2388 3097 2138 3097 
Q 1578 3097 1268 2742 
Q 959 2388 959 1747 
Q 959 1106 1268 751 
Q 1578 397 2138 397 
Q 2388 397 2633 464 
Q 2878 531 3122 666 
L 3122 134 
Q 2881 22 2623 -34 
Q 2366 -91 2075 -91 
Q 1284 -91 818 406 
Q 353 903 353 1747 
Q 353 2603 823 3093 
Q 1294 3584 2113 3584 
Q 2378 3584 2631 3529 
Q 2884 3475 3122 3366 
z
" transform="scale(0.015625)"/>
       <path id="DejaVuSans-68" d="M 3513 2113 
L 3513 0 
L 2938 0 
L 2938 2094 
Q 2938 2591 2744 2837 
Q 2550 3084 2163 3084 
Q 1697 3084 1428 2787 
Q 1159 2491 1159 1978 
L 1159 0 
L 581 0 
L 581 4863 
L 1159 4863 
L 1159 2956 
Q 1366 3272 1645 3428 
Q 1925 3584 2291 3584 
Q 2894 3584 3203 3211 
Q 3513 2838 3513 2113 
z
" transform="scale(0.015625)"/>
      </defs>
      <use xlink:href="#DejaVuSans-45"/>
      <use xlink:href="#DejaVuSans-70" x="63.183594"/>
      <use xlink:href="#DejaVuSans-6f" x="126.660156"/>
      <use xlink:href="#DejaVuSans-63" x="187.841797"/>
      <use xlink:href="#DejaVuSans-68" x="242.822266"/>
     </g>
    </g>
   </g>
   <g id="matplotlib.axis_2">
    <g id="ytick_1">
     <g id="line2d_13">
      <path d="M 47.72 305.885606 
L 420 305.885606 
" clip-path="url(#p356cd1f3ed)" style="fill: none; stroke: #b0b0b0; stroke-width: 0.8; stroke-linecap: square"/>
     </g>
     <g id="line2d_14">
      <defs>
       <path id="m440cd1ed55" d="M 0 0 
L -3.5 0 
" style="stroke: #000000; stroke-width: 0.8"/>
      </defs>
      <g>
       <use xlink:href="#m440cd1ed55" x="47.72" y="305.885606" style="stroke: #000000; stroke-width: 0.8"/>
      </g>
     </g>
     <g id="text_8">
      <!-- 0.0 -->
      <g transform="translate(24.816875 309.684825) scale(0.1 -0.1)">
       <defs>
        <path id="DejaVuSans-2e" d="M 684 794 
L 1344 794 
L 1344 0 
L 684 0 
L 684 794 
z
" transform="scale(0.015625)"/>
       </defs>
       <use xlink:href="#DejaVuSans-30"/>
       <use xlink:href="#DejaVuSans-2e" x="63.623047"/>
       <use xlink:href="#DejaVuSans-30" x="95.410156"/>
      </g>
     </g>
    </g>
    <g id="ytick_2">
     <g id="line2d_15">
      <path d="M 47.72 257.460375 
L 420 257.460375 
" clip-path="url(#p356cd1f3ed)" style="fill: none; stroke: #b0b0b0; stroke-width: 0.8; stroke-linecap: square"/>
     </g>
     <g id="line2d_16">
      <g>
       <use xlink:href="#m440cd1ed55" x="47.72" y="257.460375" style="stroke: #000000; stroke-width: 0.8"/>
      </g>
     </g>
     <g id="text_9">
      <!-- 0.2 -->
      <g transform="translate(24.816875 261.259593) scale(0.1 -0.1)">
       <use xlink:href="#DejaVuSans-30"/>
       <use xlink:href="#DejaVuSans-2e" x="63.623047"/>
       <use xlink:href="#DejaVuSans-32" x="95.410156"/>
      </g>
     </g>
    </g>
    <g id="ytick_3">
     <g id="line2d_17">
      <path d="M 47.72 209.035143 
L 420 209.035143 
" clip-path="url(#p356cd1f3ed)" style="fill: none; stroke: #b0b0b0; stroke-width: 0.8; stroke-linecap: square"/>
     </g>
     <g id="line2d_18">
      <g>
       <use xlink:href="#m440cd1ed55" x="47.72" y="209.035143" style="stroke: #000000; stroke-width: 0.8"/>
      </g>
     </g>
     <g id="text_10">
      <!-- 0.4 -->
      <g transform="translate(24.816875 212.834362) scale(0.1 -0.1)">
       <use xlink:href="#DejaVuSans-30"/>
       <use xlink:href="#DejaVuSans-2e" x="63.623047"/>
       <use xlink:href="#DejaVuSans-34" x="95.410156"/>
      </g>
     </g>
    </g>
    <g id="ytick_4">
     <g id="line2d_19">
      <path d="M 47.72 160.609912 
L 420 160.609912 
" clip-path="url(#p356cd1f3ed)" style="fill: none; stroke: #b0b0b0; stroke-width: 0.8; stroke-linecap: square"/>
     </g>
     <g id="line2d_20">
      <g>
       <use xlink:href="#m440cd1ed55" x="47.72" y="160.609912" style="stroke: #000000; stroke-width: 0.8"/>
      </g>
     </g>
     <g id="text_11">
      <!-- 0.6 -->
      <g transform="translate(24.816875 164.40913) scale(0.1 -0.1)">
       <defs>
        <path id="DejaVuSans-36" d="M 2113 2584 
Q 1688 2584 1439 2293 
Q 1191 2003 1191 1497 
Q 1191 994 1439 701 
Q 1688 409 2113 409 
Q 2538 409 2786 701 
Q 3034 994 3034 1497 
Q 3034 2003 2786 2293 
Q 2538 2584 2113 2584 
z
M 3366 4563 
L 3366 3988 
Q 3128 4100 2886 4159 
Q 2644 4219 2406 4219 
Q 1781 4219 1451 3797 
Q 1122 3375 1075 2522 
Q 1259 2794 1537 2939 
Q 1816 3084 2150 3084 
Q 2853 3084 3261 2657 
Q 3669 2231 3669 1497 
Q 3669 778 3244 343 
Q 2819 -91 2113 -91 
Q 1303 -91 875 529 
Q 447 1150 447 2328 
Q 447 3434 972 4092 
Q 1497 4750 2381 4750 
Q 2619 4750 2861 4703 
Q 3103 4656 3366 4563 
z
" transform="scale(0.015625)"/>
       </defs>
       <use xlink:href="#DejaVuSans-30"/>
       <use xlink:href="#DejaVuSans-2e" x="63.623047"/>
       <use xlink:href="#DejaVuSans-36" x="95.410156"/>
      </g>
     </g>
    </g>
    <g id="ytick_5">
     <g id="line2d_21">
      <path d="M 47.72 112.18468 
L 420 112.18468 
" clip-path="url(#p356cd1f3ed)" style="fill: none; stroke: #b0b0b0; stroke-width: 0.8; stroke-linecap: square"/>
     </g>
     <g id="line2d_22">
      <g>
       <use xlink:href="#m440cd1ed55" x="47.72" y="112.18468" style="stroke: #000000; stroke-width: 0.8"/>
      </g>
     </g>
     <g id="text_12">
      <!-- 0.8 -->
      <g transform="translate(24.816875 115.983899) scale(0.1 -0.1)">
       <defs>
        <path id="DejaVuSans-38" d="M 2034 2216 
Q 1584 2216 1326 1975 
Q 1069 1734 1069 1313 
Q 1069 891 1326 650 
Q 1584 409 2034 409 
Q 2484 409 2743 651 
Q 3003 894 3003 1313 
Q 3003 1734 2745 1975 
Q 2488 2216 2034 2216 
z
M 1403 2484 
Q 997 2584 770 2862 
Q 544 3141 544 3541 
Q 544 4100 942 4425 
Q 1341 4750 2034 4750 
Q 2731 4750 3128 4425 
Q 3525 4100 3525 3541 
Q 3525 3141 3298 2862 
Q 3072 2584 2669 2484 
Q 3125 2378 3379 2068 
Q 3634 1759 3634 1313 
Q 3634 634 3220 271 
Q 2806 -91 2034 -91 
Q 1263 -91 848 271 
Q 434 634 434 1313 
Q 434 1759 690 2068 
Q 947 2378 1403 2484 
z
M 1172 3481 
Q 1172 3119 1398 2916 
Q 1625 2713 2034 2713 
Q 2441 2713 2670 2916 
Q 2900 3119 2900 3481 
Q 2900 3844 2670 4047 
Q 2441 4250 2034 4250 
Q 1625 4250 1398 4047 
Q 1172 3844 1172 3481 
z
" transform="scale(0.015625)"/>
       </defs>
       <use xlink:href="#DejaVuSans-30"/>
       <use xlink:href="#DejaVuSans-2e" x="63.623047"/>
       <use xlink:href="#DejaVuSans-38" x="95.410156"/>
      </g>
     </g>
    </g>
    <g id="ytick_6">
     <g id="line2d_23">
      <path d="M 47.72 63.759449 
L 420 63.759449 
" clip-path="url(#p356cd1f3ed)" style="fill: none; stroke: #b0b0b0; stroke-width: 0.8; stroke-linecap: square"/>
     </g>
     <g id="line2d_24">
      <g>
       <use xlink:href="#m440cd1ed55" x="47.72" y="63.759449" style="stroke: #000000; stroke-width: 0.8"/>
      </g>
     </g>
     <g id="text_13">
      <!-- 1.0 -->
      <g transform="translate(24.816875 67.558668) scale(0.1 -0.1)">
       <use xlink:href="#DejaVuSans-31"/>
       <use xlink:href="#DejaVuSans-2e" x="63.623047"/>
       <use xlink:href="#DejaVuSans-30" x="95.410156"/>
      </g>
     </g>
    </g>
    <g id="text_14">
     <!-- Training Loss -->
     <g transform="translate(18.737187 216.622031) rotate(-90) scale(0.1 -0.1)">
      <defs>
       <path id="DejaVuSans-54" d="M -19 4666 
L 3928 4666 
L 3928 4134 
L 2272 4134 
L 2272 0 
L 1638 0 
L 1638 4134 
L -19 4134 
L -19 4666 
z
" transform="scale(0.015625)"/>
       <path id="DejaVuSans-72" d="M 2631 2963 
Q 2534 3019 2420 3045 
Q 2306 3072 2169 3072 
Q 1681 3072 1420 2755 
Q 1159 2438 1159 1844 
L 1159 0 
L 581 0 
L 581 3500 
L 1159 3500 
L 1159 2956 
Q 1341 3275 1631 3429 
Q 1922 3584 2338 3584 
Q 2397 3584 2469 3576 
Q 2541 3569 2628 3553 
L 2631 2963 
z
" transform="scale(0.015625)"/>
       <path id="DejaVuSans-61" d="M 2194 1759 
Q 1497 1759 1228 1600 
Q 959 1441 959 1056 
Q 959 750 1161 570 
Q 1363 391 1709 391 
Q 2188 391 2477 730 
Q 2766 1069 2766 1631 
L 2766 1759 
L 2194 1759 
z
M 3341 1997 
L 3341 0 
L 2766 0 
L 2766 531 
Q 2569 213 2275 61 
Q 1981 -91 1556 -91 
Q 1019 -91 701 211 
Q 384 513 384 1019 
Q 384 1609 779 1909 
Q 1175 2209 1959 2209 
L 2766 2209 
L 2766 2266 
Q 2766 2663 2505 2880 
Q 2244 3097 1772 3097 
Q 1472 3097 1187 3025 
Q 903 2953 641 2809 
L 641 3341 
Q 956 3463 1253 3523 
Q 1550 3584 1831 3584 
Q 2591 3584 2966 3190 
Q 3341 2797 3341 1997 
z
" transform="scale(0.015625)"/>
       <path id="DejaVuSans-69" d="M 603 3500 
L 1178 3500 
L 1178 0 
L 603 0 
L 603 3500 
z
M 603 4863 
L 1178 4863 
L 1178 4134 
L 603 4134 
L 603 4863 
z
" transform="scale(0.015625)"/>
       <path id="DejaVuSans-6e" d="M 3513 2113 
L 3513 0 
L 2938 0 
L 2938 2094 
Q 2938 2591 2744 2837 
Q 2550 3084 2163 3084 
Q 1697 3084 1428 2787 
Q 1159 2491 1159 1978 
L 1159 0 
L 581 0 
L 581 3500 
L 1159 3500 
L 1159 2956 
Q 1366 3272 1645 3428 
Q 1925 3584 2291 3584 
Q 2894 3584 3203 3211 
Q 3513 2838 3513 2113 
z
" transform="scale(0.015625)"/>
       <path id="DejaVuSans-67" d="M 2906 1791 
Q 2906 2416 2648 2759 
Q 2391 3103 1925 3103 
Q 1463 3103 1205 2759 
Q 947 2416 947 1791 
Q 947 1169 1205 825 
Q 1463 481 1925 481 
Q 2391 481 2648 825 
Q 2906 1169 2906 1791 
z
M 3481 434 
Q 3481 -459 3084 -895 
Q 2688 -1331 1869 -1331 
Q 1566 -1331 1297 -1286 
Q 1028 -1241 775 -1147 
L 775 -588 
Q 1028 -725 1275 -790 
Q 1522 -856 1778 -856 
Q 2344 -856 2625 -561 
Q 2906 -266 2906 331 
L 2906 616 
Q 2728 306 2450 153 
Q 2172 0 1784 0 
Q 1141 0 747 490 
Q 353 981 353 1791 
Q 353 2603 747 3093 
Q 1141 3584 1784 3584 
Q 2172 3584 2450 3431 
Q 2728 3278 2906 2969 
L 2906 3500 
L 3481 3500 
L 3481 434 
z
" transform="scale(0.015625)"/>
       <path id="DejaVuSans-20" transform="scale(0.015625)"/>
       <path id="DejaVuSans-4c" d="M 628 4666 
L 1259 4666 
L 1259 531 
L 3531 531 
L 3531 0 
L 628 0 
L 628 4666 
z
" transform="scale(0.015625)"/>
       <path id="DejaVuSans-73" d="M 2834 3397 
L 2834 2853 
Q 2591 2978 2328 3040 
Q 2066 3103 1784 3103 
Q 1356 3103 1142 2972 
Q 928 2841 928 2578 
Q 928 2378 1081 2264 
Q 1234 2150 1697 2047 
L 1894 2003 
Q 2506 1872 2764 1633 
Q 3022 1394 3022 966 
Q 3022 478 2636 193 
Q 2250 -91 1575 -91 
Q 1294 -91 989 -36 
Q 684 19 347 128 
L 347 722 
Q 666 556 975 473 
Q 1284 391 1588 391 
Q 1994 391 2212 530 
Q 2431 669 2431 922 
Q 2431 1156 2273 1281 
Q 2116 1406 1581 1522 
L 1381 1569 
Q 847 1681 609 1914 
Q 372 2147 372 2553 
Q 372 3047 722 3315 
Q 1072 3584 1716 3584 
Q 2034 3584 2315 3537 
Q 2597 3491 2834 3397 
z
" transform="scale(0.015625)"/>
      </defs>
      <use xlink:href="#DejaVuSans-54"/>
      <use xlink:href="#DejaVuSans-72" x="46.333984"/>
      <use xlink:href="#DejaVuSans-61" x="87.447266"/>
      <use xlink:href="#DejaVuSans-69" x="148.726562"/>
      <use xlink:href="#DejaVuSans-6e" x="176.509766"/>
      <use xlink:href="#DejaVuSans-69" x="239.888672"/>
      <use xlink:href="#DejaVuSans-6e" x="267.671875"/>
      <use xlink:href="#DejaVuSans-67" x="331.050781"/>
      <use xlink:href="#DejaVuSans-20" x="394.527344"/>
      <use xlink:href="#DejaVuSans-4c" x="426.314453"/>
      <use xlink:href="#DejaVuSans-6f" x="480.277344"/>
      <use xlink:href="#DejaVuSans-73" x="541.458984"/>
      <use xlink:href="#DejaVuSans-73" x="593.558594"/>
     </g>
    </g>
    <g id="text_15">
     <!-- 1e−5 -->
     <g transform="translate(47.72 47.64) scale(0.1 -0.1)">
      <defs>
       <path id="DejaVuSans-65" d="M 3597 1894 
L 3597 1613 
L 953 1613 
Q 991 1019 1311 708 
Q 1631 397 2203 397 
Q 2534 397 2845 478 
Q 3156 559 3463 722 
L 3463 178 
Q 3153 47 2828 -22 
Q 2503 -91 2169 -91 
Q 1331 -91 842 396 
Q 353 884 353 1716 
Q 353 2575 817 3079 
Q 1281 3584 2069 3584 
Q 2775 3584 3186 3129 
Q 3597 2675 3597 1894 
z
M 3022 2063 
Q 3016 2534 2758 2815 
Q 2500 3097 2075 3097 
Q 1594 3097 1305 2825 
Q 1016 2553 972 2059 
L 3022 2063 
z
" transform="scale(0.015625)"/>
       <path id="DejaVuSans-2212" d="M 678 2272 
L 4684 2272 
L 4684 1741 
L 678 1741 
L 678 2272 
z
" transform="scale(0.015625)"/>
      </defs>
      <use xlink:href="#DejaVuSans-31"/>
      <use xlink:href="#DejaVuSans-65" x="63.623047"/>
      <use xlink:href="#DejaVuSans-2212" x="125.146484"/>
      <use xlink:href="#DejaVuSans-35" x="208.935547"/>
     </g>
    </g>
   </g>
   <g id="line2d_25">
    <path d="M 64.641818 305.580313 
L 71.548683 305.647025 
L 78.455547 305.668728 
L 85.362412 305.687313 
L 92.269276 305.71405 
L 99.176141 305.73915 
L 106.083006 305.745447 
L 112.98987 305.754586 
L 119.896735 305.773699 
L 126.803599 305.783231 
L 133.710464 305.813809 
L 140.617328 305.81232 
L 147.524193 305.828444 
L 154.431058 305.82671 
L 161.337922 305.835778 
L 168.244787 305.842889 
L 175.151651 305.859731 
L 182.058516 305.856298 
L 188.96538 305.855199 
L 195.872245 305.859447 
L 202.779109 305.834885 
L 209.685974 305.844824 
L 216.592839 305.853922 
L 223.499703 305.860537 
L 230.406568 305.868806 
L 237.313432 305.85849 
L 244.220297 305.878044 
L 251.127161 305.869822 
L 258.034026 305.86189 
L 264.940891 305.876642 
L 271.847755 305.881261 
L 278.75462 305.882557 
L 285.661484 305.883528 
L 292.568349 305.870206 
L 299.475213 305.873966 
L 306.382078 305.882699 
L 313.288942 305.882768 
L 320.195807 305.883488 
L 327.102672 305.883948 
L 334.009536 305.884931 
L 340.916401 305.885106 
L 347.823265 305.885219 
L 354.73013 305.885288 
L 361.636994 305.885331 
L 368.543859 305.885369 
L 375.450724 305.885395 
L 382.357588 305.88541 
L 389.264453 305.885427 
L 396.171317 305.885442 
L 403.078182 305.885455 
" clip-path="url(#p356cd1f3ed)" style="fill: none; stroke: #1f77b4; stroke-width: 1.5; stroke-linecap: square"/>
   </g>
   <g id="line2d_26">
    <path d="M 64.641818 305.613111 
L 71.548683 305.666019 
L 78.455547 305.675083 
L 85.362412 305.683065 
L 92.269276 305.687566 
L 99.176141 305.696974 
L 106.083006 305.697643 
L 112.98987 305.705018 
L 119.896735 305.708032 
L 126.803599 305.711674 
L 133.710464 305.712531 
L 140.617328 305.720904 
L 147.524193 305.716966 
L 154.431058 305.725819 
L 161.337922 305.730117 
L 168.244787 305.730251 
L 175.151651 305.73164 
L 182.058516 305.737648 
L 188.96538 305.739749 
L 195.872245 305.743911 
L 202.779109 305.747219 
L 209.685974 305.749607 
L 216.592839 305.751814 
L 223.499703 305.753306 
L 230.406568 305.756845 
L 237.313432 305.76435 
L 244.220297 305.765733 
L 251.127161 305.768296 
L 258.034026 305.770236 
L 264.940891 305.781736 
L 271.847755 305.776206 
L 278.75462 305.782949 
L 285.661484 305.788241 
L 292.568349 305.789723 
L 299.475213 305.79238 
L 306.382078 305.800618 
L 313.288942 305.799332 
L 320.195807 305.805369 
L 327.102672 305.810496 
L 334.009536 305.806047 
L 340.916401 305.814814 
L 347.823265 305.814103 
L 354.73013 305.818796 
L 361.636994 305.821138 
L 368.543859 305.824533 
L 375.450724 305.828651 
L 382.357588 305.829651 
L 389.264453 305.831776 
L 396.171317 305.835944 
L 403.078182 305.833743 
" clip-path="url(#p356cd1f3ed)" style="fill: none; stroke: #ff7f0e; stroke-width: 1.5; stroke-linecap: square"/>
   </g>
   <g id="line2d_27">
    <path d="M 64.641818 209.262725 
L 71.548683 161.005343 
L 78.455547 212.751138 
L 85.362412 178.715752 
L 92.269276 167.167867 
L 99.176141 154.052003 
L 106.083006 164.191246 
L 112.98987 172.319206 
L 119.896735 181.29334 
L 126.803599 194.965554 
L 133.710464 204.7503 
L 140.617328 153.88033 
L 147.524193 188.285599 
L 154.431058 210.812965 
L 161.337922 171.365095 
L 168.244787 160.076453 
L 175.151651 142.348878 
L 182.058516 176.614938 
L 188.96538 126.77977 
L 195.872245 84.783144 
L 202.779109 125.863078 
L 209.685974 157.866481 
L 216.592839 121.902628 
L 223.499703 115.836602 
L 230.406568 152.061337 
L 237.313432 150.115566 
L 244.220297 94.942128 
L 251.127161 157.84173 
L 258.034026 128.295954 
L 264.940891 137.748465 
L 271.847755 148.575295 
L 278.75462 111.09869 
L 285.661484 153.001112 
L 292.568349 139.537989 
L 299.475213 122.533916 
L 306.382078 116.540614 
L 313.288942 109.379756 
L 320.195807 148.017471 
L 327.102672 93.878163 
L 334.009536 110.146096 
L 340.916401 62.794545 
L 347.823265 88.892079 
L 354.73013 63.51383 
L 361.636994 83.410667 
L 368.543859 69.99707 
L 375.450724 91.442568 
L 382.357588 80.942403 
L 389.264453 73.04222 
L 396.171317 112.229328 
L 403.078182 85.569301 
" clip-path="url(#p356cd1f3ed)" style="fill: none; stroke: #2ca02c; stroke-width: 1.5; stroke-linecap: square"/>
   </g>
   <g id="patch_3">
    <path d="M 47.72 318.04 
L 47.72 50.64 
" style="fill: none; stroke: #000000; stroke-width: 0.8; stroke-linejoin: miter; stroke-linecap: square"/>
   </g>
   <g id="patch_4">
    <path d="M 420 318.04 
L 420 50.64 
" style="fill: none; stroke: #000000; stroke-width: 0.8; stroke-linejoin: miter; stroke-linecap: square"/>
   </g>
   <g id="patch_5">
    <path d="M 47.72 318.04 
L 420 318.04 
" style="fill: none; stroke: #000000; stroke-width: 0.8; stroke-linejoin: miter; stroke-linecap: square"/>
   </g>
   <g id="patch_6">
    <path d="M 47.72 50.64 
L 420 50.64 
" style="fill: none; stroke: #000000; stroke-width: 0.8; stroke-linejoin: miter; stroke-linecap: square"/>
   </g>
   <g id="text_16">
    <!-- Training Loss -->
    <g transform="translate(195.121562 44.64) scale(0.12 -0.12)">
     <use xlink:href="#DejaVuSans-54"/>
     <use xlink:href="#DejaVuSans-72" x="46.333984"/>
     <use xlink:href="#DejaVuSans-61" x="87.447266"/>
     <use xlink:href="#DejaVuSans-69" x="148.726562"/>
     <use xlink:href="#DejaVuSans-6e" x="176.509766"/>
     <use xlink:href="#DejaVuSans-69" x="239.888672"/>
     <use xlink:href="#DejaVuSans-6e" x="267.671875"/>
     <use xlink:href="#DejaVuSans-67" x="331.050781"/>
     <use xlink:href="#DejaVuSans-20" x="394.527344"/>
     <use xlink:href="#DejaVuSans-4c" x="426.314453"/>
     <use xlink:href="#DejaVuSans-6f" x="480.277344"/>
     <use xlink:href="#DejaVuSans-73" x="541.458984"/>
     <use xlink:href="#DejaVuSans-73" x="593.558594"/>
    </g>
   </g>
   <g id="legend_1">
    <g id="patch_7">
     <path d="M 54.72 102.674375 
L 163.877813 102.674375 
Q 165.877813 102.674375 165.877813 100.674375 
L 165.877813 57.64 
Q 165.877813 55.64 163.877813 55.64 
L 54.72 55.64 
Q 52.72 55.64 52.72 57.64 
L 52.72 100.674375 
Q 52.72 102.674375 54.72 102.674375 
z
" style="fill: #ffffff; opacity: 0.8; stroke: #cccccc; stroke-linejoin: miter"/>
    </g>
    <g id="line2d_28">
     <path d="M 56.72 63.738437 
L 66.72 63.738437 
L 76.72 63.738437 
" style="fill: none; stroke: #1f77b4; stroke-width: 1.5; stroke-linecap: square"/>
    </g>
    <g id="text_17">
     <!-- t595w (0.0005) -->
     <g transform="translate(84.72 67.238437) scale(0.1 -0.1)">
      <defs>
       <path id="DejaVuSans-74" d="M 1172 4494 
L 1172 3500 
L 2356 3500 
L 2356 3053 
L 1172 3053 
L 1172 1153 
Q 1172 725 1289 603 
Q 1406 481 1766 481 
L 2356 481 
L 2356 0 
L 1766 0 
Q 1100 0 847 248 
Q 594 497 594 1153 
L 594 3053 
L 172 3053 
L 172 3500 
L 594 3500 
L 594 4494 
L 1172 4494 
z
" transform="scale(0.015625)"/>
       <path id="DejaVuSans-39" d="M 703 97 
L 703 672 
Q 941 559 1184 500 
Q 1428 441 1663 441 
Q 2288 441 2617 861 
Q 2947 1281 2994 2138 
Q 2813 1869 2534 1725 
Q 2256 1581 1919 1581 
Q 1219 1581 811 2004 
Q 403 2428 403 3163 
Q 403 3881 828 4315 
Q 1253 4750 1959 4750 
Q 2769 4750 3195 4129 
Q 3622 3509 3622 2328 
Q 3622 1225 3098 567 
Q 2575 -91 1691 -91 
Q 1453 -91 1209 -44 
Q 966 3 703 97 
z
M 1959 2075 
Q 2384 2075 2632 2365 
Q 2881 2656 2881 3163 
Q 2881 3666 2632 3958 
Q 2384 4250 1959 4250 
Q 1534 4250 1286 3958 
Q 1038 3666 1038 3163 
Q 1038 2656 1286 2365 
Q 1534 2075 1959 2075 
z
" transform="scale(0.015625)"/>
       <path id="DejaVuSans-77" d="M 269 3500 
L 844 3500 
L 1563 769 
L 2278 3500 
L 2956 3500 
L 3675 769 
L 4391 3500 
L 4966 3500 
L 4050 0 
L 3372 0 
L 2619 2869 
L 1863 0 
L 1184 0 
L 269 3500 
z
" transform="scale(0.015625)"/>
       <path id="DejaVuSans-28" d="M 1984 4856 
Q 1566 4138 1362 3434 
Q 1159 2731 1159 2009 
Q 1159 1288 1364 580 
Q 1569 -128 1984 -844 
L 1484 -844 
Q 1016 -109 783 600 
Q 550 1309 550 2009 
Q 550 2706 781 3412 
Q 1013 4119 1484 4856 
L 1984 4856 
z
" transform="scale(0.015625)"/>
       <path id="DejaVuSans-29" d="M 513 4856 
L 1013 4856 
Q 1481 4119 1714 3412 
Q 1947 2706 1947 2009 
Q 1947 1309 1714 600 
Q 1481 -109 1013 -844 
L 513 -844 
Q 928 -128 1133 580 
Q 1338 1288 1338 2009 
Q 1338 2731 1133 3434 
Q 928 4138 513 4856 
z
" transform="scale(0.015625)"/>
      </defs>
      <use xlink:href="#DejaVuSans-74"/>
      <use xlink:href="#DejaVuSans-35" x="39.208984"/>
      <use xlink:href="#DejaVuSans-39" x="102.832031"/>
      <use xlink:href="#DejaVuSans-35" x="166.455078"/>
      <use xlink:href="#DejaVuSans-77" x="230.078125"/>
      <use xlink:href="#DejaVuSans-20" x="311.865234"/>
      <use xlink:href="#DejaVuSans-28" x="343.652344"/>
      <use xlink:href="#DejaVuSans-30" x="382.666016"/>
      <use xlink:href="#DejaVuSans-2e" x="446.289062"/>
      <use xlink:href="#DejaVuSans-30" x="478.076172"/>
      <use xlink:href="#DejaVuSans-30" x="541.699219"/>
      <use xlink:href="#DejaVuSans-30" x="605.322266"/>
      <use xlink:href="#DejaVuSans-35" x="668.945312"/>
      <use xlink:href="#DejaVuSans-29" x="732.568359"/>
     </g>
    </g>
    <g id="line2d_29">
     <path d="M 56.72 78.416562 
L 66.72 78.416562 
L 76.72 78.416562 
" style="fill: none; stroke: #ff7f0e; stroke-width: 1.5; stroke-linecap: square"/>
    </g>
    <g id="text_18">
     <!-- 1ku80 (5e-05) -->
     <g transform="translate(84.72 81.916562) scale(0.1 -0.1)">
      <defs>
       <path id="DejaVuSans-6b" d="M 581 4863 
L 1159 4863 
L 1159 1991 
L 2875 3500 
L 3609 3500 
L 1753 1863 
L 3688 0 
L 2938 0 
L 1159 1709 
L 1159 0 
L 581 0 
L 581 4863 
z
" transform="scale(0.015625)"/>
       <path id="DejaVuSans-75" d="M 544 1381 
L 544 3500 
L 1119 3500 
L 1119 1403 
Q 1119 906 1312 657 
Q 1506 409 1894 409 
Q 2359 409 2629 706 
Q 2900 1003 2900 1516 
L 2900 3500 
L 3475 3500 
L 3475 0 
L 2900 0 
L 2900 538 
Q 2691 219 2414 64 
Q 2138 -91 1772 -91 
Q 1169 -91 856 284 
Q 544 659 544 1381 
z
M 1991 3584 
L 1991 3584 
z
" transform="scale(0.015625)"/>
       <path id="DejaVuSans-2d" d="M 313 2009 
L 1997 2009 
L 1997 1497 
L 313 1497 
L 313 2009 
z
" transform="scale(0.015625)"/>
      </defs>
      <use xlink:href="#DejaVuSans-31"/>
      <use xlink:href="#DejaVuSans-6b" x="63.623047"/>
      <use xlink:href="#DejaVuSans-75" x="118.408203"/>
      <use xlink:href="#DejaVuSans-38" x="181.787109"/>
      <use xlink:href="#DejaVuSans-30" x="245.410156"/>
      <use xlink:href="#DejaVuSans-20" x="309.033203"/>
      <use xlink:href="#DejaVuSans-28" x="340.820312"/>
      <use xlink:href="#DejaVuSans-35" x="379.833984"/>
      <use xlink:href="#DejaVuSans-65" x="443.457031"/>
      <use xlink:href="#DejaVuSans-2d" x="504.980469"/>
      <use xlink:href="#DejaVuSans-30" x="541.064453"/>
      <use xlink:href="#DejaVuSans-35" x="604.6875"/>
      <use xlink:href="#DejaVuSans-29" x="668.310547"/>
     </g>
    </g>
    <g id="line2d_30">
     <path d="M 56.72 93.094687 
L 66.72 93.094687 
L 76.72 93.094687 
" style="fill: none; stroke: #2ca02c; stroke-width: 1.5; stroke-linecap: square"/>
    </g>
    <g id="text_19">
     <!-- 4q6w0 (0.005) -->
     <g transform="translate(84.72 96.594687) scale(0.1 -0.1)">
      <defs>
       <path id="DejaVuSans-71" d="M 947 1747 
Q 947 1113 1208 752 
Q 1469 391 1925 391 
Q 2381 391 2643 752 
Q 2906 1113 2906 1747 
Q 2906 2381 2643 2742 
Q 2381 3103 1925 3103 
Q 1469 3103 1208 2742 
Q 947 2381 947 1747 
z
M 2906 525 
Q 2725 213 2448 61 
Q 2172 -91 1784 -91 
Q 1150 -91 751 415 
Q 353 922 353 1747 
Q 353 2572 751 3078 
Q 1150 3584 1784 3584 
Q 2172 3584 2448 3432 
Q 2725 3281 2906 2969 
L 2906 3500 
L 3481 3500 
L 3481 -1331 
L 2906 -1331 
L 2906 525 
z
" transform="scale(0.015625)"/>
      </defs>
      <use xlink:href="#DejaVuSans-34"/>
      <use xlink:href="#DejaVuSans-71" x="63.623047"/>
      <use xlink:href="#DejaVuSans-36" x="127.099609"/>
      <use xlink:href="#DejaVuSans-77" x="190.722656"/>
      <use xlink:href="#DejaVuSans-30" x="272.509766"/>
      <use xlink:href="#DejaVuSans-20" x="336.132812"/>
      <use xlink:href="#DejaVuSans-28" x="367.919922"/>
      <use xlink:href="#DejaVuSans-30" x="406.933594"/>
      <use xlink:href="#DejaVuSans-2e" x="470.556641"/>
      <use xlink:href="#DejaVuSans-30" x="502.34375"/>
      <use xlink:href="#DejaVuSans-30" x="565.966797"/>
      <use xlink:href="#DejaVuSans-35" x="629.589844"/>
      <use xlink:href="#DejaVuSans-29" x="693.212891"/>
     </g>
    </g>
   </g>
  </g>
  <g id="axes_2">
   <g id="patch_8">
    <path d="M 480.32 318.04 
L 852.6 318.04 
L 852.6 50.64 
L 480.32 50.64 
z
" style="fill: #ffffff"/>
   </g>
   <g id="matplotlib.axis_3">
    <g id="xtick_7">
     <g id="line2d_31">
      <path d="M 490.334954 318.04 
L 490.334954 50.64 
" clip-path="url(#pa1233b4b0a)" style="fill: none; stroke: #b0b0b0; stroke-width: 0.8; stroke-linecap: square"/>
     </g>
     <g id="line2d_32">
      <g>
       <use xlink:href="#m33a825f06f" x="490.334954" y="318.04" style="stroke: #000000; stroke-width: 0.8"/>
      </g>
     </g>
     <g id="text_20">
      <!-- 0 -->
      <g transform="translate(487.153704 332.638438) scale(0.1 -0.1)">
       <use xlink:href="#DejaVuSans-30"/>
      </g>
     </g>
    </g>
    <g id="xtick_8">
     <g id="line2d_33">
      <path d="M 559.403599 318.04 
L 559.403599 50.64 
" clip-path="url(#pa1233b4b0a)" style="fill: none; stroke: #b0b0b0; stroke-width: 0.8; stroke-linecap: square"/>
     </g>
     <g id="line2d_34">
      <g>
       <use xlink:href="#m33a825f06f" x="559.403599" y="318.04" style="stroke: #000000; stroke-width: 0.8"/>
      </g>
     </g>
     <g id="text_21">
      <!-- 10 -->
      <g transform="translate(553.041099 332.638438) scale(0.1 -0.1)">
       <use xlink:href="#DejaVuSans-31"/>
       <use xlink:href="#DejaVuSans-30" x="63.623047"/>
      </g>
     </g>
    </g>
    <g id="xtick_9">
     <g id="line2d_35">
      <path d="M 628.472245 318.04 
L 628.472245 50.64 
" clip-path="url(#pa1233b4b0a)" style="fill: none; stroke: #b0b0b0; stroke-width: 0.8; stroke-linecap: square"/>
     </g>
     <g id="line2d_36">
      <g>
       <use xlink:href="#m33a825f06f" x="628.472245" y="318.04" style="stroke: #000000; stroke-width: 0.8"/>
      </g>
     </g>
     <g id="text_22">
      <!-- 20 -->
      <g transform="translate(622.109745 332.638438) scale(0.1 -0.1)">
       <use xlink:href="#DejaVuSans-32"/>
       <use xlink:href="#DejaVuSans-30" x="63.623047"/>
      </g>
     </g>
    </g>
    <g id="xtick_10">
     <g id="line2d_37">
      <path d="M 697.540891 318.04 
L 697.540891 50.64 
" clip-path="url(#pa1233b4b0a)" style="fill: none; stroke: #b0b0b0; stroke-width: 0.8; stroke-linecap: square"/>
     </g>
     <g id="line2d_38">
      <g>
       <use xlink:href="#m33a825f06f" x="697.540891" y="318.04" style="stroke: #000000; stroke-width: 0.8"/>
      </g>
     </g>
     <g id="text_23">
      <!-- 30 -->
      <g transform="translate(691.178391 332.638438) scale(0.1 -0.1)">
       <use xlink:href="#DejaVuSans-33"/>
       <use xlink:href="#DejaVuSans-30" x="63.623047"/>
      </g>
     </g>
    </g>
    <g id="xtick_11">
     <g id="line2d_39">
      <path d="M 766.609536 318.04 
L 766.609536 50.64 
" clip-path="url(#pa1233b4b0a)" style="fill: none; stroke: #b0b0b0; stroke-width: 0.8; stroke-linecap: square"/>
     </g>
     <g id="line2d_40">
      <g>
       <use xlink:href="#m33a825f06f" x="766.609536" y="318.04" style="stroke: #000000; stroke-width: 0.8"/>
      </g>
     </g>
     <g id="text_24">
      <!-- 40 -->
      <g transform="translate(760.247036 332.638438) scale(0.1 -0.1)">
       <use xlink:href="#DejaVuSans-34"/>
       <use xlink:href="#DejaVuSans-30" x="63.623047"/>
      </g>
     </g>
    </g>
    <g id="xtick_12">
     <g id="line2d_41">
      <path d="M 835.678182 318.04 
L 835.678182 50.64 
" clip-path="url(#pa1233b4b0a)" style="fill: none; stroke: #b0b0b0; stroke-width: 0.8; stroke-linecap: square"/>
     </g>
     <g id="line2d_42">
      <g>
       <use xlink:href="#m33a825f06f" x="835.678182" y="318.04" style="stroke: #000000; stroke-width: 0.8"/>
      </g>
     </g>
     <g id="text_25">
      <!-- 50 -->
      <g transform="translate(829.315682 332.638438) scale(0.1 -0.1)">
       <use xlink:href="#DejaVuSans-35"/>
       <use xlink:href="#DejaVuSans-30" x="63.623047"/>
      </g>
     </g>
    </g>
    <g id="text_26">
     <!-- Epoch -->
     <g transform="translate(651.149062 346.316563) scale(0.1 -0.1)">
      <use xlink:href="#DejaVuSans-45"/>
      <use xlink:href="#DejaVuSans-70" x="63.183594"/>
      <use xlink:href="#DejaVuSans-6f" x="126.660156"/>
      <use xlink:href="#DejaVuSans-63" x="187.841797"/>
      <use xlink:href="#DejaVuSans-68" x="242.822266"/>
     </g>
    </g>
   </g>
   <g id="matplotlib.axis_4">
    <g id="ytick_7">
     <g id="line2d_43">
      <path d="M 480.32 305.932957 
L 852.6 305.932957 
" clip-path="url(#pa1233b4b0a)" style="fill: none; stroke: #b0b0b0; stroke-width: 0.8; stroke-linecap: square"/>
     </g>
     <g id="line2d_44">
      <g>
       <use xlink:href="#m440cd1ed55" x="480.32" y="305.932957" style="stroke: #000000; stroke-width: 0.8"/>
      </g>
     </g>
     <g id="text_27">
      <!-- 0.000 -->
      <g transform="translate(444.691875 309.732176) scale(0.1 -0.1)">
       <use xlink:href="#DejaVuSans-30"/>
       <use xlink:href="#DejaVuSans-2e" x="63.623047"/>
       <use xlink:href="#DejaVuSans-30" x="95.410156"/>
       <use xlink:href="#DejaVuSans-30" x="159.033203"/>
       <use xlink:href="#DejaVuSans-30" x="222.65625"/>
      </g>
     </g>
    </g>
    <g id="ytick_8">
     <g id="line2d_45">
      <path d="M 480.32 275.379119 
L 852.6 275.379119 
" clip-path="url(#pa1233b4b0a)" style="fill: none; stroke: #b0b0b0; stroke-width: 0.8; stroke-linecap: square"/>
     </g>
     <g id="line2d_46">
      <g>
       <use xlink:href="#m440cd1ed55" x="480.32" y="275.379119" style="stroke: #000000; stroke-width: 0.8"/>
      </g>
     </g>
     <g id="text_28">
      <!-- 0.005 -->
      <g transform="translate(444.691875 279.178338) scale(0.1 -0.1)">
       <use xlink:href="#DejaVuSans-30"/>
       <use xlink:href="#DejaVuSans-2e" x="63.623047"/>
       <use xlink:href="#DejaVuSans-30" x="95.410156"/>
       <use xlink:href="#DejaVuSans-30" x="159.033203"/>
       <use xlink:href="#DejaVuSans-35" x="222.65625"/>
      </g>
     </g>
    </g>
    <g id="ytick_9">
     <g id="line2d_47">
      <path d="M 480.32 244.825281 
L 852.6 244.825281 
" clip-path="url(#pa1233b4b0a)" style="fill: none; stroke: #b0b0b0; stroke-width: 0.8; stroke-linecap: square"/>
     </g>
     <g id="line2d_48">
      <g>
       <use xlink:href="#m440cd1ed55" x="480.32" y="244.825281" style="stroke: #000000; stroke-width: 0.8"/>
      </g>
     </g>
     <g id="text_29">
      <!-- 0.010 -->
      <g transform="translate(444.691875 248.6245) scale(0.1 -0.1)">
       <use xlink:href="#DejaVuSans-30"/>
       <use xlink:href="#DejaVuSans-2e" x="63.623047"/>
       <use xlink:href="#DejaVuSans-30" x="95.410156"/>
       <use xlink:href="#DejaVuSans-31" x="159.033203"/>
       <use xlink:href="#DejaVuSans-30" x="222.65625"/>
      </g>
     </g>
    </g>
    <g id="ytick_10">
     <g id="line2d_49">
      <path d="M 480.32 214.271443 
L 852.6 214.271443 
" clip-path="url(#pa1233b4b0a)" style="fill: none; stroke: #b0b0b0; stroke-width: 0.8; stroke-linecap: square"/>
     </g>
     <g id="line2d_50">
      <g>
       <use xlink:href="#m440cd1ed55" x="480.32" y="214.271443" style="stroke: #000000; stroke-width: 0.8"/>
      </g>
     </g>
     <g id="text_30">
      <!-- 0.015 -->
      <g transform="translate(444.691875 218.070662) scale(0.1 -0.1)">
       <use xlink:href="#DejaVuSans-30"/>
       <use xlink:href="#DejaVuSans-2e" x="63.623047"/>
       <use xlink:href="#DejaVuSans-30" x="95.410156"/>
       <use xlink:href="#DejaVuSans-31" x="159.033203"/>
       <use xlink:href="#DejaVuSans-35" x="222.65625"/>
      </g>
     </g>
    </g>
    <g id="ytick_11">
     <g id="line2d_51">
      <path d="M 480.32 183.717605 
L 852.6 183.717605 
" clip-path="url(#pa1233b4b0a)" style="fill: none; stroke: #b0b0b0; stroke-width: 0.8; stroke-linecap: square"/>
     </g>
     <g id="line2d_52">
      <g>
       <use xlink:href="#m440cd1ed55" x="480.32" y="183.717605" style="stroke: #000000; stroke-width: 0.8"/>
      </g>
     </g>
     <g id="text_31">
      <!-- 0.020 -->
      <g transform="translate(444.691875 187.516823) scale(0.1 -0.1)">
       <use xlink:href="#DejaVuSans-30"/>
       <use xlink:href="#DejaVuSans-2e" x="63.623047"/>
       <use xlink:href="#DejaVuSans-30" x="95.410156"/>
       <use xlink:href="#DejaVuSans-32" x="159.033203"/>
       <use xlink:href="#DejaVuSans-30" x="222.65625"/>
      </g>
     </g>
    </g>
    <g id="ytick_12">
     <g id="line2d_53">
      <path d="M 480.32 153.163767 
L 852.6 153.163767 
" clip-path="url(#pa1233b4b0a)" style="fill: none; stroke: #b0b0b0; stroke-width: 0.8; stroke-linecap: square"/>
     </g>
     <g id="line2d_54">
      <g>
       <use xlink:href="#m440cd1ed55" x="480.32" y="153.163767" style="stroke: #000000; stroke-width: 0.8"/>
      </g>
     </g>
     <g id="text_32">
      <!-- 0.025 -->
      <g transform="translate(444.691875 156.962985) scale(0.1 -0.1)">
       <use xlink:href="#DejaVuSans-30"/>
       <use xlink:href="#DejaVuSans-2e" x="63.623047"/>
       <use xlink:href="#DejaVuSans-30" x="95.410156"/>
       <use xlink:href="#DejaVuSans-32" x="159.033203"/>
       <use xlink:href="#DejaVuSans-35" x="222.65625"/>
      </g>
     </g>
    </g>
    <g id="ytick_13">
     <g id="line2d_55">
      <path d="M 480.32 122.609929 
L 852.6 122.609929 
" clip-path="url(#pa1233b4b0a)" style="fill: none; stroke: #b0b0b0; stroke-width: 0.8; stroke-linecap: square"/>
     </g>
     <g id="line2d_56">
      <g>
       <use xlink:href="#m440cd1ed55" x="480.32" y="122.609929" style="stroke: #000000; stroke-width: 0.8"/>
      </g>
     </g>
     <g id="text_33">
      <!-- 0.030 -->
      <g transform="translate(444.691875 126.409147) scale(0.1 -0.1)">
       <use xlink:href="#DejaVuSans-30"/>
       <use xlink:href="#DejaVuSans-2e" x="63.623047"/>
       <use xlink:href="#DejaVuSans-30" x="95.410156"/>
       <use xlink:href="#DejaVuSans-33" x="159.033203"/>
       <use xlink:href="#DejaVuSans-30" x="222.65625"/>
      </g>
     </g>
    </g>
    <g id="ytick_14">
     <g id="line2d_57">
      <path d="M 480.32 92.056091 
L 852.6 92.056091 
" clip-path="url(#pa1233b4b0a)" style="fill: none; stroke: #b0b0b0; stroke-width: 0.8; stroke-linecap: square"/>
     </g>
     <g id="line2d_58">
      <g>
       <use xlink:href="#m440cd1ed55" x="480.32" y="92.056091" style="stroke: #000000; stroke-width: 0.8"/>
      </g>
     </g>
     <g id="text_34">
      <!-- 0.035 -->
      <g transform="translate(444.691875 95.855309) scale(0.1 -0.1)">
       <use xlink:href="#DejaVuSans-30"/>
       <use xlink:href="#DejaVuSans-2e" x="63.623047"/>
       <use xlink:href="#DejaVuSans-30" x="95.410156"/>
       <use xlink:href="#DejaVuSans-33" x="159.033203"/>
       <use xlink:href="#DejaVuSans-35" x="222.65625"/>
      </g>
     </g>
    </g>
    <g id="ytick_15">
     <g id="line2d_59">
      <path d="M 480.32 61.502253 
L 852.6 61.502253 
" clip-path="url(#pa1233b4b0a)" style="fill: none; stroke: #b0b0b0; stroke-width: 0.8; stroke-linecap: square"/>
     </g>
     <g id="line2d_60">
      <g>
       <use xlink:href="#m440cd1ed55" x="480.32" y="61.502253" style="stroke: #000000; stroke-width: 0.8"/>
      </g>
     </g>
     <g id="text_35">
      <!-- 0.040 -->
      <g transform="translate(444.691875 65.301471) scale(0.1 -0.1)">
       <use xlink:href="#DejaVuSans-30"/>
       <use xlink:href="#DejaVuSans-2e" x="63.623047"/>
       <use xlink:href="#DejaVuSans-30" x="95.410156"/>
       <use xlink:href="#DejaVuSans-34" x="159.033203"/>
       <use xlink:href="#DejaVuSans-30" x="222.65625"/>
      </g>
     </g>
    </g>
    <g id="text_36">
     <!-- Evaluation Loss -->
     <g transform="translate(438.612187 223.278281) rotate(-90) scale(0.1 -0.1)">
      <defs>
       <path id="DejaVuSans-76" d="M 191 3500 
L 800 3500 
L 1894 563 
L 2988 3500 
L 3597 3500 
L 2284 0 
L 1503 0 
L 191 3500 
z
" transform="scale(0.015625)"/>
       <path id="DejaVuSans-6c" d="M 603 4863 
L 1178 4863 
L 1178 0 
L 603 0 
L 603 4863 
z
" transform="scale(0.015625)"/>
      </defs>
      <use xlink:href="#DejaVuSans-45"/>
      <use xlink:href="#DejaVuSans-76" x="63.183594"/>
      <use xlink:href="#DejaVuSans-61" x="122.363281"/>
      <use xlink:href="#DejaVuSans-6c" x="183.642578"/>
      <use xlink:href="#DejaVuSans-75" x="211.425781"/>
      <use xlink:href="#DejaVuSans-61" x="274.804688"/>
      <use xlink:href="#DejaVuSans-74" x="336.083984"/>
      <use xlink:href="#DejaVuSans-69" x="375.292969"/>
      <use xlink:href="#DejaVuSans-6f" x="403.076172"/>
      <use xlink:href="#DejaVuSans-6e" x="464.257812"/>
      <use xlink:href="#DejaVuSans-20" x="527.636719"/>
      <use xlink:href="#DejaVuSans-4c" x="559.423828"/>
      <use xlink:href="#DejaVuSans-6f" x="613.386719"/>
      <use xlink:href="#DejaVuSans-73" x="674.568359"/>
      <use xlink:href="#DejaVuSans-73" x="726.667969"/>
     </g>
    </g>
   </g>
   <g id="line2d_61">
    <path d="M 497.241818 305.82404 
L 504.148683 305.834945 
L 511.055547 305.827669 
L 517.962412 305.832368 
L 524.869276 305.781431 
L 531.776141 305.836211 
L 538.683006 305.797593 
L 545.58987 305.837901 
L 552.496735 305.858347 
L 559.403599 305.825615 
L 566.310464 305.845843 
L 573.217328 305.857678 
L 580.124193 305.838813 
L 587.031058 305.85406 
L 593.937922 305.846386 
L 600.844787 305.824717 
L 607.751651 305.813739 
L 614.658516 305.862079 
L 621.56538 305.854983 
L 628.472245 305.849113 
L 635.379109 305.885455 
L 642.285974 305.850244 
L 649.192839 305.850693 
L 656.099703 305.815702 
L 663.006568 305.846814 
L 669.913432 305.86227 
L 676.820297 305.861606 
L 683.727161 305.858593 
L 690.634026 305.851312 
L 697.540891 305.842644 
L 704.447755 305.843748 
L 711.35462 305.832186 
L 718.261484 305.841801 
L 725.168349 305.83181 
L 732.075213 305.855316 
L 738.982078 305.848073 
L 745.888942 305.825206 
L 752.795807 305.814488 
L 759.702672 305.834814 
L 766.609536 305.832088 
L 773.516401 305.831777 
L 780.423265 305.829053 
L 787.33013 305.827875 
L 794.236994 305.82587 
L 801.143859 305.824589 
L 808.050724 305.82363 
L 814.957588 305.821882 
L 821.864453 305.821015 
L 828.771317 305.819879 
L 835.678182 305.818763 
" clip-path="url(#pa1233b4b0a)" style="fill: none; stroke: #1f77b4; stroke-width: 1.5; stroke-linecap: square"/>
   </g>
   <g id="line2d_62">
    <path d="M 497.241818 305.836806 
L 504.148683 305.821481 
L 511.055547 305.827852 
L 517.962412 305.836564 
L 524.869276 305.840675 
L 531.776141 305.832924 
L 538.683006 305.836153 
L 545.58987 305.838071 
L 552.496735 305.832604 
L 559.403599 305.828486 
L 566.310464 305.828454 
L 573.217328 305.828063 
L 580.124193 305.823084 
L 587.031058 305.816356 
L 593.937922 305.8129 
L 600.844787 305.819341 
L 607.751651 305.808787 
L 614.658516 305.816559 
L 621.56538 305.814479 
L 628.472245 305.811574 
L 635.379109 305.809804 
L 642.285974 305.795231 
L 649.192839 305.795986 
L 656.099703 305.813766 
L 663.006568 305.802329 
L 669.913432 305.803475 
L 676.820297 305.814781 
L 683.727161 305.788935 
L 690.634026 305.817237 
L 697.540891 305.795164 
L 704.447755 305.817943 
L 711.35462 305.809831 
L 718.261484 305.804675 
L 725.168349 305.807902 
L 732.075213 305.803881 
L 738.982078 305.808155 
L 745.888942 305.804378 
L 752.795807 305.79877 
L 759.702672 305.794319 
L 766.609536 305.805421 
L 773.516401 305.792882 
L 780.423265 305.793126 
L 787.33013 305.797467 
L 794.236994 305.787432 
L 801.143859 305.787141 
L 808.050724 305.786114 
L 814.957588 305.779487 
L 821.864453 305.777336 
L 828.771317 305.77841 
L 835.678182 305.781656 
" clip-path="url(#pa1233b4b0a)" style="fill: none; stroke: #ff7f0e; stroke-width: 1.5; stroke-linecap: square"/>
   </g>
   <g id="line2d_63">
    <path d="M 497.241818 286.539198 
L 504.148683 273.336489 
L 511.055547 277.541315 
L 517.962412 281.82789 
L 524.869276 283.006928 
L 531.776141 278.810743 
L 538.683006 255.740912 
L 545.58987 293.244266 
L 552.496735 255.720531 
L 559.403599 230.760607 
L 566.310464 251.654023 
L 573.217328 276.84975 
L 580.124193 282.6779 
L 587.031058 248.382444 
L 593.937922 242.754856 
L 600.844787 236.256006 
L 607.751651 272.030199 
L 614.658516 268.609556 
L 621.56538 274.217503 
L 628.472245 156.85048 
L 635.379109 280.70596 
L 642.285974 276.098814 
L 649.192839 239.846115 
L 656.099703 277.0071 
L 663.006568 256.115548 
L 669.913432 281.683489 
L 676.820297 246.463063 
L 683.727161 275.376067 
L 690.634026 236.645752 
L 697.540891 289.589828 
L 704.447755 276.450429 
L 711.35462 261.191022 
L 718.261484 242.446957 
L 725.168349 268.091761 
L 732.075213 251.160916 
L 738.982078 225.140191 
L 745.888942 244.605522 
L 752.795807 256.114628 
L 759.702672 245.98032 
L 766.609536 120.835554 
L 773.516401 252.430031 
L 780.423265 237.287205 
L 787.33013 255.681088 
L 794.236994 242.298961 
L 801.143859 158.463642 
L 808.050724 237.945467 
L 814.957588 272.095208 
L 821.864453 238.661665 
L 828.771317 186.198917 
L 835.678182 62.794545 
" clip-path="url(#pa1233b4b0a)" style="fill: none; stroke: #2ca02c; stroke-width: 1.5; stroke-linecap: square"/>
   </g>
   <g id="patch_9">
    <path d="M 480.32 318.04 
L 480.32 50.64 
" style="fill: none; stroke: #000000; stroke-width: 0.8; stroke-linejoin: miter; stroke-linecap: square"/>
   </g>
   <g id="patch_10">
    <path d="M 852.6 318.04 
L 852.6 50.64 
" style="fill: none; stroke: #000000; stroke-width: 0.8; stroke-linejoin: miter; stroke-linecap: square"/>
   </g>
   <g id="patch_11">
    <path d="M 480.32 318.04 
L 852.6 318.04 
" style="fill: none; stroke: #000000; stroke-width: 0.8; stroke-linejoin: miter; stroke-linecap: square"/>
   </g>
   <g id="patch_12">
    <path d="M 480.32 50.64 
L 852.6 50.64 
" style="fill: none; stroke: #000000; stroke-width: 0.8; stroke-linejoin: miter; stroke-linecap: square"/>
   </g>
   <g id="text_37">
    <!-- Evaluation Loss -->
    <g transform="translate(619.734062 44.64) scale(0.12 -0.12)">
     <use xlink:href="#DejaVuSans-45"/>
     <use xlink:href="#DejaVuSans-76" x="63.183594"/>
     <use xlink:href="#DejaVuSans-61" x="122.363281"/>
     <use xlink:href="#DejaVuSans-6c" x="183.642578"/>
     <use xlink:href="#DejaVuSans-75" x="211.425781"/>
     <use xlink:href="#DejaVuSans-61" x="274.804688"/>
     <use xlink:href="#DejaVuSans-74" x="336.083984"/>
     <use xlink:href="#DejaVuSans-69" x="375.292969"/>
     <use xlink:href="#DejaVuSans-6f" x="403.076172"/>
     <use xlink:href="#DejaVuSans-6e" x="464.257812"/>
     <use xlink:href="#DejaVuSans-20" x="527.636719"/>
     <use xlink:href="#DejaVuSans-4c" x="559.423828"/>
     <use xlink:href="#DejaVuSans-6f" x="613.386719"/>
     <use xlink:href="#DejaVuSans-73" x="674.568359"/>
     <use xlink:href="#DejaVuSans-73" x="726.667969"/>
    </g>
   </g>
   <g id="legend_2">
    <g id="patch_13">
     <path d="M 487.32 102.674375 
L 596.477812 102.674375 
Q 598.477812 102.674375 598.477812 100.674375 
L 598.477812 57.64 
Q 598.477812 55.64 596.477812 55.64 
L 487.32 55.64 
Q 485.32 55.64 485.32 57.64 
L 485.32 100.674375 
Q 485.32 102.674375 487.32 102.674375 
z
" style="fill: #ffffff; opacity: 0.8; stroke: #cccccc; stroke-linejoin: miter"/>
    </g>
    <g id="line2d_64">
     <path d="M 489.32 63.738437 
L 499.32 63.738437 
L 509.32 63.738437 
" style="fill: none; stroke: #1f77b4; stroke-width: 1.5; stroke-linecap: square"/>
    </g>
    <g id="text_38">
     <!-- t595w (0.0005) -->
     <g transform="translate(517.32 67.238437) scale(0.1 -0.1)">
      <use xlink:href="#DejaVuSans-74"/>
      <use xlink:href="#DejaVuSans-35" x="39.208984"/>
      <use xlink:href="#DejaVuSans-39" x="102.832031"/>
      <use xlink:href="#DejaVuSans-35" x="166.455078"/>
      <use xlink:href="#DejaVuSans-77" x="230.078125"/>
      <use xlink:href="#DejaVuSans-20" x="311.865234"/>
      <use xlink:href="#DejaVuSans-28" x="343.652344"/>
      <use xlink:href="#DejaVuSans-30" x="382.666016"/>
      <use xlink:href="#DejaVuSans-2e" x="446.289062"/>
      <use xlink:href="#DejaVuSans-30" x="478.076172"/>
      <use xlink:href="#DejaVuSans-30" x="541.699219"/>
      <use xlink:href="#DejaVuSans-30" x="605.322266"/>
      <use xlink:href="#DejaVuSans-35" x="668.945312"/>
      <use xlink:href="#DejaVuSans-29" x="732.568359"/>
     </g>
    </g>
    <g id="line2d_65">
     <path d="M 489.32 78.416562 
L 499.32 78.416562 
L 509.32 78.416562 
" style="fill: none; stroke: #ff7f0e; stroke-width: 1.5; stroke-linecap: square"/>
    </g>
    <g id="text_39">
     <!-- 1ku80 (5e-05) -->
     <g transform="translate(517.32 81.916562) scale(0.1 -0.1)">
      <use xlink:href="#DejaVuSans-31"/>
      <use xlink:href="#DejaVuSans-6b" x="63.623047"/>
      <use xlink:href="#DejaVuSans-75" x="118.408203"/>
      <use xlink:href="#DejaVuSans-38" x="181.787109"/>
      <use xlink:href="#DejaVuSans-30" x="245.410156"/>
      <use xlink:href="#DejaVuSans-20" x="309.033203"/>
      <use xlink:href="#DejaVuSans-28" x="340.820312"/>
      <use xlink:href="#DejaVuSans-35" x="379.833984"/>
      <use xlink:href="#DejaVuSans-65" x="443.457031"/>
      <use xlink:href="#DejaVuSans-2d" x="504.980469"/>
      <use xlink:href="#DejaVuSans-30" x="541.064453"/>
      <use xlink:href="#DejaVuSans-35" x="604.6875"/>
      <use xlink:href="#DejaVuSans-29" x="668.310547"/>
     </g>
    </g>
    <g id="line2d_66">
     <path d="M 489.32 93.094687 
L 499.32 93.094687 
L 509.32 93.094687 
" style="fill: none; stroke: #2ca02c; stroke-width: 1.5; stroke-linecap: square"/>
    </g>
    <g id="text_40">
     <!-- 4q6w0 (0.005) -->
     <g transform="translate(517.32 96.594687) scale(0.1 -0.1)">
      <use xlink:href="#DejaVuSans-34"/>
      <use xlink:href="#DejaVuSans-71" x="63.623047"/>
      <use xlink:href="#DejaVuSans-36" x="127.099609"/>
      <use xlink:href="#DejaVuSans-77" x="190.722656"/>
      <use xlink:href="#DejaVuSans-30" x="272.509766"/>
      <use xlink:href="#DejaVuSans-20" x="336.132812"/>
      <use xlink:href="#DejaVuSans-28" x="367.919922"/>
      <use xlink:href="#DejaVuSans-30" x="406.933594"/>
      <use xlink:href="#DejaVuSans-2e" x="470.556641"/>
      <use xlink:href="#DejaVuSans-30" x="502.34375"/>
      <use xlink:href="#DejaVuSans-30" x="565.966797"/>
      <use xlink:href="#DejaVuSans-35" x="629.589844"/>
      <use xlink:href="#DejaVuSans-29" x="693.212891"/>
     </g>
    </g>
   </g>
  </g>
  <g id="axes_3">
   <g id="patch_14">
    <path d="M 912.92 318.04 
L 1285.2 318.04 
L 1285.2 50.64 
L 912.92 50.64 
z
" style="fill: #ffffff"/>
   </g>
   <g id="matplotlib.axis_5">
    <g id="xtick_13">
     <g id="line2d_67">
      <path d="M 922.934954 318.04 
L 922.934954 50.64 
" clip-path="url(#pe11ec72926)" style="fill: none; stroke: #b0b0b0; stroke-width: 0.8; stroke-linecap: square"/>
     </g>
     <g id="line2d_68">
      <g>
       <use xlink:href="#m33a825f06f" x="922.934954" y="318.04" style="stroke: #000000; stroke-width: 0.8"/>
      </g>
     </g>
     <g id="text_41">
      <!-- 0 -->
      <g transform="translate(919.753704 332.638438) scale(0.1 -0.1)">
       <use xlink:href="#DejaVuSans-30"/>
      </g>
     </g>
    </g>
    <g id="xtick_14">
     <g id="line2d_69">
      <path d="M 992.003599 318.04 
L 992.003599 50.64 
" clip-path="url(#pe11ec72926)" style="fill: none; stroke: #b0b0b0; stroke-width: 0.8; stroke-linecap: square"/>
     </g>
     <g id="line2d_70">
      <g>
       <use xlink:href="#m33a825f06f" x="992.003599" y="318.04" style="stroke: #000000; stroke-width: 0.8"/>
      </g>
     </g>
     <g id="text_42">
      <!-- 10 -->
      <g transform="translate(985.641099 332.638438) scale(0.1 -0.1)">
       <use xlink:href="#DejaVuSans-31"/>
       <use xlink:href="#DejaVuSans-30" x="63.623047"/>
      </g>
     </g>
    </g>
    <g id="xtick_15">
     <g id="line2d_71">
      <path d="M 1061.072245 318.04 
L 1061.072245 50.64 
" clip-path="url(#pe11ec72926)" style="fill: none; stroke: #b0b0b0; stroke-width: 0.8; stroke-linecap: square"/>
     </g>
     <g id="line2d_72">
      <g>
       <use xlink:href="#m33a825f06f" x="1061.072245" y="318.04" style="stroke: #000000; stroke-width: 0.8"/>
      </g>
     </g>
     <g id="text_43">
      <!-- 20 -->
      <g transform="translate(1054.709745 332.638438) scale(0.1 -0.1)">
       <use xlink:href="#DejaVuSans-32"/>
       <use xlink:href="#DejaVuSans-30" x="63.623047"/>
      </g>
     </g>
    </g>
    <g id="xtick_16">
     <g id="line2d_73">
      <path d="M 1130.140891 318.04 
L 1130.140891 50.64 
" clip-path="url(#pe11ec72926)" style="fill: none; stroke: #b0b0b0; stroke-width: 0.8; stroke-linecap: square"/>
     </g>
     <g id="line2d_74">
      <g>
       <use xlink:href="#m33a825f06f" x="1130.140891" y="318.04" style="stroke: #000000; stroke-width: 0.8"/>
      </g>
     </g>
     <g id="text_44">
      <!-- 30 -->
      <g transform="translate(1123.778391 332.638438) scale(0.1 -0.1)">
       <use xlink:href="#DejaVuSans-33"/>
       <use xlink:href="#DejaVuSans-30" x="63.623047"/>
      </g>
     </g>
    </g>
    <g id="xtick_17">
     <g id="line2d_75">
      <path d="M 1199.209536 318.04 
L 1199.209536 50.64 
" clip-path="url(#pe11ec72926)" style="fill: none; stroke: #b0b0b0; stroke-width: 0.8; stroke-linecap: square"/>
     </g>
     <g id="line2d_76">
      <g>
       <use xlink:href="#m33a825f06f" x="1199.209536" y="318.04" style="stroke: #000000; stroke-width: 0.8"/>
      </g>
     </g>
     <g id="text_45">
      <!-- 40 -->
      <g transform="translate(1192.847036 332.638438) scale(0.1 -0.1)">
       <use xlink:href="#DejaVuSans-34"/>
       <use xlink:href="#DejaVuSans-30" x="63.623047"/>
      </g>
     </g>
    </g>
    <g id="xtick_18">
     <g id="line2d_77">
      <path d="M 1268.278182 318.04 
L 1268.278182 50.64 
" clip-path="url(#pe11ec72926)" style="fill: none; stroke: #b0b0b0; stroke-width: 0.8; stroke-linecap: square"/>
     </g>
     <g id="line2d_78">
      <g>
       <use xlink:href="#m33a825f06f" x="1268.278182" y="318.04" style="stroke: #000000; stroke-width: 0.8"/>
      </g>
     </g>
     <g id="text_46">
      <!-- 50 -->
      <g transform="translate(1261.915682 332.638438) scale(0.1 -0.1)">
       <use xlink:href="#DejaVuSans-35"/>
       <use xlink:href="#DejaVuSans-30" x="63.623047"/>
      </g>
     </g>
    </g>
    <g id="text_47">
     <!-- Epoch -->
     <g transform="translate(1083.749063 346.316563) scale(0.1 -0.1)">
      <use xlink:href="#DejaVuSans-45"/>
      <use xlink:href="#DejaVuSans-70" x="63.183594"/>
      <use xlink:href="#DejaVuSans-6f" x="126.660156"/>
      <use xlink:href="#DejaVuSans-63" x="187.841797"/>
      <use xlink:href="#DejaVuSans-68" x="242.822266"/>
     </g>
    </g>
   </g>
   <g id="matplotlib.axis_6">
    <g id="ytick_16">
     <g id="line2d_79">
      <path d="M 912.92 318.04 
L 1285.2 318.04 
" clip-path="url(#pe11ec72926)" style="fill: none; stroke: #b0b0b0; stroke-width: 0.8; stroke-linecap: square"/>
     </g>
     <g id="line2d_80">
      <g>
       <use xlink:href="#m440cd1ed55" x="912.92" y="318.04" style="stroke: #000000; stroke-width: 0.8"/>
      </g>
     </g>
     <g id="text_48">
      <!-- 0.0 -->
      <g transform="translate(890.016875 321.839219) scale(0.1 -0.1)">
       <use xlink:href="#DejaVuSans-30"/>
       <use xlink:href="#DejaVuSans-2e" x="63.623047"/>
       <use xlink:href="#DejaVuSans-30" x="95.410156"/>
      </g>
     </g>
    </g>
    <g id="ytick_17">
     <g id="line2d_81">
      <path d="M 912.92 264.56 
L 1285.2 264.56 
" clip-path="url(#pe11ec72926)" style="fill: none; stroke: #b0b0b0; stroke-width: 0.8; stroke-linecap: square"/>
     </g>
     <g id="line2d_82">
      <g>
       <use xlink:href="#m440cd1ed55" x="912.92" y="264.56" style="stroke: #000000; stroke-width: 0.8"/>
      </g>
     </g>
     <g id="text_49">
      <!-- 0.2 -->
      <g transform="translate(890.016875 268.359219) scale(0.1 -0.1)">
       <use xlink:href="#DejaVuSans-30"/>
       <use xlink:href="#DejaVuSans-2e" x="63.623047"/>
       <use xlink:href="#DejaVuSans-32" x="95.410156"/>
      </g>
     </g>
    </g>
    <g id="ytick_18">
     <g id="line2d_83">
      <path d="M 912.92 211.08 
L 1285.2 211.08 
" clip-path="url(#pe11ec72926)" style="fill: none; stroke: #b0b0b0; stroke-width: 0.8; stroke-linecap: square"/>
     </g>
     <g id="line2d_84">
      <g>
       <use xlink:href="#m440cd1ed55" x="912.92" y="211.08" style="stroke: #000000; stroke-width: 0.8"/>
      </g>
     </g>
     <g id="text_50">
      <!-- 0.4 -->
      <g transform="translate(890.016875 214.879219) scale(0.1 -0.1)">
       <use xlink:href="#DejaVuSans-30"/>
       <use xlink:href="#DejaVuSans-2e" x="63.623047"/>
       <use xlink:href="#DejaVuSans-34" x="95.410156"/>
      </g>
     </g>
    </g>
    <g id="ytick_19">
     <g id="line2d_85">
      <path d="M 912.92 157.6 
L 1285.2 157.6 
" clip-path="url(#pe11ec72926)" style="fill: none; stroke: #b0b0b0; stroke-width: 0.8; stroke-linecap: square"/>
     </g>
     <g id="line2d_86">
      <g>
       <use xlink:href="#m440cd1ed55" x="912.92" y="157.6" style="stroke: #000000; stroke-width: 0.8"/>
      </g>
     </g>
     <g id="text_51">
      <!-- 0.6 -->
      <g transform="translate(890.016875 161.399219) scale(0.1 -0.1)">
       <use xlink:href="#DejaVuSans-30"/>
       <use xlink:href="#DejaVuSans-2e" x="63.623047"/>
       <use xlink:href="#DejaVuSans-36" x="95.410156"/>
      </g>
     </g>
    </g>
    <g id="ytick_20">
     <g id="line2d_87">
      <path d="M 912.92 104.12 
L 1285.2 104.12 
" clip-path="url(#pe11ec72926)" style="fill: none; stroke: #b0b0b0; stroke-width: 0.8; stroke-linecap: square"/>
     </g>
     <g id="line2d_88">
      <g>
       <use xlink:href="#m440cd1ed55" x="912.92" y="104.12" style="stroke: #000000; stroke-width: 0.8"/>
      </g>
     </g>
     <g id="text_52">
      <!-- 0.8 -->
      <g transform="translate(890.016875 107.919219) scale(0.1 -0.1)">
       <use xlink:href="#DejaVuSans-30"/>
       <use xlink:href="#DejaVuSans-2e" x="63.623047"/>
       <use xlink:href="#DejaVuSans-38" x="95.410156"/>
      </g>
     </g>
    </g>
    <g id="ytick_21">
     <g id="line2d_89">
      <path d="M 912.92 50.64 
L 1285.2 50.64 
" clip-path="url(#pe11ec72926)" style="fill: none; stroke: #b0b0b0; stroke-width: 0.8; stroke-linecap: square"/>
     </g>
     <g id="line2d_90">
      <g>
       <use xlink:href="#m440cd1ed55" x="912.92" y="50.64" style="stroke: #000000; stroke-width: 0.8"/>
      </g>
     </g>
     <g id="text_53">
      <!-- 1.0 -->
      <g transform="translate(890.016875 54.439219) scale(0.1 -0.1)">
       <use xlink:href="#DejaVuSans-31"/>
       <use xlink:href="#DejaVuSans-2e" x="63.623047"/>
       <use xlink:href="#DejaVuSans-30" x="95.410156"/>
      </g>
     </g>
    </g>
    <g id="text_54">
     <!-- Correct Rate -->
     <g transform="translate(883.937187 215.639219) rotate(-90) scale(0.1 -0.1)">
      <defs>
       <path id="DejaVuSans-43" d="M 4122 4306 
L 4122 3641 
Q 3803 3938 3442 4084 
Q 3081 4231 2675 4231 
Q 1875 4231 1450 3742 
Q 1025 3253 1025 2328 
Q 1025 1406 1450 917 
Q 1875 428 2675 428 
Q 3081 428 3442 575 
Q 3803 722 4122 1019 
L 4122 359 
Q 3791 134 3420 21 
Q 3050 -91 2638 -91 
Q 1578 -91 968 557 
Q 359 1206 359 2328 
Q 359 3453 968 4101 
Q 1578 4750 2638 4750 
Q 3056 4750 3426 4639 
Q 3797 4528 4122 4306 
z
" transform="scale(0.015625)"/>
       <path id="DejaVuSans-52" d="M 2841 2188 
Q 3044 2119 3236 1894 
Q 3428 1669 3622 1275 
L 4263 0 
L 3584 0 
L 2988 1197 
Q 2756 1666 2539 1819 
Q 2322 1972 1947 1972 
L 1259 1972 
L 1259 0 
L 628 0 
L 628 4666 
L 2053 4666 
Q 2853 4666 3247 4331 
Q 3641 3997 3641 3322 
Q 3641 2881 3436 2590 
Q 3231 2300 2841 2188 
z
M 1259 4147 
L 1259 2491 
L 2053 2491 
Q 2509 2491 2742 2702 
Q 2975 2913 2975 3322 
Q 2975 3731 2742 3939 
Q 2509 4147 2053 4147 
L 1259 4147 
z
" transform="scale(0.015625)"/>
      </defs>
      <use xlink:href="#DejaVuSans-43"/>
      <use xlink:href="#DejaVuSans-6f" x="69.824219"/>
      <use xlink:href="#DejaVuSans-72" x="131.005859"/>
      <use xlink:href="#DejaVuSans-72" x="170.369141"/>
      <use xlink:href="#DejaVuSans-65" x="209.232422"/>
      <use xlink:href="#DejaVuSans-63" x="270.755859"/>
      <use xlink:href="#DejaVuSans-74" x="325.736328"/>
      <use xlink:href="#DejaVuSans-20" x="364.945312"/>
      <use xlink:href="#DejaVuSans-52" x="396.732422"/>
      <use xlink:href="#DejaVuSans-61" x="463.964844"/>
      <use xlink:href="#DejaVuSans-74" x="525.244141"/>
      <use xlink:href="#DejaVuSans-65" x="564.453125"/>
     </g>
    </g>
   </g>
   <g id="line2d_91">
    <path d="M 929.841818 213.934246 
L 936.748683 172.918889 
L 943.655547 201.972809 
L 950.562412 206.369668 
L 957.469276 210.28807 
L 964.376141 189.079204 
L 971.283006 202.030554 
L 978.18987 174.164529 
L 985.096735 160.215018 
L 992.003599 190.209354 
L 998.910464 172.258948 
L 1005.817328 152.691686 
L 1012.724193 162.013358 
L 1019.631058 145.820046 
L 1026.537922 150.489132 
L 1033.444787 181.704359 
L 1040.351651 173.81806 
L 1047.258516 151.041832 
L 1054.16538 159.093117 
L 1061.072245 169.701675 
L 1067.979109 123.868746 
L 1074.885974 154.646762 
L 1081.792839 147.766873 
L 1088.699703 170.328619 
L 1095.606568 154.094061 
L 1102.513432 133.759617 
L 1109.420297 133.569884 
L 1116.327161 132.8357 
L 1123.234026 143.007046 
L 1130.140891 148.47631 
L 1137.047755 141.522178 
L 1143.95462 151.264563 
L 1150.861484 144.211439 
L 1157.768349 153.475366 
L 1164.675213 143.238026 
L 1171.582078 144.401172 
L 1178.488942 154.762252 
L 1185.395807 158.622909 
L 1192.302672 149.020762 
L 1199.209536 149.408478 
L 1206.116401 148.82278 
L 1213.023265 149.845689 
L 1219.93013 149.961178 
L 1226.836994 150.513879 
L 1233.743859 150.819102 
L 1240.650724 150.909844 
L 1247.557588 151.446047 
L 1254.464453 151.495542 
L 1261.371317 151.767768 
L 1268.278182 152.105988 
" clip-path="url(#pe11ec72926)" style="fill: none; stroke: #1f77b4; stroke-width: 1.5; stroke-linecap: square"/>
   </g>
   <g id="line2d_92">
    <path d="M 929.841818 231.766501 
L 936.748683 240.197512 
L 943.655547 227.790231 
L 950.562412 201.622748 
L 957.469276 188.258523 
L 964.376141 204.848311 
L 971.283006 183.845029 
L 978.18987 183.036576 
L 985.096735 170.357061 
L 992.003599 169.515609 
L 998.910464 162.553013 
L 1005.817328 161.57132 
L 1012.724193 157.306317 
L 1019.631058 152.554592 
L 1026.537922 155.276935 
L 1033.444787 156.39887 
L 1040.351651 153.041314 
L 1047.258516 155.573917 
L 1054.16538 151.341913 
L 1061.072245 152.505095 
L 1067.979109 153.066063 
L 1074.885974 148.80106 
L 1081.792839 147.811117 
L 1088.699703 146.821175 
L 1095.606568 148.083352 
L 1102.513432 147.208902 
L 1109.420297 145.996223 
L 1116.327161 147.109908 
L 1123.234026 146.260207 
L 1130.140891 145.039278 
L 1137.047755 143.44712 
L 1143.95462 143.488368 
L 1150.861484 143.785351 
L 1157.768349 141.063009 
L 1164.675213 141.945707 
L 1171.582078 142.226191 
L 1178.488942 141.458986 
L 1185.395807 143.554364 
L 1192.302672 143.11714 
L 1199.209536 140.122563 
L 1206.116401 142.325185 
L 1213.023265 140.139062 
L 1219.93013 139.512098 
L 1226.836994 141.54973 
L 1233.743859 140.840271 
L 1240.650724 143.084141 
L 1247.557588 141.129005 
L 1254.464453 141.483734 
L 1261.371317 141.533231 
L 1268.278182 140.733028 
" clip-path="url(#pe11ec72926)" style="fill: none; stroke: #ff7f0e; stroke-width: 1.5; stroke-linecap: square"/>
   </g>
   <g id="line2d_93">
    <path d="M 929.841818 252.901776 
L 936.748683 244.173782 
L 943.655547 220.340913 
L 950.562412 195.930578 
L 957.469276 233.366908 
L 964.376141 199.048897 
L 971.283006 266.653729 
L 978.18987 232.12948 
L 985.096735 154.988201 
L 992.003599 192.556524 
L 998.910464 242.30939 
L 1005.817328 219.243727 
L 1012.724193 232.409964 
L 1019.631058 223.16225 
L 1026.537922 232.599703 
L 1033.444787 252.637791 
L 1040.351651 203.619132 
L 1047.258516 232.277971 
L 1054.16538 176.791688 
L 1061.072245 260.087109 
L 1067.979109 223.071505 
L 1074.885974 218.237285 
L 1081.792839 188.860738 
L 1088.699703 186.9221 
L 1095.606568 189.718688 
L 1102.513432 221.990818 
L 1109.420297 230.496075 
L 1116.327161 164.986622 
L 1123.234026 233.960874 
L 1130.140891 185.602177 
L 1137.047755 227.196266 
L 1143.95462 231.26328 
L 1150.861484 154.649971 
L 1157.768349 166.603528 
L 1164.675213 191.261349 
L 1171.582078 226.544554 
L 1178.488942 230.850804 
L 1185.395807 200.129585 
L 1192.302672 174.366328 
L 1199.209536 172.023464 
L 1206.116401 176.560701 
L 1213.023265 231.881994 
L 1219.93013 189.949675 
L 1226.836994 204.807064 
L 1233.743859 253.916467 
L 1240.650724 152.678335 
L 1247.557588 196.07907 
L 1254.464453 217.684567 
L 1261.371317 152.752581 
L 1268.278182 149.66726 
" clip-path="url(#pe11ec72926)" style="fill: none; stroke: #2ca02c; stroke-width: 1.5; stroke-linecap: square"/>
   </g>
   <g id="patch_15">
    <path d="M 912.92 318.04 
L 912.92 50.64 
" style="fill: none; stroke: #000000; stroke-width: 0.8; stroke-linejoin: miter; stroke-linecap: square"/>
   </g>
   <g id="patch_16">
    <path d="M 1285.2 318.04 
L 1285.2 50.64 
" style="fill: none; stroke: #000000; stroke-width: 0.8; stroke-linejoin: miter; stroke-linecap: square"/>
   </g>
   <g id="patch_17">
    <path d="M 912.92 318.04 
L 1285.2 318.04 
" style="fill: none; stroke: #000000; stroke-width: 0.8; stroke-linejoin: miter; stroke-linecap: square"/>
   </g>
   <g id="patch_18">
    <path d="M 912.92 50.64 
L 1285.2 50.64 
" style="fill: none; stroke: #000000; stroke-width: 0.8; stroke-linejoin: miter; stroke-linecap: square"/>
   </g>
   <g id="text_55">
    <!-- Correct Rate -->
    <g transform="translate(1061.500937 44.64) scale(0.12 -0.12)">
     <use xlink:href="#DejaVuSans-43"/>
     <use xlink:href="#DejaVuSans-6f" x="69.824219"/>
     <use xlink:href="#DejaVuSans-72" x="131.005859"/>
     <use xlink:href="#DejaVuSans-72" x="170.369141"/>
     <use xlink:href="#DejaVuSans-65" x="209.232422"/>
     <use xlink:href="#DejaVuSans-63" x="270.755859"/>
     <use xlink:href="#DejaVuSans-74" x="325.736328"/>
     <use xlink:href="#DejaVuSans-20" x="364.945312"/>
     <use xlink:href="#DejaVuSans-52" x="396.732422"/>
     <use xlink:href="#DejaVuSans-61" x="463.964844"/>
     <use xlink:href="#DejaVuSans-74" x="525.244141"/>
     <use xlink:href="#DejaVuSans-65" x="564.453125"/>
    </g>
   </g>
   <g id="legend_3">
    <g id="patch_19">
     <path d="M 1169.042187 102.674375 
L 1278.2 102.674375 
Q 1280.2 102.674375 1280.2 100.674375 
L 1280.2 57.64 
Q 1280.2 55.64 1278.2 55.64 
L 1169.042187 55.64 
Q 1167.042187 55.64 1167.042187 57.64 
L 1167.042187 100.674375 
Q 1167.042187 102.674375 1169.042187 102.674375 
z
" style="fill: #ffffff; opacity: 0.8; stroke: #cccccc; stroke-linejoin: miter"/>
    </g>
    <g id="line2d_94">
     <path d="M 1171.042187 63.738437 
L 1181.042187 63.738437 
L 1191.042187 63.738437 
" style="fill: none; stroke: #1f77b4; stroke-width: 1.5; stroke-linecap: square"/>
    </g>
    <g id="text_56">
     <!-- t595w (0.0005) -->
     <g transform="translate(1199.042187 67.238437) scale(0.1 -0.1)">
      <use xlink:href="#DejaVuSans-74"/>
      <use xlink:href="#DejaVuSans-35" x="39.208984"/>
      <use xlink:href="#DejaVuSans-39" x="102.832031"/>
      <use xlink:href="#DejaVuSans-35" x="166.455078"/>
      <use xlink:href="#DejaVuSans-77" x="230.078125"/>
      <use xlink:href="#DejaVuSans-20" x="311.865234"/>
      <use xlink:href="#DejaVuSans-28" x="343.652344"/>
      <use xlink:href="#DejaVuSans-30" x="382.666016"/>
      <use xlink:href="#DejaVuSans-2e" x="446.289062"/>
      <use xlink:href="#DejaVuSans-30" x="478.076172"/>
      <use xlink:href="#DejaVuSans-30" x="541.699219"/>
      <use xlink:href="#DejaVuSans-30" x="605.322266"/>
      <use xlink:href="#DejaVuSans-35" x="668.945312"/>
      <use xlink:href="#DejaVuSans-29" x="732.568359"/>
     </g>
    </g>
    <g id="line2d_95">
     <path d="M 1171.042187 78.416562 
L 1181.042187 78.416562 
L 1191.042187 78.416562 
" style="fill: none; stroke: #ff7f0e; stroke-width: 1.5; stroke-linecap: square"/>
    </g>
    <g id="text_57">
     <!-- 1ku80 (5e-05) -->
     <g transform="translate(1199.042187 81.916562) scale(0.1 -0.1)">
      <use xlink:href="#DejaVuSans-31"/>
      <use xlink:href="#DejaVuSans-6b" x="63.623047"/>
      <use xlink:href="#DejaVuSans-75" x="118.408203"/>
      <use xlink:href="#DejaVuSans-38" x="181.787109"/>
      <use xlink:href="#DejaVuSans-30" x="245.410156"/>
      <use xlink:href="#DejaVuSans-20" x="309.033203"/>
      <use xlink:href="#DejaVuSans-28" x="340.820312"/>
      <use xlink:href="#DejaVuSans-35" x="379.833984"/>
      <use xlink:href="#DejaVuSans-65" x="443.457031"/>
      <use xlink:href="#DejaVuSans-2d" x="504.980469"/>
      <use xlink:href="#DejaVuSans-30" x="541.064453"/>
      <use xlink:href="#DejaVuSans-35" x="604.6875"/>
      <use xlink:href="#DejaVuSans-29" x="668.310547"/>
     </g>
    </g>
    <g id="line2d_96">
     <path d="M 1171.042187 93.094687 
L 1181.042187 93.094687 
L 1191.042187 93.094687 
" style="fill: none; stroke: #2ca02c; stroke-width: 1.5; stroke-linecap: square"/>
    </g>
    <g id="text_58">
     <!-- 4q6w0 (0.005) -->
     <g transform="translate(1199.042187 96.594687) scale(0.1 -0.1)">
      <use xlink:href="#DejaVuSans-34"/>
      <use xlink:href="#DejaVuSans-71" x="63.623047"/>
      <use xlink:href="#DejaVuSans-36" x="127.099609"/>
      <use xlink:href="#DejaVuSans-77" x="190.722656"/>
      <use xlink:href="#DejaVuSans-30" x="272.509766"/>
      <use xlink:href="#DejaVuSans-20" x="336.132812"/>
      <use xlink:href="#DejaVuSans-28" x="367.919922"/>
      <use xlink:href="#DejaVuSans-30" x="406.933594"/>
      <use xlink:href="#DejaVuSans-2e" x="470.556641"/>
      <use xlink:href="#DejaVuSans-30" x="502.34375"/>
      <use xlink:href="#DejaVuSans-30" x="565.966797"/>
      <use xlink:href="#DejaVuSans-35" x="629.589844"/>
      <use xlink:href="#DejaVuSans-29" x="693.212891"/>
     </g>
    </g>
   </g>
  </g>
  <g id="text_59">
   <!-- models architecture C (varying lr) -->
   <g transform="translate(546.735937 16.318125) scale(0.12 -0.12)">
    <defs>
     <path id="DejaVuSans-6d" d="M 3328 2828 
Q 3544 3216 3844 3400 
Q 4144 3584 4550 3584 
Q 5097 3584 5394 3201 
Q 5691 2819 5691 2113 
L 5691 0 
L 5113 0 
L 5113 2094 
Q 5113 2597 4934 2840 
Q 4756 3084 4391 3084 
Q 3944 3084 3684 2787 
Q 3425 2491 3425 1978 
L 3425 0 
L 2847 0 
L 2847 2094 
Q 2847 2600 2669 2842 
Q 2491 3084 2119 3084 
Q 1678 3084 1418 2786 
Q 1159 2488 1159 1978 
L 1159 0 
L 581 0 
L 581 3500 
L 1159 3500 
L 1159 2956 
Q 1356 3278 1631 3431 
Q 1906 3584 2284 3584 
Q 2666 3584 2933 3390 
Q 3200 3197 3328 2828 
z
" transform="scale(0.015625)"/>
     <path id="DejaVuSans-64" d="M 2906 2969 
L 2906 4863 
L 3481 4863 
L 3481 0 
L 2906 0 
L 2906 525 
Q 2725 213 2448 61 
Q 2172 -91 1784 -91 
Q 1150 -91 751 415 
Q 353 922 353 1747 
Q 353 2572 751 3078 
Q 1150 3584 1784 3584 
Q 2172 3584 2448 3432 
Q 2725 3281 2906 2969 
z
M 947 1747 
Q 947 1113 1208 752 
Q 1469 391 1925 391 
Q 2381 391 2643 752 
Q 2906 1113 2906 1747 
Q 2906 2381 2643 2742 
Q 2381 3103 1925 3103 
Q 1469 3103 1208 2742 
Q 947 2381 947 1747 
z
" transform="scale(0.015625)"/>
     <path id="DejaVuSans-79" d="M 2059 -325 
Q 1816 -950 1584 -1140 
Q 1353 -1331 966 -1331 
L 506 -1331 
L 506 -850 
L 844 -850 
Q 1081 -850 1212 -737 
Q 1344 -625 1503 -206 
L 1606 56 
L 191 3500 
L 800 3500 
L 1894 763 
L 2988 3500 
L 3597 3500 
L 2059 -325 
z
" transform="scale(0.015625)"/>
    </defs>
    <use xlink:href="#DejaVuSans-6d"/>
    <use xlink:href="#DejaVuSans-6f" x="97.412109"/>
    <use xlink:href="#DejaVuSans-64" x="158.59375"/>
    <use xlink:href="#DejaVuSans-65" x="222.070312"/>
    <use xlink:href="#DejaVuSans-6c" x="283.59375"/>
    <use xlink:href="#DejaVuSans-73" x="311.376953"/>
    <use xlink:href="#DejaVuSans-20" x="363.476562"/>
    <use xlink:href="#DejaVuSans-61" x="395.263672"/>
    <use xlink:href="#DejaVuSans-72" x="456.542969"/>
    <use xlink:href="#DejaVuSans-63" x="495.40625"/>
    <use xlink:href="#DejaVuSans-68" x="550.386719"/>
    <use xlink:href="#DejaVuSans-69" x="613.765625"/>
    <use xlink:href="#DejaVuSans-74" x="641.548828"/>
    <use xlink:href="#DejaVuSans-65" x="680.757812"/>
    <use xlink:href="#DejaVuSans-63" x="742.28125"/>
    <use xlink:href="#DejaVuSans-74" x="797.261719"/>
    <use xlink:href="#DejaVuSans-75" x="836.470703"/>
    <use xlink:href="#DejaVuSans-72" x="899.849609"/>
    <use xlink:href="#DejaVuSans-65" x="938.712891"/>
    <use xlink:href="#DejaVuSans-20" x="1000.236328"/>
    <use xlink:href="#DejaVuSans-43" x="1032.023438"/>
    <use xlink:href="#DejaVuSans-20" x="1101.847656"/>
    <use xlink:href="#DejaVuSans-28" x="1133.634766"/>
    <use xlink:href="#DejaVuSans-76" x="1172.648438"/>
    <use xlink:href="#DejaVuSans-61" x="1231.828125"/>
    <use xlink:href="#DejaVuSans-72" x="1293.107422"/>
    <use xlink:href="#DejaVuSans-79" x="1334.220703"/>
    <use xlink:href="#DejaVuSans-69" x="1393.400391"/>
    <use xlink:href="#DejaVuSans-6e" x="1421.183594"/>
    <use xlink:href="#DejaVuSans-67" x="1484.5625"/>
    <use xlink:href="#DejaVuSans-20" x="1548.039062"/>
    <use xlink:href="#DejaVuSans-6c" x="1579.826172"/>
    <use xlink:href="#DejaVuSans-72" x="1607.609375"/>
    <use xlink:href="#DejaVuSans-29" x="1648.722656"/>
   </g>
  </g>
 </g>
 <defs>
  <clipPath id="p356cd1f3ed">
   <rect x="47.72" y="50.64" width="372.28" height="267.4"/>
  </clipPath>
  <clipPath id="pa1233b4b0a">
   <rect x="480.32" y="50.64" width="372.28" height="267.4"/>
  </clipPath>
  <clipPath id="pe11ec72926">
   <rect x="912.92" y="50.64" width="372.28" height="267.4"/>
  </clipPath>
 </defs>
</svg>
