<?xml version="1.0" encoding="utf-8" standalone="no"?>
<!DOCTYPE svg PUBLIC "-//W3C//DTD SVG 1.1//EN"
  "http://www.w3.org/Graphics/SVG/1.1/DTD/svg11.dtd">
<svg xmlns:xlink="http://www.w3.org/1999/xlink" width="720pt" height="432pt" viewBox="0 0 720 432" xmlns="http://www.w3.org/2000/svg" version="1.1">
 <metadata>
  <rdf:RDF xmlns:dc="http://purl.org/dc/elements/1.1/" xmlns:cc="http://creativecommons.org/ns#" xmlns:rdf="http://www.w3.org/1999/02/22-rdf-syntax-ns#">
   <cc:Work>
    <dc:type rdf:resource="http://purl.org/dc/dcmitype/StillImage"/>
    <dc:date>2025-11-07T11:42:45.731394</dc:date>
    <dc:format>image/svg+xml</dc:format>
    <dc:creator>
     <cc:Agent>
      <dc:title>Matplotlib v3.9.1, https://matplotlib.org/</dc:title>
     </cc:Agent>
    </dc:creator>
   </cc:Work>
  </rdf:RDF>
 </metadata>
 <defs>
  <style type="text/css">*{stroke-linejoin: round; stroke-linecap: butt}</style>
 </defs>
 <g id="figure_1">
  <g id="patch_1">
   <path d="M 0 432 
L 720 432 
L 720 0 
L 0 0 
z
" style="fill: #ffffff"/>
  </g>
  <g id="axes_1">
   <g id="patch_2">
    <path d="M 59.24 368.172916 
L 709.2 368.172916 
L 709.2 34.56 
L 59.24 34.56 
z
" style="fill: #ffffff"/>
   </g>
   <g id="patch_3">
    <path d="M 88.783636 99.033153 
L 93.328811 99.033153 
L 93.328811 179.12913 
L 88.783636 179.12913 
z
" clip-path="url(#pd6e50a0fc3)" style="fill: #1f77b4"/>
   </g>
   <g id="patch_4">
    <path d="M 149.385967 99.033153 
L 153.931142 99.033153 
L 153.931142 164.690048 
L 149.385967 164.690048 
z
" clip-path="url(#pd6e50a0fc3)" style="fill: #1f77b4"/>
   </g>
   <g id="patch_5">
    <path d="M 209.988298 99.033153 
L 214.533473 99.033153 
L 214.533473 148.37563 
L 209.988298 148.37563 
z
" clip-path="url(#pd6e50a0fc3)" style="fill: #1f77b4"/>
   </g>
   <g id="patch_6">
    <path d="M 270.590629 99.033153 
L 275.135804 99.033153 
L 275.135804 303.448153 
L 270.590629 303.448153 
z
" clip-path="url(#pd6e50a0fc3)" style="fill: #1f77b4"/>
   </g>
   <g id="patch_7">
    <path d="M 331.19296 99.033153 
L 335.738135 99.033153 
L 335.738135 300.422118 
L 331.19296 300.422118 
z
" clip-path="url(#pd6e50a0fc3)" style="fill: #1f77b4"/>
   </g>
   <g id="patch_8">
    <path d="M 391.795291 99.033153 
L 396.340466 99.033153 
L 396.340466 167.518149 
L 391.795291 167.518149 
z
" clip-path="url(#pd6e50a0fc3)" style="fill: #1f77b4"/>
   </g>
   <g id="patch_9">
    <path d="M 452.397622 99.033153 
L 456.942797 99.033153 
L 456.942797 148.37563 
L 452.397622 148.37563 
z
" clip-path="url(#pd6e50a0fc3)" style="fill: #1f77b4"/>
   </g>
   <g id="patch_10">
    <path d="M 512.999953 99.033153 
L 517.545128 99.033153 
L 517.545128 49.724223 
L 512.999953 49.724223 
z
" clip-path="url(#pd6e50a0fc3)" style="fill: #1f77b4"/>
   </g>
   <g id="patch_11">
    <path d="M 573.602284 99.033153 
L 578.147459 99.033153 
L 578.147459 265.444918 
L 573.602284 265.444918 
z
" clip-path="url(#pd6e50a0fc3)" style="fill: #1f77b4"/>
   </g>
   <g id="patch_12">
    <path d="M 634.204615 99.033153 
L 638.74979 99.033153 
L 638.74979 145.557593 
L 634.204615 145.557593 
z
" clip-path="url(#pd6e50a0fc3)" style="fill: #1f77b4"/>
   </g>
   <g id="patch_13">
    <path d="M 93.328811 99.033153 
L 97.873986 99.033153 
L 97.873986 227.166588 
L 93.328811 227.166588 
z
" clip-path="url(#pd6e50a0fc3)" style="fill: #ff7f0e"/>
   </g>
   <g id="patch_14">
    <path d="M 153.931142 99.033153 
L 158.476317 99.033153 
L 158.476317 95.285835 
L 153.931142 95.285835 
z
" clip-path="url(#pd6e50a0fc3)" style="fill: #ff7f0e"/>
   </g>
   <g id="patch_15">
    <path d="M 214.533473 99.033153 
L 219.078648 99.033153 
L 219.078648 143.685612 
L 214.533473 143.685612 
z
" clip-path="url(#pd6e50a0fc3)" style="fill: #ff7f0e"/>
   </g>
   <g id="patch_16">
    <path d="M 275.135804 99.033153 
L 279.680979 99.033153 
L 279.680979 323.311955 
L 275.135804 323.311955 
z
" clip-path="url(#pd6e50a0fc3)" style="fill: #ff7f0e"/>
   </g>
   <g id="patch_17">
    <path d="M 335.738135 99.033153 
L 340.28331 99.033153 
L 340.28331 331.32323 
L 335.738135 331.32323 
z
" clip-path="url(#pd6e50a0fc3)" style="fill: #ff7f0e"/>
   </g>
   <g id="patch_18">
    <path d="M 396.340466 99.033153 
L 400.885641 99.033153 
L 400.885641 231.37016 
L 396.340466 231.37016 
z
" clip-path="url(#pd6e50a0fc3)" style="fill: #ff7f0e"/>
   </g>
   <g id="patch_19">
    <path d="M 456.942797 99.033153 
L 461.487972 99.033153 
L 461.487972 143.685612 
L 456.942797 143.685612 
z
" clip-path="url(#pd6e50a0fc3)" style="fill: #ff7f0e"/>
   </g>
   <g id="patch_20">
    <path d="M 517.545128 99.033153 
L 522.090303 99.033153 
L 522.090303 75.499193 
L 517.545128 75.499193 
z
" clip-path="url(#pd6e50a0fc3)" style="fill: #ff7f0e"/>
   </g>
   <g id="patch_21">
    <path d="M 578.147459 99.033153 
L 582.692634 99.033153 
L 582.692634 260.771674 
L 578.147459 260.771674 
z
" clip-path="url(#pd6e50a0fc3)" style="fill: #ff7f0e"/>
   </g>
   <g id="patch_22">
    <path d="M 638.74979 99.033153 
L 643.294965 99.033153 
L 643.294965 145.96017 
L 638.74979 145.96017 
z
" clip-path="url(#pd6e50a0fc3)" style="fill: #ff7f0e"/>
   </g>
   <g id="patch_23">
    <path d="M 97.873986 99.033153 
L 102.419161 99.033153 
L 102.419161 219.091572 
L 97.873986 219.091572 
z
" clip-path="url(#pd6e50a0fc3)" style="fill: #2ca02c"/>
   </g>
   <g id="patch_24">
    <path d="M 158.476317 99.033153 
L 163.021492 99.033153 
L 163.021492 151.180247 
L 158.476317 151.180247 
z
" clip-path="url(#pd6e50a0fc3)" style="fill: #2ca02c"/>
   </g>
   <g id="patch_25">
    <path d="M 219.078648 99.033153 
L 223.623823 99.033153 
L 223.623823 227.787227 
L 219.078648 227.787227 
z
" clip-path="url(#pd6e50a0fc3)" style="fill: #2ca02c"/>
   </g>
   <g id="patch_26">
    <path d="M 279.680979 99.033153 
L 284.226154 99.033153 
L 284.226154 306.662056 
L 279.680979 306.662056 
z
" clip-path="url(#pd6e50a0fc3)" style="fill: #2ca02c"/>
   </g>
   <g id="patch_27">
    <path d="M 340.28331 99.033153 
L 344.828485 99.033153 
L 344.828485 322.017 
L 340.28331 322.017 
z
" clip-path="url(#pd6e50a0fc3)" style="fill: #2ca02c"/>
   </g>
   <g id="patch_28">
    <path d="M 400.885641 99.033153 
L 405.430816 99.033153 
L 405.430816 156.39026 
L 400.885641 156.39026 
z
" clip-path="url(#pd6e50a0fc3)" style="fill: #2ca02c"/>
   </g>
   <g id="patch_29">
    <path d="M 461.487972 99.033153 
L 466.033147 99.033153 
L 466.033147 140.220098 
L 461.487972 140.220098 
z
" clip-path="url(#pd6e50a0fc3)" style="fill: #2ca02c"/>
   </g>
   <g id="patch_30">
    <path d="M 522.090303 99.033153 
L 526.635478 99.033153 
L 526.635478 202.65638 
L 522.090303 202.65638 
z
" clip-path="url(#pd6e50a0fc3)" style="fill: #2ca02c"/>
   </g>
   <g id="patch_31">
    <path d="M 582.692634 99.033153 
L 587.237809 99.033153 
L 587.237809 331.712388 
L 582.692634 331.712388 
z
" clip-path="url(#pd6e50a0fc3)" style="fill: #2ca02c"/>
   </g>
   <g id="patch_32">
    <path d="M 643.294965 99.033153 
L 647.84014 99.033153 
L 647.84014 138.754048 
L 643.294965 138.754048 
z
" clip-path="url(#pd6e50a0fc3)" style="fill: #2ca02c"/>
   </g>
   <g id="patch_33">
    <path d="M 102.419161 99.033153 
L 106.964336 99.033153 
L 106.964336 216.233278 
L 102.419161 216.233278 
z
" clip-path="url(#pd6e50a0fc3)" style="fill: #d62728"/>
   </g>
   <g id="patch_34">
    <path d="M 163.021492 99.033153 
L 167.566667 99.033153 
L 167.566667 52.887805 
L 163.021492 52.887805 
z
" clip-path="url(#pd6e50a0fc3)" style="fill: #d62728"/>
   </g>
   <g id="patch_35">
    <path d="M 223.623823 99.033153 
L 228.168998 99.033153 
L 228.168998 116.464721 
L 223.623823 116.464721 
z
" clip-path="url(#pd6e50a0fc3)" style="fill: #d62728"/>
   </g>
   <g id="patch_36">
    <path d="M 284.226154 99.033153 
L 288.771329 99.033153 
L 288.771329 353.008692 
L 284.226154 353.008692 
z
" clip-path="url(#pd6e50a0fc3)" style="fill: #d62728"/>
   </g>
   <g id="patch_37">
    <path d="M 344.828485 99.033153 
L 349.37366 99.033153 
L 349.37366 332.587992 
L 344.828485 332.587992 
z
" clip-path="url(#pd6e50a0fc3)" style="fill: #d62728"/>
   </g>
   <g id="patch_38">
    <path d="M 405.430816 99.033153 
L 409.975991 99.033153 
L 409.975991 267.132385 
L 405.430816 267.132385 
z
" clip-path="url(#pd6e50a0fc3)" style="fill: #d62728"/>
   </g>
   <g id="patch_39">
    <path d="M 466.033147 99.033153 
L 470.578322 99.033153 
L 470.578322 116.464721 
L 466.033147 116.464721 
z
" clip-path="url(#pd6e50a0fc3)" style="fill: #d62728"/>
   </g>
   <g id="patch_40">
    <path d="M 526.635478 99.033153 
L 531.180653 99.033153 
L 531.180653 230.699198 
L 526.635478 230.699198 
z
" clip-path="url(#pd6e50a0fc3)" style="fill: #d62728"/>
   </g>
   <g id="patch_41">
    <path d="M 587.237809 99.033153 
L 591.782984 99.033153 
L 591.782984 306.108513 
L 587.237809 306.108513 
z
" clip-path="url(#pd6e50a0fc3)" style="fill: #d62728"/>
   </g>
   <g id="patch_42">
    <path d="M 647.84014 99.033153 
L 652.385315 99.033153 
L 652.385315 161.439242 
L 647.84014 161.439242 
z
" clip-path="url(#pd6e50a0fc3)" style="fill: #d62728"/>
   </g>
   <g id="patch_43">
    <path d="M 106.964336 99.033153 
L 111.50951 99.033153 
L 111.50951 151.21715 
L 106.964336 151.21715 
z
" clip-path="url(#pd6e50a0fc3)" style="fill: #9467bd"/>
   </g>
   <g id="patch_44">
    <path d="M 167.566667 99.033153 
L 172.111841 99.033153 
L 172.111841 152.904617 
L 167.566667 152.904617 
z
" clip-path="url(#pd6e50a0fc3)" style="fill: #9467bd"/>
   </g>
   <g id="patch_45">
    <path d="M 228.168998 99.033153 
L 232.714172 99.033153 
L 232.714172 162.834841 
L 228.168998 162.834841 
z
" clip-path="url(#pd6e50a0fc3)" style="fill: #9467bd"/>
   </g>
   <g id="patch_46">
    <path d="M 288.771329 99.033153 
L 293.316503 99.033153 
L 293.316503 253.095879 
L 288.771329 253.095879 
z
" clip-path="url(#pd6e50a0fc3)" style="fill: #9467bd"/>
   </g>
   <g id="patch_47">
    <path d="M 349.37366 99.033153 
L 353.918834 99.033153 
L 353.918834 296.33261 
L 349.37366 296.33261 
z
" clip-path="url(#pd6e50a0fc3)" style="fill: #9467bd"/>
   </g>
   <g id="patch_48">
    <path d="M 409.975991 99.033153 
L 414.521166 99.033153 
L 414.521166 186.130609 
L 409.975991 186.130609 
z
" clip-path="url(#pd6e50a0fc3)" style="fill: #9467bd"/>
   </g>
   <g id="patch_49">
    <path d="M 470.578322 99.033153 
L 475.123497 99.033153 
L 475.123497 162.834841 
L 470.578322 162.834841 
z
" clip-path="url(#pd6e50a0fc3)" style="fill: #9467bd"/>
   </g>
   <g id="patch_50">
    <path d="M 531.180653 99.033153 
L 535.725828 99.033153 
L 535.725828 110.966195 
L 531.180653 110.966195 
z
" clip-path="url(#pd6e50a0fc3)" style="fill: #9467bd"/>
   </g>
   <g id="patch_51">
    <path d="M 591.782984 99.033153 
L 596.328159 99.033153 
L 596.328159 254.618961 
L 591.782984 254.618961 
z
" clip-path="url(#pd6e50a0fc3)" style="fill: #9467bd"/>
   </g>
   <g id="patch_52">
    <path d="M 652.385315 99.033153 
L 656.93049 99.033153 
L 656.93049 162.834841 
L 652.385315 162.834841 
z
" clip-path="url(#pd6e50a0fc3)" style="fill: #9467bd"/>
   </g>
   <g id="patch_53">
    <path d="M 111.50951 99.033153 
L 116.054685 99.033153 
L 116.054685 223.308562 
L 111.50951 223.308562 
z
" clip-path="url(#pd6e50a0fc3)" style="fill: #8c564b"/>
   </g>
   <g id="patch_54">
    <path d="M 172.111841 99.033153 
L 176.657016 99.033153 
L 176.657016 99.016379 
L 172.111841 99.016379 
z
" clip-path="url(#pd6e50a0fc3)" style="fill: #8c564b"/>
   </g>
   <g id="patch_55">
    <path d="M 232.714172 99.033153 
L 237.259347 99.033153 
L 237.259347 144.497475 
L 232.714172 144.497475 
z
" clip-path="url(#pd6e50a0fc3)" style="fill: #8c564b"/>
   </g>
   <g id="patch_56">
    <path d="M 293.316503 99.033153 
L 297.861678 99.033153 
L 297.861678 352.082766 
L 293.316503 352.082766 
z
" clip-path="url(#pd6e50a0fc3)" style="fill: #8c564b"/>
   </g>
   <g id="patch_57">
    <path d="M 353.918834 99.033153 
L 358.464009 99.033153 
L 358.464009 339.921596 
L 353.918834 339.921596 
z
" clip-path="url(#pd6e50a0fc3)" style="fill: #8c564b"/>
   </g>
   <g id="patch_58">
    <path d="M 414.521166 99.033153 
L 419.06634 99.033153 
L 419.06634 316.575506 
L 414.521166 316.575506 
z
" clip-path="url(#pd6e50a0fc3)" style="fill: #8c564b"/>
   </g>
   <g id="patch_59">
    <path d="M 475.123497 99.033153 
L 479.668671 99.033153 
L 479.668671 144.497475 
L 475.123497 144.497475 
z
" clip-path="url(#pd6e50a0fc3)" style="fill: #8c564b"/>
   </g>
   <g id="patch_60">
    <path d="M 535.725828 99.033153 
L 540.271002 99.033153 
L 540.271002 211.02662 
L 535.725828 211.02662 
z
" clip-path="url(#pd6e50a0fc3)" style="fill: #8c564b"/>
   </g>
   <g id="patch_61">
    <path d="M 596.328159 99.033153 
L 600.873333 99.033153 
L 600.873333 304.310338 
L 596.328159 304.310338 
z
" clip-path="url(#pd6e50a0fc3)" style="fill: #8c564b"/>
   </g>
   <g id="patch_62">
    <path d="M 656.93049 99.033153 
L 661.475664 99.033153 
L 661.475664 234.657869 
L 656.93049 234.657869 
z
" clip-path="url(#pd6e50a0fc3)" style="fill: #8c564b"/>
   </g>
   <g id="patch_63">
    <path d="M 116.054685 99.033153 
L 120.59986 99.033153 
L 120.59986 160.221448 
L 116.054685 160.221448 
z
" clip-path="url(#pd6e50a0fc3)" style="fill: #e377c2"/>
   </g>
   <g id="patch_64">
    <path d="M 176.657016 99.033153 
L 181.202191 99.033153 
L 181.202191 156.618387 
L 176.657016 156.618387 
z
" clip-path="url(#pd6e50a0fc3)" style="fill: #e377c2"/>
   </g>
   <g id="patch_65">
    <path d="M 237.259347 99.033153 
L 241.804522 99.033153 
L 241.804522 149.959098 
L 237.259347 149.959098 
z
" clip-path="url(#pd6e50a0fc3)" style="fill: #e377c2"/>
   </g>
   <g id="patch_66">
    <path d="M 297.861678 99.033153 
L 302.406853 99.033153 
L 302.406853 195.540838 
L 297.861678 195.540838 
z
" clip-path="url(#pd6e50a0fc3)" style="fill: #e377c2"/>
   </g>
   <g id="patch_67">
    <path d="M 358.464009 99.033153 
L 363.009184 99.033153 
L 363.009184 282.80268 
L 358.464009 282.80268 
z
" clip-path="url(#pd6e50a0fc3)" style="fill: #e377c2"/>
   </g>
   <g id="patch_68">
    <path d="M 419.06634 99.033153 
L 423.611515 99.033153 
L 423.611515 176.478834 
L 419.06634 176.478834 
z
" clip-path="url(#pd6e50a0fc3)" style="fill: #e377c2"/>
   </g>
   <g id="patch_69">
    <path d="M 479.668671 99.033153 
L 484.213846 99.033153 
L 484.213846 149.959098 
L 479.668671 149.959098 
z
" clip-path="url(#pd6e50a0fc3)" style="fill: #e377c2"/>
   </g>
   <g id="patch_70">
    <path d="M 540.271002 99.033153 
L 544.816177 99.033153 
L 544.816177 119.141856 
L 540.271002 119.141856 
z
" clip-path="url(#pd6e50a0fc3)" style="fill: #e377c2"/>
   </g>
   <g id="patch_71">
    <path d="M 600.873333 99.033153 
L 605.418508 99.033153 
L 605.418508 284.839047 
L 600.873333 284.839047 
z
" clip-path="url(#pd6e50a0fc3)" style="fill: #e377c2"/>
   </g>
   <g id="patch_72">
    <path d="M 661.475664 99.033153 
L 666.020839 99.033153 
L 666.020839 149.959098 
L 661.475664 149.959098 
z
" clip-path="url(#pd6e50a0fc3)" style="fill: #e377c2"/>
   </g>
   <g id="patch_73">
    <path d="M 120.59986 99.033153 
L 125.145035 99.033153 
L 125.145035 193.390408 
L 120.59986 193.390408 
z
" clip-path="url(#pd6e50a0fc3)" style="fill: #7f7f7f"/>
   </g>
   <g id="patch_74">
    <path d="M 181.202191 99.033153 
L 185.747366 99.033153 
L 185.747366 110.127494 
L 181.202191 110.127494 
z
" clip-path="url(#pd6e50a0fc3)" style="fill: #7f7f7f"/>
   </g>
   <g id="patch_75">
    <path d="M 241.804522 99.033153 
L 246.349697 99.033153 
L 246.349697 153.226678 
L 241.804522 153.226678 
z
" clip-path="url(#pd6e50a0fc3)" style="fill: #7f7f7f"/>
   </g>
   <g id="patch_76">
    <path d="M 302.406853 99.033153 
L 306.952028 99.033153 
L 306.952028 319.396897 
L 302.406853 319.396897 
z
" clip-path="url(#pd6e50a0fc3)" style="fill: #7f7f7f"/>
   </g>
   <g id="patch_77">
    <path d="M 363.009184 99.033153 
L 367.554359 99.033153 
L 367.554359 344.339875 
L 363.009184 344.339875 
z
" clip-path="url(#pd6e50a0fc3)" style="fill: #7f7f7f"/>
   </g>
   <g id="patch_78">
    <path d="M 423.611515 99.033153 
L 428.15669 99.033153 
L 428.15669 218.631964 
L 423.611515 218.631964 
z
" clip-path="url(#pd6e50a0fc3)" style="fill: #7f7f7f"/>
   </g>
   <g id="patch_79">
    <path d="M 484.213846 99.033153 
L 488.759021 99.033153 
L 488.759021 153.226678 
L 484.213846 153.226678 
z
" clip-path="url(#pd6e50a0fc3)" style="fill: #7f7f7f"/>
   </g>
   <g id="patch_80">
    <path d="M 544.816177 99.033153 
L 549.361352 99.033153 
L 549.361352 196.802245 
L 544.816177 196.802245 
z
" clip-path="url(#pd6e50a0fc3)" style="fill: #7f7f7f"/>
   </g>
   <g id="patch_81">
    <path d="M 605.418508 99.033153 
L 609.963683 99.033153 
L 609.963683 272.38601 
L 605.418508 272.38601 
z
" clip-path="url(#pd6e50a0fc3)" style="fill: #7f7f7f"/>
   </g>
   <g id="patch_82">
    <path d="M 666.020839 99.033153 
L 670.566014 99.033153 
L 670.566014 189.200256 
L 666.020839 189.200256 
z
" clip-path="url(#pd6e50a0fc3)" style="fill: #7f7f7f"/>
   </g>
   <g id="patch_83">
    <path d="M 125.145035 99.033153 
L 129.69021 99.033153 
L 129.69021 246.211818 
L 125.145035 246.211818 
z
" clip-path="url(#pd6e50a0fc3)" style="fill: #bcbd22"/>
   </g>
   <g id="patch_84">
    <path d="M 185.747366 99.033153 
L 190.292541 99.033153 
L 190.292541 142.055176 
L 185.747366 142.055176 
z
" clip-path="url(#pd6e50a0fc3)" style="fill: #bcbd22"/>
   </g>
   <g id="patch_85">
    <path d="M 246.349697 99.033153 
L 250.894872 99.033153 
L 250.894872 237.91203 
L 246.349697 237.91203 
z
" clip-path="url(#pd6e50a0fc3)" style="fill: #bcbd22"/>
   </g>
   <g id="patch_86">
    <path d="M 306.952028 99.033153 
L 311.497203 99.033153 
L 311.497203 318.340134 
L 306.952028 318.340134 
z
" clip-path="url(#pd6e50a0fc3)" style="fill: #bcbd22"/>
   </g>
   <g id="patch_87">
    <path d="M 367.554359 99.033153 
L 372.099534 99.033153 
L 372.099534 307.517532 
L 367.554359 307.517532 
z
" clip-path="url(#pd6e50a0fc3)" style="fill: #bcbd22"/>
   </g>
   <g id="patch_88">
    <path d="M 428.15669 99.033153 
L 432.701865 99.033153 
L 432.701865 172.349069 
L 428.15669 172.349069 
z
" clip-path="url(#pd6e50a0fc3)" style="fill: #bcbd22"/>
   </g>
   <g id="patch_89">
    <path d="M 488.759021 99.033153 
L 493.304196 99.033153 
L 493.304196 134.214996 
L 488.759021 134.214996 
z
" clip-path="url(#pd6e50a0fc3)" style="fill: #bcbd22"/>
   </g>
   <g id="patch_90">
    <path d="M 549.361352 99.033153 
L 553.906527 99.033153 
L 553.906527 143.990899 
L 549.361352 143.990899 
z
" clip-path="url(#pd6e50a0fc3)" style="fill: #bcbd22"/>
   </g>
   <g id="patch_91">
    <path d="M 609.963683 99.033153 
L 614.508858 99.033153 
L 614.508858 336.382277 
L 609.963683 336.382277 
z
" clip-path="url(#pd6e50a0fc3)" style="fill: #bcbd22"/>
   </g>
   <g id="patch_92">
    <path d="M 670.566014 99.033153 
L 675.111189 99.033153 
L 675.111189 146.29565 
L 670.566014 146.29565 
z
" clip-path="url(#pd6e50a0fc3)" style="fill: #bcbd22"/>
   </g>
   <g id="patch_93">
    <path d="M 129.69021 99.033153 
L 134.235385 99.033153 
L 134.235385 211.573453 
L 129.69021 211.573453 
z
" clip-path="url(#pd6e50a0fc3)" style="fill: #17becf"/>
   </g>
   <g id="patch_94">
    <path d="M 190.292541 99.033153 
L 194.837716 99.033153 
L 194.837716 96.778723 
L 190.292541 96.778723 
z
" clip-path="url(#pd6e50a0fc3)" style="fill: #17becf"/>
   </g>
   <g id="patch_95">
    <path d="M 250.894872 99.033153 
L 255.440047 99.033153 
L 255.440047 147.701314 
L 250.894872 147.701314 
z
" clip-path="url(#pd6e50a0fc3)" style="fill: #17becf"/>
   </g>
   <g id="patch_96">
    <path d="M 311.497203 99.033153 
L 316.042378 99.033153 
L 316.042378 350.351686 
L 311.497203 350.351686 
z
" clip-path="url(#pd6e50a0fc3)" style="fill: #17becf"/>
   </g>
   <g id="patch_97">
    <path d="M 372.099534 99.033153 
L 376.644709 99.033153 
L 376.644709 342.229703 
L 372.099534 342.229703 
z
" clip-path="url(#pd6e50a0fc3)" style="fill: #17becf"/>
   </g>
   <g id="patch_98">
    <path d="M 432.701865 99.033153 
L 437.24704 99.033153 
L 437.24704 277.532281 
L 432.701865 277.532281 
z
" clip-path="url(#pd6e50a0fc3)" style="fill: #17becf"/>
   </g>
   <g id="patch_99">
    <path d="M 493.304196 99.033153 
L 497.849371 99.033153 
L 497.849371 147.701314 
L 493.304196 147.701314 
z
" clip-path="url(#pd6e50a0fc3)" style="fill: #17becf"/>
   </g>
   <g id="patch_100">
    <path d="M 553.906527 99.033153 
L 558.451702 99.033153 
L 558.451702 170.282509 
L 553.906527 170.282509 
z
" clip-path="url(#pd6e50a0fc3)" style="fill: #17becf"/>
   </g>
   <g id="patch_101">
    <path d="M 614.508858 99.033153 
L 619.054033 99.033153 
L 619.054033 298.865489 
L 614.508858 298.865489 
z
" clip-path="url(#pd6e50a0fc3)" style="fill: #17becf"/>
   </g>
   <g id="patch_102">
    <path d="M 675.111189 99.033153 
L 679.656364 99.033153 
L 679.656364 162.744261 
L 675.111189 162.744261 
z
" clip-path="url(#pd6e50a0fc3)" style="fill: #17becf"/>
   </g>
   <g id="matplotlib.axis_1">
    <g id="xtick_1">
     <g id="line2d_1">
      <defs>
       <path id="m9145f397fb" d="M 0 0 
L 0 3.5 
" style="stroke: #000000; stroke-width: 0.8"/>
      </defs>
      <g>
       <use xlink:href="#m9145f397fb" x="111.50951" y="368.172916" style="stroke: #000000; stroke-width: 0.8"/>
      </g>
     </g>
     <g id="text_1">
      <!-- 4ra88 -->
      <g transform="translate(103.092178 401.282834) rotate(-45) scale(0.1 -0.1)">
       <defs>
        <path id="DejaVuSans-34" d="M 2419 4116 
L 825 1625 
L 2419 1625 
L 2419 4116 
z
M 2253 4666 
L 3047 4666 
L 3047 1625 
L 3713 1625 
L 3713 1100 
L 3047 1100 
L 3047 0 
L 2419 0 
L 2419 1100 
L 313 1100 
L 313 1709 
L 2253 4666 
z
" transform="scale(0.015625)"/>
        <path id="DejaVuSans-72" d="M 2631 2963 
Q 2534 3019 2420 3045 
Q 2306 3072 2169 3072 
Q 1681 3072 1420 2755 
Q 1159 2438 1159 1844 
L 1159 0 
L 581 0 
L 581 3500 
L 1159 3500 
L 1159 2956 
Q 1341 3275 1631 3429 
Q 1922 3584 2338 3584 
Q 2397 3584 2469 3576 
Q 2541 3569 2628 3553 
L 2631 2963 
z
" transform="scale(0.015625)"/>
        <path id="DejaVuSans-61" d="M 2194 1759 
Q 1497 1759 1228 1600 
Q 959 1441 959 1056 
Q 959 750 1161 570 
Q 1363 391 1709 391 
Q 2188 391 2477 730 
Q 2766 1069 2766 1631 
L 2766 1759 
L 2194 1759 
z
M 3341 1997 
L 3341 0 
L 2766 0 
L 2766 531 
Q 2569 213 2275 61 
Q 1981 -91 1556 -91 
Q 1019 -91 701 211 
Q 384 513 384 1019 
Q 384 1609 779 1909 
Q 1175 2209 1959 2209 
L 2766 2209 
L 2766 2266 
Q 2766 2663 2505 2880 
Q 2244 3097 1772 3097 
Q 1472 3097 1187 3025 
Q 903 2953 641 2809 
L 641 3341 
Q 956 3463 1253 3523 
Q 1550 3584 1831 3584 
Q 2591 3584 2966 3190 
Q 3341 2797 3341 1997 
z
" transform="scale(0.015625)"/>
        <path id="DejaVuSans-38" d="M 2034 2216 
Q 1584 2216 1326 1975 
Q 1069 1734 1069 1313 
Q 1069 891 1326 650 
Q 1584 409 2034 409 
Q 2484 409 2743 651 
Q 3003 894 3003 1313 
Q 3003 1734 2745 1975 
Q 2488 2216 2034 2216 
z
M 1403 2484 
Q 997 2584 770 2862 
Q 544 3141 544 3541 
Q 544 4100 942 4425 
Q 1341 4750 2034 4750 
Q 2731 4750 3128 4425 
Q 3525 4100 3525 3541 
Q 3525 3141 3298 2862 
Q 3072 2584 2669 2484 
Q 3125 2378 3379 2068 
Q 3634 1759 3634 1313 
Q 3634 634 3220 271 
Q 2806 -91 2034 -91 
Q 1263 -91 848 271 
Q 434 634 434 1313 
Q 434 1759 690 2068 
Q 947 2378 1403 2484 
z
M 1172 3481 
Q 1172 3119 1398 2916 
Q 1625 2713 2034 2713 
Q 2441 2713 2670 2916 
Q 2900 3119 2900 3481 
Q 2900 3844 2670 4047 
Q 2441 4250 2034 4250 
Q 1625 4250 1398 4047 
Q 1172 3844 1172 3481 
z
" transform="scale(0.015625)"/>
       </defs>
       <use xlink:href="#DejaVuSans-34"/>
       <use xlink:href="#DejaVuSans-72" x="63.623047"/>
       <use xlink:href="#DejaVuSans-61" x="104.736328"/>
       <use xlink:href="#DejaVuSans-38" x="166.015625"/>
       <use xlink:href="#DejaVuSans-38" x="229.638672"/>
      </g>
     </g>
    </g>
    <g id="xtick_2">
     <g id="line2d_2">
      <g>
       <use xlink:href="#m9145f397fb" x="172.111841" y="368.172916" style="stroke: #000000; stroke-width: 0.8"/>
      </g>
     </g>
     <g id="text_2">
      <!-- 41m3g -->
      <g transform="translate(161.626221 405.419408) rotate(-45) scale(0.1 -0.1)">
       <defs>
        <path id="DejaVuSans-31" d="M 794 531 
L 1825 531 
L 1825 4091 
L 703 3866 
L 703 4441 
L 1819 4666 
L 2450 4666 
L 2450 531 
L 3481 531 
L 3481 0 
L 794 0 
L 794 531 
z
" transform="scale(0.015625)"/>
        <path id="DejaVuSans-6d" d="M 3328 2828 
Q 3544 3216 3844 3400 
Q 4144 3584 4550 3584 
Q 5097 3584 5394 3201 
Q 5691 2819 5691 2113 
L 5691 0 
L 5113 0 
L 5113 2094 
Q 5113 2597 4934 2840 
Q 4756 3084 4391 3084 
Q 3944 3084 3684 2787 
Q 3425 2491 3425 1978 
L 3425 0 
L 2847 0 
L 2847 2094 
Q 2847 2600 2669 2842 
Q 2491 3084 2119 3084 
Q 1678 3084 1418 2786 
Q 1159 2488 1159 1978 
L 1159 0 
L 581 0 
L 581 3500 
L 1159 3500 
L 1159 2956 
Q 1356 3278 1631 3431 
Q 1906 3584 2284 3584 
Q 2666 3584 2933 3390 
Q 3200 3197 3328 2828 
z
" transform="scale(0.015625)"/>
        <path id="DejaVuSans-33" d="M 2597 2516 
Q 3050 2419 3304 2112 
Q 3559 1806 3559 1356 
Q 3559 666 3084 287 
Q 2609 -91 1734 -91 
Q 1441 -91 1130 -33 
Q 819 25 488 141 
L 488 750 
Q 750 597 1062 519 
Q 1375 441 1716 441 
Q 2309 441 2620 675 
Q 2931 909 2931 1356 
Q 2931 1769 2642 2001 
Q 2353 2234 1838 2234 
L 1294 2234 
L 1294 2753 
L 1863 2753 
Q 2328 2753 2575 2939 
Q 2822 3125 2822 3475 
Q 2822 3834 2567 4026 
Q 2313 4219 1838 4219 
Q 1578 4219 1281 4162 
Q 984 4106 628 3988 
L 628 4550 
Q 988 4650 1302 4700 
Q 1616 4750 1894 4750 
Q 2613 4750 3031 4423 
Q 3450 4097 3450 3541 
Q 3450 3153 3228 2886 
Q 3006 2619 2597 2516 
z
" transform="scale(0.015625)"/>
        <path id="DejaVuSans-67" d="M 2906 1791 
Q 2906 2416 2648 2759 
Q 2391 3103 1925 3103 
Q 1463 3103 1205 2759 
Q 947 2416 947 1791 
Q 947 1169 1205 825 
Q 1463 481 1925 481 
Q 2391 481 2648 825 
Q 2906 1169 2906 1791 
z
M 3481 434 
Q 3481 -459 3084 -895 
Q 2688 -1331 1869 -1331 
Q 1566 -1331 1297 -1286 
Q 1028 -1241 775 -1147 
L 775 -588 
Q 1028 -725 1275 -790 
Q 1522 -856 1778 -856 
Q 2344 -856 2625 -561 
Q 2906 -266 2906 331 
L 2906 616 
Q 2728 306 2450 153 
Q 2172 0 1784 0 
Q 1141 0 747 490 
Q 353 981 353 1791 
Q 353 2603 747 3093 
Q 1141 3584 1784 3584 
Q 2172 3584 2450 3431 
Q 2728 3278 2906 2969 
L 2906 3500 
L 3481 3500 
L 3481 434 
z
" transform="scale(0.015625)"/>
       </defs>
       <use xlink:href="#DejaVuSans-34"/>
       <use xlink:href="#DejaVuSans-31" x="63.623047"/>
       <use xlink:href="#DejaVuSans-6d" x="127.246094"/>
       <use xlink:href="#DejaVuSans-33" x="224.658203"/>
       <use xlink:href="#DejaVuSans-67" x="288.28125"/>
      </g>
     </g>
    </g>
    <g id="xtick_3">
     <g id="line2d_3">
      <g>
       <use xlink:href="#m9145f397fb" x="232.714172" y="368.172916" style="stroke: #000000; stroke-width: 0.8"/>
      </g>
     </g>
     <g id="text_3">
      <!-- 0mx31 -->
      <g transform="translate(222.38047 405.115573) rotate(-45) scale(0.1 -0.1)">
       <defs>
        <path id="DejaVuSans-30" d="M 2034 4250 
Q 1547 4250 1301 3770 
Q 1056 3291 1056 2328 
Q 1056 1369 1301 889 
Q 1547 409 2034 409 
Q 2525 409 2770 889 
Q 3016 1369 3016 2328 
Q 3016 3291 2770 3770 
Q 2525 4250 2034 4250 
z
M 2034 4750 
Q 2819 4750 3233 4129 
Q 3647 3509 3647 2328 
Q 3647 1150 3233 529 
Q 2819 -91 2034 -91 
Q 1250 -91 836 529 
Q 422 1150 422 2328 
Q 422 3509 836 4129 
Q 1250 4750 2034 4750 
z
" transform="scale(0.015625)"/>
        <path id="DejaVuSans-78" d="M 3513 3500 
L 2247 1797 
L 3578 0 
L 2900 0 
L 1881 1375 
L 863 0 
L 184 0 
L 1544 1831 
L 300 3500 
L 978 3500 
L 1906 2253 
L 2834 3500 
L 3513 3500 
z
" transform="scale(0.015625)"/>
       </defs>
       <use xlink:href="#DejaVuSans-30"/>
       <use xlink:href="#DejaVuSans-6d" x="63.623047"/>
       <use xlink:href="#DejaVuSans-78" x="161.035156"/>
       <use xlink:href="#DejaVuSans-33" x="220.214844"/>
       <use xlink:href="#DejaVuSans-31" x="283.837891"/>
      </g>
     </g>
    </g>
    <g id="xtick_4">
     <g id="line2d_4">
      <g>
       <use xlink:href="#m9145f397fb" x="293.316503" y="368.172916" style="stroke: #000000; stroke-width: 0.8"/>
      </g>
     </g>
     <g id="text_4">
      <!-- t86e6 -->
      <g transform="translate(284.957728 401.165719) rotate(-45) scale(0.1 -0.1)">
       <defs>
        <path id="DejaVuSans-74" d="M 1172 4494 
L 1172 3500 
L 2356 3500 
L 2356 3053 
L 1172 3053 
L 1172 1153 
Q 1172 725 1289 603 
Q 1406 481 1766 481 
L 2356 481 
L 2356 0 
L 1766 0 
Q 1100 0 847 248 
Q 594 497 594 1153 
L 594 3053 
L 172 3053 
L 172 3500 
L 594 3500 
L 594 4494 
L 1172 4494 
z
" transform="scale(0.015625)"/>
        <path id="DejaVuSans-36" d="M 2113 2584 
Q 1688 2584 1439 2293 
Q 1191 2003 1191 1497 
Q 1191 994 1439 701 
Q 1688 409 2113 409 
Q 2538 409 2786 701 
Q 3034 994 3034 1497 
Q 3034 2003 2786 2293 
Q 2538 2584 2113 2584 
z
M 3366 4563 
L 3366 3988 
Q 3128 4100 2886 4159 
Q 2644 4219 2406 4219 
Q 1781 4219 1451 3797 
Q 1122 3375 1075 2522 
Q 1259 2794 1537 2939 
Q 1816 3084 2150 3084 
Q 2853 3084 3261 2657 
Q 3669 2231 3669 1497 
Q 3669 778 3244 343 
Q 2819 -91 2113 -91 
Q 1303 -91 875 529 
Q 447 1150 447 2328 
Q 447 3434 972 4092 
Q 1497 4750 2381 4750 
Q 2619 4750 2861 4703 
Q 3103 4656 3366 4563 
z
" transform="scale(0.015625)"/>
        <path id="DejaVuSans-65" d="M 3597 1894 
L 3597 1613 
L 953 1613 
Q 991 1019 1311 708 
Q 1631 397 2203 397 
Q 2534 397 2845 478 
Q 3156 559 3463 722 
L 3463 178 
Q 3153 47 2828 -22 
Q 2503 -91 2169 -91 
Q 1331 -91 842 396 
Q 353 884 353 1716 
Q 353 2575 817 3079 
Q 1281 3584 2069 3584 
Q 2775 3584 3186 3129 
Q 3597 2675 3597 1894 
z
M 3022 2063 
Q 3016 2534 2758 2815 
Q 2500 3097 2075 3097 
Q 1594 3097 1305 2825 
Q 1016 2553 972 2059 
L 3022 2063 
z
" transform="scale(0.015625)"/>
       </defs>
       <use xlink:href="#DejaVuSans-74"/>
       <use xlink:href="#DejaVuSans-38" x="39.208984"/>
       <use xlink:href="#DejaVuSans-36" x="102.832031"/>
       <use xlink:href="#DejaVuSans-65" x="166.455078"/>
       <use xlink:href="#DejaVuSans-36" x="227.978516"/>
      </g>
     </g>
    </g>
    <g id="xtick_5">
     <g id="line2d_5">
      <g>
       <use xlink:href="#m9145f397fb" x="353.918834" y="368.172916" style="stroke: #000000; stroke-width: 0.8"/>
      </g>
     </g>
     <g id="text_5">
      <!-- n766c -->
      <g transform="translate(344.936921 402.411995) rotate(-45) scale(0.1 -0.1)">
       <defs>
        <path id="DejaVuSans-6e" d="M 3513 2113 
L 3513 0 
L 2938 0 
L 2938 2094 
Q 2938 2591 2744 2837 
Q 2550 3084 2163 3084 
Q 1697 3084 1428 2787 
Q 1159 2491 1159 1978 
L 1159 0 
L 581 0 
L 581 3500 
L 1159 3500 
L 1159 2956 
Q 1366 3272 1645 3428 
Q 1925 3584 2291 3584 
Q 2894 3584 3203 3211 
Q 3513 2838 3513 2113 
z
" transform="scale(0.015625)"/>
        <path id="DejaVuSans-37" d="M 525 4666 
L 3525 4666 
L 3525 4397 
L 1831 0 
L 1172 0 
L 2766 4134 
L 525 4134 
L 525 4666 
z
" transform="scale(0.015625)"/>
        <path id="DejaVuSans-63" d="M 3122 3366 
L 3122 2828 
Q 2878 2963 2633 3030 
Q 2388 3097 2138 3097 
Q 1578 3097 1268 2742 
Q 959 2388 959 1747 
Q 959 1106 1268 751 
Q 1578 397 2138 397 
Q 2388 397 2633 464 
Q 2878 531 3122 666 
L 3122 134 
Q 2881 22 2623 -34 
Q 2366 -91 2075 -91 
Q 1284 -91 818 406 
Q 353 903 353 1747 
Q 353 2603 823 3093 
Q 1294 3584 2113 3584 
Q 2378 3584 2631 3529 
Q 2884 3475 3122 3366 
z
" transform="scale(0.015625)"/>
       </defs>
       <use xlink:href="#DejaVuSans-6e"/>
       <use xlink:href="#DejaVuSans-37" x="63.378906"/>
       <use xlink:href="#DejaVuSans-36" x="127.001953"/>
       <use xlink:href="#DejaVuSans-36" x="190.625"/>
       <use xlink:href="#DejaVuSans-63" x="254.248047"/>
      </g>
     </g>
    </g>
    <g id="xtick_6">
     <g id="line2d_6">
      <g>
       <use xlink:href="#m9145f397fb" x="414.521166" y="368.172916" style="stroke: #000000; stroke-width: 0.8"/>
      </g>
     </g>
     <g id="text_6">
      <!-- a075n -->
      <g transform="translate(405.316624 402.857251) rotate(-45) scale(0.1 -0.1)">
       <defs>
        <path id="DejaVuSans-35" d="M 691 4666 
L 3169 4666 
L 3169 4134 
L 1269 4134 
L 1269 2991 
Q 1406 3038 1543 3061 
Q 1681 3084 1819 3084 
Q 2600 3084 3056 2656 
Q 3513 2228 3513 1497 
Q 3513 744 3044 326 
Q 2575 -91 1722 -91 
Q 1428 -91 1123 -41 
Q 819 9 494 109 
L 494 744 
Q 775 591 1075 516 
Q 1375 441 1709 441 
Q 2250 441 2565 725 
Q 2881 1009 2881 1497 
Q 2881 1984 2565 2268 
Q 2250 2553 1709 2553 
Q 1456 2553 1204 2497 
Q 953 2441 691 2322 
L 691 4666 
z
" transform="scale(0.015625)"/>
       </defs>
       <use xlink:href="#DejaVuSans-61"/>
       <use xlink:href="#DejaVuSans-30" x="61.279297"/>
       <use xlink:href="#DejaVuSans-37" x="124.902344"/>
       <use xlink:href="#DejaVuSans-35" x="188.525391"/>
       <use xlink:href="#DejaVuSans-6e" x="252.148438"/>
      </g>
     </g>
    </g>
    <g id="xtick_7">
     <g id="line2d_7">
      <g>
       <use xlink:href="#m9145f397fb" x="475.123497" y="368.172916" style="stroke: #000000; stroke-width: 0.8"/>
      </g>
     </g>
     <g id="text_7">
      <!-- 8q8f1 -->
      <g transform="translate(466.837089 401.020983) rotate(-45) scale(0.1 -0.1)">
       <defs>
        <path id="DejaVuSans-71" d="M 947 1747 
Q 947 1113 1208 752 
Q 1469 391 1925 391 
Q 2381 391 2643 752 
Q 2906 1113 2906 1747 
Q 2906 2381 2643 2742 
Q 2381 3103 1925 3103 
Q 1469 3103 1208 2742 
Q 947 2381 947 1747 
z
M 2906 525 
Q 2725 213 2448 61 
Q 2172 -91 1784 -91 
Q 1150 -91 751 415 
Q 353 922 353 1747 
Q 353 2572 751 3078 
Q 1150 3584 1784 3584 
Q 2172 3584 2448 3432 
Q 2725 3281 2906 2969 
L 2906 3500 
L 3481 3500 
L 3481 -1331 
L 2906 -1331 
L 2906 525 
z
" transform="scale(0.015625)"/>
        <path id="DejaVuSans-66" d="M 2375 4863 
L 2375 4384 
L 1825 4384 
Q 1516 4384 1395 4259 
Q 1275 4134 1275 3809 
L 1275 3500 
L 2222 3500 
L 2222 3053 
L 1275 3053 
L 1275 0 
L 697 0 
L 697 3053 
L 147 3053 
L 147 3500 
L 697 3500 
L 697 3744 
Q 697 4328 969 4595 
Q 1241 4863 1831 4863 
L 2375 4863 
z
" transform="scale(0.015625)"/>
       </defs>
       <use xlink:href="#DejaVuSans-38"/>
       <use xlink:href="#DejaVuSans-71" x="63.623047"/>
       <use xlink:href="#DejaVuSans-38" x="127.099609"/>
       <use xlink:href="#DejaVuSans-66" x="190.722656"/>
       <use xlink:href="#DejaVuSans-31" x="225.927734"/>
      </g>
     </g>
    </g>
    <g id="xtick_8">
     <g id="line2d_8">
      <g>
       <use xlink:href="#m9145f397fb" x="535.725828" y="368.172916" style="stroke: #000000; stroke-width: 0.8"/>
      </g>
     </g>
     <g id="text_8">
      <!-- o936j -->
      <g transform="translate(527.78303 400.333764) rotate(-45) scale(0.1 -0.1)">
       <defs>
        <path id="DejaVuSans-6f" d="M 1959 3097 
Q 1497 3097 1228 2736 
Q 959 2375 959 1747 
Q 959 1119 1226 758 
Q 1494 397 1959 397 
Q 2419 397 2687 759 
Q 2956 1122 2956 1747 
Q 2956 2369 2687 2733 
Q 2419 3097 1959 3097 
z
M 1959 3584 
Q 2709 3584 3137 3096 
Q 3566 2609 3566 1747 
Q 3566 888 3137 398 
Q 2709 -91 1959 -91 
Q 1206 -91 779 398 
Q 353 888 353 1747 
Q 353 2609 779 3096 
Q 1206 3584 1959 3584 
z
" transform="scale(0.015625)"/>
        <path id="DejaVuSans-39" d="M 703 97 
L 703 672 
Q 941 559 1184 500 
Q 1428 441 1663 441 
Q 2288 441 2617 861 
Q 2947 1281 2994 2138 
Q 2813 1869 2534 1725 
Q 2256 1581 1919 1581 
Q 1219 1581 811 2004 
Q 403 2428 403 3163 
Q 403 3881 828 4315 
Q 1253 4750 1959 4750 
Q 2769 4750 3195 4129 
Q 3622 3509 3622 2328 
Q 3622 1225 3098 567 
Q 2575 -91 1691 -91 
Q 1453 -91 1209 -44 
Q 966 3 703 97 
z
M 1959 2075 
Q 2384 2075 2632 2365 
Q 2881 2656 2881 3163 
Q 2881 3666 2632 3958 
Q 2384 4250 1959 4250 
Q 1534 4250 1286 3958 
Q 1038 3666 1038 3163 
Q 1038 2656 1286 2365 
Q 1534 2075 1959 2075 
z
" transform="scale(0.015625)"/>
        <path id="DejaVuSans-6a" d="M 603 3500 
L 1178 3500 
L 1178 -63 
Q 1178 -731 923 -1031 
Q 669 -1331 103 -1331 
L -116 -1331 
L -116 -844 
L 38 -844 
Q 366 -844 484 -692 
Q 603 -541 603 -63 
L 603 3500 
z
M 603 4863 
L 1178 4863 
L 1178 4134 
L 603 4134 
L 603 4863 
z
" transform="scale(0.015625)"/>
       </defs>
       <use xlink:href="#DejaVuSans-6f"/>
       <use xlink:href="#DejaVuSans-39" x="61.181641"/>
       <use xlink:href="#DejaVuSans-33" x="124.804688"/>
       <use xlink:href="#DejaVuSans-36" x="188.427734"/>
       <use xlink:href="#DejaVuSans-6a" x="252.050781"/>
      </g>
     </g>
    </g>
    <g id="xtick_9">
     <g id="line2d_9">
      <g>
       <use xlink:href="#m9145f397fb" x="596.328159" y="368.172916" style="stroke: #000000; stroke-width: 0.8"/>
      </g>
     </g>
     <g id="text_9">
      <!-- p4o72 -->
      <g transform="translate(587.123065 402.858356) rotate(-45) scale(0.1 -0.1)">
       <defs>
        <path id="DejaVuSans-70" d="M 1159 525 
L 1159 -1331 
L 581 -1331 
L 581 3500 
L 1159 3500 
L 1159 2969 
Q 1341 3281 1617 3432 
Q 1894 3584 2278 3584 
Q 2916 3584 3314 3078 
Q 3713 2572 3713 1747 
Q 3713 922 3314 415 
Q 2916 -91 2278 -91 
Q 1894 -91 1617 61 
Q 1341 213 1159 525 
z
M 3116 1747 
Q 3116 2381 2855 2742 
Q 2594 3103 2138 3103 
Q 1681 3103 1420 2742 
Q 1159 2381 1159 1747 
Q 1159 1113 1420 752 
Q 1681 391 2138 391 
Q 2594 391 2855 752 
Q 3116 1113 3116 1747 
z
" transform="scale(0.015625)"/>
        <path id="DejaVuSans-32" d="M 1228 531 
L 3431 531 
L 3431 0 
L 469 0 
L 469 531 
Q 828 903 1448 1529 
Q 2069 2156 2228 2338 
Q 2531 2678 2651 2914 
Q 2772 3150 2772 3378 
Q 2772 3750 2511 3984 
Q 2250 4219 1831 4219 
Q 1534 4219 1204 4116 
Q 875 4013 500 3803 
L 500 4441 
Q 881 4594 1212 4672 
Q 1544 4750 1819 4750 
Q 2544 4750 2975 4387 
Q 3406 4025 3406 3419 
Q 3406 3131 3298 2873 
Q 3191 2616 2906 2266 
Q 2828 2175 2409 1742 
Q 1991 1309 1228 531 
z
" transform="scale(0.015625)"/>
       </defs>
       <use xlink:href="#DejaVuSans-70"/>
       <use xlink:href="#DejaVuSans-34" x="63.476562"/>
       <use xlink:href="#DejaVuSans-6f" x="127.099609"/>
       <use xlink:href="#DejaVuSans-37" x="188.28125"/>
       <use xlink:href="#DejaVuSans-32" x="251.904297"/>
      </g>
     </g>
    </g>
    <g id="xtick_10">
     <g id="line2d_10">
      <g>
       <use xlink:href="#m9145f397fb" x="656.93049" y="368.172916" style="stroke: #000000; stroke-width: 0.8"/>
      </g>
     </g>
     <g id="text_10">
      <!-- 08lr6 -->
      <g transform="translate(649.697561 398.914026) rotate(-45) scale(0.1 -0.1)">
       <defs>
        <path id="DejaVuSans-6c" d="M 603 4863 
L 1178 4863 
L 1178 0 
L 603 0 
L 603 4863 
z
" transform="scale(0.015625)"/>
       </defs>
       <use xlink:href="#DejaVuSans-30"/>
       <use xlink:href="#DejaVuSans-38" x="63.623047"/>
       <use xlink:href="#DejaVuSans-6c" x="127.246094"/>
       <use xlink:href="#DejaVuSans-72" x="155.029297"/>
       <use xlink:href="#DejaVuSans-36" x="196.142578"/>
      </g>
     </g>
    </g>
    <g id="text_11">
     <!-- Model ID -->
     <g transform="translate(362.292656 418.488407) scale(0.1 -0.1)">
      <defs>
       <path id="DejaVuSans-4d" d="M 628 4666 
L 1569 4666 
L 2759 1491 
L 3956 4666 
L 4897 4666 
L 4897 0 
L 4281 0 
L 4281 4097 
L 3078 897 
L 2444 897 
L 1241 4097 
L 1241 0 
L 628 0 
L 628 4666 
z
" transform="scale(0.015625)"/>
       <path id="DejaVuSans-64" d="M 2906 2969 
L 2906 4863 
L 3481 4863 
L 3481 0 
L 2906 0 
L 2906 525 
Q 2725 213 2448 61 
Q 2172 -91 1784 -91 
Q 1150 -91 751 415 
Q 353 922 353 1747 
Q 353 2572 751 3078 
Q 1150 3584 1784 3584 
Q 2172 3584 2448 3432 
Q 2725 3281 2906 2969 
z
M 947 1747 
Q 947 1113 1208 752 
Q 1469 391 1925 391 
Q 2381 391 2643 752 
Q 2906 1113 2906 1747 
Q 2906 2381 2643 2742 
Q 2381 3103 1925 3103 
Q 1469 3103 1208 2742 
Q 947 2381 947 1747 
z
" transform="scale(0.015625)"/>
       <path id="DejaVuSans-20" transform="scale(0.015625)"/>
       <path id="DejaVuSans-49" d="M 628 4666 
L 1259 4666 
L 1259 0 
L 628 0 
L 628 4666 
z
" transform="scale(0.015625)"/>
       <path id="DejaVuSans-44" d="M 1259 4147 
L 1259 519 
L 2022 519 
Q 2988 519 3436 956 
Q 3884 1394 3884 2338 
Q 3884 3275 3436 3711 
Q 2988 4147 2022 4147 
L 1259 4147 
z
M 628 4666 
L 1925 4666 
Q 3281 4666 3915 4102 
Q 4550 3538 4550 2338 
Q 4550 1131 3912 565 
Q 3275 0 1925 0 
L 628 0 
L 628 4666 
z
" transform="scale(0.015625)"/>
      </defs>
      <use xlink:href="#DejaVuSans-4d"/>
      <use xlink:href="#DejaVuSans-6f" x="86.279297"/>
      <use xlink:href="#DejaVuSans-64" x="147.460938"/>
      <use xlink:href="#DejaVuSans-65" x="210.9375"/>
      <use xlink:href="#DejaVuSans-6c" x="272.460938"/>
      <use xlink:href="#DejaVuSans-20" x="300.244141"/>
      <use xlink:href="#DejaVuSans-49" x="332.03125"/>
      <use xlink:href="#DejaVuSans-44" x="361.523438"/>
     </g>
    </g>
   </g>
   <g id="matplotlib.axis_2">
    <g id="ytick_1">
     <g id="line2d_11">
      <path d="M 59.24 367.417581 
L 709.2 367.417581 
" clip-path="url(#pd6e50a0fc3)" style="fill: none; stroke-dasharray: 2.96,1.28; stroke-dashoffset: 0; stroke: #b0b0b0; stroke-opacity: 0.5; stroke-width: 0.8"/>
     </g>
     <g id="line2d_12">
      <defs>
       <path id="mba4b1d318a" d="M 0 0 
L -3.5 0 
" style="stroke: #000000; stroke-width: 0.8"/>
      </defs>
      <g>
       <use xlink:href="#mba4b1d318a" x="59.24" y="367.417581" style="stroke: #000000; stroke-width: 0.8"/>
      </g>
     </g>
     <g id="text_12">
      <!-- −800 -->
      <g transform="translate(24.772813 371.2168) scale(0.1 -0.1)">
       <defs>
        <path id="DejaVuSans-2212" d="M 678 2272 
L 4684 2272 
L 4684 1741 
L 678 1741 
L 678 2272 
z
" transform="scale(0.015625)"/>
       </defs>
       <use xlink:href="#DejaVuSans-2212"/>
       <use xlink:href="#DejaVuSans-38" x="83.789062"/>
       <use xlink:href="#DejaVuSans-30" x="147.412109"/>
       <use xlink:href="#DejaVuSans-30" x="211.035156"/>
      </g>
     </g>
    </g>
    <g id="ytick_2">
     <g id="line2d_13">
      <path d="M 59.24 300.321474 
L 709.2 300.321474 
" clip-path="url(#pd6e50a0fc3)" style="fill: none; stroke-dasharray: 2.96,1.28; stroke-dashoffset: 0; stroke: #b0b0b0; stroke-opacity: 0.5; stroke-width: 0.8"/>
     </g>
     <g id="line2d_14">
      <g>
       <use xlink:href="#mba4b1d318a" x="59.24" y="300.321474" style="stroke: #000000; stroke-width: 0.8"/>
      </g>
     </g>
     <g id="text_13">
      <!-- −600 -->
      <g transform="translate(24.772813 304.120693) scale(0.1 -0.1)">
       <use xlink:href="#DejaVuSans-2212"/>
       <use xlink:href="#DejaVuSans-36" x="83.789062"/>
       <use xlink:href="#DejaVuSans-30" x="147.412109"/>
       <use xlink:href="#DejaVuSans-30" x="211.035156"/>
      </g>
     </g>
    </g>
    <g id="ytick_3">
     <g id="line2d_15">
      <path d="M 59.24 233.225367 
L 709.2 233.225367 
" clip-path="url(#pd6e50a0fc3)" style="fill: none; stroke-dasharray: 2.96,1.28; stroke-dashoffset: 0; stroke: #b0b0b0; stroke-opacity: 0.5; stroke-width: 0.8"/>
     </g>
     <g id="line2d_16">
      <g>
       <use xlink:href="#mba4b1d318a" x="59.24" y="233.225367" style="stroke: #000000; stroke-width: 0.8"/>
      </g>
     </g>
     <g id="text_14">
      <!-- −400 -->
      <g transform="translate(24.772813 237.024586) scale(0.1 -0.1)">
       <use xlink:href="#DejaVuSans-2212"/>
       <use xlink:href="#DejaVuSans-34" x="83.789062"/>
       <use xlink:href="#DejaVuSans-30" x="147.412109"/>
       <use xlink:href="#DejaVuSans-30" x="211.035156"/>
      </g>
     </g>
    </g>
    <g id="ytick_4">
     <g id="line2d_17">
      <path d="M 59.24 166.12926 
L 709.2 166.12926 
" clip-path="url(#pd6e50a0fc3)" style="fill: none; stroke-dasharray: 2.96,1.28; stroke-dashoffset: 0; stroke: #b0b0b0; stroke-opacity: 0.5; stroke-width: 0.8"/>
     </g>
     <g id="line2d_18">
      <g>
       <use xlink:href="#mba4b1d318a" x="59.24" y="166.12926" style="stroke: #000000; stroke-width: 0.8"/>
      </g>
     </g>
     <g id="text_15">
      <!-- −200 -->
      <g transform="translate(24.772813 169.928478) scale(0.1 -0.1)">
       <use xlink:href="#DejaVuSans-2212"/>
       <use xlink:href="#DejaVuSans-32" x="83.789062"/>
       <use xlink:href="#DejaVuSans-30" x="147.412109"/>
       <use xlink:href="#DejaVuSans-30" x="211.035156"/>
      </g>
     </g>
    </g>
    <g id="ytick_5">
     <g id="line2d_19">
      <path d="M 59.24 99.033153 
L 709.2 99.033153 
" clip-path="url(#pd6e50a0fc3)" style="fill: none; stroke-dasharray: 2.96,1.28; stroke-dashoffset: 0; stroke: #b0b0b0; stroke-opacity: 0.5; stroke-width: 0.8"/>
     </g>
     <g id="line2d_20">
      <g>
       <use xlink:href="#mba4b1d318a" x="59.24" y="99.033153" style="stroke: #000000; stroke-width: 0.8"/>
      </g>
     </g>
     <g id="text_16">
      <!-- 0 -->
      <g transform="translate(45.8775 102.832371) scale(0.1 -0.1)">
       <use xlink:href="#DejaVuSans-30"/>
      </g>
     </g>
    </g>
    <g id="text_17">
     <!-- Reward -->
     <g transform="translate(18.693125 219.987552) rotate(-90) scale(0.1 -0.1)">
      <defs>
       <path id="DejaVuSans-52" d="M 2841 2188 
Q 3044 2119 3236 1894 
Q 3428 1669 3622 1275 
L 4263 0 
L 3584 0 
L 2988 1197 
Q 2756 1666 2539 1819 
Q 2322 1972 1947 1972 
L 1259 1972 
L 1259 0 
L 628 0 
L 628 4666 
L 2053 4666 
Q 2853 4666 3247 4331 
Q 3641 3997 3641 3322 
Q 3641 2881 3436 2590 
Q 3231 2300 2841 2188 
z
M 1259 4147 
L 1259 2491 
L 2053 2491 
Q 2509 2491 2742 2702 
Q 2975 2913 2975 3322 
Q 2975 3731 2742 3939 
Q 2509 4147 2053 4147 
L 1259 4147 
z
" transform="scale(0.015625)"/>
       <path id="DejaVuSans-77" d="M 269 3500 
L 844 3500 
L 1563 769 
L 2278 3500 
L 2956 3500 
L 3675 769 
L 4391 3500 
L 4966 3500 
L 4050 0 
L 3372 0 
L 2619 2869 
L 1863 0 
L 1184 0 
L 269 3500 
z
" transform="scale(0.015625)"/>
      </defs>
      <use xlink:href="#DejaVuSans-52"/>
      <use xlink:href="#DejaVuSans-65" x="64.982422"/>
      <use xlink:href="#DejaVuSans-77" x="126.505859"/>
      <use xlink:href="#DejaVuSans-61" x="208.292969"/>
      <use xlink:href="#DejaVuSans-72" x="269.572266"/>
      <use xlink:href="#DejaVuSans-64" x="308.935547"/>
     </g>
    </g>
   </g>
   <g id="patch_103">
    <path d="M 59.24 368.172916 
L 59.24 34.56 
" style="fill: none; stroke: #000000; stroke-width: 0.8; stroke-linejoin: miter; stroke-linecap: square"/>
   </g>
   <g id="patch_104">
    <path d="M 709.2 368.172916 
L 709.2 34.56 
" style="fill: none; stroke: #000000; stroke-width: 0.8; stroke-linejoin: miter; stroke-linecap: square"/>
   </g>
   <g id="patch_105">
    <path d="M 59.24 368.172916 
L 709.2 368.172916 
" style="fill: none; stroke: #000000; stroke-width: 0.8; stroke-linejoin: miter; stroke-linecap: square"/>
   </g>
   <g id="patch_106">
    <path d="M 59.24 34.56 
L 709.2 34.56 
" style="fill: none; stroke: #000000; stroke-width: 0.8; stroke-linejoin: miter; stroke-linecap: square"/>
   </g>
   <g id="legend_1">
    <g id="patch_107">
     <path d="M 616.56875 363.172916 
L 702.2 363.172916 
Q 704.2 363.172916 704.2 361.172916 
L 704.2 200.713541 
Q 704.2 198.713541 702.2 198.713541 
L 616.56875 198.713541 
Q 614.56875 198.713541 614.56875 200.713541 
L 614.56875 361.172916 
Q 614.56875 363.172916 616.56875 363.172916 
z
" style="fill: #ffffff; opacity: 0.8; stroke: #cccccc; stroke-linejoin: miter"/>
    </g>
    <g id="text_18">
     <!-- Env Seed -->
     <g transform="translate(636.00625 210.311978) scale(0.1 -0.1)">
      <defs>
       <path id="DejaVuSans-45" d="M 628 4666 
L 3578 4666 
L 3578 4134 
L 1259 4134 
L 1259 2753 
L 3481 2753 
L 3481 2222 
L 1259 2222 
L 1259 531 
L 3634 531 
L 3634 0 
L 628 0 
L 628 4666 
z
" transform="scale(0.015625)"/>
       <path id="DejaVuSans-76" d="M 191 3500 
L 800 3500 
L 1894 563 
L 2988 3500 
L 3597 3500 
L 2284 0 
L 1503 0 
L 191 3500 
z
" transform="scale(0.015625)"/>
       <path id="DejaVuSans-53" d="M 3425 4513 
L 3425 3897 
Q 3066 4069 2747 4153 
Q 2428 4238 2131 4238 
Q 1616 4238 1336 4038 
Q 1056 3838 1056 3469 
Q 1056 3159 1242 3001 
Q 1428 2844 1947 2747 
L 2328 2669 
Q 3034 2534 3370 2195 
Q 3706 1856 3706 1288 
Q 3706 609 3251 259 
Q 2797 -91 1919 -91 
Q 1588 -91 1214 -16 
Q 841 59 441 206 
L 441 856 
Q 825 641 1194 531 
Q 1563 422 1919 422 
Q 2459 422 2753 634 
Q 3047 847 3047 1241 
Q 3047 1584 2836 1778 
Q 2625 1972 2144 2069 
L 1759 2144 
Q 1053 2284 737 2584 
Q 422 2884 422 3419 
Q 422 4038 858 4394 
Q 1294 4750 2059 4750 
Q 2388 4750 2728 4690 
Q 3069 4631 3425 4513 
z
" transform="scale(0.015625)"/>
      </defs>
      <use xlink:href="#DejaVuSans-45"/>
      <use xlink:href="#DejaVuSans-6e" x="63.183594"/>
      <use xlink:href="#DejaVuSans-76" x="126.5625"/>
      <use xlink:href="#DejaVuSans-20" x="185.742188"/>
      <use xlink:href="#DejaVuSans-53" x="217.529297"/>
      <use xlink:href="#DejaVuSans-65" x="281.005859"/>
      <use xlink:href="#DejaVuSans-65" x="342.529297"/>
      <use xlink:href="#DejaVuSans-64" x="404.052734"/>
     </g>
    </g>
    <g id="patch_108">
     <path d="M 618.56875 224.990103 
L 638.56875 224.990103 
L 638.56875 217.990103 
L 618.56875 217.990103 
z
" style="fill: #1f77b4"/>
    </g>
    <g id="text_19">
     <!-- Seed 1000 -->
     <g transform="translate(646.56875 224.990103) scale(0.1 -0.1)">
      <use xlink:href="#DejaVuSans-53"/>
      <use xlink:href="#DejaVuSans-65" x="63.476562"/>
      <use xlink:href="#DejaVuSans-65" x="125"/>
      <use xlink:href="#DejaVuSans-64" x="186.523438"/>
      <use xlink:href="#DejaVuSans-20" x="250"/>
      <use xlink:href="#DejaVuSans-31" x="281.787109"/>
      <use xlink:href="#DejaVuSans-30" x="345.410156"/>
      <use xlink:href="#DejaVuSans-30" x="409.033203"/>
      <use xlink:href="#DejaVuSans-30" x="472.65625"/>
     </g>
    </g>
    <g id="patch_109">
     <path d="M 618.56875 239.668228 
L 638.56875 239.668228 
L 638.56875 232.668228 
L 618.56875 232.668228 
z
" style="fill: #ff7f0e"/>
    </g>
    <g id="text_20">
     <!-- Seed 1001 -->
     <g transform="translate(646.56875 239.668228) scale(0.1 -0.1)">
      <use xlink:href="#DejaVuSans-53"/>
      <use xlink:href="#DejaVuSans-65" x="63.476562"/>
      <use xlink:href="#DejaVuSans-65" x="125"/>
      <use xlink:href="#DejaVuSans-64" x="186.523438"/>
      <use xlink:href="#DejaVuSans-20" x="250"/>
      <use xlink:href="#DejaVuSans-31" x="281.787109"/>
      <use xlink:href="#DejaVuSans-30" x="345.410156"/>
      <use xlink:href="#DejaVuSans-30" x="409.033203"/>
      <use xlink:href="#DejaVuSans-31" x="472.65625"/>
     </g>
    </g>
    <g id="patch_110">
     <path d="M 618.56875 254.346353 
L 638.56875 254.346353 
L 638.56875 247.346353 
L 618.56875 247.346353 
z
" style="fill: #2ca02c"/>
    </g>
    <g id="text_21">
     <!-- Seed 1002 -->
     <g transform="translate(646.56875 254.346353) scale(0.1 -0.1)">
      <use xlink:href="#DejaVuSans-53"/>
      <use xlink:href="#DejaVuSans-65" x="63.476562"/>
      <use xlink:href="#DejaVuSans-65" x="125"/>
      <use xlink:href="#DejaVuSans-64" x="186.523438"/>
      <use xlink:href="#DejaVuSans-20" x="250"/>
      <use xlink:href="#DejaVuSans-31" x="281.787109"/>
      <use xlink:href="#DejaVuSans-30" x="345.410156"/>
      <use xlink:href="#DejaVuSans-30" x="409.033203"/>
      <use xlink:href="#DejaVuSans-32" x="472.65625"/>
     </g>
    </g>
    <g id="patch_111">
     <path d="M 618.56875 269.024478 
L 638.56875 269.024478 
L 638.56875 262.024478 
L 618.56875 262.024478 
z
" style="fill: #d62728"/>
    </g>
    <g id="text_22">
     <!-- Seed 1003 -->
     <g transform="translate(646.56875 269.024478) scale(0.1 -0.1)">
      <use xlink:href="#DejaVuSans-53"/>
      <use xlink:href="#DejaVuSans-65" x="63.476562"/>
      <use xlink:href="#DejaVuSans-65" x="125"/>
      <use xlink:href="#DejaVuSans-64" x="186.523438"/>
      <use xlink:href="#DejaVuSans-20" x="250"/>
      <use xlink:href="#DejaVuSans-31" x="281.787109"/>
      <use xlink:href="#DejaVuSans-30" x="345.410156"/>
      <use xlink:href="#DejaVuSans-30" x="409.033203"/>
      <use xlink:href="#DejaVuSans-33" x="472.65625"/>
     </g>
    </g>
    <g id="patch_112">
     <path d="M 618.56875 283.702603 
L 638.56875 283.702603 
L 638.56875 276.702603 
L 618.56875 276.702603 
z
" style="fill: #9467bd"/>
    </g>
    <g id="text_23">
     <!-- Seed 1004 -->
     <g transform="translate(646.56875 283.702603) scale(0.1 -0.1)">
      <use xlink:href="#DejaVuSans-53"/>
      <use xlink:href="#DejaVuSans-65" x="63.476562"/>
      <use xlink:href="#DejaVuSans-65" x="125"/>
      <use xlink:href="#DejaVuSans-64" x="186.523438"/>
      <use xlink:href="#DejaVuSans-20" x="250"/>
      <use xlink:href="#DejaVuSans-31" x="281.787109"/>
      <use xlink:href="#DejaVuSans-30" x="345.410156"/>
      <use xlink:href="#DejaVuSans-30" x="409.033203"/>
      <use xlink:href="#DejaVuSans-34" x="472.65625"/>
     </g>
    </g>
    <g id="patch_113">
     <path d="M 618.56875 298.380728 
L 638.56875 298.380728 
L 638.56875 291.380728 
L 618.56875 291.380728 
z
" style="fill: #8c564b"/>
    </g>
    <g id="text_24">
     <!-- Seed 1005 -->
     <g transform="translate(646.56875 298.380728) scale(0.1 -0.1)">
      <use xlink:href="#DejaVuSans-53"/>
      <use xlink:href="#DejaVuSans-65" x="63.476562"/>
      <use xlink:href="#DejaVuSans-65" x="125"/>
      <use xlink:href="#DejaVuSans-64" x="186.523438"/>
      <use xlink:href="#DejaVuSans-20" x="250"/>
      <use xlink:href="#DejaVuSans-31" x="281.787109"/>
      <use xlink:href="#DejaVuSans-30" x="345.410156"/>
      <use xlink:href="#DejaVuSans-30" x="409.033203"/>
      <use xlink:href="#DejaVuSans-35" x="472.65625"/>
     </g>
    </g>
    <g id="patch_114">
     <path d="M 618.56875 313.058853 
L 638.56875 313.058853 
L 638.56875 306.058853 
L 618.56875 306.058853 
z
" style="fill: #e377c2"/>
    </g>
    <g id="text_25">
     <!-- Seed 1006 -->
     <g transform="translate(646.56875 313.058853) scale(0.1 -0.1)">
      <use xlink:href="#DejaVuSans-53"/>
      <use xlink:href="#DejaVuSans-65" x="63.476562"/>
      <use xlink:href="#DejaVuSans-65" x="125"/>
      <use xlink:href="#DejaVuSans-64" x="186.523438"/>
      <use xlink:href="#DejaVuSans-20" x="250"/>
      <use xlink:href="#DejaVuSans-31" x="281.787109"/>
      <use xlink:href="#DejaVuSans-30" x="345.410156"/>
      <use xlink:href="#DejaVuSans-30" x="409.033203"/>
      <use xlink:href="#DejaVuSans-36" x="472.65625"/>
     </g>
    </g>
    <g id="patch_115">
     <path d="M 618.56875 327.736978 
L 638.56875 327.736978 
L 638.56875 320.736978 
L 618.56875 320.736978 
z
" style="fill: #7f7f7f"/>
    </g>
    <g id="text_26">
     <!-- Seed 1007 -->
     <g transform="translate(646.56875 327.736978) scale(0.1 -0.1)">
      <use xlink:href="#DejaVuSans-53"/>
      <use xlink:href="#DejaVuSans-65" x="63.476562"/>
      <use xlink:href="#DejaVuSans-65" x="125"/>
      <use xlink:href="#DejaVuSans-64" x="186.523438"/>
      <use xlink:href="#DejaVuSans-20" x="250"/>
      <use xlink:href="#DejaVuSans-31" x="281.787109"/>
      <use xlink:href="#DejaVuSans-30" x="345.410156"/>
      <use xlink:href="#DejaVuSans-30" x="409.033203"/>
      <use xlink:href="#DejaVuSans-37" x="472.65625"/>
     </g>
    </g>
    <g id="patch_116">
     <path d="M 618.56875 342.415103 
L 638.56875 342.415103 
L 638.56875 335.415103 
L 618.56875 335.415103 
z
" style="fill: #bcbd22"/>
    </g>
    <g id="text_27">
     <!-- Seed 1008 -->
     <g transform="translate(646.56875 342.415103) scale(0.1 -0.1)">
      <use xlink:href="#DejaVuSans-53"/>
      <use xlink:href="#DejaVuSans-65" x="63.476562"/>
      <use xlink:href="#DejaVuSans-65" x="125"/>
      <use xlink:href="#DejaVuSans-64" x="186.523438"/>
      <use xlink:href="#DejaVuSans-20" x="250"/>
      <use xlink:href="#DejaVuSans-31" x="281.787109"/>
      <use xlink:href="#DejaVuSans-30" x="345.410156"/>
      <use xlink:href="#DejaVuSans-30" x="409.033203"/>
      <use xlink:href="#DejaVuSans-38" x="472.65625"/>
     </g>
    </g>
    <g id="patch_117">
     <path d="M 618.56875 357.093228 
L 638.56875 357.093228 
L 638.56875 350.093228 
L 618.56875 350.093228 
z
" style="fill: #17becf"/>
    </g>
    <g id="text_28">
     <!-- Seed 1009 -->
     <g transform="translate(646.56875 357.093228) scale(0.1 -0.1)">
      <use xlink:href="#DejaVuSans-53"/>
      <use xlink:href="#DejaVuSans-65" x="63.476562"/>
      <use xlink:href="#DejaVuSans-65" x="125"/>
      <use xlink:href="#DejaVuSans-64" x="186.523438"/>
      <use xlink:href="#DejaVuSans-20" x="250"/>
      <use xlink:href="#DejaVuSans-31" x="281.787109"/>
      <use xlink:href="#DejaVuSans-30" x="345.410156"/>
      <use xlink:href="#DejaVuSans-30" x="409.033203"/>
      <use xlink:href="#DejaVuSans-39" x="472.65625"/>
     </g>
    </g>
   </g>
  </g>
  <g id="text_29">
   <!-- models architecture 0 -->
   <g transform="translate(294.261562 17.758125) scale(0.12 -0.12)">
    <defs>
     <path id="DejaVuSans-73" d="M 2834 3397 
L 2834 2853 
Q 2591 2978 2328 3040 
Q 2066 3103 1784 3103 
Q 1356 3103 1142 2972 
Q 928 2841 928 2578 
Q 928 2378 1081 2264 
Q 1234 2150 1697 2047 
L 1894 2003 
Q 2506 1872 2764 1633 
Q 3022 1394 3022 966 
Q 3022 478 2636 193 
Q 2250 -91 1575 -91 
Q 1294 -91 989 -36 
Q 684 19 347 128 
L 347 722 
Q 666 556 975 473 
Q 1284 391 1588 391 
Q 1994 391 2212 530 
Q 2431 669 2431 922 
Q 2431 1156 2273 1281 
Q 2116 1406 1581 1522 
L 1381 1569 
Q 847 1681 609 1914 
Q 372 2147 372 2553 
Q 372 3047 722 3315 
Q 1072 3584 1716 3584 
Q 2034 3584 2315 3537 
Q 2597 3491 2834 3397 
z
" transform="scale(0.015625)"/>
     <path id="DejaVuSans-68" d="M 3513 2113 
L 3513 0 
L 2938 0 
L 2938 2094 
Q 2938 2591 2744 2837 
Q 2550 3084 2163 3084 
Q 1697 3084 1428 2787 
Q 1159 2491 1159 1978 
L 1159 0 
L 581 0 
L 581 4863 
L 1159 4863 
L 1159 2956 
Q 1366 3272 1645 3428 
Q 1925 3584 2291 3584 
Q 2894 3584 3203 3211 
Q 3513 2838 3513 2113 
z
" transform="scale(0.015625)"/>
     <path id="DejaVuSans-69" d="M 603 3500 
L 1178 3500 
L 1178 0 
L 603 0 
L 603 3500 
z
M 603 4863 
L 1178 4863 
L 1178 4134 
L 603 4134 
L 603 4863 
z
" transform="scale(0.015625)"/>
     <path id="DejaVuSans-75" d="M 544 1381 
L 544 3500 
L 1119 3500 
L 1119 1403 
Q 1119 906 1312 657 
Q 1506 409 1894 409 
Q 2359 409 2629 706 
Q 2900 1003 2900 1516 
L 2900 3500 
L 3475 3500 
L 3475 0 
L 2900 0 
L 2900 538 
Q 2691 219 2414 64 
Q 2138 -91 1772 -91 
Q 1169 -91 856 284 
Q 544 659 544 1381 
z
M 1991 3584 
L 1991 3584 
z
" transform="scale(0.015625)"/>
    </defs>
    <use xlink:href="#DejaVuSans-6d"/>
    <use xlink:href="#DejaVuSans-6f" x="97.412109"/>
    <use xlink:href="#DejaVuSans-64" x="158.59375"/>
    <use xlink:href="#DejaVuSans-65" x="222.070312"/>
    <use xlink:href="#DejaVuSans-6c" x="283.59375"/>
    <use xlink:href="#DejaVuSans-73" x="311.376953"/>
    <use xlink:href="#DejaVuSans-20" x="363.476562"/>
    <use xlink:href="#DejaVuSans-61" x="395.263672"/>
    <use xlink:href="#DejaVuSans-72" x="456.542969"/>
    <use xlink:href="#DejaVuSans-63" x="495.40625"/>
    <use xlink:href="#DejaVuSans-68" x="550.386719"/>
    <use xlink:href="#DejaVuSans-69" x="613.765625"/>
    <use xlink:href="#DejaVuSans-74" x="641.548828"/>
    <use xlink:href="#DejaVuSans-65" x="680.757812"/>
    <use xlink:href="#DejaVuSans-63" x="742.28125"/>
    <use xlink:href="#DejaVuSans-74" x="797.261719"/>
    <use xlink:href="#DejaVuSans-75" x="836.470703"/>
    <use xlink:href="#DejaVuSans-72" x="899.849609"/>
    <use xlink:href="#DejaVuSans-65" x="938.712891"/>
    <use xlink:href="#DejaVuSans-20" x="1000.236328"/>
    <use xlink:href="#DejaVuSans-30" x="1032.023438"/>
   </g>
  </g>
 </g>
 <defs>
  <clipPath id="pd6e50a0fc3">
   <rect x="59.24" y="34.56" width="649.96" height="333.612916"/>
  </clipPath>
 </defs>
</svg>
