<?xml version="1.0" encoding="utf-8" standalone="no"?>
<!DOCTYPE svg PUBLIC "-//W3C//DTD SVG 1.1//EN"
  "http://www.w3.org/Graphics/SVG/1.1/DTD/svg11.dtd">
<svg xmlns:xlink="http://www.w3.org/1999/xlink" width="720pt" height="432pt" viewBox="0 0 720 432" xmlns="http://www.w3.org/2000/svg" version="1.1">
 <metadata>
  <rdf:RDF xmlns:dc="http://purl.org/dc/elements/1.1/" xmlns:cc="http://creativecommons.org/ns#" xmlns:rdf="http://www.w3.org/1999/02/22-rdf-syntax-ns#">
   <cc:Work>
    <dc:type rdf:resource="http://purl.org/dc/dcmitype/StillImage"/>
    <dc:date>2025-11-06T15:01:44.359873</dc:date>
    <dc:format>image/svg+xml</dc:format>
    <dc:creator>
     <cc:Agent>
      <dc:title>Matplotlib v3.9.1, https://matplotlib.org/</dc:title>
     </cc:Agent>
    </dc:creator>
   </cc:Work>
  </rdf:RDF>
 </metadata>
 <defs>
  <style type="text/css">*{stroke-linejoin: round; stroke-linecap: butt}</style>
 </defs>
 <g id="figure_1">
  <g id="patch_1">
   <path d="M 0 432 
L 720 432 
L 720 0 
L 0 0 
z
" style="fill: #ffffff"/>
  </g>
  <g id="axes_1">
   <g id="patch_2">
    <path d="M 65.54 369.318429 
L 709.2 369.318429 
L 709.2 34.56 
L 65.54 34.56 
z
" style="fill: #ffffff"/>
   </g>
   <g id="patch_3">
    <path d="M 94.797273 53.275039 
L 98.879683 53.275039 
L 98.879683 54.581035 
L 94.797273 54.581035 
z
" clip-path="url(#p5e6a0f8d3f)" style="fill: #1f77b4"/>
   </g>
   <g id="patch_4">
    <path d="M 149.229408 53.275039 
L 153.311818 53.275039 
L 153.311818 53.131875 
L 149.229408 53.131875 
z
" clip-path="url(#p5e6a0f8d3f)" style="fill: #1f77b4"/>
   </g>
   <g id="patch_5">
    <path d="M 203.661543 53.275039 
L 207.743953 53.275039 
L 207.743953 69.330525 
L 203.661543 69.330525 
z
" clip-path="url(#p5e6a0f8d3f)" style="fill: #1f77b4"/>
   </g>
   <g id="patch_6">
    <path d="M 258.093679 53.275039 
L 262.176089 53.275039 
L 262.176089 52.326456 
L 258.093679 52.326456 
z
" clip-path="url(#p5e6a0f8d3f)" style="fill: #1f77b4"/>
   </g>
   <g id="patch_7">
    <path d="M 312.525814 53.275039 
L 316.608224 53.275039 
L 316.608224 51.025089 
L 312.525814 51.025089 
z
" clip-path="url(#p5e6a0f8d3f)" style="fill: #1f77b4"/>
   </g>
   <g id="patch_8">
    <path d="M 366.957949 53.275039 
L 371.040359 53.275039 
L 371.040359 50.592622 
L 366.957949 50.592622 
z
" clip-path="url(#p5e6a0f8d3f)" style="fill: #1f77b4"/>
   </g>
   <g id="patch_9">
    <path d="M 421.390085 53.275039 
L 425.472495 53.275039 
L 425.472495 57.812301 
L 421.390085 57.812301 
z
" clip-path="url(#p5e6a0f8d3f)" style="fill: #1f77b4"/>
   </g>
   <g id="patch_10">
    <path d="M 475.82222 53.275039 
L 479.90463 53.275039 
L 479.90463 70.492696 
L 475.82222 70.492696 
z
" clip-path="url(#p5e6a0f8d3f)" style="fill: #1f77b4"/>
   </g>
   <g id="patch_11">
    <path d="M 530.254355 53.275039 
L 534.336765 53.275039 
L 534.336765 70.016917 
L 530.254355 70.016917 
z
" clip-path="url(#p5e6a0f8d3f)" style="fill: #1f77b4"/>
   </g>
   <g id="patch_12">
    <path d="M 584.68649 53.275039 
L 588.768901 53.275039 
L 588.768901 120.553673 
L 584.68649 120.553673 
z
" clip-path="url(#p5e6a0f8d3f)" style="fill: #1f77b4"/>
   </g>
   <g id="patch_13">
    <path d="M 639.118626 53.275039 
L 643.201036 53.275039 
L 643.201036 57.206583 
L 639.118626 57.206583 
z
" clip-path="url(#p5e6a0f8d3f)" style="fill: #1f77b4"/>
   </g>
   <g id="patch_14">
    <path d="M 98.879683 53.275039 
L 102.962093 53.275039 
L 102.962093 58.210712 
L 98.879683 58.210712 
z
" clip-path="url(#p5e6a0f8d3f)" style="fill: #ff7f0e"/>
   </g>
   <g id="patch_15">
    <path d="M 153.311818 53.275039 
L 157.394228 53.275039 
L 157.394228 56.38364 
L 153.311818 56.38364 
z
" clip-path="url(#p5e6a0f8d3f)" style="fill: #ff7f0e"/>
   </g>
   <g id="patch_16">
    <path d="M 207.743953 53.275039 
L 211.826364 53.275039 
L 211.826364 69.557338 
L 207.743953 69.557338 
z
" clip-path="url(#p5e6a0f8d3f)" style="fill: #ff7f0e"/>
   </g>
   <g id="patch_17">
    <path d="M 262.176089 53.275039 
L 266.258499 53.275039 
L 266.258499 60.42793 
L 262.176089 60.42793 
z
" clip-path="url(#p5e6a0f8d3f)" style="fill: #ff7f0e"/>
   </g>
   <g id="patch_18">
    <path d="M 316.608224 53.275039 
L 320.690634 53.275039 
L 320.690634 56.760891 
L 316.608224 56.760891 
z
" clip-path="url(#p5e6a0f8d3f)" style="fill: #ff7f0e"/>
   </g>
   <g id="patch_19">
    <path d="M 371.040359 53.275039 
L 375.12277 53.275039 
L 375.12277 52.98772 
L 371.040359 52.98772 
z
" clip-path="url(#p5e6a0f8d3f)" style="fill: #ff7f0e"/>
   </g>
   <g id="patch_20">
    <path d="M 425.472495 53.275039 
L 429.554905 53.275039 
L 429.554905 61.543482 
L 425.472495 61.543482 
z
" clip-path="url(#p5e6a0f8d3f)" style="fill: #ff7f0e"/>
   </g>
   <g id="patch_21">
    <path d="M 479.90463 53.275039 
L 483.98704 53.275039 
L 483.98704 61.933628 
L 479.90463 61.933628 
z
" clip-path="url(#p5e6a0f8d3f)" style="fill: #ff7f0e"/>
   </g>
   <g id="patch_22">
    <path d="M 534.336765 53.275039 
L 538.419175 53.275039 
L 538.419175 66.064873 
L 534.336765 66.064873 
z
" clip-path="url(#p5e6a0f8d3f)" style="fill: #ff7f0e"/>
   </g>
   <g id="patch_23">
    <path d="M 588.768901 53.275039 
L 592.851311 53.275039 
L 592.851311 68.979063 
L 588.768901 68.979063 
z
" clip-path="url(#p5e6a0f8d3f)" style="fill: #ff7f0e"/>
   </g>
   <g id="patch_24">
    <path d="M 643.201036 53.275039 
L 647.283446 53.275039 
L 647.283446 59.043905 
L 643.201036 59.043905 
z
" clip-path="url(#p5e6a0f8d3f)" style="fill: #ff7f0e"/>
   </g>
   <g id="patch_25">
    <path d="M 102.962093 53.275039 
L 107.044503 53.275039 
L 107.044503 56.356859 
L 102.962093 56.356859 
z
" clip-path="url(#p5e6a0f8d3f)" style="fill: #2ca02c"/>
   </g>
   <g id="patch_26">
    <path d="M 157.394228 53.275039 
L 161.476638 53.275039 
L 161.476638 54.159479 
L 157.394228 54.159479 
z
" clip-path="url(#p5e6a0f8d3f)" style="fill: #2ca02c"/>
   </g>
   <g id="patch_27">
    <path d="M 211.826364 53.275039 
L 215.908774 53.275039 
L 215.908774 68.691413 
L 211.826364 68.691413 
z
" clip-path="url(#p5e6a0f8d3f)" style="fill: #2ca02c"/>
   </g>
   <g id="patch_28">
    <path d="M 266.258499 53.275039 
L 270.340909 53.275039 
L 270.340909 58.177649 
L 266.258499 58.177649 
z
" clip-path="url(#p5e6a0f8d3f)" style="fill: #2ca02c"/>
   </g>
   <g id="patch_29">
    <path d="M 320.690634 53.275039 
L 324.773044 53.275039 
L 324.773044 65.866164 
L 320.690634 65.866164 
z
" clip-path="url(#p5e6a0f8d3f)" style="fill: #2ca02c"/>
   </g>
   <g id="patch_30">
    <path d="M 375.12277 53.275039 
L 379.20518 53.275039 
L 379.20518 50.320843 
L 375.12277 50.320843 
z
" clip-path="url(#p5e6a0f8d3f)" style="fill: #2ca02c"/>
   </g>
   <g id="patch_31">
    <path d="M 429.554905 53.275039 
L 433.637315 53.275039 
L 433.637315 57.886693 
L 429.554905 57.886693 
z
" clip-path="url(#p5e6a0f8d3f)" style="fill: #2ca02c"/>
   </g>
   <g id="patch_32">
    <path d="M 483.98704 53.275039 
L 488.06945 53.275039 
L 488.06945 76.78396 
L 483.98704 76.78396 
z
" clip-path="url(#p5e6a0f8d3f)" style="fill: #2ca02c"/>
   </g>
   <g id="patch_33">
    <path d="M 538.419175 53.275039 
L 542.501586 53.275039 
L 542.501586 59.860896 
L 538.419175 59.860896 
z
" clip-path="url(#p5e6a0f8d3f)" style="fill: #2ca02c"/>
   </g>
   <g id="patch_34">
    <path d="M 592.851311 53.275039 
L 596.933721 53.275039 
L 596.933721 95.234874 
L 592.851311 95.234874 
z
" clip-path="url(#p5e6a0f8d3f)" style="fill: #2ca02c"/>
   </g>
   <g id="patch_35">
    <path d="M 647.283446 53.275039 
L 651.365856 53.275039 
L 651.365856 59.01547 
L 647.283446 59.01547 
z
" clip-path="url(#p5e6a0f8d3f)" style="fill: #2ca02c"/>
   </g>
   <g id="patch_36">
    <path d="M 107.044503 53.275039 
L 111.126913 53.275039 
L 111.126913 60.009019 
L 107.044503 60.009019 
z
" clip-path="url(#p5e6a0f8d3f)" style="fill: #d62728"/>
   </g>
   <g id="patch_37">
    <path d="M 161.476638 53.275039 
L 165.559049 53.275039 
L 165.559049 61.109693 
L 161.476638 61.109693 
z
" clip-path="url(#p5e6a0f8d3f)" style="fill: #d62728"/>
   </g>
   <g id="patch_38">
    <path d="M 215.908774 53.275039 
L 219.991184 53.275039 
L 219.991184 72.991281 
L 215.908774 72.991281 
z
" clip-path="url(#p5e6a0f8d3f)" style="fill: #d62728"/>
   </g>
   <g id="patch_39">
    <path d="M 270.340909 53.275039 
L 274.423319 53.275039 
L 274.423319 65.476679 
L 270.340909 65.476679 
z
" clip-path="url(#p5e6a0f8d3f)" style="fill: #d62728"/>
   </g>
   <g id="patch_40">
    <path d="M 324.773044 53.275039 
L 328.855455 53.275039 
L 328.855455 56.581028 
L 324.773044 56.581028 
z
" clip-path="url(#p5e6a0f8d3f)" style="fill: #d62728"/>
   </g>
   <g id="patch_41">
    <path d="M 379.20518 53.275039 
L 383.28759 53.275039 
L 383.28759 55.229735 
L 379.20518 55.229735 
z
" clip-path="url(#p5e6a0f8d3f)" style="fill: #d62728"/>
   </g>
   <g id="patch_42">
    <path d="M 433.637315 53.275039 
L 437.719725 53.275039 
L 437.719725 61.122587 
L 433.637315 61.122587 
z
" clip-path="url(#p5e6a0f8d3f)" style="fill: #d62728"/>
   </g>
   <g id="patch_43">
    <path d="M 488.06945 53.275039 
L 492.15186 53.275039 
L 492.15186 57.651283 
L 488.06945 57.651283 
z
" clip-path="url(#p5e6a0f8d3f)" style="fill: #d62728"/>
   </g>
   <g id="patch_44">
    <path d="M 542.501586 53.275039 
L 546.583996 53.275039 
L 546.583996 65.797723 
L 542.501586 65.797723 
z
" clip-path="url(#p5e6a0f8d3f)" style="fill: #d62728"/>
   </g>
   <g id="patch_45">
    <path d="M 596.933721 53.275039 
L 601.016131 53.275039 
L 601.016131 117.308191 
L 596.933721 117.308191 
z
" clip-path="url(#p5e6a0f8d3f)" style="fill: #d62728"/>
   </g>
   <g id="patch_46">
    <path d="M 651.365856 53.275039 
L 655.448266 53.275039 
L 655.448266 59.81593 
L 651.365856 59.81593 
z
" clip-path="url(#p5e6a0f8d3f)" style="fill: #d62728"/>
   </g>
   <g id="patch_47">
    <path d="M 111.126913 53.275039 
L 115.209323 53.275039 
L 115.209323 55.406954 
L 111.126913 55.406954 
z
" clip-path="url(#p5e6a0f8d3f)" style="fill: #9467bd"/>
   </g>
   <g id="patch_48">
    <path d="M 165.559049 53.275039 
L 169.641459 53.275039 
L 169.641459 56.497708 
L 165.559049 56.497708 
z
" clip-path="url(#p5e6a0f8d3f)" style="fill: #9467bd"/>
   </g>
   <g id="patch_49">
    <path d="M 219.991184 53.275039 
L 224.073594 53.275039 
L 224.073594 63.683993 
L 219.991184 63.683993 
z
" clip-path="url(#p5e6a0f8d3f)" style="fill: #9467bd"/>
   </g>
   <g id="patch_50">
    <path d="M 274.423319 53.275039 
L 278.505729 53.275039 
L 278.505729 55.286934 
L 274.423319 55.286934 
z
" clip-path="url(#p5e6a0f8d3f)" style="fill: #9467bd"/>
   </g>
   <g id="patch_51">
    <path d="M 328.855455 53.275039 
L 332.937865 53.275039 
L 332.937865 51.520706 
L 328.855455 51.520706 
z
" clip-path="url(#p5e6a0f8d3f)" style="fill: #9467bd"/>
   </g>
   <g id="patch_52">
    <path d="M 383.28759 53.275039 
L 387.37 53.275039 
L 387.37 49.946898 
L 383.28759 49.946898 
z
" clip-path="url(#p5e6a0f8d3f)" style="fill: #9467bd"/>
   </g>
   <g id="patch_53">
    <path d="M 437.719725 53.275039 
L 441.802135 53.275039 
L 441.802135 55.811647 
L 437.719725 55.811647 
z
" clip-path="url(#p5e6a0f8d3f)" style="fill: #9467bd"/>
   </g>
   <g id="patch_54">
    <path d="M 492.15186 53.275039 
L 496.234271 53.275039 
L 496.234271 57.928683 
L 492.15186 57.928683 
z
" clip-path="url(#p5e6a0f8d3f)" style="fill: #9467bd"/>
   </g>
   <g id="patch_55">
    <path d="M 546.583996 53.275039 
L 550.666406 53.275039 
L 550.666406 56.89612 
L 546.583996 56.89612 
z
" clip-path="url(#p5e6a0f8d3f)" style="fill: #9467bd"/>
   </g>
   <g id="patch_56">
    <path d="M 601.016131 53.275039 
L 605.098541 53.275039 
L 605.098541 71.601305 
L 601.016131 71.601305 
z
" clip-path="url(#p5e6a0f8d3f)" style="fill: #9467bd"/>
   </g>
   <g id="patch_57">
    <path d="M 655.448266 53.275039 
L 659.530677 53.275039 
L 659.530677 56.989358 
L 655.448266 56.989358 
z
" clip-path="url(#p5e6a0f8d3f)" style="fill: #9467bd"/>
   </g>
   <g id="patch_58">
    <path d="M 115.209323 53.275039 
L 119.291734 53.275039 
L 119.291734 51.58022 
L 115.209323 51.58022 
z
" clip-path="url(#p5e6a0f8d3f)" style="fill: #8c564b"/>
   </g>
   <g id="patch_59">
    <path d="M 169.641459 53.275039 
L 173.723869 53.275039 
L 173.723869 63.163248 
L 169.641459 63.163248 
z
" clip-path="url(#p5e6a0f8d3f)" style="fill: #8c564b"/>
   </g>
   <g id="patch_60">
    <path d="M 224.073594 53.275039 
L 228.156004 53.275039 
L 228.156004 73.365887 
L 224.073594 73.365887 
z
" clip-path="url(#p5e6a0f8d3f)" style="fill: #8c564b"/>
   </g>
   <g id="patch_61">
    <path d="M 278.505729 53.275039 
L 282.58814 53.275039 
L 282.58814 51.379526 
L 278.505729 51.379526 
z
" clip-path="url(#p5e6a0f8d3f)" style="fill: #8c564b"/>
   </g>
   <g id="patch_62">
    <path d="M 332.937865 53.275039 
L 337.020275 53.275039 
L 337.020275 58.298991 
L 332.937865 58.298991 
z
" clip-path="url(#p5e6a0f8d3f)" style="fill: #8c564b"/>
   </g>
   <g id="patch_63">
    <path d="M 387.37 53.275039 
L 391.45241 53.275039 
L 391.45241 52.968874 
L 387.37 52.968874 
z
" clip-path="url(#p5e6a0f8d3f)" style="fill: #8c564b"/>
   </g>
   <g id="patch_64">
    <path d="M 441.802135 53.275039 
L 445.884545 53.275039 
L 445.884545 62.246405 
L 441.802135 62.246405 
z
" clip-path="url(#p5e6a0f8d3f)" style="fill: #8c564b"/>
   </g>
   <g id="patch_65">
    <path d="M 496.234271 53.275039 
L 500.316681 53.275039 
L 500.316681 59.306096 
L 496.234271 59.306096 
z
" clip-path="url(#p5e6a0f8d3f)" style="fill: #8c564b"/>
   </g>
   <g id="patch_66">
    <path d="M 550.666406 53.275039 
L 554.748816 53.275039 
L 554.748816 75.583435 
L 550.666406 75.583435 
z
" clip-path="url(#p5e6a0f8d3f)" style="fill: #8c564b"/>
   </g>
   <g id="patch_67">
    <path d="M 605.098541 53.275039 
L 609.180951 53.275039 
L 609.180951 79.335116 
L 605.098541 79.335116 
z
" clip-path="url(#p5e6a0f8d3f)" style="fill: #8c564b"/>
   </g>
   <g id="patch_68">
    <path d="M 659.530677 53.275039 
L 663.613087 53.275039 
L 663.613087 58.745013 
L 659.530677 58.745013 
z
" clip-path="url(#p5e6a0f8d3f)" style="fill: #8c564b"/>
   </g>
   <g id="patch_69">
    <path d="M 119.291734 53.275039 
L 123.374144 53.275039 
L 123.374144 54.017308 
L 119.291734 54.017308 
z
" clip-path="url(#p5e6a0f8d3f)" style="fill: #e377c2"/>
   </g>
   <g id="patch_70">
    <path d="M 173.723869 53.275039 
L 177.806279 53.275039 
L 177.806279 54.38464 
L 173.723869 54.38464 
z
" clip-path="url(#p5e6a0f8d3f)" style="fill: #e377c2"/>
   </g>
   <g id="patch_71">
    <path d="M 228.156004 53.275039 
L 232.238414 53.275039 
L 232.238414 64.328725 
L 228.156004 64.328725 
z
" clip-path="url(#p5e6a0f8d3f)" style="fill: #e377c2"/>
   </g>
   <g id="patch_72">
    <path d="M 282.58814 53.275039 
L 286.67055 53.275039 
L 286.67055 54.114514 
L 282.58814 54.114514 
z
" clip-path="url(#p5e6a0f8d3f)" style="fill: #e377c2"/>
   </g>
   <g id="patch_73">
    <path d="M 337.020275 53.275039 
L 341.102685 53.275039 
L 341.102685 53.912497 
L 337.020275 53.912497 
z
" clip-path="url(#p5e6a0f8d3f)" style="fill: #e377c2"/>
   </g>
   <g id="patch_74">
    <path d="M 391.45241 53.275039 
L 395.53482 53.275039 
L 395.53482 49.776292 
L 391.45241 49.776292 
z
" clip-path="url(#p5e6a0f8d3f)" style="fill: #e377c2"/>
   </g>
   <g id="patch_75">
    <path d="M 445.884545 53.275039 
L 449.966956 53.275039 
L 449.966956 55.544497 
L 445.884545 55.544497 
z
" clip-path="url(#p5e6a0f8d3f)" style="fill: #e377c2"/>
   </g>
   <g id="patch_76">
    <path d="M 500.316681 53.275039 
L 504.399091 53.275039 
L 504.399091 65.292848 
L 500.316681 65.292848 
z
" clip-path="url(#p5e6a0f8d3f)" style="fill: #e377c2"/>
   </g>
   <g id="patch_77">
    <path d="M 554.748816 53.275039 
L 558.831226 53.275039 
L 558.831226 56.621365 
L 554.748816 56.621365 
z
" clip-path="url(#p5e6a0f8d3f)" style="fill: #e377c2"/>
   </g>
   <g id="patch_78">
    <path d="M 609.180951 53.275039 
L 613.263362 53.275039 
L 613.263362 69.112969 
L 609.180951 69.112969 
z
" clip-path="url(#p5e6a0f8d3f)" style="fill: #e377c2"/>
   </g>
   <g id="patch_79">
    <path d="M 663.613087 53.275039 
L 667.695497 53.275039 
L 667.695497 56.187576 
L 663.613087 56.187576 
z
" clip-path="url(#p5e6a0f8d3f)" style="fill: #e377c2"/>
   </g>
   <g id="patch_80">
    <path d="M 123.374144 53.275039 
L 127.456554 53.275039 
L 127.456554 58.290725 
L 123.374144 58.290725 
z
" clip-path="url(#p5e6a0f8d3f)" style="fill: #7f7f7f"/>
   </g>
   <g id="patch_81">
    <path d="M 177.806279 53.275039 
L 181.888689 53.275039 
L 181.888689 62.925854 
L 177.806279 62.925854 
z
" clip-path="url(#p5e6a0f8d3f)" style="fill: #7f7f7f"/>
   </g>
   <g id="patch_82">
    <path d="M 232.238414 53.275039 
L 236.320825 53.275039 
L 236.320825 71.988805 
L 232.238414 71.988805 
z
" clip-path="url(#p5e6a0f8d3f)" style="fill: #7f7f7f"/>
   </g>
   <g id="patch_83">
    <path d="M 286.67055 53.275039 
L 290.75296 53.275039 
L 290.75296 63.241277 
L 286.67055 63.241277 
z
" clip-path="url(#p5e6a0f8d3f)" style="fill: #7f7f7f"/>
   </g>
   <g id="patch_84">
    <path d="M 341.102685 53.275039 
L 345.185095 53.275039 
L 345.185095 58.764521 
L 341.102685 58.764521 
z
" clip-path="url(#p5e6a0f8d3f)" style="fill: #7f7f7f"/>
   </g>
   <g id="patch_85">
    <path d="M 395.53482 53.275039 
L 399.61723 53.275039 
L 399.61723 51.580551 
L 395.53482 51.580551 
z
" clip-path="url(#p5e6a0f8d3f)" style="fill: #7f7f7f"/>
   </g>
   <g id="patch_86">
    <path d="M 449.966956 53.275039 
L 454.049366 53.275039 
L 454.049366 62.059929 
L 449.966956 62.059929 
z
" clip-path="url(#p5e6a0f8d3f)" style="fill: #7f7f7f"/>
   </g>
   <g id="patch_87">
    <path d="M 504.399091 53.275039 
L 508.481501 53.275039 
L 508.481501 74.810418 
L 504.399091 74.810418 
z
" clip-path="url(#p5e6a0f8d3f)" style="fill: #7f7f7f"/>
   </g>
   <g id="patch_88">
    <path d="M 558.831226 53.275039 
L 562.913636 53.275039 
L 562.913636 63.846003 
L 558.831226 63.846003 
z
" clip-path="url(#p5e6a0f8d3f)" style="fill: #7f7f7f"/>
   </g>
   <g id="patch_89">
    <path d="M 613.263362 53.275039 
L 617.345772 53.275039 
L 617.345772 354.102136 
L 613.263362 354.102136 
z
" clip-path="url(#p5e6a0f8d3f)" style="fill: #7f7f7f"/>
   </g>
   <g id="patch_90">
    <path d="M 667.695497 53.275039 
L 671.777907 53.275039 
L 671.777907 59.720378 
L 667.695497 59.720378 
z
" clip-path="url(#p5e6a0f8d3f)" style="fill: #7f7f7f"/>
   </g>
   <g id="patch_91">
    <path d="M 127.456554 53.275039 
L 131.538964 53.275039 
L 131.538964 58.205422 
L 127.456554 58.205422 
z
" clip-path="url(#p5e6a0f8d3f)" style="fill: #bcbd22"/>
   </g>
   <g id="patch_92">
    <path d="M 181.888689 53.275039 
L 185.971099 53.275039 
L 185.971099 59.230712 
L 181.888689 59.230712 
z
" clip-path="url(#p5e6a0f8d3f)" style="fill: #bcbd22"/>
   </g>
   <g id="patch_93">
    <path d="M 236.320825 53.275039 
L 240.403235 53.275039 
L 240.403235 69.962362 
L 236.320825 69.962362 
z
" clip-path="url(#p5e6a0f8d3f)" style="fill: #bcbd22"/>
   </g>
   <g id="patch_94">
    <path d="M 290.75296 53.275039 
L 294.83537 53.275039 
L 294.83537 55.298176 
L 290.75296 55.298176 
z
" clip-path="url(#p5e6a0f8d3f)" style="fill: #bcbd22"/>
   </g>
   <g id="patch_95">
    <path d="M 345.185095 53.275039 
L 349.267505 53.275039 
L 349.267505 58.225921 
L 345.185095 58.225921 
z
" clip-path="url(#p5e6a0f8d3f)" style="fill: #bcbd22"/>
   </g>
   <g id="patch_96">
    <path d="M 399.61723 53.275039 
L 403.699641 53.275039 
L 403.699641 52.177011 
L 399.61723 52.177011 
z
" clip-path="url(#p5e6a0f8d3f)" style="fill: #bcbd22"/>
   </g>
   <g id="patch_97">
    <path d="M 454.049366 53.275039 
L 458.131776 53.275039 
L 458.131776 59.964384 
L 454.049366 59.964384 
z
" clip-path="url(#p5e6a0f8d3f)" style="fill: #bcbd22"/>
   </g>
   <g id="patch_98">
    <path d="M 508.481501 53.275039 
L 512.563911 53.275039 
L 512.563911 71.821836 
L 508.481501 71.821836 
z
" clip-path="url(#p5e6a0f8d3f)" style="fill: #bcbd22"/>
   </g>
   <g id="patch_99">
    <path d="M 562.913636 53.275039 
L 566.996047 53.275039 
L 566.996047 61.124902 
L 562.913636 61.124902 
z
" clip-path="url(#p5e6a0f8d3f)" style="fill: #bcbd22"/>
   </g>
   <g id="patch_100">
    <path d="M 617.345772 53.275039 
L 621.428182 53.275039 
L 621.428182 102.419174 
L 617.345772 102.419174 
z
" clip-path="url(#p5e6a0f8d3f)" style="fill: #bcbd22"/>
   </g>
   <g id="patch_101">
    <path d="M 671.777907 53.275039 
L 675.860317 53.275039 
L 675.860317 59.129208 
L 671.777907 59.129208 
z
" clip-path="url(#p5e6a0f8d3f)" style="fill: #bcbd22"/>
   </g>
   <g id="patch_102">
    <path d="M 131.538964 53.275039 
L 135.621374 53.275039 
L 135.621374 60.470251 
L 131.538964 60.470251 
z
" clip-path="url(#p5e6a0f8d3f)" style="fill: #17becf"/>
   </g>
   <g id="patch_103">
    <path d="M 185.971099 53.275039 
L 190.05351 53.275039 
L 190.05351 62.153167 
L 185.971099 62.153167 
z
" clip-path="url(#p5e6a0f8d3f)" style="fill: #17becf"/>
   </g>
   <g id="patch_104">
    <path d="M 240.403235 53.275039 
L 244.485645 53.275039 
L 244.485645 76.182871 
L 240.403235 76.182871 
z
" clip-path="url(#p5e6a0f8d3f)" style="fill: #17becf"/>
   </g>
   <g id="patch_105">
    <path d="M 294.83537 53.275039 
L 298.91778 53.275039 
L 298.91778 66.965845 
L 294.83537 66.965845 
z
" clip-path="url(#p5e6a0f8d3f)" style="fill: #17becf"/>
   </g>
   <g id="patch_106">
    <path d="M 349.267505 53.275039 
L 353.349915 53.275039 
L 353.349915 57.40364 
L 349.267505 57.40364 
z
" clip-path="url(#p5e6a0f8d3f)" style="fill: #17becf"/>
   </g>
   <g id="patch_107">
    <path d="M 403.699641 53.275039 
L 407.782051 53.275039 
L 407.782051 59.912144 
L 403.699641 59.912144 
z
" clip-path="url(#p5e6a0f8d3f)" style="fill: #17becf"/>
   </g>
   <g id="patch_108">
    <path d="M 458.131776 53.275039 
L 462.214186 53.275039 
L 462.214186 61.096468 
L 458.131776 61.096468 
z
" clip-path="url(#p5e6a0f8d3f)" style="fill: #17becf"/>
   </g>
   <g id="patch_109">
    <path d="M 512.563911 53.275039 
L 516.646321 53.275039 
L 516.646321 59.377843 
L 512.563911 59.377843 
z
" clip-path="url(#p5e6a0f8d3f)" style="fill: #17becf"/>
   </g>
   <g id="patch_110">
    <path d="M 566.996047 53.275039 
L 571.078457 53.275039 
L 571.078457 75.138074 
L 566.996047 75.138074 
z
" clip-path="url(#p5e6a0f8d3f)" style="fill: #17becf"/>
   </g>
   <g id="patch_111">
    <path d="M 621.428182 53.275039 
L 625.510592 53.275039 
L 625.510592 71.600974 
L 621.428182 71.600974 
z
" clip-path="url(#p5e6a0f8d3f)" style="fill: #17becf"/>
   </g>
   <g id="patch_112">
    <path d="M 675.860317 53.275039 
L 679.942727 53.275039 
L 679.942727 58.088048 
L 675.860317 58.088048 
z
" clip-path="url(#p5e6a0f8d3f)" style="fill: #17becf"/>
   </g>
   <g id="matplotlib.axis_1">
    <g id="xtick_1">
     <g id="line2d_1">
      <defs>
       <path id="me40049b4cc" d="M 0 0 
L 0 3.5 
" style="stroke: #000000; stroke-width: 0.8"/>
      </defs>
      <g>
       <use xlink:href="#me40049b4cc" x="115.209323" y="369.318429" style="stroke: #000000; stroke-width: 0.8"/>
      </g>
     </g>
     <g id="text_1">
      <!-- w41z1 -->
      <g transform="translate(105.665039 404.682249) rotate(-45) scale(0.1 -0.1)">
       <defs>
        <path id="DejaVuSans-77" d="M 269 3500 
L 844 3500 
L 1563 769 
L 2278 3500 
L 2956 3500 
L 3675 769 
L 4391 3500 
L 4966 3500 
L 4050 0 
L 3372 0 
L 2619 2869 
L 1863 0 
L 1184 0 
L 269 3500 
z
" transform="scale(0.015625)"/>
        <path id="DejaVuSans-34" d="M 2419 4116 
L 825 1625 
L 2419 1625 
L 2419 4116 
z
M 2253 4666 
L 3047 4666 
L 3047 1625 
L 3713 1625 
L 3713 1100 
L 3047 1100 
L 3047 0 
L 2419 0 
L 2419 1100 
L 313 1100 
L 313 1709 
L 2253 4666 
z
" transform="scale(0.015625)"/>
        <path id="DejaVuSans-31" d="M 794 531 
L 1825 531 
L 1825 4091 
L 703 3866 
L 703 4441 
L 1819 4666 
L 2450 4666 
L 2450 531 
L 3481 531 
L 3481 0 
L 794 0 
L 794 531 
z
" transform="scale(0.015625)"/>
        <path id="DejaVuSans-7a" d="M 353 3500 
L 3084 3500 
L 3084 2975 
L 922 459 
L 3084 459 
L 3084 0 
L 275 0 
L 275 525 
L 2438 3041 
L 353 3041 
L 353 3500 
z
" transform="scale(0.015625)"/>
       </defs>
       <use xlink:href="#DejaVuSans-77"/>
       <use xlink:href="#DejaVuSans-34" x="81.787109"/>
       <use xlink:href="#DejaVuSans-31" x="145.410156"/>
       <use xlink:href="#DejaVuSans-7a" x="209.033203"/>
       <use xlink:href="#DejaVuSans-31" x="261.523438"/>
      </g>
     </g>
    </g>
    <g id="xtick_2">
     <g id="line2d_2">
      <g>
       <use xlink:href="#me40049b4cc" x="169.641459" y="369.318429" style="stroke: #000000; stroke-width: 0.8"/>
      </g>
     </g>
     <g id="text_2">
      <!-- 702zt -->
      <g transform="translate(161.602539 401.671521) rotate(-45) scale(0.1 -0.1)">
       <defs>
        <path id="DejaVuSans-37" d="M 525 4666 
L 3525 4666 
L 3525 4397 
L 1831 0 
L 1172 0 
L 2766 4134 
L 525 4134 
L 525 4666 
z
" transform="scale(0.015625)"/>
        <path id="DejaVuSans-30" d="M 2034 4250 
Q 1547 4250 1301 3770 
Q 1056 3291 1056 2328 
Q 1056 1369 1301 889 
Q 1547 409 2034 409 
Q 2525 409 2770 889 
Q 3016 1369 3016 2328 
Q 3016 3291 2770 3770 
Q 2525 4250 2034 4250 
z
M 2034 4750 
Q 2819 4750 3233 4129 
Q 3647 3509 3647 2328 
Q 3647 1150 3233 529 
Q 2819 -91 2034 -91 
Q 1250 -91 836 529 
Q 422 1150 422 2328 
Q 422 3509 836 4129 
Q 1250 4750 2034 4750 
z
" transform="scale(0.015625)"/>
        <path id="DejaVuSans-32" d="M 1228 531 
L 3431 531 
L 3431 0 
L 469 0 
L 469 531 
Q 828 903 1448 1529 
Q 2069 2156 2228 2338 
Q 2531 2678 2651 2914 
Q 2772 3150 2772 3378 
Q 2772 3750 2511 3984 
Q 2250 4219 1831 4219 
Q 1534 4219 1204 4116 
Q 875 4013 500 3803 
L 500 4441 
Q 881 4594 1212 4672 
Q 1544 4750 1819 4750 
Q 2544 4750 2975 4387 
Q 3406 4025 3406 3419 
Q 3406 3131 3298 2873 
Q 3191 2616 2906 2266 
Q 2828 2175 2409 1742 
Q 1991 1309 1228 531 
z
" transform="scale(0.015625)"/>
        <path id="DejaVuSans-74" d="M 1172 4494 
L 1172 3500 
L 2356 3500 
L 2356 3053 
L 1172 3053 
L 1172 1153 
Q 1172 725 1289 603 
Q 1406 481 1766 481 
L 2356 481 
L 2356 0 
L 1766 0 
Q 1100 0 847 248 
Q 594 497 594 1153 
L 594 3053 
L 172 3053 
L 172 3500 
L 594 3500 
L 594 4494 
L 1172 4494 
z
" transform="scale(0.015625)"/>
       </defs>
       <use xlink:href="#DejaVuSans-37"/>
       <use xlink:href="#DejaVuSans-30" x="63.623047"/>
       <use xlink:href="#DejaVuSans-32" x="127.246094"/>
       <use xlink:href="#DejaVuSans-7a" x="190.869141"/>
       <use xlink:href="#DejaVuSans-74" x="243.359375"/>
      </g>
     </g>
    </g>
    <g id="xtick_3">
     <g id="line2d_3">
      <g>
       <use xlink:href="#me40049b4cc" x="224.073594" y="369.318429" style="stroke: #000000; stroke-width: 0.8"/>
      </g>
     </g>
     <g id="text_3">
      <!-- 7yo77 -->
      <g transform="translate(215.020418 403.700034) rotate(-45) scale(0.1 -0.1)">
       <defs>
        <path id="DejaVuSans-79" d="M 2059 -325 
Q 1816 -950 1584 -1140 
Q 1353 -1331 966 -1331 
L 506 -1331 
L 506 -850 
L 844 -850 
Q 1081 -850 1212 -737 
Q 1344 -625 1503 -206 
L 1606 56 
L 191 3500 
L 800 3500 
L 1894 763 
L 2988 3500 
L 3597 3500 
L 2059 -325 
z
" transform="scale(0.015625)"/>
        <path id="DejaVuSans-6f" d="M 1959 3097 
Q 1497 3097 1228 2736 
Q 959 2375 959 1747 
Q 959 1119 1226 758 
Q 1494 397 1959 397 
Q 2419 397 2687 759 
Q 2956 1122 2956 1747 
Q 2956 2369 2687 2733 
Q 2419 3097 1959 3097 
z
M 1959 3584 
Q 2709 3584 3137 3096 
Q 3566 2609 3566 1747 
Q 3566 888 3137 398 
Q 2709 -91 1959 -91 
Q 1206 -91 779 398 
Q 353 888 353 1747 
Q 353 2609 779 3096 
Q 1206 3584 1959 3584 
z
" transform="scale(0.015625)"/>
       </defs>
       <use xlink:href="#DejaVuSans-37"/>
       <use xlink:href="#DejaVuSans-79" x="63.623047"/>
       <use xlink:href="#DejaVuSans-6f" x="122.802734"/>
       <use xlink:href="#DejaVuSans-37" x="183.984375"/>
       <use xlink:href="#DejaVuSans-37" x="247.607422"/>
      </g>
     </g>
    </g>
    <g id="xtick_4">
     <g id="line2d_4">
      <g>
       <use xlink:href="#me40049b4cc" x="278.505729" y="369.318429" style="stroke: #000000; stroke-width: 0.8"/>
      </g>
     </g>
     <g id="text_4">
      <!-- n3w39 -->
      <g transform="translate(268.576403 405.452333) rotate(-45) scale(0.1 -0.1)">
       <defs>
        <path id="DejaVuSans-6e" d="M 3513 2113 
L 3513 0 
L 2938 0 
L 2938 2094 
Q 2938 2591 2744 2837 
Q 2550 3084 2163 3084 
Q 1697 3084 1428 2787 
Q 1159 2491 1159 1978 
L 1159 0 
L 581 0 
L 581 3500 
L 1159 3500 
L 1159 2956 
Q 1366 3272 1645 3428 
Q 1925 3584 2291 3584 
Q 2894 3584 3203 3211 
Q 3513 2838 3513 2113 
z
" transform="scale(0.015625)"/>
        <path id="DejaVuSans-33" d="M 2597 2516 
Q 3050 2419 3304 2112 
Q 3559 1806 3559 1356 
Q 3559 666 3084 287 
Q 2609 -91 1734 -91 
Q 1441 -91 1130 -33 
Q 819 25 488 141 
L 488 750 
Q 750 597 1062 519 
Q 1375 441 1716 441 
Q 2309 441 2620 675 
Q 2931 909 2931 1356 
Q 2931 1769 2642 2001 
Q 2353 2234 1838 2234 
L 1294 2234 
L 1294 2753 
L 1863 2753 
Q 2328 2753 2575 2939 
Q 2822 3125 2822 3475 
Q 2822 3834 2567 4026 
Q 2313 4219 1838 4219 
Q 1578 4219 1281 4162 
Q 984 4106 628 3988 
L 628 4550 
Q 988 4650 1302 4700 
Q 1616 4750 1894 4750 
Q 2613 4750 3031 4423 
Q 3450 4097 3450 3541 
Q 3450 3153 3228 2886 
Q 3006 2619 2597 2516 
z
" transform="scale(0.015625)"/>
        <path id="DejaVuSans-39" d="M 703 97 
L 703 672 
Q 941 559 1184 500 
Q 1428 441 1663 441 
Q 2288 441 2617 861 
Q 2947 1281 2994 2138 
Q 2813 1869 2534 1725 
Q 2256 1581 1919 1581 
Q 1219 1581 811 2004 
Q 403 2428 403 3163 
Q 403 3881 828 4315 
Q 1253 4750 1959 4750 
Q 2769 4750 3195 4129 
Q 3622 3509 3622 2328 
Q 3622 1225 3098 567 
Q 2575 -91 1691 -91 
Q 1453 -91 1209 -44 
Q 966 3 703 97 
z
M 1959 2075 
Q 2384 2075 2632 2365 
Q 2881 2656 2881 3163 
Q 2881 3666 2632 3958 
Q 2384 4250 1959 4250 
Q 1534 4250 1286 3958 
Q 1038 3666 1038 3163 
Q 1038 2656 1286 2365 
Q 1534 2075 1959 2075 
z
" transform="scale(0.015625)"/>
       </defs>
       <use xlink:href="#DejaVuSans-6e"/>
       <use xlink:href="#DejaVuSans-33" x="63.378906"/>
       <use xlink:href="#DejaVuSans-77" x="127.001953"/>
       <use xlink:href="#DejaVuSans-33" x="208.789062"/>
       <use xlink:href="#DejaVuSans-39" x="272.412109"/>
      </g>
     </g>
    </g>
    <g id="xtick_5">
     <g id="line2d_5">
      <g>
       <use xlink:href="#me40049b4cc" x="332.937865" y="369.318429" style="stroke: #000000; stroke-width: 0.8"/>
      </g>
     </g>
     <g id="text_5">
      <!-- 694ih -->
      <g transform="translate(324.917727 401.633956) rotate(-45) scale(0.1 -0.1)">
       <defs>
        <path id="DejaVuSans-36" d="M 2113 2584 
Q 1688 2584 1439 2293 
Q 1191 2003 1191 1497 
Q 1191 994 1439 701 
Q 1688 409 2113 409 
Q 2538 409 2786 701 
Q 3034 994 3034 1497 
Q 3034 2003 2786 2293 
Q 2538 2584 2113 2584 
z
M 3366 4563 
L 3366 3988 
Q 3128 4100 2886 4159 
Q 2644 4219 2406 4219 
Q 1781 4219 1451 3797 
Q 1122 3375 1075 2522 
Q 1259 2794 1537 2939 
Q 1816 3084 2150 3084 
Q 2853 3084 3261 2657 
Q 3669 2231 3669 1497 
Q 3669 778 3244 343 
Q 2819 -91 2113 -91 
Q 1303 -91 875 529 
Q 447 1150 447 2328 
Q 447 3434 972 4092 
Q 1497 4750 2381 4750 
Q 2619 4750 2861 4703 
Q 3103 4656 3366 4563 
z
" transform="scale(0.015625)"/>
        <path id="DejaVuSans-69" d="M 603 3500 
L 1178 3500 
L 1178 0 
L 603 0 
L 603 3500 
z
M 603 4863 
L 1178 4863 
L 1178 4134 
L 603 4134 
L 603 4863 
z
" transform="scale(0.015625)"/>
        <path id="DejaVuSans-68" d="M 3513 2113 
L 3513 0 
L 2938 0 
L 2938 2094 
Q 2938 2591 2744 2837 
Q 2550 3084 2163 3084 
Q 1697 3084 1428 2787 
Q 1159 2491 1159 1978 
L 1159 0 
L 581 0 
L 581 4863 
L 1159 4863 
L 1159 2956 
Q 1366 3272 1645 3428 
Q 1925 3584 2291 3584 
Q 2894 3584 3203 3211 
Q 3513 2838 3513 2113 
z
" transform="scale(0.015625)"/>
       </defs>
       <use xlink:href="#DejaVuSans-36"/>
       <use xlink:href="#DejaVuSans-39" x="63.623047"/>
       <use xlink:href="#DejaVuSans-34" x="127.246094"/>
       <use xlink:href="#DejaVuSans-69" x="190.869141"/>
       <use xlink:href="#DejaVuSans-68" x="218.652344"/>
      </g>
     </g>
    </g>
    <g id="xtick_6">
     <g id="line2d_6">
      <g>
       <use xlink:href="#me40049b4cc" x="387.37" y="369.318429" style="stroke: #000000; stroke-width: 0.8"/>
      </g>
     </g>
     <g id="text_6">
      <!-- 04z7z -->
      <g transform="translate(378.861517 402.610647) rotate(-45) scale(0.1 -0.1)">
       <use xlink:href="#DejaVuSans-30"/>
       <use xlink:href="#DejaVuSans-34" x="63.623047"/>
       <use xlink:href="#DejaVuSans-7a" x="127.246094"/>
       <use xlink:href="#DejaVuSans-37" x="179.736328"/>
       <use xlink:href="#DejaVuSans-7a" x="243.359375"/>
      </g>
     </g>
    </g>
    <g id="xtick_7">
     <g id="line2d_7">
      <g>
       <use xlink:href="#me40049b4cc" x="441.802135" y="369.318429" style="stroke: #000000; stroke-width: 0.8"/>
      </g>
     </g>
     <g id="text_7">
      <!-- m608l -->
      <g transform="translate(432.578811 404.040329) rotate(-45) scale(0.1 -0.1)">
       <defs>
        <path id="DejaVuSans-6d" d="M 3328 2828 
Q 3544 3216 3844 3400 
Q 4144 3584 4550 3584 
Q 5097 3584 5394 3201 
Q 5691 2819 5691 2113 
L 5691 0 
L 5113 0 
L 5113 2094 
Q 5113 2597 4934 2840 
Q 4756 3084 4391 3084 
Q 3944 3084 3684 2787 
Q 3425 2491 3425 1978 
L 3425 0 
L 2847 0 
L 2847 2094 
Q 2847 2600 2669 2842 
Q 2491 3084 2119 3084 
Q 1678 3084 1418 2786 
Q 1159 2488 1159 1978 
L 1159 0 
L 581 0 
L 581 3500 
L 1159 3500 
L 1159 2956 
Q 1356 3278 1631 3431 
Q 1906 3584 2284 3584 
Q 2666 3584 2933 3390 
Q 3200 3197 3328 2828 
z
" transform="scale(0.015625)"/>
        <path id="DejaVuSans-38" d="M 2034 2216 
Q 1584 2216 1326 1975 
Q 1069 1734 1069 1313 
Q 1069 891 1326 650 
Q 1584 409 2034 409 
Q 2484 409 2743 651 
Q 3003 894 3003 1313 
Q 3003 1734 2745 1975 
Q 2488 2216 2034 2216 
z
M 1403 2484 
Q 997 2584 770 2862 
Q 544 3141 544 3541 
Q 544 4100 942 4425 
Q 1341 4750 2034 4750 
Q 2731 4750 3128 4425 
Q 3525 4100 3525 3541 
Q 3525 3141 3298 2862 
Q 3072 2584 2669 2484 
Q 3125 2378 3379 2068 
Q 3634 1759 3634 1313 
Q 3634 634 3220 271 
Q 2806 -91 2034 -91 
Q 1263 -91 848 271 
Q 434 634 434 1313 
Q 434 1759 690 2068 
Q 947 2378 1403 2484 
z
M 1172 3481 
Q 1172 3119 1398 2916 
Q 1625 2713 2034 2713 
Q 2441 2713 2670 2916 
Q 2900 3119 2900 3481 
Q 2900 3844 2670 4047 
Q 2441 4250 2034 4250 
Q 1625 4250 1398 4047 
Q 1172 3844 1172 3481 
z
" transform="scale(0.015625)"/>
        <path id="DejaVuSans-6c" d="M 603 4863 
L 1178 4863 
L 1178 0 
L 603 0 
L 603 4863 
z
" transform="scale(0.015625)"/>
       </defs>
       <use xlink:href="#DejaVuSans-6d"/>
       <use xlink:href="#DejaVuSans-36" x="97.412109"/>
       <use xlink:href="#DejaVuSans-30" x="161.035156"/>
       <use xlink:href="#DejaVuSans-38" x="224.658203"/>
       <use xlink:href="#DejaVuSans-6c" x="288.28125"/>
      </g>
     </g>
    </g>
    <g id="xtick_8">
     <g id="line2d_8">
      <g>
       <use xlink:href="#me40049b4cc" x="496.234271" y="369.318429" style="stroke: #000000; stroke-width: 0.8"/>
      </g>
     </g>
     <g id="text_8">
      <!-- l332j -->
      <g transform="translate(489.472562 399.117098) rotate(-45) scale(0.1 -0.1)">
       <defs>
        <path id="DejaVuSans-6a" d="M 603 3500 
L 1178 3500 
L 1178 -63 
Q 1178 -731 923 -1031 
Q 669 -1331 103 -1331 
L -116 -1331 
L -116 -844 
L 38 -844 
Q 366 -844 484 -692 
Q 603 -541 603 -63 
L 603 3500 
z
M 603 4863 
L 1178 4863 
L 1178 4134 
L 603 4134 
L 603 4863 
z
" transform="scale(0.015625)"/>
       </defs>
       <use xlink:href="#DejaVuSans-6c"/>
       <use xlink:href="#DejaVuSans-33" x="27.783203"/>
       <use xlink:href="#DejaVuSans-33" x="91.40625"/>
       <use xlink:href="#DejaVuSans-32" x="155.029297"/>
       <use xlink:href="#DejaVuSans-6a" x="218.652344"/>
      </g>
     </g>
    </g>
    <g id="xtick_9">
     <g id="line2d_9">
      <g>
       <use xlink:href="#me40049b4cc" x="550.666406" y="369.318429" style="stroke: #000000; stroke-width: 0.8"/>
      </g>
     </g>
     <g id="text_9">
      <!-- j0s91 -->
      <g transform="translate(543.045121 400.836251) rotate(-45) scale(0.1 -0.1)">
       <defs>
        <path id="DejaVuSans-73" d="M 2834 3397 
L 2834 2853 
Q 2591 2978 2328 3040 
Q 2066 3103 1784 3103 
Q 1356 3103 1142 2972 
Q 928 2841 928 2578 
Q 928 2378 1081 2264 
Q 1234 2150 1697 2047 
L 1894 2003 
Q 2506 1872 2764 1633 
Q 3022 1394 3022 966 
Q 3022 478 2636 193 
Q 2250 -91 1575 -91 
Q 1294 -91 989 -36 
Q 684 19 347 128 
L 347 722 
Q 666 556 975 473 
Q 1284 391 1588 391 
Q 1994 391 2212 530 
Q 2431 669 2431 922 
Q 2431 1156 2273 1281 
Q 2116 1406 1581 1522 
L 1381 1569 
Q 847 1681 609 1914 
Q 372 2147 372 2553 
Q 372 3047 722 3315 
Q 1072 3584 1716 3584 
Q 2034 3584 2315 3537 
Q 2597 3491 2834 3397 
z
" transform="scale(0.015625)"/>
       </defs>
       <use xlink:href="#DejaVuSans-6a"/>
       <use xlink:href="#DejaVuSans-30" x="27.783203"/>
       <use xlink:href="#DejaVuSans-73" x="91.40625"/>
       <use xlink:href="#DejaVuSans-39" x="143.505859"/>
       <use xlink:href="#DejaVuSans-31" x="207.128906"/>
      </g>
     </g>
    </g>
    <g id="xtick_10">
     <g id="line2d_10">
      <g>
       <use xlink:href="#me40049b4cc" x="605.098541" y="369.318429" style="stroke: #000000; stroke-width: 0.8"/>
      </g>
     </g>
     <g id="text_10">
      <!-- 2n6j7 -->
      <g transform="translate(597.078404 401.633956) rotate(-45) scale(0.1 -0.1)">
       <use xlink:href="#DejaVuSans-32"/>
       <use xlink:href="#DejaVuSans-6e" x="63.623047"/>
       <use xlink:href="#DejaVuSans-36" x="127.001953"/>
       <use xlink:href="#DejaVuSans-6a" x="190.625"/>
       <use xlink:href="#DejaVuSans-37" x="218.408203"/>
      </g>
     </g>
    </g>
    <g id="xtick_11">
     <g id="line2d_11">
      <g>
       <use xlink:href="#me40049b4cc" x="659.530677" y="369.318429" style="stroke: #000000; stroke-width: 0.8"/>
      </g>
     </g>
     <g id="text_11">
      <!-- q05o3 -->
      <g transform="translate(650.325583 404.003869) rotate(-45) scale(0.1 -0.1)">
       <defs>
        <path id="DejaVuSans-71" d="M 947 1747 
Q 947 1113 1208 752 
Q 1469 391 1925 391 
Q 2381 391 2643 752 
Q 2906 1113 2906 1747 
Q 2906 2381 2643 2742 
Q 2381 3103 1925 3103 
Q 1469 3103 1208 2742 
Q 947 2381 947 1747 
z
M 2906 525 
Q 2725 213 2448 61 
Q 2172 -91 1784 -91 
Q 1150 -91 751 415 
Q 353 922 353 1747 
Q 353 2572 751 3078 
Q 1150 3584 1784 3584 
Q 2172 3584 2448 3432 
Q 2725 3281 2906 2969 
L 2906 3500 
L 3481 3500 
L 3481 -1331 
L 2906 -1331 
L 2906 525 
z
" transform="scale(0.015625)"/>
        <path id="DejaVuSans-35" d="M 691 4666 
L 3169 4666 
L 3169 4134 
L 1269 4134 
L 1269 2991 
Q 1406 3038 1543 3061 
Q 1681 3084 1819 3084 
Q 2600 3084 3056 2656 
Q 3513 2228 3513 1497 
Q 3513 744 3044 326 
Q 2575 -91 1722 -91 
Q 1428 -91 1123 -41 
Q 819 9 494 109 
L 494 744 
Q 775 591 1075 516 
Q 1375 441 1709 441 
Q 2250 441 2565 725 
Q 2881 1009 2881 1497 
Q 2881 1984 2565 2268 
Q 2250 2553 1709 2553 
Q 1456 2553 1204 2497 
Q 953 2441 691 2322 
L 691 4666 
z
" transform="scale(0.015625)"/>
       </defs>
       <use xlink:href="#DejaVuSans-71"/>
       <use xlink:href="#DejaVuSans-30" x="63.476562"/>
       <use xlink:href="#DejaVuSans-35" x="127.099609"/>
       <use xlink:href="#DejaVuSans-6f" x="190.722656"/>
       <use xlink:href="#DejaVuSans-33" x="251.904297"/>
      </g>
     </g>
    </g>
    <g id="text_12">
     <!-- Model ID -->
     <g transform="translate(365.442656 418.521331) scale(0.1 -0.1)">
      <defs>
       <path id="DejaVuSans-4d" d="M 628 4666 
L 1569 4666 
L 2759 1491 
L 3956 4666 
L 4897 4666 
L 4897 0 
L 4281 0 
L 4281 4097 
L 3078 897 
L 2444 897 
L 1241 4097 
L 1241 0 
L 628 0 
L 628 4666 
z
" transform="scale(0.015625)"/>
       <path id="DejaVuSans-64" d="M 2906 2969 
L 2906 4863 
L 3481 4863 
L 3481 0 
L 2906 0 
L 2906 525 
Q 2725 213 2448 61 
Q 2172 -91 1784 -91 
Q 1150 -91 751 415 
Q 353 922 353 1747 
Q 353 2572 751 3078 
Q 1150 3584 1784 3584 
Q 2172 3584 2448 3432 
Q 2725 3281 2906 2969 
z
M 947 1747 
Q 947 1113 1208 752 
Q 1469 391 1925 391 
Q 2381 391 2643 752 
Q 2906 1113 2906 1747 
Q 2906 2381 2643 2742 
Q 2381 3103 1925 3103 
Q 1469 3103 1208 2742 
Q 947 2381 947 1747 
z
" transform="scale(0.015625)"/>
       <path id="DejaVuSans-65" d="M 3597 1894 
L 3597 1613 
L 953 1613 
Q 991 1019 1311 708 
Q 1631 397 2203 397 
Q 2534 397 2845 478 
Q 3156 559 3463 722 
L 3463 178 
Q 3153 47 2828 -22 
Q 2503 -91 2169 -91 
Q 1331 -91 842 396 
Q 353 884 353 1716 
Q 353 2575 817 3079 
Q 1281 3584 2069 3584 
Q 2775 3584 3186 3129 
Q 3597 2675 3597 1894 
z
M 3022 2063 
Q 3016 2534 2758 2815 
Q 2500 3097 2075 3097 
Q 1594 3097 1305 2825 
Q 1016 2553 972 2059 
L 3022 2063 
z
" transform="scale(0.015625)"/>
       <path id="DejaVuSans-20" transform="scale(0.015625)"/>
       <path id="DejaVuSans-49" d="M 628 4666 
L 1259 4666 
L 1259 0 
L 628 0 
L 628 4666 
z
" transform="scale(0.015625)"/>
       <path id="DejaVuSans-44" d="M 1259 4147 
L 1259 519 
L 2022 519 
Q 2988 519 3436 956 
Q 3884 1394 3884 2338 
Q 3884 3275 3436 3711 
Q 2988 4147 2022 4147 
L 1259 4147 
z
M 628 4666 
L 1925 4666 
Q 3281 4666 3915 4102 
Q 4550 3538 4550 2338 
Q 4550 1131 3912 565 
Q 3275 0 1925 0 
L 628 0 
L 628 4666 
z
" transform="scale(0.015625)"/>
      </defs>
      <use xlink:href="#DejaVuSans-4d"/>
      <use xlink:href="#DejaVuSans-6f" x="86.279297"/>
      <use xlink:href="#DejaVuSans-64" x="147.460938"/>
      <use xlink:href="#DejaVuSans-65" x="210.9375"/>
      <use xlink:href="#DejaVuSans-6c" x="272.460938"/>
      <use xlink:href="#DejaVuSans-20" x="300.244141"/>
      <use xlink:href="#DejaVuSans-49" x="332.03125"/>
      <use xlink:href="#DejaVuSans-44" x="361.523438"/>
     </g>
    </g>
   </g>
   <g id="matplotlib.axis_2">
    <g id="ytick_1">
     <g id="line2d_12">
      <path d="M 65.54 317.780568 
L 709.2 317.780568 
" clip-path="url(#p5e6a0f8d3f)" style="fill: none; stroke-dasharray: 2.96,1.28; stroke-dashoffset: 0; stroke: #b0b0b0; stroke-opacity: 0.5; stroke-width: 0.8"/>
     </g>
     <g id="line2d_13">
      <defs>
       <path id="m5a188f5322" d="M 0 0 
L -3.5 0 
" style="stroke: #000000; stroke-width: 0.8"/>
      </defs>
      <g>
       <use xlink:href="#m5a188f5322" x="65.54" y="317.780568" style="stroke: #000000; stroke-width: 0.8"/>
      </g>
     </g>
     <g id="text_13">
      <!-- −8000 -->
      <g transform="translate(24.710313 321.579787) scale(0.1 -0.1)">
       <defs>
        <path id="DejaVuSans-2212" d="M 678 2272 
L 4684 2272 
L 4684 1741 
L 678 1741 
L 678 2272 
z
" transform="scale(0.015625)"/>
       </defs>
       <use xlink:href="#DejaVuSans-2212"/>
       <use xlink:href="#DejaVuSans-38" x="83.789062"/>
       <use xlink:href="#DejaVuSans-30" x="147.412109"/>
       <use xlink:href="#DejaVuSans-30" x="211.035156"/>
       <use xlink:href="#DejaVuSans-30" x="274.658203"/>
      </g>
     </g>
    </g>
    <g id="ytick_2">
     <g id="line2d_14">
      <path d="M 65.54 251.654186 
L 709.2 251.654186 
" clip-path="url(#p5e6a0f8d3f)" style="fill: none; stroke-dasharray: 2.96,1.28; stroke-dashoffset: 0; stroke: #b0b0b0; stroke-opacity: 0.5; stroke-width: 0.8"/>
     </g>
     <g id="line2d_15">
      <g>
       <use xlink:href="#m5a188f5322" x="65.54" y="251.654186" style="stroke: #000000; stroke-width: 0.8"/>
      </g>
     </g>
     <g id="text_14">
      <!-- −6000 -->
      <g transform="translate(24.710313 255.453404) scale(0.1 -0.1)">
       <use xlink:href="#DejaVuSans-2212"/>
       <use xlink:href="#DejaVuSans-36" x="83.789062"/>
       <use xlink:href="#DejaVuSans-30" x="147.412109"/>
       <use xlink:href="#DejaVuSans-30" x="211.035156"/>
       <use xlink:href="#DejaVuSans-30" x="274.658203"/>
      </g>
     </g>
    </g>
    <g id="ytick_3">
     <g id="line2d_16">
      <path d="M 65.54 185.527803 
L 709.2 185.527803 
" clip-path="url(#p5e6a0f8d3f)" style="fill: none; stroke-dasharray: 2.96,1.28; stroke-dashoffset: 0; stroke: #b0b0b0; stroke-opacity: 0.5; stroke-width: 0.8"/>
     </g>
     <g id="line2d_17">
      <g>
       <use xlink:href="#m5a188f5322" x="65.54" y="185.527803" style="stroke: #000000; stroke-width: 0.8"/>
      </g>
     </g>
     <g id="text_15">
      <!-- −4000 -->
      <g transform="translate(24.710313 189.327022) scale(0.1 -0.1)">
       <use xlink:href="#DejaVuSans-2212"/>
       <use xlink:href="#DejaVuSans-34" x="83.789062"/>
       <use xlink:href="#DejaVuSans-30" x="147.412109"/>
       <use xlink:href="#DejaVuSans-30" x="211.035156"/>
       <use xlink:href="#DejaVuSans-30" x="274.658203"/>
      </g>
     </g>
    </g>
    <g id="ytick_4">
     <g id="line2d_18">
      <path d="M 65.54 119.401421 
L 709.2 119.401421 
" clip-path="url(#p5e6a0f8d3f)" style="fill: none; stroke-dasharray: 2.96,1.28; stroke-dashoffset: 0; stroke: #b0b0b0; stroke-opacity: 0.5; stroke-width: 0.8"/>
     </g>
     <g id="line2d_19">
      <g>
       <use xlink:href="#m5a188f5322" x="65.54" y="119.401421" style="stroke: #000000; stroke-width: 0.8"/>
      </g>
     </g>
     <g id="text_16">
      <!-- −2000 -->
      <g transform="translate(24.710313 123.20064) scale(0.1 -0.1)">
       <use xlink:href="#DejaVuSans-2212"/>
       <use xlink:href="#DejaVuSans-32" x="83.789062"/>
       <use xlink:href="#DejaVuSans-30" x="147.412109"/>
       <use xlink:href="#DejaVuSans-30" x="211.035156"/>
       <use xlink:href="#DejaVuSans-30" x="274.658203"/>
      </g>
     </g>
    </g>
    <g id="ytick_5">
     <g id="line2d_20">
      <path d="M 65.54 53.275039 
L 709.2 53.275039 
" clip-path="url(#p5e6a0f8d3f)" style="fill: none; stroke-dasharray: 2.96,1.28; stroke-dashoffset: 0; stroke: #b0b0b0; stroke-opacity: 0.5; stroke-width: 0.8"/>
     </g>
     <g id="line2d_21">
      <g>
       <use xlink:href="#m5a188f5322" x="65.54" y="53.275039" style="stroke: #000000; stroke-width: 0.8"/>
      </g>
     </g>
     <g id="text_17">
      <!-- 0 -->
      <g transform="translate(52.1775 57.074258) scale(0.1 -0.1)">
       <use xlink:href="#DejaVuSans-30"/>
      </g>
     </g>
    </g>
    <g id="text_18">
     <!-- Reward -->
     <g transform="translate(18.630625 220.560308) rotate(-90) scale(0.1 -0.1)">
      <defs>
       <path id="DejaVuSans-52" d="M 2841 2188 
Q 3044 2119 3236 1894 
Q 3428 1669 3622 1275 
L 4263 0 
L 3584 0 
L 2988 1197 
Q 2756 1666 2539 1819 
Q 2322 1972 1947 1972 
L 1259 1972 
L 1259 0 
L 628 0 
L 628 4666 
L 2053 4666 
Q 2853 4666 3247 4331 
Q 3641 3997 3641 3322 
Q 3641 2881 3436 2590 
Q 3231 2300 2841 2188 
z
M 1259 4147 
L 1259 2491 
L 2053 2491 
Q 2509 2491 2742 2702 
Q 2975 2913 2975 3322 
Q 2975 3731 2742 3939 
Q 2509 4147 2053 4147 
L 1259 4147 
z
" transform="scale(0.015625)"/>
       <path id="DejaVuSans-61" d="M 2194 1759 
Q 1497 1759 1228 1600 
Q 959 1441 959 1056 
Q 959 750 1161 570 
Q 1363 391 1709 391 
Q 2188 391 2477 730 
Q 2766 1069 2766 1631 
L 2766 1759 
L 2194 1759 
z
M 3341 1997 
L 3341 0 
L 2766 0 
L 2766 531 
Q 2569 213 2275 61 
Q 1981 -91 1556 -91 
Q 1019 -91 701 211 
Q 384 513 384 1019 
Q 384 1609 779 1909 
Q 1175 2209 1959 2209 
L 2766 2209 
L 2766 2266 
Q 2766 2663 2505 2880 
Q 2244 3097 1772 3097 
Q 1472 3097 1187 3025 
Q 903 2953 641 2809 
L 641 3341 
Q 956 3463 1253 3523 
Q 1550 3584 1831 3584 
Q 2591 3584 2966 3190 
Q 3341 2797 3341 1997 
z
" transform="scale(0.015625)"/>
       <path id="DejaVuSans-72" d="M 2631 2963 
Q 2534 3019 2420 3045 
Q 2306 3072 2169 3072 
Q 1681 3072 1420 2755 
Q 1159 2438 1159 1844 
L 1159 0 
L 581 0 
L 581 3500 
L 1159 3500 
L 1159 2956 
Q 1341 3275 1631 3429 
Q 1922 3584 2338 3584 
Q 2397 3584 2469 3576 
Q 2541 3569 2628 3553 
L 2631 2963 
z
" transform="scale(0.015625)"/>
      </defs>
      <use xlink:href="#DejaVuSans-52"/>
      <use xlink:href="#DejaVuSans-65" x="64.982422"/>
      <use xlink:href="#DejaVuSans-77" x="126.505859"/>
      <use xlink:href="#DejaVuSans-61" x="208.292969"/>
      <use xlink:href="#DejaVuSans-72" x="269.572266"/>
      <use xlink:href="#DejaVuSans-64" x="308.935547"/>
     </g>
    </g>
   </g>
   <g id="patch_113">
    <path d="M 65.54 369.318429 
L 65.54 34.56 
" style="fill: none; stroke: #000000; stroke-width: 0.8; stroke-linejoin: miter; stroke-linecap: square"/>
   </g>
   <g id="patch_114">
    <path d="M 709.2 369.318429 
L 709.2 34.56 
" style="fill: none; stroke: #000000; stroke-width: 0.8; stroke-linejoin: miter; stroke-linecap: square"/>
   </g>
   <g id="patch_115">
    <path d="M 65.54 369.318429 
L 709.2 369.318429 
" style="fill: none; stroke: #000000; stroke-width: 0.8; stroke-linejoin: miter; stroke-linecap: square"/>
   </g>
   <g id="patch_116">
    <path d="M 65.54 34.56 
L 709.2 34.56 
" style="fill: none; stroke: #000000; stroke-width: 0.8; stroke-linejoin: miter; stroke-linecap: square"/>
   </g>
   <g id="legend_1">
    <g id="patch_117">
     <path d="M 72.54 364.318429 
L 158.17125 364.318429 
Q 160.17125 364.318429 160.17125 362.318429 
L 160.17125 201.859054 
Q 160.17125 199.859054 158.17125 199.859054 
L 72.54 199.859054 
Q 70.54 199.859054 70.54 201.859054 
L 70.54 362.318429 
Q 70.54 364.318429 72.54 364.318429 
z
" style="fill: #ffffff; opacity: 0.8; stroke: #cccccc; stroke-linejoin: miter"/>
    </g>
    <g id="text_19">
     <!-- Env Seed -->
     <g transform="translate(91.9775 211.457491) scale(0.1 -0.1)">
      <defs>
       <path id="DejaVuSans-45" d="M 628 4666 
L 3578 4666 
L 3578 4134 
L 1259 4134 
L 1259 2753 
L 3481 2753 
L 3481 2222 
L 1259 2222 
L 1259 531 
L 3634 531 
L 3634 0 
L 628 0 
L 628 4666 
z
" transform="scale(0.015625)"/>
       <path id="DejaVuSans-76" d="M 191 3500 
L 800 3500 
L 1894 563 
L 2988 3500 
L 3597 3500 
L 2284 0 
L 1503 0 
L 191 3500 
z
" transform="scale(0.015625)"/>
       <path id="DejaVuSans-53" d="M 3425 4513 
L 3425 3897 
Q 3066 4069 2747 4153 
Q 2428 4238 2131 4238 
Q 1616 4238 1336 4038 
Q 1056 3838 1056 3469 
Q 1056 3159 1242 3001 
Q 1428 2844 1947 2747 
L 2328 2669 
Q 3034 2534 3370 2195 
Q 3706 1856 3706 1288 
Q 3706 609 3251 259 
Q 2797 -91 1919 -91 
Q 1588 -91 1214 -16 
Q 841 59 441 206 
L 441 856 
Q 825 641 1194 531 
Q 1563 422 1919 422 
Q 2459 422 2753 634 
Q 3047 847 3047 1241 
Q 3047 1584 2836 1778 
Q 2625 1972 2144 2069 
L 1759 2144 
Q 1053 2284 737 2584 
Q 422 2884 422 3419 
Q 422 4038 858 4394 
Q 1294 4750 2059 4750 
Q 2388 4750 2728 4690 
Q 3069 4631 3425 4513 
z
" transform="scale(0.015625)"/>
      </defs>
      <use xlink:href="#DejaVuSans-45"/>
      <use xlink:href="#DejaVuSans-6e" x="63.183594"/>
      <use xlink:href="#DejaVuSans-76" x="126.5625"/>
      <use xlink:href="#DejaVuSans-20" x="185.742188"/>
      <use xlink:href="#DejaVuSans-53" x="217.529297"/>
      <use xlink:href="#DejaVuSans-65" x="281.005859"/>
      <use xlink:href="#DejaVuSans-65" x="342.529297"/>
      <use xlink:href="#DejaVuSans-64" x="404.052734"/>
     </g>
    </g>
    <g id="patch_118">
     <path d="M 74.54 226.135616 
L 94.54 226.135616 
L 94.54 219.135616 
L 74.54 219.135616 
z
" style="fill: #1f77b4"/>
    </g>
    <g id="text_20">
     <!-- Seed 1000 -->
     <g transform="translate(102.54 226.135616) scale(0.1 -0.1)">
      <use xlink:href="#DejaVuSans-53"/>
      <use xlink:href="#DejaVuSans-65" x="63.476562"/>
      <use xlink:href="#DejaVuSans-65" x="125"/>
      <use xlink:href="#DejaVuSans-64" x="186.523438"/>
      <use xlink:href="#DejaVuSans-20" x="250"/>
      <use xlink:href="#DejaVuSans-31" x="281.787109"/>
      <use xlink:href="#DejaVuSans-30" x="345.410156"/>
      <use xlink:href="#DejaVuSans-30" x="409.033203"/>
      <use xlink:href="#DejaVuSans-30" x="472.65625"/>
     </g>
    </g>
    <g id="patch_119">
     <path d="M 74.54 240.813741 
L 94.54 240.813741 
L 94.54 233.813741 
L 74.54 233.813741 
z
" style="fill: #ff7f0e"/>
    </g>
    <g id="text_21">
     <!-- Seed 1001 -->
     <g transform="translate(102.54 240.813741) scale(0.1 -0.1)">
      <use xlink:href="#DejaVuSans-53"/>
      <use xlink:href="#DejaVuSans-65" x="63.476562"/>
      <use xlink:href="#DejaVuSans-65" x="125"/>
      <use xlink:href="#DejaVuSans-64" x="186.523438"/>
      <use xlink:href="#DejaVuSans-20" x="250"/>
      <use xlink:href="#DejaVuSans-31" x="281.787109"/>
      <use xlink:href="#DejaVuSans-30" x="345.410156"/>
      <use xlink:href="#DejaVuSans-30" x="409.033203"/>
      <use xlink:href="#DejaVuSans-31" x="472.65625"/>
     </g>
    </g>
    <g id="patch_120">
     <path d="M 74.54 255.491866 
L 94.54 255.491866 
L 94.54 248.491866 
L 74.54 248.491866 
z
" style="fill: #2ca02c"/>
    </g>
    <g id="text_22">
     <!-- Seed 1002 -->
     <g transform="translate(102.54 255.491866) scale(0.1 -0.1)">
      <use xlink:href="#DejaVuSans-53"/>
      <use xlink:href="#DejaVuSans-65" x="63.476562"/>
      <use xlink:href="#DejaVuSans-65" x="125"/>
      <use xlink:href="#DejaVuSans-64" x="186.523438"/>
      <use xlink:href="#DejaVuSans-20" x="250"/>
      <use xlink:href="#DejaVuSans-31" x="281.787109"/>
      <use xlink:href="#DejaVuSans-30" x="345.410156"/>
      <use xlink:href="#DejaVuSans-30" x="409.033203"/>
      <use xlink:href="#DejaVuSans-32" x="472.65625"/>
     </g>
    </g>
    <g id="patch_121">
     <path d="M 74.54 270.169991 
L 94.54 270.169991 
L 94.54 263.169991 
L 74.54 263.169991 
z
" style="fill: #d62728"/>
    </g>
    <g id="text_23">
     <!-- Seed 1003 -->
     <g transform="translate(102.54 270.169991) scale(0.1 -0.1)">
      <use xlink:href="#DejaVuSans-53"/>
      <use xlink:href="#DejaVuSans-65" x="63.476562"/>
      <use xlink:href="#DejaVuSans-65" x="125"/>
      <use xlink:href="#DejaVuSans-64" x="186.523438"/>
      <use xlink:href="#DejaVuSans-20" x="250"/>
      <use xlink:href="#DejaVuSans-31" x="281.787109"/>
      <use xlink:href="#DejaVuSans-30" x="345.410156"/>
      <use xlink:href="#DejaVuSans-30" x="409.033203"/>
      <use xlink:href="#DejaVuSans-33" x="472.65625"/>
     </g>
    </g>
    <g id="patch_122">
     <path d="M 74.54 284.848116 
L 94.54 284.848116 
L 94.54 277.848116 
L 74.54 277.848116 
z
" style="fill: #9467bd"/>
    </g>
    <g id="text_24">
     <!-- Seed 1004 -->
     <g transform="translate(102.54 284.848116) scale(0.1 -0.1)">
      <use xlink:href="#DejaVuSans-53"/>
      <use xlink:href="#DejaVuSans-65" x="63.476562"/>
      <use xlink:href="#DejaVuSans-65" x="125"/>
      <use xlink:href="#DejaVuSans-64" x="186.523438"/>
      <use xlink:href="#DejaVuSans-20" x="250"/>
      <use xlink:href="#DejaVuSans-31" x="281.787109"/>
      <use xlink:href="#DejaVuSans-30" x="345.410156"/>
      <use xlink:href="#DejaVuSans-30" x="409.033203"/>
      <use xlink:href="#DejaVuSans-34" x="472.65625"/>
     </g>
    </g>
    <g id="patch_123">
     <path d="M 74.54 299.526241 
L 94.54 299.526241 
L 94.54 292.526241 
L 74.54 292.526241 
z
" style="fill: #8c564b"/>
    </g>
    <g id="text_25">
     <!-- Seed 1005 -->
     <g transform="translate(102.54 299.526241) scale(0.1 -0.1)">
      <use xlink:href="#DejaVuSans-53"/>
      <use xlink:href="#DejaVuSans-65" x="63.476562"/>
      <use xlink:href="#DejaVuSans-65" x="125"/>
      <use xlink:href="#DejaVuSans-64" x="186.523438"/>
      <use xlink:href="#DejaVuSans-20" x="250"/>
      <use xlink:href="#DejaVuSans-31" x="281.787109"/>
      <use xlink:href="#DejaVuSans-30" x="345.410156"/>
      <use xlink:href="#DejaVuSans-30" x="409.033203"/>
      <use xlink:href="#DejaVuSans-35" x="472.65625"/>
     </g>
    </g>
    <g id="patch_124">
     <path d="M 74.54 314.204366 
L 94.54 314.204366 
L 94.54 307.204366 
L 74.54 307.204366 
z
" style="fill: #e377c2"/>
    </g>
    <g id="text_26">
     <!-- Seed 1006 -->
     <g transform="translate(102.54 314.204366) scale(0.1 -0.1)">
      <use xlink:href="#DejaVuSans-53"/>
      <use xlink:href="#DejaVuSans-65" x="63.476562"/>
      <use xlink:href="#DejaVuSans-65" x="125"/>
      <use xlink:href="#DejaVuSans-64" x="186.523438"/>
      <use xlink:href="#DejaVuSans-20" x="250"/>
      <use xlink:href="#DejaVuSans-31" x="281.787109"/>
      <use xlink:href="#DejaVuSans-30" x="345.410156"/>
      <use xlink:href="#DejaVuSans-30" x="409.033203"/>
      <use xlink:href="#DejaVuSans-36" x="472.65625"/>
     </g>
    </g>
    <g id="patch_125">
     <path d="M 74.54 328.882491 
L 94.54 328.882491 
L 94.54 321.882491 
L 74.54 321.882491 
z
" style="fill: #7f7f7f"/>
    </g>
    <g id="text_27">
     <!-- Seed 1007 -->
     <g transform="translate(102.54 328.882491) scale(0.1 -0.1)">
      <use xlink:href="#DejaVuSans-53"/>
      <use xlink:href="#DejaVuSans-65" x="63.476562"/>
      <use xlink:href="#DejaVuSans-65" x="125"/>
      <use xlink:href="#DejaVuSans-64" x="186.523438"/>
      <use xlink:href="#DejaVuSans-20" x="250"/>
      <use xlink:href="#DejaVuSans-31" x="281.787109"/>
      <use xlink:href="#DejaVuSans-30" x="345.410156"/>
      <use xlink:href="#DejaVuSans-30" x="409.033203"/>
      <use xlink:href="#DejaVuSans-37" x="472.65625"/>
     </g>
    </g>
    <g id="patch_126">
     <path d="M 74.54 343.560616 
L 94.54 343.560616 
L 94.54 336.560616 
L 74.54 336.560616 
z
" style="fill: #bcbd22"/>
    </g>
    <g id="text_28">
     <!-- Seed 1008 -->
     <g transform="translate(102.54 343.560616) scale(0.1 -0.1)">
      <use xlink:href="#DejaVuSans-53"/>
      <use xlink:href="#DejaVuSans-65" x="63.476562"/>
      <use xlink:href="#DejaVuSans-65" x="125"/>
      <use xlink:href="#DejaVuSans-64" x="186.523438"/>
      <use xlink:href="#DejaVuSans-20" x="250"/>
      <use xlink:href="#DejaVuSans-31" x="281.787109"/>
      <use xlink:href="#DejaVuSans-30" x="345.410156"/>
      <use xlink:href="#DejaVuSans-30" x="409.033203"/>
      <use xlink:href="#DejaVuSans-38" x="472.65625"/>
     </g>
    </g>
    <g id="patch_127">
     <path d="M 74.54 358.238741 
L 94.54 358.238741 
L 94.54 351.238741 
L 74.54 351.238741 
z
" style="fill: #17becf"/>
    </g>
    <g id="text_29">
     <!-- Seed 1009 -->
     <g transform="translate(102.54 358.238741) scale(0.1 -0.1)">
      <use xlink:href="#DejaVuSans-53"/>
      <use xlink:href="#DejaVuSans-65" x="63.476562"/>
      <use xlink:href="#DejaVuSans-65" x="125"/>
      <use xlink:href="#DejaVuSans-64" x="186.523438"/>
      <use xlink:href="#DejaVuSans-20" x="250"/>
      <use xlink:href="#DejaVuSans-31" x="281.787109"/>
      <use xlink:href="#DejaVuSans-30" x="345.410156"/>
      <use xlink:href="#DejaVuSans-30" x="409.033203"/>
      <use xlink:href="#DejaVuSans-39" x="472.65625"/>
     </g>
    </g>
   </g>
  </g>
  <g id="text_30">
   <!-- models architecture A -->
   <g transform="translate(293.974688 17.758125) scale(0.12 -0.12)">
    <defs>
     <path id="DejaVuSans-63" d="M 3122 3366 
L 3122 2828 
Q 2878 2963 2633 3030 
Q 2388 3097 2138 3097 
Q 1578 3097 1268 2742 
Q 959 2388 959 1747 
Q 959 1106 1268 751 
Q 1578 397 2138 397 
Q 2388 397 2633 464 
Q 2878 531 3122 666 
L 3122 134 
Q 2881 22 2623 -34 
Q 2366 -91 2075 -91 
Q 1284 -91 818 406 
Q 353 903 353 1747 
Q 353 2603 823 3093 
Q 1294 3584 2113 3584 
Q 2378 3584 2631 3529 
Q 2884 3475 3122 3366 
z
" transform="scale(0.015625)"/>
     <path id="DejaVuSans-75" d="M 544 1381 
L 544 3500 
L 1119 3500 
L 1119 1403 
Q 1119 906 1312 657 
Q 1506 409 1894 409 
Q 2359 409 2629 706 
Q 2900 1003 2900 1516 
L 2900 3500 
L 3475 3500 
L 3475 0 
L 2900 0 
L 2900 538 
Q 2691 219 2414 64 
Q 2138 -91 1772 -91 
Q 1169 -91 856 284 
Q 544 659 544 1381 
z
M 1991 3584 
L 1991 3584 
z
" transform="scale(0.015625)"/>
     <path id="DejaVuSans-41" d="M 2188 4044 
L 1331 1722 
L 3047 1722 
L 2188 4044 
z
M 1831 4666 
L 2547 4666 
L 4325 0 
L 3669 0 
L 3244 1197 
L 1141 1197 
L 716 0 
L 50 0 
L 1831 4666 
z
" transform="scale(0.015625)"/>
    </defs>
    <use xlink:href="#DejaVuSans-6d"/>
    <use xlink:href="#DejaVuSans-6f" x="97.412109"/>
    <use xlink:href="#DejaVuSans-64" x="158.59375"/>
    <use xlink:href="#DejaVuSans-65" x="222.070312"/>
    <use xlink:href="#DejaVuSans-6c" x="283.59375"/>
    <use xlink:href="#DejaVuSans-73" x="311.376953"/>
    <use xlink:href="#DejaVuSans-20" x="363.476562"/>
    <use xlink:href="#DejaVuSans-61" x="395.263672"/>
    <use xlink:href="#DejaVuSans-72" x="456.542969"/>
    <use xlink:href="#DejaVuSans-63" x="495.40625"/>
    <use xlink:href="#DejaVuSans-68" x="550.386719"/>
    <use xlink:href="#DejaVuSans-69" x="613.765625"/>
    <use xlink:href="#DejaVuSans-74" x="641.548828"/>
    <use xlink:href="#DejaVuSans-65" x="680.757812"/>
    <use xlink:href="#DejaVuSans-63" x="742.28125"/>
    <use xlink:href="#DejaVuSans-74" x="797.261719"/>
    <use xlink:href="#DejaVuSans-75" x="836.470703"/>
    <use xlink:href="#DejaVuSans-72" x="899.849609"/>
    <use xlink:href="#DejaVuSans-65" x="938.712891"/>
    <use xlink:href="#DejaVuSans-20" x="1000.236328"/>
    <use xlink:href="#DejaVuSans-41" x="1032.023438"/>
   </g>
  </g>
 </g>
 <defs>
  <clipPath id="p5e6a0f8d3f">
   <rect x="65.54" y="34.56" width="643.66" height="334.758429"/>
  </clipPath>
 </defs>
</svg>
