<?xml version="1.0" encoding="utf-8" standalone="no"?>
<!DOCTYPE svg PUBLIC "-//W3C//DTD SVG 1.1//EN"
  "http://www.w3.org/Graphics/SVG/1.1/DTD/svg11.dtd">
<svg xmlns:xlink="http://www.w3.org/1999/xlink" width="1296pt" height="360pt" viewBox="0 0 1296 360" xmlns="http://www.w3.org/2000/svg" version="1.1">
 <metadata>
  <rdf:RDF xmlns:dc="http://purl.org/dc/elements/1.1/" xmlns:cc="http://creativecommons.org/ns#" xmlns:rdf="http://www.w3.org/1999/02/22-rdf-syntax-ns#">
   <cc:Work>
    <dc:type rdf:resource="http://purl.org/dc/dcmitype/StillImage"/>
    <dc:date>2025-11-06T14:55:56.473153</dc:date>
    <dc:format>image/svg+xml</dc:format>
    <dc:creator>
     <cc:Agent>
      <dc:title>Matplotlib v3.9.1, https://matplotlib.org/</dc:title>
     </cc:Agent>
    </dc:creator>
   </cc:Work>
  </rdf:RDF>
 </metadata>
 <defs>
  <style type="text/css">*{stroke-linejoin: round; stroke-linecap: butt}</style>
 </defs>
 <g id="figure_1">
  <g id="patch_1">
   <path d="M 0 360 
L 1296 360 
L 1296 0 
L 0 0 
z
" style="fill: #ffffff"/>
  </g>
  <g id="axes_1">
   <g id="patch_2">
    <path d="M 47.72 318.04 
L 428.34 318.04 
L 428.34 50.64 
L 47.72 50.64 
z
" style="fill: #ffffff"/>
   </g>
   <g id="matplotlib.axis_1">
    <g id="xtick_1">
     <g id="line2d_1">
      <path d="M 57.959314 318.04 
L 57.959314 50.64 
" clip-path="url(#p9571cddd60)" style="fill: none; stroke: #b0b0b0; stroke-width: 0.8; stroke-linecap: square"/>
     </g>
     <g id="line2d_2">
      <defs>
       <path id="m134112e193" d="M 0 0 
L 0 3.5 
" style="stroke: #000000; stroke-width: 0.8"/>
      </defs>
      <g>
       <use xlink:href="#m134112e193" x="57.959314" y="318.04" style="stroke: #000000; stroke-width: 0.8"/>
      </g>
     </g>
     <g id="text_1">
      <!-- 0 -->
      <g transform="translate(54.778064 332.638438) scale(0.1 -0.1)">
       <defs>
        <path id="DejaVuSans-30" d="M 2034 4250 
Q 1547 4250 1301 3770 
Q 1056 3291 1056 2328 
Q 1056 1369 1301 889 
Q 1547 409 2034 409 
Q 2525 409 2770 889 
Q 3016 1369 3016 2328 
Q 3016 3291 2770 3770 
Q 2525 4250 2034 4250 
z
M 2034 4750 
Q 2819 4750 3233 4129 
Q 3647 3509 3647 2328 
Q 3647 1150 3233 529 
Q 2819 -91 2034 -91 
Q 1250 -91 836 529 
Q 422 1150 422 2328 
Q 422 3509 836 4129 
Q 1250 4750 2034 4750 
z
" transform="scale(0.015625)"/>
       </defs>
       <use xlink:href="#DejaVuSans-30"/>
      </g>
     </g>
    </g>
    <g id="xtick_2">
     <g id="line2d_3">
      <path d="M 128.575269 318.04 
L 128.575269 50.64 
" clip-path="url(#p9571cddd60)" style="fill: none; stroke: #b0b0b0; stroke-width: 0.8; stroke-linecap: square"/>
     </g>
     <g id="line2d_4">
      <g>
       <use xlink:href="#m134112e193" x="128.575269" y="318.04" style="stroke: #000000; stroke-width: 0.8"/>
      </g>
     </g>
     <g id="text_2">
      <!-- 10 -->
      <g transform="translate(122.212769 332.638438) scale(0.1 -0.1)">
       <defs>
        <path id="DejaVuSans-31" d="M 794 531 
L 1825 531 
L 1825 4091 
L 703 3866 
L 703 4441 
L 1819 4666 
L 2450 4666 
L 2450 531 
L 3481 531 
L 3481 0 
L 794 0 
L 794 531 
z
" transform="scale(0.015625)"/>
       </defs>
       <use xlink:href="#DejaVuSans-31"/>
       <use xlink:href="#DejaVuSans-30" x="63.623047"/>
      </g>
     </g>
    </g>
    <g id="xtick_3">
     <g id="line2d_5">
      <path d="M 199.191224 318.04 
L 199.191224 50.64 
" clip-path="url(#p9571cddd60)" style="fill: none; stroke: #b0b0b0; stroke-width: 0.8; stroke-linecap: square"/>
     </g>
     <g id="line2d_6">
      <g>
       <use xlink:href="#m134112e193" x="199.191224" y="318.04" style="stroke: #000000; stroke-width: 0.8"/>
      </g>
     </g>
     <g id="text_3">
      <!-- 20 -->
      <g transform="translate(192.828724 332.638438) scale(0.1 -0.1)">
       <defs>
        <path id="DejaVuSans-32" d="M 1228 531 
L 3431 531 
L 3431 0 
L 469 0 
L 469 531 
Q 828 903 1448 1529 
Q 2069 2156 2228 2338 
Q 2531 2678 2651 2914 
Q 2772 3150 2772 3378 
Q 2772 3750 2511 3984 
Q 2250 4219 1831 4219 
Q 1534 4219 1204 4116 
Q 875 4013 500 3803 
L 500 4441 
Q 881 4594 1212 4672 
Q 1544 4750 1819 4750 
Q 2544 4750 2975 4387 
Q 3406 4025 3406 3419 
Q 3406 3131 3298 2873 
Q 3191 2616 2906 2266 
Q 2828 2175 2409 1742 
Q 1991 1309 1228 531 
z
" transform="scale(0.015625)"/>
       </defs>
       <use xlink:href="#DejaVuSans-32"/>
       <use xlink:href="#DejaVuSans-30" x="63.623047"/>
      </g>
     </g>
    </g>
    <g id="xtick_4">
     <g id="line2d_7">
      <path d="M 269.80718 318.04 
L 269.80718 50.64 
" clip-path="url(#p9571cddd60)" style="fill: none; stroke: #b0b0b0; stroke-width: 0.8; stroke-linecap: square"/>
     </g>
     <g id="line2d_8">
      <g>
       <use xlink:href="#m134112e193" x="269.80718" y="318.04" style="stroke: #000000; stroke-width: 0.8"/>
      </g>
     </g>
     <g id="text_4">
      <!-- 30 -->
      <g transform="translate(263.44468 332.638438) scale(0.1 -0.1)">
       <defs>
        <path id="DejaVuSans-33" d="M 2597 2516 
Q 3050 2419 3304 2112 
Q 3559 1806 3559 1356 
Q 3559 666 3084 287 
Q 2609 -91 1734 -91 
Q 1441 -91 1130 -33 
Q 819 25 488 141 
L 488 750 
Q 750 597 1062 519 
Q 1375 441 1716 441 
Q 2309 441 2620 675 
Q 2931 909 2931 1356 
Q 2931 1769 2642 2001 
Q 2353 2234 1838 2234 
L 1294 2234 
L 1294 2753 
L 1863 2753 
Q 2328 2753 2575 2939 
Q 2822 3125 2822 3475 
Q 2822 3834 2567 4026 
Q 2313 4219 1838 4219 
Q 1578 4219 1281 4162 
Q 984 4106 628 3988 
L 628 4550 
Q 988 4650 1302 4700 
Q 1616 4750 1894 4750 
Q 2613 4750 3031 4423 
Q 3450 4097 3450 3541 
Q 3450 3153 3228 2886 
Q 3006 2619 2597 2516 
z
" transform="scale(0.015625)"/>
       </defs>
       <use xlink:href="#DejaVuSans-33"/>
       <use xlink:href="#DejaVuSans-30" x="63.623047"/>
      </g>
     </g>
    </g>
    <g id="xtick_5">
     <g id="line2d_9">
      <path d="M 340.423135 318.04 
L 340.423135 50.64 
" clip-path="url(#p9571cddd60)" style="fill: none; stroke: #b0b0b0; stroke-width: 0.8; stroke-linecap: square"/>
     </g>
     <g id="line2d_10">
      <g>
       <use xlink:href="#m134112e193" x="340.423135" y="318.04" style="stroke: #000000; stroke-width: 0.8"/>
      </g>
     </g>
     <g id="text_5">
      <!-- 40 -->
      <g transform="translate(334.060635 332.638438) scale(0.1 -0.1)">
       <defs>
        <path id="DejaVuSans-34" d="M 2419 4116 
L 825 1625 
L 2419 1625 
L 2419 4116 
z
M 2253 4666 
L 3047 4666 
L 3047 1625 
L 3713 1625 
L 3713 1100 
L 3047 1100 
L 3047 0 
L 2419 0 
L 2419 1100 
L 313 1100 
L 313 1709 
L 2253 4666 
z
" transform="scale(0.015625)"/>
       </defs>
       <use xlink:href="#DejaVuSans-34"/>
       <use xlink:href="#DejaVuSans-30" x="63.623047"/>
      </g>
     </g>
    </g>
    <g id="xtick_6">
     <g id="line2d_11">
      <path d="M 411.039091 318.04 
L 411.039091 50.64 
" clip-path="url(#p9571cddd60)" style="fill: none; stroke: #b0b0b0; stroke-width: 0.8; stroke-linecap: square"/>
     </g>
     <g id="line2d_12">
      <g>
       <use xlink:href="#m134112e193" x="411.039091" y="318.04" style="stroke: #000000; stroke-width: 0.8"/>
      </g>
     </g>
     <g id="text_6">
      <!-- 50 -->
      <g transform="translate(404.676591 332.638438) scale(0.1 -0.1)">
       <defs>
        <path id="DejaVuSans-35" d="M 691 4666 
L 3169 4666 
L 3169 4134 
L 1269 4134 
L 1269 2991 
Q 1406 3038 1543 3061 
Q 1681 3084 1819 3084 
Q 2600 3084 3056 2656 
Q 3513 2228 3513 1497 
Q 3513 744 3044 326 
Q 2575 -91 1722 -91 
Q 1428 -91 1123 -41 
Q 819 9 494 109 
L 494 744 
Q 775 591 1075 516 
Q 1375 441 1709 441 
Q 2250 441 2565 725 
Q 2881 1009 2881 1497 
Q 2881 1984 2565 2268 
Q 2250 2553 1709 2553 
Q 1456 2553 1204 2497 
Q 953 2441 691 2322 
L 691 4666 
z
" transform="scale(0.015625)"/>
       </defs>
       <use xlink:href="#DejaVuSans-35"/>
       <use xlink:href="#DejaVuSans-30" x="63.623047"/>
      </g>
     </g>
    </g>
    <g id="text_7">
     <!-- Epoch -->
     <g transform="translate(222.719063 346.316563) scale(0.1 -0.1)">
      <defs>
       <path id="DejaVuSans-45" d="M 628 4666 
L 3578 4666 
L 3578 4134 
L 1259 4134 
L 1259 2753 
L 3481 2753 
L 3481 2222 
L 1259 2222 
L 1259 531 
L 3634 531 
L 3634 0 
L 628 0 
L 628 4666 
z
" transform="scale(0.015625)"/>
       <path id="DejaVuSans-70" d="M 1159 525 
L 1159 -1331 
L 581 -1331 
L 581 3500 
L 1159 3500 
L 1159 2969 
Q 1341 3281 1617 3432 
Q 1894 3584 2278 3584 
Q 2916 3584 3314 3078 
Q 3713 2572 3713 1747 
Q 3713 922 3314 415 
Q 2916 -91 2278 -91 
Q 1894 -91 1617 61 
Q 1341 213 1159 525 
z
M 3116 1747 
Q 3116 2381 2855 2742 
Q 2594 3103 2138 3103 
Q 1681 3103 1420 2742 
Q 1159 2381 1159 1747 
Q 1159 1113 1420 752 
Q 1681 391 2138 391 
Q 2594 391 2855 752 
Q 3116 1113 3116 1747 
z
" transform="scale(0.015625)"/>
       <path id="DejaVuSans-6f" d="M 1959 3097 
Q 1497 3097 1228 2736 
Q 959 2375 959 1747 
Q 959 1119 1226 758 
Q 1494 397 1959 397 
Q 2419 397 2687 759 
Q 2956 1122 2956 1747 
Q 2956 2369 2687 2733 
Q 2419 3097 1959 3097 
z
M 1959 3584 
Q 2709 3584 3137 3096 
Q 3566 2609 3566 1747 
Q 3566 888 3137 398 
Q 2709 -91 1959 -91 
Q 1206 -91 779 398 
Q 353 888 353 1747 
Q 353 2609 779 3096 
Q 1206 3584 1959 3584 
z
" transform="scale(0.015625)"/>
       <path id="DejaVuSans-63" d="M 3122 3366 
L 3122 2828 
Q 2878 2963 2633 3030 
Q 2388 3097 2138 3097 
Q 1578 3097 1268 2742 
Q 959 2388 959 1747 
Q 959 1106 1268 751 
Q 1578 397 2138 397 
Q 2388 397 2633 464 
Q 2878 531 3122 666 
L 3122 134 
Q 2881 22 2623 -34 
Q 2366 -91 2075 -91 
Q 1284 -91 818 406 
Q 353 903 353 1747 
Q 353 2603 823 3093 
Q 1294 3584 2113 3584 
Q 2378 3584 2631 3529 
Q 2884 3475 3122 3366 
z
" transform="scale(0.015625)"/>
       <path id="DejaVuSans-68" d="M 3513 2113 
L 3513 0 
L 2938 0 
L 2938 2094 
Q 2938 2591 2744 2837 
Q 2550 3084 2163 3084 
Q 1697 3084 1428 2787 
Q 1159 2491 1159 1978 
L 1159 0 
L 581 0 
L 581 4863 
L 1159 4863 
L 1159 2956 
Q 1366 3272 1645 3428 
Q 1925 3584 2291 3584 
Q 2894 3584 3203 3211 
Q 3513 2838 3513 2113 
z
" transform="scale(0.015625)"/>
      </defs>
      <use xlink:href="#DejaVuSans-45"/>
      <use xlink:href="#DejaVuSans-70" x="63.183594"/>
      <use xlink:href="#DejaVuSans-6f" x="126.660156"/>
      <use xlink:href="#DejaVuSans-63" x="187.841797"/>
      <use xlink:href="#DejaVuSans-68" x="242.822266"/>
     </g>
    </g>
   </g>
   <g id="matplotlib.axis_2">
    <g id="ytick_1">
     <g id="line2d_13">
      <path d="M 47.72 281.862605 
L 428.34 281.862605 
" clip-path="url(#p9571cddd60)" style="fill: none; stroke: #b0b0b0; stroke-width: 0.8; stroke-linecap: square"/>
     </g>
     <g id="line2d_14">
      <defs>
       <path id="m3274622a65" d="M 0 0 
L -3.5 0 
" style="stroke: #000000; stroke-width: 0.8"/>
      </defs>
      <g>
       <use xlink:href="#m3274622a65" x="47.72" y="281.862605" style="stroke: #000000; stroke-width: 0.8"/>
      </g>
     </g>
     <g id="text_8">
      <!-- 0.2 -->
      <g transform="translate(24.816875 285.661823) scale(0.1 -0.1)">
       <defs>
        <path id="DejaVuSans-2e" d="M 684 794 
L 1344 794 
L 1344 0 
L 684 0 
L 684 794 
z
" transform="scale(0.015625)"/>
       </defs>
       <use xlink:href="#DejaVuSans-30"/>
       <use xlink:href="#DejaVuSans-2e" x="63.623047"/>
       <use xlink:href="#DejaVuSans-32" x="95.410156"/>
      </g>
     </g>
    </g>
    <g id="ytick_2">
     <g id="line2d_15">
      <path d="M 47.72 240.232743 
L 428.34 240.232743 
" clip-path="url(#p9571cddd60)" style="fill: none; stroke: #b0b0b0; stroke-width: 0.8; stroke-linecap: square"/>
     </g>
     <g id="line2d_16">
      <g>
       <use xlink:href="#m3274622a65" x="47.72" y="240.232743" style="stroke: #000000; stroke-width: 0.8"/>
      </g>
     </g>
     <g id="text_9">
      <!-- 0.4 -->
      <g transform="translate(24.816875 244.031962) scale(0.1 -0.1)">
       <use xlink:href="#DejaVuSans-30"/>
       <use xlink:href="#DejaVuSans-2e" x="63.623047"/>
       <use xlink:href="#DejaVuSans-34" x="95.410156"/>
      </g>
     </g>
    </g>
    <g id="ytick_3">
     <g id="line2d_17">
      <path d="M 47.72 198.602882 
L 428.34 198.602882 
" clip-path="url(#p9571cddd60)" style="fill: none; stroke: #b0b0b0; stroke-width: 0.8; stroke-linecap: square"/>
     </g>
     <g id="line2d_18">
      <g>
       <use xlink:href="#m3274622a65" x="47.72" y="198.602882" style="stroke: #000000; stroke-width: 0.8"/>
      </g>
     </g>
     <g id="text_10">
      <!-- 0.6 -->
      <g transform="translate(24.816875 202.402101) scale(0.1 -0.1)">
       <defs>
        <path id="DejaVuSans-36" d="M 2113 2584 
Q 1688 2584 1439 2293 
Q 1191 2003 1191 1497 
Q 1191 994 1439 701 
Q 1688 409 2113 409 
Q 2538 409 2786 701 
Q 3034 994 3034 1497 
Q 3034 2003 2786 2293 
Q 2538 2584 2113 2584 
z
M 3366 4563 
L 3366 3988 
Q 3128 4100 2886 4159 
Q 2644 4219 2406 4219 
Q 1781 4219 1451 3797 
Q 1122 3375 1075 2522 
Q 1259 2794 1537 2939 
Q 1816 3084 2150 3084 
Q 2853 3084 3261 2657 
Q 3669 2231 3669 1497 
Q 3669 778 3244 343 
Q 2819 -91 2113 -91 
Q 1303 -91 875 529 
Q 447 1150 447 2328 
Q 447 3434 972 4092 
Q 1497 4750 2381 4750 
Q 2619 4750 2861 4703 
Q 3103 4656 3366 4563 
z
" transform="scale(0.015625)"/>
       </defs>
       <use xlink:href="#DejaVuSans-30"/>
       <use xlink:href="#DejaVuSans-2e" x="63.623047"/>
       <use xlink:href="#DejaVuSans-36" x="95.410156"/>
      </g>
     </g>
    </g>
    <g id="ytick_4">
     <g id="line2d_19">
      <path d="M 47.72 156.973021 
L 428.34 156.973021 
" clip-path="url(#p9571cddd60)" style="fill: none; stroke: #b0b0b0; stroke-width: 0.8; stroke-linecap: square"/>
     </g>
     <g id="line2d_20">
      <g>
       <use xlink:href="#m3274622a65" x="47.72" y="156.973021" style="stroke: #000000; stroke-width: 0.8"/>
      </g>
     </g>
     <g id="text_11">
      <!-- 0.8 -->
      <g transform="translate(24.816875 160.77224) scale(0.1 -0.1)">
       <defs>
        <path id="DejaVuSans-38" d="M 2034 2216 
Q 1584 2216 1326 1975 
Q 1069 1734 1069 1313 
Q 1069 891 1326 650 
Q 1584 409 2034 409 
Q 2484 409 2743 651 
Q 3003 894 3003 1313 
Q 3003 1734 2745 1975 
Q 2488 2216 2034 2216 
z
M 1403 2484 
Q 997 2584 770 2862 
Q 544 3141 544 3541 
Q 544 4100 942 4425 
Q 1341 4750 2034 4750 
Q 2731 4750 3128 4425 
Q 3525 4100 3525 3541 
Q 3525 3141 3298 2862 
Q 3072 2584 2669 2484 
Q 3125 2378 3379 2068 
Q 3634 1759 3634 1313 
Q 3634 634 3220 271 
Q 2806 -91 2034 -91 
Q 1263 -91 848 271 
Q 434 634 434 1313 
Q 434 1759 690 2068 
Q 947 2378 1403 2484 
z
M 1172 3481 
Q 1172 3119 1398 2916 
Q 1625 2713 2034 2713 
Q 2441 2713 2670 2916 
Q 2900 3119 2900 3481 
Q 2900 3844 2670 4047 
Q 2441 4250 2034 4250 
Q 1625 4250 1398 4047 
Q 1172 3844 1172 3481 
z
" transform="scale(0.015625)"/>
       </defs>
       <use xlink:href="#DejaVuSans-30"/>
       <use xlink:href="#DejaVuSans-2e" x="63.623047"/>
       <use xlink:href="#DejaVuSans-38" x="95.410156"/>
      </g>
     </g>
    </g>
    <g id="ytick_5">
     <g id="line2d_21">
      <path d="M 47.72 115.34316 
L 428.34 115.34316 
" clip-path="url(#p9571cddd60)" style="fill: none; stroke: #b0b0b0; stroke-width: 0.8; stroke-linecap: square"/>
     </g>
     <g id="line2d_22">
      <g>
       <use xlink:href="#m3274622a65" x="47.72" y="115.34316" style="stroke: #000000; stroke-width: 0.8"/>
      </g>
     </g>
     <g id="text_12">
      <!-- 1.0 -->
      <g transform="translate(24.816875 119.142378) scale(0.1 -0.1)">
       <use xlink:href="#DejaVuSans-31"/>
       <use xlink:href="#DejaVuSans-2e" x="63.623047"/>
       <use xlink:href="#DejaVuSans-30" x="95.410156"/>
      </g>
     </g>
    </g>
    <g id="ytick_6">
     <g id="line2d_23">
      <path d="M 47.72 73.713298 
L 428.34 73.713298 
" clip-path="url(#p9571cddd60)" style="fill: none; stroke: #b0b0b0; stroke-width: 0.8; stroke-linecap: square"/>
     </g>
     <g id="line2d_24">
      <g>
       <use xlink:href="#m3274622a65" x="47.72" y="73.713298" style="stroke: #000000; stroke-width: 0.8"/>
      </g>
     </g>
     <g id="text_13">
      <!-- 1.2 -->
      <g transform="translate(24.816875 77.512517) scale(0.1 -0.1)">
       <use xlink:href="#DejaVuSans-31"/>
       <use xlink:href="#DejaVuSans-2e" x="63.623047"/>
       <use xlink:href="#DejaVuSans-32" x="95.410156"/>
      </g>
     </g>
    </g>
    <g id="text_14">
     <!-- Training Loss -->
     <g transform="translate(18.737187 216.622031) rotate(-90) scale(0.1 -0.1)">
      <defs>
       <path id="DejaVuSans-54" d="M -19 4666 
L 3928 4666 
L 3928 4134 
L 2272 4134 
L 2272 0 
L 1638 0 
L 1638 4134 
L -19 4134 
L -19 4666 
z
" transform="scale(0.015625)"/>
       <path id="DejaVuSans-72" d="M 2631 2963 
Q 2534 3019 2420 3045 
Q 2306 3072 2169 3072 
Q 1681 3072 1420 2755 
Q 1159 2438 1159 1844 
L 1159 0 
L 581 0 
L 581 3500 
L 1159 3500 
L 1159 2956 
Q 1341 3275 1631 3429 
Q 1922 3584 2338 3584 
Q 2397 3584 2469 3576 
Q 2541 3569 2628 3553 
L 2631 2963 
z
" transform="scale(0.015625)"/>
       <path id="DejaVuSans-61" d="M 2194 1759 
Q 1497 1759 1228 1600 
Q 959 1441 959 1056 
Q 959 750 1161 570 
Q 1363 391 1709 391 
Q 2188 391 2477 730 
Q 2766 1069 2766 1631 
L 2766 1759 
L 2194 1759 
z
M 3341 1997 
L 3341 0 
L 2766 0 
L 2766 531 
Q 2569 213 2275 61 
Q 1981 -91 1556 -91 
Q 1019 -91 701 211 
Q 384 513 384 1019 
Q 384 1609 779 1909 
Q 1175 2209 1959 2209 
L 2766 2209 
L 2766 2266 
Q 2766 2663 2505 2880 
Q 2244 3097 1772 3097 
Q 1472 3097 1187 3025 
Q 903 2953 641 2809 
L 641 3341 
Q 956 3463 1253 3523 
Q 1550 3584 1831 3584 
Q 2591 3584 2966 3190 
Q 3341 2797 3341 1997 
z
" transform="scale(0.015625)"/>
       <path id="DejaVuSans-69" d="M 603 3500 
L 1178 3500 
L 1178 0 
L 603 0 
L 603 3500 
z
M 603 4863 
L 1178 4863 
L 1178 4134 
L 603 4134 
L 603 4863 
z
" transform="scale(0.015625)"/>
       <path id="DejaVuSans-6e" d="M 3513 2113 
L 3513 0 
L 2938 0 
L 2938 2094 
Q 2938 2591 2744 2837 
Q 2550 3084 2163 3084 
Q 1697 3084 1428 2787 
Q 1159 2491 1159 1978 
L 1159 0 
L 581 0 
L 581 3500 
L 1159 3500 
L 1159 2956 
Q 1366 3272 1645 3428 
Q 1925 3584 2291 3584 
Q 2894 3584 3203 3211 
Q 3513 2838 3513 2113 
z
" transform="scale(0.015625)"/>
       <path id="DejaVuSans-67" d="M 2906 1791 
Q 2906 2416 2648 2759 
Q 2391 3103 1925 3103 
Q 1463 3103 1205 2759 
Q 947 2416 947 1791 
Q 947 1169 1205 825 
Q 1463 481 1925 481 
Q 2391 481 2648 825 
Q 2906 1169 2906 1791 
z
M 3481 434 
Q 3481 -459 3084 -895 
Q 2688 -1331 1869 -1331 
Q 1566 -1331 1297 -1286 
Q 1028 -1241 775 -1147 
L 775 -588 
Q 1028 -725 1275 -790 
Q 1522 -856 1778 -856 
Q 2344 -856 2625 -561 
Q 2906 -266 2906 331 
L 2906 616 
Q 2728 306 2450 153 
Q 2172 0 1784 0 
Q 1141 0 747 490 
Q 353 981 353 1791 
Q 353 2603 747 3093 
Q 1141 3584 1784 3584 
Q 2172 3584 2450 3431 
Q 2728 3278 2906 2969 
L 2906 3500 
L 3481 3500 
L 3481 434 
z
" transform="scale(0.015625)"/>
       <path id="DejaVuSans-20" transform="scale(0.015625)"/>
       <path id="DejaVuSans-4c" d="M 628 4666 
L 1259 4666 
L 1259 531 
L 3531 531 
L 3531 0 
L 628 0 
L 628 4666 
z
" transform="scale(0.015625)"/>
       <path id="DejaVuSans-73" d="M 2834 3397 
L 2834 2853 
Q 2591 2978 2328 3040 
Q 2066 3103 1784 3103 
Q 1356 3103 1142 2972 
Q 928 2841 928 2578 
Q 928 2378 1081 2264 
Q 1234 2150 1697 2047 
L 1894 2003 
Q 2506 1872 2764 1633 
Q 3022 1394 3022 966 
Q 3022 478 2636 193 
Q 2250 -91 1575 -91 
Q 1294 -91 989 -36 
Q 684 19 347 128 
L 347 722 
Q 666 556 975 473 
Q 1284 391 1588 391 
Q 1994 391 2212 530 
Q 2431 669 2431 922 
Q 2431 1156 2273 1281 
Q 2116 1406 1581 1522 
L 1381 1569 
Q 847 1681 609 1914 
Q 372 2147 372 2553 
Q 372 3047 722 3315 
Q 1072 3584 1716 3584 
Q 2034 3584 2315 3537 
Q 2597 3491 2834 3397 
z
" transform="scale(0.015625)"/>
      </defs>
      <use xlink:href="#DejaVuSans-54"/>
      <use xlink:href="#DejaVuSans-72" x="46.333984"/>
      <use xlink:href="#DejaVuSans-61" x="87.447266"/>
      <use xlink:href="#DejaVuSans-69" x="148.726562"/>
      <use xlink:href="#DejaVuSans-6e" x="176.509766"/>
      <use xlink:href="#DejaVuSans-69" x="239.888672"/>
      <use xlink:href="#DejaVuSans-6e" x="267.671875"/>
      <use xlink:href="#DejaVuSans-67" x="331.050781"/>
      <use xlink:href="#DejaVuSans-20" x="394.527344"/>
      <use xlink:href="#DejaVuSans-4c" x="426.314453"/>
      <use xlink:href="#DejaVuSans-6f" x="480.277344"/>
      <use xlink:href="#DejaVuSans-73" x="541.458984"/>
      <use xlink:href="#DejaVuSans-73" x="593.558594"/>
     </g>
    </g>
    <g id="text_15">
     <!-- 1e−8 -->
     <g transform="translate(47.72 47.64) scale(0.1 -0.1)">
      <defs>
       <path id="DejaVuSans-65" d="M 3597 1894 
L 3597 1613 
L 953 1613 
Q 991 1019 1311 708 
Q 1631 397 2203 397 
Q 2534 397 2845 478 
Q 3156 559 3463 722 
L 3463 178 
Q 3153 47 2828 -22 
Q 2503 -91 2169 -91 
Q 1331 -91 842 396 
Q 353 884 353 1716 
Q 353 2575 817 3079 
Q 1281 3584 2069 3584 
Q 2775 3584 3186 3129 
Q 3597 2675 3597 1894 
z
M 3022 2063 
Q 3016 2534 2758 2815 
Q 2500 3097 2075 3097 
Q 1594 3097 1305 2825 
Q 1016 2553 972 2059 
L 3022 2063 
z
" transform="scale(0.015625)"/>
       <path id="DejaVuSans-2212" d="M 678 2272 
L 4684 2272 
L 4684 1741 
L 678 1741 
L 678 2272 
z
" transform="scale(0.015625)"/>
      </defs>
      <use xlink:href="#DejaVuSans-31"/>
      <use xlink:href="#DejaVuSans-65" x="63.623047"/>
      <use xlink:href="#DejaVuSans-2212" x="125.146484"/>
      <use xlink:href="#DejaVuSans-38" x="208.935547"/>
     </g>
    </g>
   </g>
   <g id="line2d_25">
    <path d="M 65.020909 116.825375 
L 72.082505 142.067008 
L 79.1441 150.159681 
L 86.205696 155.212141 
L 93.267291 159.789688 
L 100.328887 161.475513 
L 107.390482 168.200299 
L 114.452078 168.02875 
L 121.513673 173.152868 
L 128.575269 176.942903 
L 135.636865 179.876981 
L 142.69846 180.783755 
L 149.760056 192.44896 
L 156.821651 191.732237 
L 163.883247 194.019099 
L 170.944842 206.370293 
L 178.006438 207.151421 
L 185.068033 220.196316 
L 192.129629 231.052562 
L 199.191224 235.486518 
L 206.25282 239.712207 
L 213.314416 240.212881 
L 220.376011 247.9149 
L 227.437607 252.121663 
L 234.499202 257.78186 
L 241.560798 266.303145 
L 248.622393 264.724043 
L 255.683989 258.199691 
L 262.745584 252.150243 
L 269.80718 263.641834 
L 276.868776 275.889827 
L 283.930371 279.716853 
L 290.991967 268.647905 
L 298.053562 271.962619 
L 305.115158 284.530484 
L 312.176753 264.116168 
L 319.238349 293.369631 
L 326.299944 292.129379 
L 333.36154 289.312959 
L 340.423135 274.67051 
L 347.484731 273.174483 
L 354.546327 278.461766 
L 361.607922 295.30838 
L 368.669518 284.714886 
L 375.731113 296.73011 
L 382.792709 286.754839 
L 389.854304 286.70645 
L 396.9159 294.530295 
L 403.977495 296.089507 
L 411.039091 305.885455 
" clip-path="url(#p9571cddd60)" style="fill: none; stroke: #1f77b4; stroke-width: 1.5; stroke-linecap: square"/>
   </g>
   <g id="line2d_26">
    <path d="M 65.020909 63.858978 
L 72.082505 101.654572 
L 79.1441 118.868169 
L 86.205696 124.625617 
L 93.267291 129.659222 
L 100.328887 102.02011 
L 107.390482 124.963117 
L 114.452078 135.750107 
L 121.513673 134.153466 
L 128.575269 148.625128 
L 135.636865 135.582054 
L 142.69846 133.989902 
L 149.760056 146.425638 
L 156.821651 145.832546 
L 163.883247 139.436235 
L 170.944842 138.512813 
L 178.006438 143.821841 
L 185.068033 149.741783 
L 192.129629 159.770833 
L 199.191224 157.02182 
L 206.25282 152.79646 
L 213.314416 153.163412 
L 220.376011 175.151348 
L 227.437607 144.876925 
L 234.499202 160.342427 
L 241.560798 164.008182 
L 248.622393 158.463793 
L 255.683989 157.968247 
L 262.745584 147.921257 
L 269.80718 179.253085 
L 276.868776 164.880691 
L 283.930371 158.690284 
L 290.991967 172.259413 
L 298.053562 178.774643 
L 305.115158 197.677346 
L 312.176753 175.545281 
L 319.238349 155.675584 
L 326.299944 169.114645 
L 333.36154 175.71581 
L 340.423135 174.650586 
L 347.484731 188.053074 
L 354.546327 161.16457 
L 361.607922 198.534194 
L 368.669518 168.080964 
L 375.731113 148.414544 
L 382.792709 186.483963 
L 389.854304 169.522269 
L 396.9159 179.974184 
L 403.977495 191.729352 
L 411.039091 173.191865 
" clip-path="url(#p9571cddd60)" style="fill: none; stroke: #ff7f0e; stroke-width: 1.5; stroke-linecap: square"/>
   </g>
   <g id="line2d_27">
    <path d="M 65.020909 62.794545 
L 72.082505 115.727897 
L 79.1441 131.592917 
L 86.205696 139.424461 
L 93.267291 143.554245 
L 100.328887 146.273348 
L 107.390482 148.646801 
L 114.452078 150.060939 
L 121.513673 151.591486 
L 128.575269 152.784894 
L 135.636865 153.892824 
L 142.69846 154.941247 
L 149.760056 156.060975 
L 156.821651 156.764413 
L 163.883247 157.807853 
L 170.944842 159.15493 
L 178.006438 158.765455 
L 185.068033 160.258609 
L 192.129629 161.013379 
L 199.191224 162.089904 
L 206.25282 162.40914 
L 213.314416 163.356305 
L 220.376011 164.085619 
L 227.437607 164.657916 
L 234.499202 165.719336 
L 241.560798 166.321012 
L 248.622393 166.725925 
L 255.683989 167.767388 
L 262.745584 168.213213 
L 269.80718 168.767107 
L 276.868776 169.528226 
L 283.930371 170.301729 
L 290.991967 168.461428 
L 298.053562 171.58842 
L 305.115158 172.611162 
L 312.176753 172.538531 
L 319.238349 173.121236 
L 326.299944 173.871398 
L 333.36154 174.267085 
L 340.423135 174.791315 
L 347.484731 175.654609 
L 354.546327 175.64907 
L 361.607922 176.599899 
L 368.669518 176.961056 
L 375.731113 177.556242 
L 382.792709 178.157813 
L 389.854304 178.317493 
L 396.9159 179.15973 
L 403.977495 179.343197 
L 411.039091 180.295948 
" clip-path="url(#p9571cddd60)" style="fill: none; stroke: #2ca02c; stroke-width: 1.5; stroke-linecap: square"/>
   </g>
   <g id="patch_3">
    <path d="M 47.72 318.04 
L 47.72 50.64 
" style="fill: none; stroke: #000000; stroke-width: 0.8; stroke-linejoin: miter; stroke-linecap: square"/>
   </g>
   <g id="patch_4">
    <path d="M 428.34 318.04 
L 428.34 50.64 
" style="fill: none; stroke: #000000; stroke-width: 0.8; stroke-linejoin: miter; stroke-linecap: square"/>
   </g>
   <g id="patch_5">
    <path d="M 47.72 318.04 
L 428.34 318.04 
" style="fill: none; stroke: #000000; stroke-width: 0.8; stroke-linejoin: miter; stroke-linecap: square"/>
   </g>
   <g id="patch_6">
    <path d="M 47.72 50.64 
L 428.34 50.64 
" style="fill: none; stroke: #000000; stroke-width: 0.8; stroke-linejoin: miter; stroke-linecap: square"/>
   </g>
   <g id="text_16">
    <!-- Training Loss -->
    <g transform="translate(199.291563 44.64) scale(0.12 -0.12)">
     <use xlink:href="#DejaVuSans-54"/>
     <use xlink:href="#DejaVuSans-72" x="46.333984"/>
     <use xlink:href="#DejaVuSans-61" x="87.447266"/>
     <use xlink:href="#DejaVuSans-69" x="148.726562"/>
     <use xlink:href="#DejaVuSans-6e" x="176.509766"/>
     <use xlink:href="#DejaVuSans-69" x="239.888672"/>
     <use xlink:href="#DejaVuSans-6e" x="267.671875"/>
     <use xlink:href="#DejaVuSans-67" x="331.050781"/>
     <use xlink:href="#DejaVuSans-20" x="394.527344"/>
     <use xlink:href="#DejaVuSans-4c" x="426.314453"/>
     <use xlink:href="#DejaVuSans-6f" x="480.277344"/>
     <use xlink:href="#DejaVuSans-73" x="541.458984"/>
     <use xlink:href="#DejaVuSans-73" x="593.558594"/>
    </g>
   </g>
   <g id="legend_1">
    <g id="patch_7">
     <path d="M 310.854063 102.674375 
L 421.34 102.674375 
Q 423.34 102.674375 423.34 100.674375 
L 423.34 57.64 
Q 423.34 55.64 421.34 55.64 
L 310.854063 55.64 
Q 308.854063 55.64 308.854063 57.64 
L 308.854063 100.674375 
Q 308.854063 102.674375 310.854063 102.674375 
z
" style="fill: #ffffff; opacity: 0.8; stroke: #cccccc; stroke-linejoin: miter"/>
    </g>
    <g id="line2d_28">
     <path d="M 312.854063 63.738437 
L 322.854063 63.738437 
L 332.854063 63.738437 
" style="fill: none; stroke: #1f77b4; stroke-width: 1.5; stroke-linecap: square"/>
    </g>
    <g id="text_17">
     <!-- w41z1 (0.0005) -->
     <g transform="translate(340.854063 67.238437) scale(0.1 -0.1)">
      <defs>
       <path id="DejaVuSans-77" d="M 269 3500 
L 844 3500 
L 1563 769 
L 2278 3500 
L 2956 3500 
L 3675 769 
L 4391 3500 
L 4966 3500 
L 4050 0 
L 3372 0 
L 2619 2869 
L 1863 0 
L 1184 0 
L 269 3500 
z
" transform="scale(0.015625)"/>
       <path id="DejaVuSans-7a" d="M 353 3500 
L 3084 3500 
L 3084 2975 
L 922 459 
L 3084 459 
L 3084 0 
L 275 0 
L 275 525 
L 2438 3041 
L 353 3041 
L 353 3500 
z
" transform="scale(0.015625)"/>
       <path id="DejaVuSans-28" d="M 1984 4856 
Q 1566 4138 1362 3434 
Q 1159 2731 1159 2009 
Q 1159 1288 1364 580 
Q 1569 -128 1984 -844 
L 1484 -844 
Q 1016 -109 783 600 
Q 550 1309 550 2009 
Q 550 2706 781 3412 
Q 1013 4119 1484 4856 
L 1984 4856 
z
" transform="scale(0.015625)"/>
       <path id="DejaVuSans-29" d="M 513 4856 
L 1013 4856 
Q 1481 4119 1714 3412 
Q 1947 2706 1947 2009 
Q 1947 1309 1714 600 
Q 1481 -109 1013 -844 
L 513 -844 
Q 928 -128 1133 580 
Q 1338 1288 1338 2009 
Q 1338 2731 1133 3434 
Q 928 4138 513 4856 
z
" transform="scale(0.015625)"/>
      </defs>
      <use xlink:href="#DejaVuSans-77"/>
      <use xlink:href="#DejaVuSans-34" x="81.787109"/>
      <use xlink:href="#DejaVuSans-31" x="145.410156"/>
      <use xlink:href="#DejaVuSans-7a" x="209.033203"/>
      <use xlink:href="#DejaVuSans-31" x="261.523438"/>
      <use xlink:href="#DejaVuSans-20" x="325.146484"/>
      <use xlink:href="#DejaVuSans-28" x="356.933594"/>
      <use xlink:href="#DejaVuSans-30" x="395.947266"/>
      <use xlink:href="#DejaVuSans-2e" x="459.570312"/>
      <use xlink:href="#DejaVuSans-30" x="491.357422"/>
      <use xlink:href="#DejaVuSans-30" x="554.980469"/>
      <use xlink:href="#DejaVuSans-30" x="618.603516"/>
      <use xlink:href="#DejaVuSans-35" x="682.226562"/>
      <use xlink:href="#DejaVuSans-29" x="745.849609"/>
     </g>
    </g>
    <g id="line2d_29">
     <path d="M 312.854063 78.416562 
L 322.854063 78.416562 
L 332.854063 78.416562 
" style="fill: none; stroke: #ff7f0e; stroke-width: 1.5; stroke-linecap: square"/>
    </g>
    <g id="text_18">
     <!-- 7yo77 (0.005) -->
     <g transform="translate(340.854063 81.916562) scale(0.1 -0.1)">
      <defs>
       <path id="DejaVuSans-37" d="M 525 4666 
L 3525 4666 
L 3525 4397 
L 1831 0 
L 1172 0 
L 2766 4134 
L 525 4134 
L 525 4666 
z
" transform="scale(0.015625)"/>
       <path id="DejaVuSans-79" d="M 2059 -325 
Q 1816 -950 1584 -1140 
Q 1353 -1331 966 -1331 
L 506 -1331 
L 506 -850 
L 844 -850 
Q 1081 -850 1212 -737 
Q 1344 -625 1503 -206 
L 1606 56 
L 191 3500 
L 800 3500 
L 1894 763 
L 2988 3500 
L 3597 3500 
L 2059 -325 
z
" transform="scale(0.015625)"/>
      </defs>
      <use xlink:href="#DejaVuSans-37"/>
      <use xlink:href="#DejaVuSans-79" x="63.623047"/>
      <use xlink:href="#DejaVuSans-6f" x="122.802734"/>
      <use xlink:href="#DejaVuSans-37" x="183.984375"/>
      <use xlink:href="#DejaVuSans-37" x="247.607422"/>
      <use xlink:href="#DejaVuSans-20" x="311.230469"/>
      <use xlink:href="#DejaVuSans-28" x="343.017578"/>
      <use xlink:href="#DejaVuSans-30" x="382.03125"/>
      <use xlink:href="#DejaVuSans-2e" x="445.654297"/>
      <use xlink:href="#DejaVuSans-30" x="477.441406"/>
      <use xlink:href="#DejaVuSans-30" x="541.064453"/>
      <use xlink:href="#DejaVuSans-35" x="604.6875"/>
      <use xlink:href="#DejaVuSans-29" x="668.310547"/>
     </g>
    </g>
    <g id="line2d_30">
     <path d="M 312.854063 93.094687 
L 322.854063 93.094687 
L 332.854063 93.094687 
" style="fill: none; stroke: #2ca02c; stroke-width: 1.5; stroke-linecap: square"/>
    </g>
    <g id="text_19">
     <!-- 2n6j7 (5e-05) -->
     <g transform="translate(340.854063 96.594687) scale(0.1 -0.1)">
      <defs>
       <path id="DejaVuSans-6a" d="M 603 3500 
L 1178 3500 
L 1178 -63 
Q 1178 -731 923 -1031 
Q 669 -1331 103 -1331 
L -116 -1331 
L -116 -844 
L 38 -844 
Q 366 -844 484 -692 
Q 603 -541 603 -63 
L 603 3500 
z
M 603 4863 
L 1178 4863 
L 1178 4134 
L 603 4134 
L 603 4863 
z
" transform="scale(0.015625)"/>
       <path id="DejaVuSans-2d" d="M 313 2009 
L 1997 2009 
L 1997 1497 
L 313 1497 
L 313 2009 
z
" transform="scale(0.015625)"/>
      </defs>
      <use xlink:href="#DejaVuSans-32"/>
      <use xlink:href="#DejaVuSans-6e" x="63.623047"/>
      <use xlink:href="#DejaVuSans-36" x="127.001953"/>
      <use xlink:href="#DejaVuSans-6a" x="190.625"/>
      <use xlink:href="#DejaVuSans-37" x="218.408203"/>
      <use xlink:href="#DejaVuSans-20" x="282.03125"/>
      <use xlink:href="#DejaVuSans-28" x="313.818359"/>
      <use xlink:href="#DejaVuSans-35" x="352.832031"/>
      <use xlink:href="#DejaVuSans-65" x="416.455078"/>
      <use xlink:href="#DejaVuSans-2d" x="477.978516"/>
      <use xlink:href="#DejaVuSans-30" x="514.0625"/>
      <use xlink:href="#DejaVuSans-35" x="577.685547"/>
      <use xlink:href="#DejaVuSans-29" x="641.308594"/>
     </g>
    </g>
   </g>
  </g>
  <g id="axes_2">
   <g id="patch_8">
    <path d="M 476.15 318.04 
L 856.77 318.04 
L 856.77 50.64 
L 476.15 50.64 
z
" style="fill: #ffffff"/>
   </g>
   <g id="matplotlib.axis_3">
    <g id="xtick_7">
     <g id="line2d_31">
      <path d="M 486.389314 318.04 
L 486.389314 50.64 
" clip-path="url(#p3fa930e6c9)" style="fill: none; stroke: #b0b0b0; stroke-width: 0.8; stroke-linecap: square"/>
     </g>
     <g id="line2d_32">
      <g>
       <use xlink:href="#m134112e193" x="486.389314" y="318.04" style="stroke: #000000; stroke-width: 0.8"/>
      </g>
     </g>
     <g id="text_20">
      <!-- 0 -->
      <g transform="translate(483.208064 332.638438) scale(0.1 -0.1)">
       <use xlink:href="#DejaVuSans-30"/>
      </g>
     </g>
    </g>
    <g id="xtick_8">
     <g id="line2d_33">
      <path d="M 557.005269 318.04 
L 557.005269 50.64 
" clip-path="url(#p3fa930e6c9)" style="fill: none; stroke: #b0b0b0; stroke-width: 0.8; stroke-linecap: square"/>
     </g>
     <g id="line2d_34">
      <g>
       <use xlink:href="#m134112e193" x="557.005269" y="318.04" style="stroke: #000000; stroke-width: 0.8"/>
      </g>
     </g>
     <g id="text_21">
      <!-- 10 -->
      <g transform="translate(550.642769 332.638438) scale(0.1 -0.1)">
       <use xlink:href="#DejaVuSans-31"/>
       <use xlink:href="#DejaVuSans-30" x="63.623047"/>
      </g>
     </g>
    </g>
    <g id="xtick_9">
     <g id="line2d_35">
      <path d="M 627.621224 318.04 
L 627.621224 50.64 
" clip-path="url(#p3fa930e6c9)" style="fill: none; stroke: #b0b0b0; stroke-width: 0.8; stroke-linecap: square"/>
     </g>
     <g id="line2d_36">
      <g>
       <use xlink:href="#m134112e193" x="627.621224" y="318.04" style="stroke: #000000; stroke-width: 0.8"/>
      </g>
     </g>
     <g id="text_22">
      <!-- 20 -->
      <g transform="translate(621.258724 332.638438) scale(0.1 -0.1)">
       <use xlink:href="#DejaVuSans-32"/>
       <use xlink:href="#DejaVuSans-30" x="63.623047"/>
      </g>
     </g>
    </g>
    <g id="xtick_10">
     <g id="line2d_37">
      <path d="M 698.23718 318.04 
L 698.23718 50.64 
" clip-path="url(#p3fa930e6c9)" style="fill: none; stroke: #b0b0b0; stroke-width: 0.8; stroke-linecap: square"/>
     </g>
     <g id="line2d_38">
      <g>
       <use xlink:href="#m134112e193" x="698.23718" y="318.04" style="stroke: #000000; stroke-width: 0.8"/>
      </g>
     </g>
     <g id="text_23">
      <!-- 30 -->
      <g transform="translate(691.87468 332.638438) scale(0.1 -0.1)">
       <use xlink:href="#DejaVuSans-33"/>
       <use xlink:href="#DejaVuSans-30" x="63.623047"/>
      </g>
     </g>
    </g>
    <g id="xtick_11">
     <g id="line2d_39">
      <path d="M 768.853135 318.04 
L 768.853135 50.64 
" clip-path="url(#p3fa930e6c9)" style="fill: none; stroke: #b0b0b0; stroke-width: 0.8; stroke-linecap: square"/>
     </g>
     <g id="line2d_40">
      <g>
       <use xlink:href="#m134112e193" x="768.853135" y="318.04" style="stroke: #000000; stroke-width: 0.8"/>
      </g>
     </g>
     <g id="text_24">
      <!-- 40 -->
      <g transform="translate(762.490635 332.638438) scale(0.1 -0.1)">
       <use xlink:href="#DejaVuSans-34"/>
       <use xlink:href="#DejaVuSans-30" x="63.623047"/>
      </g>
     </g>
    </g>
    <g id="xtick_12">
     <g id="line2d_41">
      <path d="M 839.469091 318.04 
L 839.469091 50.64 
" clip-path="url(#p3fa930e6c9)" style="fill: none; stroke: #b0b0b0; stroke-width: 0.8; stroke-linecap: square"/>
     </g>
     <g id="line2d_42">
      <g>
       <use xlink:href="#m134112e193" x="839.469091" y="318.04" style="stroke: #000000; stroke-width: 0.8"/>
      </g>
     </g>
     <g id="text_25">
      <!-- 50 -->
      <g transform="translate(833.106591 332.638438) scale(0.1 -0.1)">
       <use xlink:href="#DejaVuSans-35"/>
       <use xlink:href="#DejaVuSans-30" x="63.623047"/>
      </g>
     </g>
    </g>
    <g id="text_26">
     <!-- Epoch -->
     <g transform="translate(651.149063 346.316563) scale(0.1 -0.1)">
      <use xlink:href="#DejaVuSans-45"/>
      <use xlink:href="#DejaVuSans-70" x="63.183594"/>
      <use xlink:href="#DejaVuSans-6f" x="126.660156"/>
      <use xlink:href="#DejaVuSans-63" x="187.841797"/>
      <use xlink:href="#DejaVuSans-68" x="242.822266"/>
     </g>
    </g>
   </g>
   <g id="matplotlib.axis_4">
    <g id="ytick_7">
     <g id="line2d_43">
      <path d="M 476.15 306.729626 
L 856.77 306.729626 
" clip-path="url(#p3fa930e6c9)" style="fill: none; stroke: #b0b0b0; stroke-width: 0.8; stroke-linecap: square"/>
     </g>
     <g id="line2d_44">
      <g>
       <use xlink:href="#m3274622a65" x="476.15" y="306.729626" style="stroke: #000000; stroke-width: 0.8"/>
      </g>
     </g>
     <g id="text_27">
      <!-- 1.2 -->
      <g transform="translate(453.246875 310.528845) scale(0.1 -0.1)">
       <use xlink:href="#DejaVuSans-31"/>
       <use xlink:href="#DejaVuSans-2e" x="63.623047"/>
       <use xlink:href="#DejaVuSans-32" x="95.410156"/>
      </g>
     </g>
    </g>
    <g id="ytick_8">
     <g id="line2d_45">
      <path d="M 476.15 273.035779 
L 856.77 273.035779 
" clip-path="url(#p3fa930e6c9)" style="fill: none; stroke: #b0b0b0; stroke-width: 0.8; stroke-linecap: square"/>
     </g>
     <g id="line2d_46">
      <g>
       <use xlink:href="#m3274622a65" x="476.15" y="273.035779" style="stroke: #000000; stroke-width: 0.8"/>
      </g>
     </g>
     <g id="text_28">
      <!-- 1.4 -->
      <g transform="translate(453.246875 276.834998) scale(0.1 -0.1)">
       <use xlink:href="#DejaVuSans-31"/>
       <use xlink:href="#DejaVuSans-2e" x="63.623047"/>
       <use xlink:href="#DejaVuSans-34" x="95.410156"/>
      </g>
     </g>
    </g>
    <g id="ytick_9">
     <g id="line2d_47">
      <path d="M 476.15 239.341933 
L 856.77 239.341933 
" clip-path="url(#p3fa930e6c9)" style="fill: none; stroke: #b0b0b0; stroke-width: 0.8; stroke-linecap: square"/>
     </g>
     <g id="line2d_48">
      <g>
       <use xlink:href="#m3274622a65" x="476.15" y="239.341933" style="stroke: #000000; stroke-width: 0.8"/>
      </g>
     </g>
     <g id="text_29">
      <!-- 1.6 -->
      <g transform="translate(453.246875 243.141152) scale(0.1 -0.1)">
       <use xlink:href="#DejaVuSans-31"/>
       <use xlink:href="#DejaVuSans-2e" x="63.623047"/>
       <use xlink:href="#DejaVuSans-36" x="95.410156"/>
      </g>
     </g>
    </g>
    <g id="ytick_10">
     <g id="line2d_49">
      <path d="M 476.15 205.648086 
L 856.77 205.648086 
" clip-path="url(#p3fa930e6c9)" style="fill: none; stroke: #b0b0b0; stroke-width: 0.8; stroke-linecap: square"/>
     </g>
     <g id="line2d_50">
      <g>
       <use xlink:href="#m3274622a65" x="476.15" y="205.648086" style="stroke: #000000; stroke-width: 0.8"/>
      </g>
     </g>
     <g id="text_30">
      <!-- 1.8 -->
      <g transform="translate(453.246875 209.447305) scale(0.1 -0.1)">
       <use xlink:href="#DejaVuSans-31"/>
       <use xlink:href="#DejaVuSans-2e" x="63.623047"/>
       <use xlink:href="#DejaVuSans-38" x="95.410156"/>
      </g>
     </g>
    </g>
    <g id="ytick_11">
     <g id="line2d_51">
      <path d="M 476.15 171.95424 
L 856.77 171.95424 
" clip-path="url(#p3fa930e6c9)" style="fill: none; stroke: #b0b0b0; stroke-width: 0.8; stroke-linecap: square"/>
     </g>
     <g id="line2d_52">
      <g>
       <use xlink:href="#m3274622a65" x="476.15" y="171.95424" style="stroke: #000000; stroke-width: 0.8"/>
      </g>
     </g>
     <g id="text_31">
      <!-- 2.0 -->
      <g transform="translate(453.246875 175.753459) scale(0.1 -0.1)">
       <use xlink:href="#DejaVuSans-32"/>
       <use xlink:href="#DejaVuSans-2e" x="63.623047"/>
       <use xlink:href="#DejaVuSans-30" x="95.410156"/>
      </g>
     </g>
    </g>
    <g id="ytick_12">
     <g id="line2d_53">
      <path d="M 476.15 138.260394 
L 856.77 138.260394 
" clip-path="url(#p3fa930e6c9)" style="fill: none; stroke: #b0b0b0; stroke-width: 0.8; stroke-linecap: square"/>
     </g>
     <g id="line2d_54">
      <g>
       <use xlink:href="#m3274622a65" x="476.15" y="138.260394" style="stroke: #000000; stroke-width: 0.8"/>
      </g>
     </g>
     <g id="text_32">
      <!-- 2.2 -->
      <g transform="translate(453.246875 142.059612) scale(0.1 -0.1)">
       <use xlink:href="#DejaVuSans-32"/>
       <use xlink:href="#DejaVuSans-2e" x="63.623047"/>
       <use xlink:href="#DejaVuSans-32" x="95.410156"/>
      </g>
     </g>
    </g>
    <g id="ytick_13">
     <g id="line2d_55">
      <path d="M 476.15 104.566547 
L 856.77 104.566547 
" clip-path="url(#p3fa930e6c9)" style="fill: none; stroke: #b0b0b0; stroke-width: 0.8; stroke-linecap: square"/>
     </g>
     <g id="line2d_56">
      <g>
       <use xlink:href="#m3274622a65" x="476.15" y="104.566547" style="stroke: #000000; stroke-width: 0.8"/>
      </g>
     </g>
     <g id="text_33">
      <!-- 2.4 -->
      <g transform="translate(453.246875 108.365766) scale(0.1 -0.1)">
       <use xlink:href="#DejaVuSans-32"/>
       <use xlink:href="#DejaVuSans-2e" x="63.623047"/>
       <use xlink:href="#DejaVuSans-34" x="95.410156"/>
      </g>
     </g>
    </g>
    <g id="ytick_14">
     <g id="line2d_57">
      <path d="M 476.15 70.872701 
L 856.77 70.872701 
" clip-path="url(#p3fa930e6c9)" style="fill: none; stroke: #b0b0b0; stroke-width: 0.8; stroke-linecap: square"/>
     </g>
     <g id="line2d_58">
      <g>
       <use xlink:href="#m3274622a65" x="476.15" y="70.872701" style="stroke: #000000; stroke-width: 0.8"/>
      </g>
     </g>
     <g id="text_34">
      <!-- 2.6 -->
      <g transform="translate(453.246875 74.671919) scale(0.1 -0.1)">
       <use xlink:href="#DejaVuSans-32"/>
       <use xlink:href="#DejaVuSans-2e" x="63.623047"/>
       <use xlink:href="#DejaVuSans-36" x="95.410156"/>
      </g>
     </g>
    </g>
    <g id="text_35">
     <!-- Evaluation Loss -->
     <g transform="translate(447.167187 223.278281) rotate(-90) scale(0.1 -0.1)">
      <defs>
       <path id="DejaVuSans-76" d="M 191 3500 
L 800 3500 
L 1894 563 
L 2988 3500 
L 3597 3500 
L 2284 0 
L 1503 0 
L 191 3500 
z
" transform="scale(0.015625)"/>
       <path id="DejaVuSans-6c" d="M 603 4863 
L 1178 4863 
L 1178 0 
L 603 0 
L 603 4863 
z
" transform="scale(0.015625)"/>
       <path id="DejaVuSans-75" d="M 544 1381 
L 544 3500 
L 1119 3500 
L 1119 1403 
Q 1119 906 1312 657 
Q 1506 409 1894 409 
Q 2359 409 2629 706 
Q 2900 1003 2900 1516 
L 2900 3500 
L 3475 3500 
L 3475 0 
L 2900 0 
L 2900 538 
Q 2691 219 2414 64 
Q 2138 -91 1772 -91 
Q 1169 -91 856 284 
Q 544 659 544 1381 
z
M 1991 3584 
L 1991 3584 
z
" transform="scale(0.015625)"/>
       <path id="DejaVuSans-74" d="M 1172 4494 
L 1172 3500 
L 2356 3500 
L 2356 3053 
L 1172 3053 
L 1172 1153 
Q 1172 725 1289 603 
Q 1406 481 1766 481 
L 2356 481 
L 2356 0 
L 1766 0 
Q 1100 0 847 248 
Q 594 497 594 1153 
L 594 3053 
L 172 3053 
L 172 3500 
L 594 3500 
L 594 4494 
L 1172 4494 
z
" transform="scale(0.015625)"/>
      </defs>
      <use xlink:href="#DejaVuSans-45"/>
      <use xlink:href="#DejaVuSans-76" x="63.183594"/>
      <use xlink:href="#DejaVuSans-61" x="122.363281"/>
      <use xlink:href="#DejaVuSans-6c" x="183.642578"/>
      <use xlink:href="#DejaVuSans-75" x="211.425781"/>
      <use xlink:href="#DejaVuSans-61" x="274.804688"/>
      <use xlink:href="#DejaVuSans-74" x="336.083984"/>
      <use xlink:href="#DejaVuSans-69" x="375.292969"/>
      <use xlink:href="#DejaVuSans-6f" x="403.076172"/>
      <use xlink:href="#DejaVuSans-6e" x="464.257812"/>
      <use xlink:href="#DejaVuSans-20" x="527.636719"/>
      <use xlink:href="#DejaVuSans-4c" x="559.423828"/>
      <use xlink:href="#DejaVuSans-6f" x="613.386719"/>
      <use xlink:href="#DejaVuSans-73" x="674.568359"/>
      <use xlink:href="#DejaVuSans-73" x="726.667969"/>
     </g>
    </g>
    <g id="text_36">
     <!-- 1e−5 -->
     <g transform="translate(476.15 47.64) scale(0.1 -0.1)">
      <use xlink:href="#DejaVuSans-31"/>
      <use xlink:href="#DejaVuSans-65" x="63.623047"/>
      <use xlink:href="#DejaVuSans-2212" x="125.146484"/>
      <use xlink:href="#DejaVuSans-35" x="208.935547"/>
     </g>
    </g>
   </g>
   <g id="line2d_59">
    <path d="M 493.450909 261.15138 
L 500.512505 261.752813 
L 507.5741 258.596379 
L 514.635696 251.530259 
L 521.697291 273.516693 
L 528.758887 269.346913 
L 535.820482 269.573093 
L 542.882078 263.114276 
L 549.943673 278.496518 
L 557.005269 281.540166 
L 564.066865 259.65951 
L 571.12846 286.803849 
L 578.190056 253.281067 
L 585.251651 276.345474 
L 592.313247 283.185185 
L 599.374842 275.225393 
L 606.436438 273.709728 
L 613.498033 273.629779 
L 620.559629 289.718919 
L 627.621224 255.438172 
L 634.68282 255.259854 
L 641.744416 271.136315 
L 648.806011 284.022369 
L 655.867607 228.167543 
L 662.929202 268.126426 
L 669.990798 220.965136 
L 677.052393 196.806033 
L 684.113989 205.969367 
L 691.175584 247.642555 
L 698.23718 269.715407 
L 705.298776 234.642079 
L 712.360371 228.779256 
L 719.421967 224.336243 
L 726.483562 234.915159 
L 733.545158 264.996422 
L 740.606753 211.131972 
L 747.668349 220.149541 
L 754.729944 177.254567 
L 761.79154 196.41907 
L 768.853135 201.178233 
L 775.914731 200.728522 
L 782.976327 218.239277 
L 790.037922 208.709603 
L 797.099518 236.18507 
L 804.161113 209.972546 
L 811.222709 209.147216 
L 818.284304 168.273976 
L 825.3459 217.3251 
L 832.407495 216.128819 
L 839.469091 155.29805 
" clip-path="url(#p3fa930e6c9)" style="fill: none; stroke: #1f77b4; stroke-width: 1.5; stroke-linecap: square"/>
   </g>
   <g id="line2d_60">
    <path d="M 493.450909 268.736544 
L 500.512505 261.043568 
L 507.5741 264.438219 
L 514.635696 269.513122 
L 521.697291 261.531095 
L 528.758887 279.317708 
L 535.820482 281.486565 
L 542.882078 267.462518 
L 549.943673 288.48816 
L 557.005269 189.591465 
L 564.066865 270.830044 
L 571.12846 291.313099 
L 578.190056 237.835856 
L 585.251651 250.225504 
L 592.313247 206.724824 
L 599.374842 269.049609 
L 606.436438 243.044293 
L 613.498033 226.743509 
L 620.559629 236.864401 
L 627.621224 173.98873 
L 634.68282 305.848128 
L 641.744416 262.566301 
L 648.806011 271.058535 
L 655.867607 263.660649 
L 662.929202 290.308066 
L 669.990798 297.842992 
L 677.052393 290.114977 
L 684.113989 279.88856 
L 691.175584 221.460549 
L 698.23718 262.464499 
L 705.298776 192.541192 
L 712.360371 300.851337 
L 719.421967 259.353985 
L 726.483562 305.885455 
L 733.545158 208.19491 
L 740.606753 253.765004 
L 747.668349 220.760067 
L 754.729944 123.898508 
L 761.79154 242.249741 
L 768.853135 285.091288 
L 775.914731 246.660685 
L 782.976327 162.141466 
L 790.037922 305.388593 
L 797.099518 62.794545 
L 804.161113 294.288356 
L 811.222709 256.969032 
L 818.284304 265.840753 
L 825.3459 202.522839 
L 832.407495 292.148348 
L 839.469091 288.252755 
" clip-path="url(#p3fa930e6c9)" style="fill: none; stroke: #ff7f0e; stroke-width: 1.5; stroke-linecap: square"/>
   </g>
   <g id="line2d_61">
    <path d="M 493.450909 252.13436 
L 500.512505 249.134176 
L 507.5741 246.660048 
L 514.635696 243.909161 
L 521.697291 244.044154 
L 528.758887 243.681687 
L 535.820482 243.278589 
L 542.882078 243.461884 
L 549.943673 243.759649 
L 557.005269 244.19927 
L 564.066865 244.300601 
L 571.12846 244.62182 
L 578.190056 245.694268 
L 585.251651 245.533308 
L 592.313247 245.999591 
L 599.374842 244.998851 
L 606.436438 247.26874 
L 613.498033 247.727889 
L 620.559629 248.67859 
L 627.621224 247.644985 
L 634.68282 249.153057 
L 641.744416 249.593745 
L 648.806011 249.464221 
L 655.867607 251.002849 
L 662.929202 252.366209 
L 669.990798 252.105257 
L 677.052393 253.059743 
L 684.113989 252.782129 
L 691.175584 252.450502 
L 698.23718 253.482707 
L 705.298776 253.563217 
L 712.360371 253.128125 
L 719.421967 254.214514 
L 726.483562 254.768165 
L 733.545158 253.852039 
L 740.606753 254.812131 
L 747.668349 254.56313 
L 754.729944 254.550034 
L 761.79154 255.99461 
L 768.853135 256.864491 
L 775.914731 257.031993 
L 782.976327 256.80429 
L 790.037922 256.375988 
L 797.099518 257.395092 
L 804.161113 257.134813 
L 811.222709 257.524144 
L 818.284304 258.285544 
L 825.3459 257.456757 
L 832.407495 259.121966 
L 839.469091 258.760961 
" clip-path="url(#p3fa930e6c9)" style="fill: none; stroke: #2ca02c; stroke-width: 1.5; stroke-linecap: square"/>
   </g>
   <g id="patch_9">
    <path d="M 476.15 318.04 
L 476.15 50.64 
" style="fill: none; stroke: #000000; stroke-width: 0.8; stroke-linejoin: miter; stroke-linecap: square"/>
   </g>
   <g id="patch_10">
    <path d="M 856.77 318.04 
L 856.77 50.64 
" style="fill: none; stroke: #000000; stroke-width: 0.8; stroke-linejoin: miter; stroke-linecap: square"/>
   </g>
   <g id="patch_11">
    <path d="M 476.15 318.04 
L 856.77 318.04 
" style="fill: none; stroke: #000000; stroke-width: 0.8; stroke-linejoin: miter; stroke-linecap: square"/>
   </g>
   <g id="patch_12">
    <path d="M 476.15 50.64 
L 856.77 50.64 
" style="fill: none; stroke: #000000; stroke-width: 0.8; stroke-linejoin: miter; stroke-linecap: square"/>
   </g>
   <g id="text_37">
    <!-- Evaluation Loss -->
    <g transform="translate(619.734063 44.64) scale(0.12 -0.12)">
     <use xlink:href="#DejaVuSans-45"/>
     <use xlink:href="#DejaVuSans-76" x="63.183594"/>
     <use xlink:href="#DejaVuSans-61" x="122.363281"/>
     <use xlink:href="#DejaVuSans-6c" x="183.642578"/>
     <use xlink:href="#DejaVuSans-75" x="211.425781"/>
     <use xlink:href="#DejaVuSans-61" x="274.804688"/>
     <use xlink:href="#DejaVuSans-74" x="336.083984"/>
     <use xlink:href="#DejaVuSans-69" x="375.292969"/>
     <use xlink:href="#DejaVuSans-6f" x="403.076172"/>
     <use xlink:href="#DejaVuSans-6e" x="464.257812"/>
     <use xlink:href="#DejaVuSans-20" x="527.636719"/>
     <use xlink:href="#DejaVuSans-4c" x="559.423828"/>
     <use xlink:href="#DejaVuSans-6f" x="613.386719"/>
     <use xlink:href="#DejaVuSans-73" x="674.568359"/>
     <use xlink:href="#DejaVuSans-73" x="726.667969"/>
    </g>
   </g>
   <g id="legend_2">
    <g id="patch_13">
     <path d="M 483.15 102.674375 
L 593.635937 102.674375 
Q 595.635937 102.674375 595.635937 100.674375 
L 595.635937 57.64 
Q 595.635937 55.64 593.635937 55.64 
L 483.15 55.64 
Q 481.15 55.64 481.15 57.64 
L 481.15 100.674375 
Q 481.15 102.674375 483.15 102.674375 
z
" style="fill: #ffffff; opacity: 0.8; stroke: #cccccc; stroke-linejoin: miter"/>
    </g>
    <g id="line2d_62">
     <path d="M 485.15 63.738437 
L 495.15 63.738437 
L 505.15 63.738437 
" style="fill: none; stroke: #1f77b4; stroke-width: 1.5; stroke-linecap: square"/>
    </g>
    <g id="text_38">
     <!-- w41z1 (0.0005) -->
     <g transform="translate(513.15 67.238437) scale(0.1 -0.1)">
      <use xlink:href="#DejaVuSans-77"/>
      <use xlink:href="#DejaVuSans-34" x="81.787109"/>
      <use xlink:href="#DejaVuSans-31" x="145.410156"/>
      <use xlink:href="#DejaVuSans-7a" x="209.033203"/>
      <use xlink:href="#DejaVuSans-31" x="261.523438"/>
      <use xlink:href="#DejaVuSans-20" x="325.146484"/>
      <use xlink:href="#DejaVuSans-28" x="356.933594"/>
      <use xlink:href="#DejaVuSans-30" x="395.947266"/>
      <use xlink:href="#DejaVuSans-2e" x="459.570312"/>
      <use xlink:href="#DejaVuSans-30" x="491.357422"/>
      <use xlink:href="#DejaVuSans-30" x="554.980469"/>
      <use xlink:href="#DejaVuSans-30" x="618.603516"/>
      <use xlink:href="#DejaVuSans-35" x="682.226562"/>
      <use xlink:href="#DejaVuSans-29" x="745.849609"/>
     </g>
    </g>
    <g id="line2d_63">
     <path d="M 485.15 78.416562 
L 495.15 78.416562 
L 505.15 78.416562 
" style="fill: none; stroke: #ff7f0e; stroke-width: 1.5; stroke-linecap: square"/>
    </g>
    <g id="text_39">
     <!-- 7yo77 (0.005) -->
     <g transform="translate(513.15 81.916562) scale(0.1 -0.1)">
      <use xlink:href="#DejaVuSans-37"/>
      <use xlink:href="#DejaVuSans-79" x="63.623047"/>
      <use xlink:href="#DejaVuSans-6f" x="122.802734"/>
      <use xlink:href="#DejaVuSans-37" x="183.984375"/>
      <use xlink:href="#DejaVuSans-37" x="247.607422"/>
      <use xlink:href="#DejaVuSans-20" x="311.230469"/>
      <use xlink:href="#DejaVuSans-28" x="343.017578"/>
      <use xlink:href="#DejaVuSans-30" x="382.03125"/>
      <use xlink:href="#DejaVuSans-2e" x="445.654297"/>
      <use xlink:href="#DejaVuSans-30" x="477.441406"/>
      <use xlink:href="#DejaVuSans-30" x="541.064453"/>
      <use xlink:href="#DejaVuSans-35" x="604.6875"/>
      <use xlink:href="#DejaVuSans-29" x="668.310547"/>
     </g>
    </g>
    <g id="line2d_64">
     <path d="M 485.15 93.094687 
L 495.15 93.094687 
L 505.15 93.094687 
" style="fill: none; stroke: #2ca02c; stroke-width: 1.5; stroke-linecap: square"/>
    </g>
    <g id="text_40">
     <!-- 2n6j7 (5e-05) -->
     <g transform="translate(513.15 96.594687) scale(0.1 -0.1)">
      <use xlink:href="#DejaVuSans-32"/>
      <use xlink:href="#DejaVuSans-6e" x="63.623047"/>
      <use xlink:href="#DejaVuSans-36" x="127.001953"/>
      <use xlink:href="#DejaVuSans-6a" x="190.625"/>
      <use xlink:href="#DejaVuSans-37" x="218.408203"/>
      <use xlink:href="#DejaVuSans-20" x="282.03125"/>
      <use xlink:href="#DejaVuSans-28" x="313.818359"/>
      <use xlink:href="#DejaVuSans-35" x="352.832031"/>
      <use xlink:href="#DejaVuSans-65" x="416.455078"/>
      <use xlink:href="#DejaVuSans-2d" x="477.978516"/>
      <use xlink:href="#DejaVuSans-30" x="514.0625"/>
      <use xlink:href="#DejaVuSans-35" x="577.685547"/>
      <use xlink:href="#DejaVuSans-29" x="641.308594"/>
     </g>
    </g>
   </g>
  </g>
  <g id="axes_3">
   <g id="patch_14">
    <path d="M 904.58 318.04 
L 1285.2 318.04 
L 1285.2 50.64 
L 904.58 50.64 
z
" style="fill: #ffffff"/>
   </g>
   <g id="matplotlib.axis_5">
    <g id="xtick_13">
     <g id="line2d_65">
      <path d="M 914.819314 318.04 
L 914.819314 50.64 
" clip-path="url(#pae11277c77)" style="fill: none; stroke: #b0b0b0; stroke-width: 0.8; stroke-linecap: square"/>
     </g>
     <g id="line2d_66">
      <g>
       <use xlink:href="#m134112e193" x="914.819314" y="318.04" style="stroke: #000000; stroke-width: 0.8"/>
      </g>
     </g>
     <g id="text_41">
      <!-- 0 -->
      <g transform="translate(911.638064 332.638438) scale(0.1 -0.1)">
       <use xlink:href="#DejaVuSans-30"/>
      </g>
     </g>
    </g>
    <g id="xtick_14">
     <g id="line2d_67">
      <path d="M 985.435269 318.04 
L 985.435269 50.64 
" clip-path="url(#pae11277c77)" style="fill: none; stroke: #b0b0b0; stroke-width: 0.8; stroke-linecap: square"/>
     </g>
     <g id="line2d_68">
      <g>
       <use xlink:href="#m134112e193" x="985.435269" y="318.04" style="stroke: #000000; stroke-width: 0.8"/>
      </g>
     </g>
     <g id="text_42">
      <!-- 10 -->
      <g transform="translate(979.072769 332.638438) scale(0.1 -0.1)">
       <use xlink:href="#DejaVuSans-31"/>
       <use xlink:href="#DejaVuSans-30" x="63.623047"/>
      </g>
     </g>
    </g>
    <g id="xtick_15">
     <g id="line2d_69">
      <path d="M 1056.051224 318.04 
L 1056.051224 50.64 
" clip-path="url(#pae11277c77)" style="fill: none; stroke: #b0b0b0; stroke-width: 0.8; stroke-linecap: square"/>
     </g>
     <g id="line2d_70">
      <g>
       <use xlink:href="#m134112e193" x="1056.051224" y="318.04" style="stroke: #000000; stroke-width: 0.8"/>
      </g>
     </g>
     <g id="text_43">
      <!-- 20 -->
      <g transform="translate(1049.688724 332.638438) scale(0.1 -0.1)">
       <use xlink:href="#DejaVuSans-32"/>
       <use xlink:href="#DejaVuSans-30" x="63.623047"/>
      </g>
     </g>
    </g>
    <g id="xtick_16">
     <g id="line2d_71">
      <path d="M 1126.66718 318.04 
L 1126.66718 50.64 
" clip-path="url(#pae11277c77)" style="fill: none; stroke: #b0b0b0; stroke-width: 0.8; stroke-linecap: square"/>
     </g>
     <g id="line2d_72">
      <g>
       <use xlink:href="#m134112e193" x="1126.66718" y="318.04" style="stroke: #000000; stroke-width: 0.8"/>
      </g>
     </g>
     <g id="text_44">
      <!-- 30 -->
      <g transform="translate(1120.30468 332.638438) scale(0.1 -0.1)">
       <use xlink:href="#DejaVuSans-33"/>
       <use xlink:href="#DejaVuSans-30" x="63.623047"/>
      </g>
     </g>
    </g>
    <g id="xtick_17">
     <g id="line2d_73">
      <path d="M 1197.283135 318.04 
L 1197.283135 50.64 
" clip-path="url(#pae11277c77)" style="fill: none; stroke: #b0b0b0; stroke-width: 0.8; stroke-linecap: square"/>
     </g>
     <g id="line2d_74">
      <g>
       <use xlink:href="#m134112e193" x="1197.283135" y="318.04" style="stroke: #000000; stroke-width: 0.8"/>
      </g>
     </g>
     <g id="text_45">
      <!-- 40 -->
      <g transform="translate(1190.920635 332.638438) scale(0.1 -0.1)">
       <use xlink:href="#DejaVuSans-34"/>
       <use xlink:href="#DejaVuSans-30" x="63.623047"/>
      </g>
     </g>
    </g>
    <g id="xtick_18">
     <g id="line2d_75">
      <path d="M 1267.899091 318.04 
L 1267.899091 50.64 
" clip-path="url(#pae11277c77)" style="fill: none; stroke: #b0b0b0; stroke-width: 0.8; stroke-linecap: square"/>
     </g>
     <g id="line2d_76">
      <g>
       <use xlink:href="#m134112e193" x="1267.899091" y="318.04" style="stroke: #000000; stroke-width: 0.8"/>
      </g>
     </g>
     <g id="text_46">
      <!-- 50 -->
      <g transform="translate(1261.536591 332.638438) scale(0.1 -0.1)">
       <use xlink:href="#DejaVuSans-35"/>
       <use xlink:href="#DejaVuSans-30" x="63.623047"/>
      </g>
     </g>
    </g>
    <g id="text_47">
     <!-- Epoch -->
     <g transform="translate(1079.579063 346.316563) scale(0.1 -0.1)">
      <use xlink:href="#DejaVuSans-45"/>
      <use xlink:href="#DejaVuSans-70" x="63.183594"/>
      <use xlink:href="#DejaVuSans-6f" x="126.660156"/>
      <use xlink:href="#DejaVuSans-63" x="187.841797"/>
      <use xlink:href="#DejaVuSans-68" x="242.822266"/>
     </g>
    </g>
   </g>
   <g id="matplotlib.axis_6">
    <g id="ytick_15">
     <g id="line2d_77">
      <path d="M 904.58 318.04 
L 1285.2 318.04 
" clip-path="url(#pae11277c77)" style="fill: none; stroke: #b0b0b0; stroke-width: 0.8; stroke-linecap: square"/>
     </g>
     <g id="line2d_78">
      <g>
       <use xlink:href="#m3274622a65" x="904.58" y="318.04" style="stroke: #000000; stroke-width: 0.8"/>
      </g>
     </g>
     <g id="text_48">
      <!-- 0.0 -->
      <g transform="translate(881.676875 321.839219) scale(0.1 -0.1)">
       <use xlink:href="#DejaVuSans-30"/>
       <use xlink:href="#DejaVuSans-2e" x="63.623047"/>
       <use xlink:href="#DejaVuSans-30" x="95.410156"/>
      </g>
     </g>
    </g>
    <g id="ytick_16">
     <g id="line2d_79">
      <path d="M 904.58 264.56 
L 1285.2 264.56 
" clip-path="url(#pae11277c77)" style="fill: none; stroke: #b0b0b0; stroke-width: 0.8; stroke-linecap: square"/>
     </g>
     <g id="line2d_80">
      <g>
       <use xlink:href="#m3274622a65" x="904.58" y="264.56" style="stroke: #000000; stroke-width: 0.8"/>
      </g>
     </g>
     <g id="text_49">
      <!-- 0.2 -->
      <g transform="translate(881.676875 268.359219) scale(0.1 -0.1)">
       <use xlink:href="#DejaVuSans-30"/>
       <use xlink:href="#DejaVuSans-2e" x="63.623047"/>
       <use xlink:href="#DejaVuSans-32" x="95.410156"/>
      </g>
     </g>
    </g>
    <g id="ytick_17">
     <g id="line2d_81">
      <path d="M 904.58 211.08 
L 1285.2 211.08 
" clip-path="url(#pae11277c77)" style="fill: none; stroke: #b0b0b0; stroke-width: 0.8; stroke-linecap: square"/>
     </g>
     <g id="line2d_82">
      <g>
       <use xlink:href="#m3274622a65" x="904.58" y="211.08" style="stroke: #000000; stroke-width: 0.8"/>
      </g>
     </g>
     <g id="text_50">
      <!-- 0.4 -->
      <g transform="translate(881.676875 214.879219) scale(0.1 -0.1)">
       <use xlink:href="#DejaVuSans-30"/>
       <use xlink:href="#DejaVuSans-2e" x="63.623047"/>
       <use xlink:href="#DejaVuSans-34" x="95.410156"/>
      </g>
     </g>
    </g>
    <g id="ytick_18">
     <g id="line2d_83">
      <path d="M 904.58 157.6 
L 1285.2 157.6 
" clip-path="url(#pae11277c77)" style="fill: none; stroke: #b0b0b0; stroke-width: 0.8; stroke-linecap: square"/>
     </g>
     <g id="line2d_84">
      <g>
       <use xlink:href="#m3274622a65" x="904.58" y="157.6" style="stroke: #000000; stroke-width: 0.8"/>
      </g>
     </g>
     <g id="text_51">
      <!-- 0.6 -->
      <g transform="translate(881.676875 161.399219) scale(0.1 -0.1)">
       <use xlink:href="#DejaVuSans-30"/>
       <use xlink:href="#DejaVuSans-2e" x="63.623047"/>
       <use xlink:href="#DejaVuSans-36" x="95.410156"/>
      </g>
     </g>
    </g>
    <g id="ytick_19">
     <g id="line2d_85">
      <path d="M 904.58 104.12 
L 1285.2 104.12 
" clip-path="url(#pae11277c77)" style="fill: none; stroke: #b0b0b0; stroke-width: 0.8; stroke-linecap: square"/>
     </g>
     <g id="line2d_86">
      <g>
       <use xlink:href="#m3274622a65" x="904.58" y="104.12" style="stroke: #000000; stroke-width: 0.8"/>
      </g>
     </g>
     <g id="text_52">
      <!-- 0.8 -->
      <g transform="translate(881.676875 107.919219) scale(0.1 -0.1)">
       <use xlink:href="#DejaVuSans-30"/>
       <use xlink:href="#DejaVuSans-2e" x="63.623047"/>
       <use xlink:href="#DejaVuSans-38" x="95.410156"/>
      </g>
     </g>
    </g>
    <g id="ytick_20">
     <g id="line2d_87">
      <path d="M 904.58 50.64 
L 1285.2 50.64 
" clip-path="url(#pae11277c77)" style="fill: none; stroke: #b0b0b0; stroke-width: 0.8; stroke-linecap: square"/>
     </g>
     <g id="line2d_88">
      <g>
       <use xlink:href="#m3274622a65" x="904.58" y="50.64" style="stroke: #000000; stroke-width: 0.8"/>
      </g>
     </g>
     <g id="text_53">
      <!-- 1.0 -->
      <g transform="translate(881.676875 54.439219) scale(0.1 -0.1)">
       <use xlink:href="#DejaVuSans-31"/>
       <use xlink:href="#DejaVuSans-2e" x="63.623047"/>
       <use xlink:href="#DejaVuSans-30" x="95.410156"/>
      </g>
     </g>
    </g>
    <g id="text_54">
     <!-- Correct Rate -->
     <g transform="translate(875.597188 215.639219) rotate(-90) scale(0.1 -0.1)">
      <defs>
       <path id="DejaVuSans-43" d="M 4122 4306 
L 4122 3641 
Q 3803 3938 3442 4084 
Q 3081 4231 2675 4231 
Q 1875 4231 1450 3742 
Q 1025 3253 1025 2328 
Q 1025 1406 1450 917 
Q 1875 428 2675 428 
Q 3081 428 3442 575 
Q 3803 722 4122 1019 
L 4122 359 
Q 3791 134 3420 21 
Q 3050 -91 2638 -91 
Q 1578 -91 968 557 
Q 359 1206 359 2328 
Q 359 3453 968 4101 
Q 1578 4750 2638 4750 
Q 3056 4750 3426 4639 
Q 3797 4528 4122 4306 
z
" transform="scale(0.015625)"/>
       <path id="DejaVuSans-52" d="M 2841 2188 
Q 3044 2119 3236 1894 
Q 3428 1669 3622 1275 
L 4263 0 
L 3584 0 
L 2988 1197 
Q 2756 1666 2539 1819 
Q 2322 1972 1947 1972 
L 1259 1972 
L 1259 0 
L 628 0 
L 628 4666 
L 2053 4666 
Q 2853 4666 3247 4331 
Q 3641 3997 3641 3322 
Q 3641 2881 3436 2590 
Q 3231 2300 2841 2188 
z
M 1259 4147 
L 1259 2491 
L 2053 2491 
Q 2509 2491 2742 2702 
Q 2975 2913 2975 3322 
Q 2975 3731 2742 3939 
Q 2509 4147 2053 4147 
L 1259 4147 
z
" transform="scale(0.015625)"/>
      </defs>
      <use xlink:href="#DejaVuSans-43"/>
      <use xlink:href="#DejaVuSans-6f" x="69.824219"/>
      <use xlink:href="#DejaVuSans-72" x="131.005859"/>
      <use xlink:href="#DejaVuSans-72" x="170.369141"/>
      <use xlink:href="#DejaVuSans-65" x="209.232422"/>
      <use xlink:href="#DejaVuSans-63" x="270.755859"/>
      <use xlink:href="#DejaVuSans-74" x="325.736328"/>
      <use xlink:href="#DejaVuSans-20" x="364.945312"/>
      <use xlink:href="#DejaVuSans-52" x="396.732422"/>
      <use xlink:href="#DejaVuSans-61" x="463.964844"/>
      <use xlink:href="#DejaVuSans-74" x="525.244141"/>
      <use xlink:href="#DejaVuSans-65" x="564.453125"/>
     </g>
    </g>
   </g>
   <g id="line2d_89">
    <path d="M 921.880909 184.867969 
L 928.942505 184.810223 
L 936.0041 207.488158 
L 943.065696 183.020077 
L 950.127291 173.137149 
L 957.188887 173.887856 
L 964.250482 171.107767 
L 971.312078 166.818016 
L 978.373673 167.684215 
L 985.435269 162.404522 
L 992.496865 164.095673 
L 999.55846 157.842536 
L 1006.620056 160.111154 
L 1013.681651 158.271511 
L 1020.743247 162.586011 
L 1027.804842 167.502726 
L 1034.866438 166.56228 
L 1041.928033 160.944356 
L 1048.989629 157.685795 
L 1056.051224 146.532442 
L 1063.11282 156.695852 
L 1070.174416 147.225401 
L 1077.236011 143.207884 
L 1084.297607 162.858245 
L 1091.359202 148.784561 
L 1098.420798 154.427234 
L 1105.482393 155.293434 
L 1112.543989 159.632682 
L 1119.605584 145.550748 
L 1126.66718 143.504867 
L 1133.728776 149.287782 
L 1140.790371 150.813943 
L 1147.851967 145.707489 
L 1154.913562 147.901862 
L 1161.975158 138.126179 
L 1169.036753 147.76162 
L 1176.098349 133.894174 
L 1183.159944 143.009896 
L 1190.22154 142.688164 
L 1197.283135 143.174886 
L 1204.344731 153.924013 
L 1211.406327 135.486332 
L 1218.467922 132.747491 
L 1225.529518 140.188559 
L 1232.591113 138.043684 
L 1239.652709 153.140309 
L 1246.714304 154.385986 
L 1253.7759 138.043684 
L 1260.837495 149.378527 
L 1267.899091 159.211957 
" clip-path="url(#pae11277c77)" style="fill: none; stroke: #1f77b4; stroke-width: 1.5; stroke-linecap: square"/>
   </g>
   <g id="line2d_90">
    <path d="M 921.880909 200.451316 
L 928.942505 198.710667 
L 936.0041 228.598685 
L 943.065696 202.373455 
L 950.127291 160.787615 
L 957.188887 222.708526 
L 964.250482 181.337174 
L 971.312078 212.594612 
L 978.373673 167.997697 
L 985.435269 224.201689 
L 992.496865 205.326783 
L 999.55846 175.471764 
L 1006.620056 179.208797 
L 1013.681651 204.361589 
L 1020.743247 220.274917 
L 1027.804842 190.081667 
L 1034.866438 195.608847 
L 1041.928033 202.249712 
L 1048.989629 187.210834 
L 1056.051224 205.640265 
L 1063.11282 172.732923 
L 1070.174416 213.196827 
L 1077.236011 185.965156 
L 1084.297607 209.963015 
L 1091.359202 162.173535 
L 1098.420798 163.047984 
L 1105.482393 139.198617 
L 1112.543989 186.121897 
L 1119.605584 215.844924 
L 1126.66718 153.313548 
L 1133.728776 207.958381 
L 1140.790371 153.519787 
L 1147.851967 194.206428 
L 1154.913562 166.958258 
L 1161.975158 175.084037 
L 1169.036753 205.145294 
L 1176.098349 157.94978 
L 1183.159944 218.278533 
L 1190.22154 176.857684 
L 1197.283135 162.544763 
L 1204.344731 205.137044 
L 1211.406327 219.177731 
L 1218.467922 138.546904 
L 1225.529518 221.198863 
L 1232.591113 157.958029 
L 1239.652709 183.531547 
L 1246.714304 158.956221 
L 1253.7759 208.519348 
L 1260.837495 164.16167 
L 1267.899091 154.748965 
" clip-path="url(#pae11277c77)" style="fill: none; stroke: #ff7f0e; stroke-width: 1.5; stroke-linecap: square"/>
   </g>
   <g id="line2d_91">
    <path d="M 921.880909 200.863792 
L 928.942505 199.750107 
L 936.0041 197.522736 
L 943.065696 196.318306 
L 950.127291 195.518102 
L 957.188887 194.891138 
L 964.250482 194.635403 
L 971.312078 193.777453 
L 978.373673 193.13399 
L 985.435269 192.630769 
L 992.496865 192.317288 
L 999.55846 191.781069 
L 1006.620056 191.24485 
L 1013.681651 190.766377 
L 1020.743247 190.221909 
L 1027.804842 190.21366 
L 1034.866438 190.03217 
L 1041.928033 189.421705 
L 1048.989629 189.025728 
L 1056.051224 188.82774 
L 1063.11282 188.431763 
L 1070.174416 187.903793 
L 1077.236011 187.730553 
L 1084.297607 187.400573 
L 1091.359202 186.460127 
L 1098.420798 186.088899 
L 1105.482393 185.882661 
L 1112.543989 185.923908 
L 1119.605584 185.503183 
L 1126.66718 185.107206 
L 1133.728776 184.752476 
L 1140.790371 184.092514 
L 1147.851967 183.886276 
L 1154.913562 183.440802 
L 1161.975158 182.739593 
L 1169.036753 182.739593 
L 1176.098349 183.13557 
L 1183.159944 183.416054 
L 1190.22154 182.335366 
L 1197.283135 181.609408 
L 1204.344731 181.419669 
L 1211.406327 180.743208 
L 1218.467922 180.231738 
L 1225.529518 180.322483 
L 1232.591113 178.12811 
L 1239.652709 177.930122 
L 1246.714304 177.897123 
L 1253.7759 176.329714 
L 1260.837495 176.527703 
L 1267.899091 176.973177 
" clip-path="url(#pae11277c77)" style="fill: none; stroke: #2ca02c; stroke-width: 1.5; stroke-linecap: square"/>
   </g>
   <g id="patch_15">
    <path d="M 904.58 318.04 
L 904.58 50.64 
" style="fill: none; stroke: #000000; stroke-width: 0.8; stroke-linejoin: miter; stroke-linecap: square"/>
   </g>
   <g id="patch_16">
    <path d="M 1285.2 318.04 
L 1285.2 50.64 
" style="fill: none; stroke: #000000; stroke-width: 0.8; stroke-linejoin: miter; stroke-linecap: square"/>
   </g>
   <g id="patch_17">
    <path d="M 904.58 318.04 
L 1285.2 318.04 
" style="fill: none; stroke: #000000; stroke-width: 0.8; stroke-linejoin: miter; stroke-linecap: square"/>
   </g>
   <g id="patch_18">
    <path d="M 904.58 50.64 
L 1285.2 50.64 
" style="fill: none; stroke: #000000; stroke-width: 0.8; stroke-linejoin: miter; stroke-linecap: square"/>
   </g>
   <g id="text_55">
    <!-- Correct Rate -->
    <g transform="translate(1057.330938 44.64) scale(0.12 -0.12)">
     <use xlink:href="#DejaVuSans-43"/>
     <use xlink:href="#DejaVuSans-6f" x="69.824219"/>
     <use xlink:href="#DejaVuSans-72" x="131.005859"/>
     <use xlink:href="#DejaVuSans-72" x="170.369141"/>
     <use xlink:href="#DejaVuSans-65" x="209.232422"/>
     <use xlink:href="#DejaVuSans-63" x="270.755859"/>
     <use xlink:href="#DejaVuSans-74" x="325.736328"/>
     <use xlink:href="#DejaVuSans-20" x="364.945312"/>
     <use xlink:href="#DejaVuSans-52" x="396.732422"/>
     <use xlink:href="#DejaVuSans-61" x="463.964844"/>
     <use xlink:href="#DejaVuSans-74" x="525.244141"/>
     <use xlink:href="#DejaVuSans-65" x="564.453125"/>
    </g>
   </g>
   <g id="legend_3">
    <g id="patch_19">
     <path d="M 1167.714063 102.674375 
L 1278.2 102.674375 
Q 1280.2 102.674375 1280.2 100.674375 
L 1280.2 57.64 
Q 1280.2 55.64 1278.2 55.64 
L 1167.714063 55.64 
Q 1165.714063 55.64 1165.714063 57.64 
L 1165.714063 100.674375 
Q 1165.714063 102.674375 1167.714063 102.674375 
z
" style="fill: #ffffff; opacity: 0.8; stroke: #cccccc; stroke-linejoin: miter"/>
    </g>
    <g id="line2d_92">
     <path d="M 1169.714063 63.738437 
L 1179.714063 63.738437 
L 1189.714063 63.738437 
" style="fill: none; stroke: #1f77b4; stroke-width: 1.5; stroke-linecap: square"/>
    </g>
    <g id="text_56">
     <!-- w41z1 (0.0005) -->
     <g transform="translate(1197.714063 67.238437) scale(0.1 -0.1)">
      <use xlink:href="#DejaVuSans-77"/>
      <use xlink:href="#DejaVuSans-34" x="81.787109"/>
      <use xlink:href="#DejaVuSans-31" x="145.410156"/>
      <use xlink:href="#DejaVuSans-7a" x="209.033203"/>
      <use xlink:href="#DejaVuSans-31" x="261.523438"/>
      <use xlink:href="#DejaVuSans-20" x="325.146484"/>
      <use xlink:href="#DejaVuSans-28" x="356.933594"/>
      <use xlink:href="#DejaVuSans-30" x="395.947266"/>
      <use xlink:href="#DejaVuSans-2e" x="459.570312"/>
      <use xlink:href="#DejaVuSans-30" x="491.357422"/>
      <use xlink:href="#DejaVuSans-30" x="554.980469"/>
      <use xlink:href="#DejaVuSans-30" x="618.603516"/>
      <use xlink:href="#DejaVuSans-35" x="682.226562"/>
      <use xlink:href="#DejaVuSans-29" x="745.849609"/>
     </g>
    </g>
    <g id="line2d_93">
     <path d="M 1169.714063 78.416562 
L 1179.714063 78.416562 
L 1189.714063 78.416562 
" style="fill: none; stroke: #ff7f0e; stroke-width: 1.5; stroke-linecap: square"/>
    </g>
    <g id="text_57">
     <!-- 7yo77 (0.005) -->
     <g transform="translate(1197.714063 81.916562) scale(0.1 -0.1)">
      <use xlink:href="#DejaVuSans-37"/>
      <use xlink:href="#DejaVuSans-79" x="63.623047"/>
      <use xlink:href="#DejaVuSans-6f" x="122.802734"/>
      <use xlink:href="#DejaVuSans-37" x="183.984375"/>
      <use xlink:href="#DejaVuSans-37" x="247.607422"/>
      <use xlink:href="#DejaVuSans-20" x="311.230469"/>
      <use xlink:href="#DejaVuSans-28" x="343.017578"/>
      <use xlink:href="#DejaVuSans-30" x="382.03125"/>
      <use xlink:href="#DejaVuSans-2e" x="445.654297"/>
      <use xlink:href="#DejaVuSans-30" x="477.441406"/>
      <use xlink:href="#DejaVuSans-30" x="541.064453"/>
      <use xlink:href="#DejaVuSans-35" x="604.6875"/>
      <use xlink:href="#DejaVuSans-29" x="668.310547"/>
     </g>
    </g>
    <g id="line2d_94">
     <path d="M 1169.714063 93.094687 
L 1179.714063 93.094687 
L 1189.714063 93.094687 
" style="fill: none; stroke: #2ca02c; stroke-width: 1.5; stroke-linecap: square"/>
    </g>
    <g id="text_58">
     <!-- 2n6j7 (5e-05) -->
     <g transform="translate(1197.714063 96.594687) scale(0.1 -0.1)">
      <use xlink:href="#DejaVuSans-32"/>
      <use xlink:href="#DejaVuSans-6e" x="63.623047"/>
      <use xlink:href="#DejaVuSans-36" x="127.001953"/>
      <use xlink:href="#DejaVuSans-6a" x="190.625"/>
      <use xlink:href="#DejaVuSans-37" x="218.408203"/>
      <use xlink:href="#DejaVuSans-20" x="282.03125"/>
      <use xlink:href="#DejaVuSans-28" x="313.818359"/>
      <use xlink:href="#DejaVuSans-35" x="352.832031"/>
      <use xlink:href="#DejaVuSans-65" x="416.455078"/>
      <use xlink:href="#DejaVuSans-2d" x="477.978516"/>
      <use xlink:href="#DejaVuSans-30" x="514.0625"/>
      <use xlink:href="#DejaVuSans-35" x="577.685547"/>
      <use xlink:href="#DejaVuSans-29" x="641.308594"/>
     </g>
    </g>
   </g>
  </g>
  <g id="text_59">
   <!-- models architecture A (varying lr) -->
   <g transform="translate(546.82125 16.318125) scale(0.12 -0.12)">
    <defs>
     <path id="DejaVuSans-6d" d="M 3328 2828 
Q 3544 3216 3844 3400 
Q 4144 3584 4550 3584 
Q 5097 3584 5394 3201 
Q 5691 2819 5691 2113 
L 5691 0 
L 5113 0 
L 5113 2094 
Q 5113 2597 4934 2840 
Q 4756 3084 4391 3084 
Q 3944 3084 3684 2787 
Q 3425 2491 3425 1978 
L 3425 0 
L 2847 0 
L 2847 2094 
Q 2847 2600 2669 2842 
Q 2491 3084 2119 3084 
Q 1678 3084 1418 2786 
Q 1159 2488 1159 1978 
L 1159 0 
L 581 0 
L 581 3500 
L 1159 3500 
L 1159 2956 
Q 1356 3278 1631 3431 
Q 1906 3584 2284 3584 
Q 2666 3584 2933 3390 
Q 3200 3197 3328 2828 
z
" transform="scale(0.015625)"/>
     <path id="DejaVuSans-64" d="M 2906 2969 
L 2906 4863 
L 3481 4863 
L 3481 0 
L 2906 0 
L 2906 525 
Q 2725 213 2448 61 
Q 2172 -91 1784 -91 
Q 1150 -91 751 415 
Q 353 922 353 1747 
Q 353 2572 751 3078 
Q 1150 3584 1784 3584 
Q 2172 3584 2448 3432 
Q 2725 3281 2906 2969 
z
M 947 1747 
Q 947 1113 1208 752 
Q 1469 391 1925 391 
Q 2381 391 2643 752 
Q 2906 1113 2906 1747 
Q 2906 2381 2643 2742 
Q 2381 3103 1925 3103 
Q 1469 3103 1208 2742 
Q 947 2381 947 1747 
z
" transform="scale(0.015625)"/>
     <path id="DejaVuSans-41" d="M 2188 4044 
L 1331 1722 
L 3047 1722 
L 2188 4044 
z
M 1831 4666 
L 2547 4666 
L 4325 0 
L 3669 0 
L 3244 1197 
L 1141 1197 
L 716 0 
L 50 0 
L 1831 4666 
z
" transform="scale(0.015625)"/>
    </defs>
    <use xlink:href="#DejaVuSans-6d"/>
    <use xlink:href="#DejaVuSans-6f" x="97.412109"/>
    <use xlink:href="#DejaVuSans-64" x="158.59375"/>
    <use xlink:href="#DejaVuSans-65" x="222.070312"/>
    <use xlink:href="#DejaVuSans-6c" x="283.59375"/>
    <use xlink:href="#DejaVuSans-73" x="311.376953"/>
    <use xlink:href="#DejaVuSans-20" x="363.476562"/>
    <use xlink:href="#DejaVuSans-61" x="395.263672"/>
    <use xlink:href="#DejaVuSans-72" x="456.542969"/>
    <use xlink:href="#DejaVuSans-63" x="495.40625"/>
    <use xlink:href="#DejaVuSans-68" x="550.386719"/>
    <use xlink:href="#DejaVuSans-69" x="613.765625"/>
    <use xlink:href="#DejaVuSans-74" x="641.548828"/>
    <use xlink:href="#DejaVuSans-65" x="680.757812"/>
    <use xlink:href="#DejaVuSans-63" x="742.28125"/>
    <use xlink:href="#DejaVuSans-74" x="797.261719"/>
    <use xlink:href="#DejaVuSans-75" x="836.470703"/>
    <use xlink:href="#DejaVuSans-72" x="899.849609"/>
    <use xlink:href="#DejaVuSans-65" x="938.712891"/>
    <use xlink:href="#DejaVuSans-20" x="1000.236328"/>
    <use xlink:href="#DejaVuSans-41" x="1032.023438"/>
    <use xlink:href="#DejaVuSans-20" x="1100.431641"/>
    <use xlink:href="#DejaVuSans-28" x="1132.21875"/>
    <use xlink:href="#DejaVuSans-76" x="1171.232422"/>
    <use xlink:href="#DejaVuSans-61" x="1230.412109"/>
    <use xlink:href="#DejaVuSans-72" x="1291.691406"/>
    <use xlink:href="#DejaVuSans-79" x="1332.804688"/>
    <use xlink:href="#DejaVuSans-69" x="1391.984375"/>
    <use xlink:href="#DejaVuSans-6e" x="1419.767578"/>
    <use xlink:href="#DejaVuSans-67" x="1483.146484"/>
    <use xlink:href="#DejaVuSans-20" x="1546.623047"/>
    <use xlink:href="#DejaVuSans-6c" x="1578.410156"/>
    <use xlink:href="#DejaVuSans-72" x="1606.193359"/>
    <use xlink:href="#DejaVuSans-29" x="1647.306641"/>
   </g>
  </g>
 </g>
 <defs>
  <clipPath id="p9571cddd60">
   <rect x="47.72" y="50.64" width="380.62" height="267.4"/>
  </clipPath>
  <clipPath id="p3fa930e6c9">
   <rect x="476.15" y="50.64" width="380.62" height="267.4"/>
  </clipPath>
  <clipPath id="pae11277c77">
   <rect x="904.58" y="50.64" width="380.62" height="267.4"/>
  </clipPath>
 </defs>
</svg>
